<svg xmlns="http://www.w3.org/2000/svg" viewBox="0 0 61.78 61.31"><defs><style>.cls-1{fill:#172242;}.cls-2{fill:#50dab0;}</style></defs><title>750000-people-graphic</title><g id="Layer_2" data-name="Layer 2"><g id="Layer_2-2" data-name="Layer 2"><path class="cls-1" d="M41,15.49V13.68a4.24,4.24,0,0,1-.55-1.45c-.2,0-.47-.3-.76-1.32-.39-1.39,0-1.6.38-1.56h0A3.5,3.5,0,0,1,40,8.79,4.11,4.11,0,0,1,40,7,4,4,0,0,1,41,5.09a5.09,5.09,0,0,1,1-.84,3.82,3.82,0,0,1,1-.49,3.23,3.23,0,0,1,.87-.17,3.6,3.6,0,0,1,2.21.46,2.76,2.76,0,0,1,1.07,1s1.78.13,1.17,3.73a3.56,3.56,0,0,1-.16.55c.35,0,.77.17.38,1.56-.29,1-.55,1.3-.76,1.32a4.16,4.16,0,0,1-.55,1.44v1.83h0a.17.17,0,0,0,.09.16,30.32,30.32,0,0,1,5.45,3.49,1.88,1.88,0,0,1,.7,1.46v1.88a.76.76,0,0,1-.76.76H10.16a.76.76,0,0,1-.76-.76V20.59a1.88,1.88,0,0,1,.69-1.45,30.25,30.25,0,0,1,5.45-3.52.17.17,0,0,0,.09-.16V13.68a4.24,4.24,0,0,1-.55-1.45c-.2,0-.47-.3-.76-1.32-.39-1.39,0-1.6.38-1.56h0a3.74,3.74,0,0,1-.16-.55,4.11,4.11,0,0,1,0-1.83,4,4,0,0,1,1.07-1.88,5.13,5.13,0,0,1,1-.82,3.89,3.89,0,0,1,1-.49,3.23,3.23,0,0,1,.87-.17,3.62,3.62,0,0,1,2.21.46,2.73,2.73,0,0,1,1.07,1S23.5,5.2,22.9,8.8a3.56,3.56,0,0,1-.16.55c.35,0,.77.17.38,1.56-.29,1-.55,1.3-.76,1.32a4.15,4.15,0,0,1-.55,1.44V15.5a.17.17,0,0,0,.09.15c.24.12.89.44,1.75.95h0a36.55,36.55,0,0,1,4-2.32.19.19,0,0,0,.11-.18V12a5.06,5.06,0,0,1-.63-1.72c-.24,0-.55-.36-.89-1.56-.46-1.66,0-1.89.45-1.85h0a4.31,4.31,0,0,1-.18-.67A4.83,4.83,0,0,1,26.5,4a4.72,4.72,0,0,1,1.26-2.21,6.14,6.14,0,0,1,1.17-1A4.57,4.57,0,0,1,30.08.22a3.84,3.84,0,0,1,1-.2,4.26,4.26,0,0,1,2.59.55A3.22,3.22,0,0,1,35,1.75s2.1.15,1.39,4.41a4.25,4.25,0,0,1-.18.67c.42,0,.91.2.45,1.85-.34,1.2-.66,1.54-.89,1.56h0a4.92,4.92,0,0,1-.63,1.69V14.1h0a.2.2,0,0,0,.11.18,36.34,36.34,0,0,1,4,2.32c.86-.5,1.51-.83,1.75-.95h0a.17.17,0,0,0,.11-.16ZM20.68,46.6h0A25.09,25.09,0,0,0,23.52,54a17.46,17.46,0,0,1-7.46-7.43Zm8.76,0v8.28c-1.87-1.26-3.63-4.2-4.66-8.28Zm4,0H38.1c-1,4.06-2.79,7-4.66,8.27Zm8.76,0h4.62A17.43,17.43,0,0,1,39.35,54,25.09,25.09,0,0,0,42.2,46.6ZM29.12,61.19a22.65,22.65,0,0,0,24.71-26.1.34.34,0,0,0-.34-.29H48.75a.34.34,0,0,0-.27.13.35.35,0,0,0-.07.29,17,17,0,0,1,.36,3.42,17.37,17.37,0,0,1-.48,4H42.84a38.3,38.3,0,0,0,.19-4c0-1.2-.06-2.38-.17-3.52a.34.34,0,0,0-.34-.31H39.21a.34.34,0,0,0-.25.11.34.34,0,0,0-.09.26c.11,1.1.18,2.26.18,3.46a35,35,0,0,1-.23,4H33.44V35.14a.34.34,0,0,0-.34-.34H29.78a.34.34,0,0,0-.34.34V42.6H24.06a35,35,0,0,1-.23-4c0-1.2.07-2.35.18-3.46a.34.34,0,0,0-.09-.26.35.35,0,0,0-.25-.11H20.36a.34.34,0,0,0-.34.31c-.11,1.14-.17,2.32-.17,3.52h0a38.83,38.83,0,0,0,.21,4H14.58a16.61,16.61,0,0,1-.12-7.4.34.34,0,0,0-.07-.28.35.35,0,0,0-.26-.13H9.37a.35.35,0,0,0-.34.29,22.62,22.62,0,0,0,20.1,26.11Z"/><path class="cls-2" d="M7.77,23.45,4,35.46a1.15,1.15,0,0,1-1.17.88A1.24,1.24,0,0,1,1.5,35.13a.92.92,0,0,1,.07-.42L5.05,23.56H2.56v.26A1.22,1.22,0,0,1,1.28,25.1,1.22,1.22,0,0,1,0,23.82V22.3A1.31,1.31,0,0,1,1.28,21H6.66A1.29,1.29,0,0,1,7.92,22.3v.37A3.21,3.21,0,0,1,7.77,23.45Z"/><path class="cls-2" d="M13.82,36.34h-.24a3.37,3.37,0,0,1-3.69-3.68,1.22,1.22,0,0,1,1.28-1.28,1.22,1.22,0,0,1,1.28,1.28,1.17,1.17,0,0,0,1.13,1.17h.24a1.29,1.29,0,0,0,1.26-1.3V29.46a1.29,1.29,0,0,0-1.26-1.3h-.24a1.18,1.18,0,0,0-1.1.68,1.24,1.24,0,0,1-1.1.51A1.29,1.29,0,0,1,10,28V22.3A1.31,1.31,0,0,1,11.28,21h4.63a1.27,1.27,0,1,1,0,2.53H12.56v2.29a2.15,2.15,0,0,1,1-.22h.24a3.69,3.69,0,0,1,3.82,3.68v3.39A3.66,3.66,0,0,1,13.82,36.34Z"/><path class="cls-2" d="M23.71,36.34h-.22a3.61,3.61,0,0,1-3.84-3.57v-8.3a3.64,3.64,0,0,1,3.84-3.59h.22a3.62,3.62,0,0,1,3.82,3.59v8.3A3.59,3.59,0,0,1,23.71,36.34ZM25,24.59a1.17,1.17,0,0,0-1.26-1.17h-.22a1.19,1.19,0,0,0-1.28,1.17v8.08a1.19,1.19,0,0,0,1.28,1.17h.22A1.17,1.17,0,0,0,25,32.67Z"/><path class="cls-2" d="M31,38.79l-.29.31a1.27,1.27,0,0,1-.93.4,1.2,1.2,0,0,1-1.28-1.19,1.16,1.16,0,0,1,.33-.79l.33-.35a1.73,1.73,0,0,0,.57-1.56v-.73A1.14,1.14,0,0,1,31,33.72a1.13,1.13,0,0,1,1.21,1.14v.73A4,4,0,0,1,31,38.79Z"/><path class="cls-2" d="M38.27,36.34h-.22a3.61,3.61,0,0,1-3.84-3.57v-8.3a3.64,3.64,0,0,1,3.84-3.59h.22a3.62,3.62,0,0,1,3.82,3.59v8.3A3.59,3.59,0,0,1,38.27,36.34Zm1.26-11.75a1.17,1.17,0,0,0-1.26-1.17h-.22a1.19,1.19,0,0,0-1.28,1.17v8.08a1.19,1.19,0,0,0,1.28,1.17h.22a1.17,1.17,0,0,0,1.26-1.17Z"/><path class="cls-2" d="M48.12,36.34H47.9a3.61,3.61,0,0,1-3.84-3.57v-8.3a3.64,3.64,0,0,1,3.84-3.59h.22a3.62,3.62,0,0,1,3.82,3.59v8.3A3.59,3.59,0,0,1,48.12,36.34Zm1.26-11.75a1.17,1.17,0,0,0-1.26-1.17H47.9a1.19,1.19,0,0,0-1.28,1.17v8.08a1.19,1.19,0,0,0,1.28,1.17h.22a1.17,1.17,0,0,0,1.26-1.17Z"/><path class="cls-2" d="M58,36.34h-.22a3.61,3.61,0,0,1-3.84-3.57v-8.3a3.64,3.64,0,0,1,3.84-3.59H58a3.62,3.62,0,0,1,3.82,3.59v8.3A3.59,3.59,0,0,1,58,36.34Zm1.26-11.75A1.17,1.17,0,0,0,58,23.42h-.22a1.19,1.19,0,0,0-1.28,1.17v8.08a1.19,1.19,0,0,0,1.28,1.17H58a1.17,1.17,0,0,0,1.26-1.17Z"/></g></g></svg>