<svg xmlns="http://www.w3.org/2000/svg" viewBox="0 0 69.37 49"><defs><style>.cls-1{fill:#50dab0;}.cls-2{fill:#fff;}</style></defs><title>cogs-on-screens-graphic</title><g id="Layer_2" data-name="Layer 2"><g id="Layer_2-2" data-name="Layer 2"><path class="cls-1" d="M12.47,45.53H1.39V28.9H12.47ZM6.79,47.82a.55.55,0,1,1,0-1.11.55.55,0,1,1,0,1.11Zm5.75-21H1.32A1.36,1.36,0,0,0,0,28.14V47.68A1.36,1.36,0,0,0,1.32,49H12.54a1.31,1.31,0,0,0,1.32-1.32V28.14A1.31,1.31,0,0,0,12.54,26.82Z"/><path class="cls-1" d="M8.33,4.18V4.05A1.25,1.25,0,0,1,9.57,2.81H54.95a1.25,1.25,0,0,1,1.24,1.24V15H59v-11A4.06,4.06,0,0,0,54.95,0H9.57a4.05,4.05,0,0,0-4,4.05V24H8.33Z"/><path class="cls-1" d="M67.09,44.84H50V20.58H67.09ZM58.7,47.68a.56.56,0,1,1,.56-.56A.6.6,0,0,1,58.7,47.68Zm8.53-29.87H50A2.16,2.16,0,0,0,47.89,20V46.85A2.16,2.16,0,0,0,50,49H67.22a2.16,2.16,0,0,0,2.15-2.15V20A2.16,2.16,0,0,0,67.22,17.81Z"/><path class="cls-1" d="M39.4,38.54H25.12l-1.61,4.57H18a1.31,1.31,0,1,0,0,2.63H45.08V43.12H41Z"/><path class="cls-1" d="M32.13,30.71a1.62,1.62,0,1,1-1.62,1.62A1.62,1.62,0,0,1,32.13,30.71ZM16.67,28.14v8.54H45.08V28H16.65c0,.05,0,.1,0,.16Z"/><path class="cls-2" d="M24.74,14a2.18,2.18,0,1,1,2.18-2.18A2.17,2.17,0,0,1,24.74,14Zm0-5.7a3.52,3.52,0,1,0,3.52,3.52A3.53,3.53,0,0,0,24.74,8.35Z"/><path class="cls-2" d="M24.74,16a4.15,4.15,0,1,1,4.15-4.15A4.14,4.14,0,0,1,24.74,16Zm4.06-.15a2.23,2.23,0,0,1,2.63-.42A7.93,7.93,0,0,0,32,14a2.27,2.27,0,0,1,0-4.29,7.65,7.65,0,0,0-.6-1.43,2.26,2.26,0,0,1-3-3,7.93,7.93,0,0,0-1.46-.6,2.29,2.29,0,0,1-4.29,0,8.88,8.88,0,0,0-1.46.6,2.26,2.26,0,0,1-3,3,7.65,7.65,0,0,0-.6,1.43,2.26,2.26,0,0,1,1.52,2.15A2.29,2.29,0,0,1,17.53,14a8.88,8.88,0,0,0,.6,1.46,2.32,2.32,0,0,1,2.63.42,2.27,2.27,0,0,1,.42,2.65,7.93,7.93,0,0,0,1.46.6,2.29,2.29,0,0,1,4.36,0,8.88,8.88,0,0,0,1.46-.6,2.17,2.17,0,0,1,.35-2.65Z"/><path class="cls-2" d="M35.09,21.35a1.59,1.59,0,0,1-2.09.87,1.6,1.6,0,1,1,2.09-.87Zm-.48-3A2.61,2.61,0,1,0,36,21.74,2.66,2.66,0,0,0,34.61,18.31Z"/><path class="cls-2" d="M36.43,21.92a3.07,3.07,0,1,1-1.64-4A3.06,3.06,0,0,1,36.43,21.92Zm1.1-2.83A1.68,1.68,0,0,1,38,17.2a5.5,5.5,0,0,0-.84-.84,1.7,1.7,0,0,1-1.88.42,1.68,1.68,0,0,1-1-1.61,7.6,7.6,0,0,0-1.16,0,1.68,1.68,0,0,1-1,1.61,1.74,1.74,0,0,1-1.91-.42,7,7,0,0,0-.84.81,1.69,1.69,0,0,1,.42,1.91,1.72,1.72,0,0,1-1.67,1,5.08,5.08,0,0,0,0,1.16,1.69,1.69,0,0,1,1.19,3,5.32,5.32,0,0,0,.81.84,1.7,1.7,0,0,1,1.94-.45,1.71,1.71,0,0,1,1,1.7,7.61,7.61,0,0,0,1.16,0,1.72,1.72,0,0,1,1-1.7,1.64,1.64,0,0,1,1.91.45,5.5,5.5,0,0,0,.84-.84,1.7,1.7,0,0,1-.45-1.91,1.68,1.68,0,0,1,1.64-1,7.61,7.61,0,0,0,0-1.16,1.73,1.73,0,0,1-1.58-1.08Z"/><path class="cls-2" d="M42.73,13a2,2,0,0,0-1.37,0,1.82,1.82,0,0,0-.66.39l-.09.09a2.06,2.06,0,0,0-.51,1.88,1.91,1.91,0,0,1-.54.18,2,2,0,0,0-1.7-1.13,2.21,2.21,0,0,0-.78.12,2.05,2.05,0,0,0-1,.84,4.17,4.17,0,0,1-.54-.24,2,2,0,0,0-.39-2,2,2,0,0,0-2-.63c-.06-.18-.15-.36-.21-.54a2,2,0,0,0,1.16-1.7,2,2,0,0,0-1-1.82c0-.09.09-.18.12-.27a0,0,0,0,1,0,0,1.66,1.66,0,0,1,.12-.24,2.06,2.06,0,0,0,1.34,0,1.82,1.82,0,0,0,.66-.39l.09-.09A1.94,1.94,0,0,0,36,5.57a3.84,3.84,0,0,1,.54-.18,1.94,1.94,0,0,0,1.67,1.13A1.69,1.69,0,0,0,39,6.41a2,2,0,0,0,1-.84l.54.24a2,2,0,0,0,.39,2,1.94,1.94,0,0,0,1.94.6,4.05,4.05,0,0,1,.21.54,2,2,0,0,0-1.16,1.7,2,2,0,0,0,1,1.82,1.26,1.26,0,0,1-.18.51Zm-.12-2.33a1.34,1.34,0,0,1,1-1.25l.27-.09L43.8,9a6,6,0,0,0-.42-1.16l-.12-.24L43,7.72a1.43,1.43,0,0,1-1.55-.36,1.4,1.4,0,0,1-.18-1.58l.12-.24-.24-.15A7.47,7.47,0,0,0,40,4.86l-.27-.06-.12.27a1.32,1.32,0,0,1-.81.75,1.11,1.11,0,0,1-.54.06,1.4,1.4,0,0,1-1.25-1L37,4.62l-.27.06a8.75,8.75,0,0,0-1.16.39l-.24.15.09.27A1.43,1.43,0,0,1,35,7a1.45,1.45,0,0,1-1.61.18l-.21-.15v0l0,0L33,7.3a7.47,7.47,0,0,0-.54,1.1l-.09.27.27.12a1.43,1.43,0,0,1,.87,1.37,1.34,1.34,0,0,1-1,1.25l-.3.09.06.27a6,6,0,0,0,.42,1.16l.12.27.27-.09a1.43,1.43,0,0,1,1.55.36,1.35,1.35,0,0,1,.18,1.58l-.12.24.24.15a7.47,7.47,0,0,0,1.1.54l.27.09.12-.27a1.32,1.32,0,0,1,.81-.75,1.7,1.7,0,0,1,.54-.09,1.4,1.4,0,0,1,1.25,1l.09.27.27-.06a8.75,8.75,0,0,0,1.16-.39l.27-.12-.12-.27a1.43,1.43,0,0,1,.36-1.55,1.45,1.45,0,0,1,1.61-.18l.24.12v0l.06-.09.09-.15a6.12,6.12,0,0,0,.33-.63,3.65,3.65,0,0,0,.21-.51l.09-.27L43.44,12a1.28,1.28,0,0,1-.83-1.34Z"/><path class="cls-2" d="M38.49,12.55a1.64,1.64,0,0,1-.54,0h-.12a.41.41,0,0,0-.09.81h.36a3.68,3.68,0,0,0,.57-.06.41.41,0,0,0,.33-.48.45.45,0,0,0-.51-.3Z"/><path class="cls-2" d="M39.83,11.66a1.7,1.7,0,0,1-.45.48.39.39,0,0,0-.06.57.48.48,0,0,0,.33.15.34.34,0,0,0,.24-.09,3.29,3.29,0,0,0,.63-.66.38.38,0,0,0-.09-.54.42.42,0,0,0-.6.09Z"/><path class="cls-2" d="M40.52,9.6a.4.4,0,0,0-.33.45,1.34,1.34,0,0,1,0,.33v.12a.51.51,0,0,1,0,.21.4.4,0,0,0,.33.45h.06a.41.41,0,0,0,.39-.33c0-.09,0-.18,0-.27v-.18a2.74,2.74,0,0,0,0-.48.37.37,0,0,0-.45-.3Z"/><path class="cls-2" d="M39.83,9.12a.41.41,0,0,0,.33.18.4.4,0,0,0,.24-.09.42.42,0,0,0,.09-.57A3.29,3.29,0,0,0,39.86,8a.41.41,0,0,0-.48.66,6.32,6.32,0,0,1,.45.48Z"/><path class="cls-2" d="M37.54,8.29a1.6,1.6,0,0,1,.66-.06.83.83,0,0,1,.27,0,.39.39,0,1,0,.12-.77,1.46,1.46,0,0,0-.36,0,2.25,2.25,0,0,0-.89.09.38.38,0,0,0-.27.48.41.41,0,0,0,.39.3.15.15,0,0,0,.09,0Z"/><path class="cls-2" d="M35.66,9.39a.56.56,0,0,0,.21.06.37.37,0,0,0,.33-.18,3.39,3.39,0,0,1,.42-.51.4.4,0,0,0-.54-.6,4.3,4.3,0,0,0-.6.69.47.47,0,0,0,.18.54Z"/><path class="cls-2" d="M36,10.88c0-.12,0-.24-.06-.36v-.33a.38.38,0,0,0-.36-.42.36.36,0,0,0-.42.36v.42a2.62,2.62,0,0,0,.06.48.41.41,0,0,0,.39.33h.09a.39.39,0,0,0,.3-.48Z"/><path class="cls-2" d="M36.88,12.22a2.36,2.36,0,0,1-.51-.45.4.4,0,1,0-.63.51,2.79,2.79,0,0,0,.69.63.56.56,0,0,0,.21.06.37.37,0,0,0,.33-.18.39.39,0,0,0-.09-.57Z"/><path class="cls-2" d="M55.18,31.9a1.27,1.27,0,1,1,1.27-1.27A1.27,1.27,0,0,1,55.18,31.9Zm0-3.33a2.06,2.06,0,1,0,2.06,2.06A2.06,2.06,0,0,0,55.18,28.57Z"/><path class="cls-2" d="M55.18,33.05a2.42,2.42,0,1,1,2.42-2.42A2.42,2.42,0,0,1,55.18,33.05ZM57.55,33a1.3,1.3,0,0,1,1.53-.24,4.64,4.64,0,0,0,.35-.85,1.33,1.33,0,0,1,0-2.51,4.47,4.47,0,0,0-.35-.84,1.32,1.32,0,0,1-1.76-1.76,4.64,4.64,0,0,0-.85-.35,1.34,1.34,0,0,1-2.51,0,5.19,5.19,0,0,0-.85.35,1.32,1.32,0,0,1-1.76,1.76,4.47,4.47,0,0,0-.35.84,1.32,1.32,0,0,1,.89,1.25A1.34,1.34,0,0,1,51,31.87a5.19,5.19,0,0,0,.35.85,1.36,1.36,0,0,1,1.53.24,1.33,1.33,0,0,1,.24,1.55,4.64,4.64,0,0,0,.85.35,1.34,1.34,0,0,1,2.55,0,5.19,5.19,0,0,0,.85-.35A1.27,1.27,0,0,1,57.55,33Z"/><path class="cls-2" d="M61.22,36.17a.93.93,0,0,1-1.22.51.93.93,0,1,1,1.22-.51Zm-.28-1.78a1.53,1.53,0,1,0,.82,2A1.55,1.55,0,0,0,60.94,34.39Z"/><path class="cls-2" d="M62,36.5a1.8,1.8,0,1,1-1-2.35A1.79,1.79,0,0,1,62,36.5Zm.64-1.66a1,1,0,0,1,.24-1.1,3.22,3.22,0,0,0-.49-.49,1,1,0,0,1-1.1.24,1,1,0,0,1-.61-.94,4.44,4.44,0,0,0-.68,0,1,1,0,0,1-.61.94,1,1,0,0,1-1.12-.24,4.1,4.1,0,0,0-.49.47,1,1,0,0,1,.24,1.12,1,1,0,0,1-1,.61,3,3,0,0,0,0,.68,1,1,0,0,1,.7,1.74,3.11,3.11,0,0,0,.47.49,1,1,0,0,1,1.13-.26,1,1,0,0,1,.61,1,4.44,4.44,0,0,0,.68,0,1,1,0,0,1,.61-1,1,1,0,0,1,1.12.26,3.22,3.22,0,0,0,.49-.49,1,1,0,0,1-.26-1.12,1,1,0,0,1,1-.61,4.44,4.44,0,0,0,0-.68,1,1,0,0,1-.92-.63Z"/><path class="cls-2" d="M65.69,31.27a1.15,1.15,0,0,0-.8,0,1.06,1.06,0,0,0-.38.23l-.05.05a1.2,1.2,0,0,0-.3,1.1,1.12,1.12,0,0,1-.31.1,1.14,1.14,0,0,0-1-.66,1.29,1.29,0,0,0-.45.07,1.2,1.2,0,0,0-.61.49,2.44,2.44,0,0,1-.31-.14,1.18,1.18,0,0,0-.23-1.17A1.2,1.2,0,0,0,60.09,31c0-.1-.09-.21-.12-.31a1.19,1.19,0,0,0,.68-1,1.14,1.14,0,0,0-.57-1.06c0-.05.05-.1.07-.16a0,0,0,0,1,0,0,1,1,0,0,1,.07-.14,1.21,1.21,0,0,0,.78,0,1.06,1.06,0,0,0,.38-.23l.05-.05A1.14,1.14,0,0,0,61.76,27a2.24,2.24,0,0,1,.31-.1,1.14,1.14,0,0,0,1,.66,1,1,0,0,0,.45-.07A1.16,1.16,0,0,0,64.1,27l.31.14a1.19,1.19,0,0,0,.23,1.17,1.13,1.13,0,0,0,1.13.35,2.37,2.37,0,0,1,.12.31,1.19,1.19,0,0,0-.68,1A1.14,1.14,0,0,0,65.79,31a.74.74,0,0,1-.1.3Zm-.07-1.36a.78.78,0,0,1,.57-.73l.16-.05,0-.16a3.52,3.52,0,0,0-.24-.68L66,28.15l-.16.05a.84.84,0,0,1-.91-.21.82.82,0,0,1-.1-.92l.07-.14-.14-.09a4.36,4.36,0,0,0-.64-.31l-.16,0-.07.16a.77.77,0,0,1-.47.44.65.65,0,0,1-.31,0,.82.82,0,0,1-.73-.57l-.05-.16-.16,0a5.11,5.11,0,0,0-.68.23l-.14.09.05.16a.84.84,0,0,1-.21.91.85.85,0,0,1-.94.1l-.12-.09v0l0,0L60,28a4.36,4.36,0,0,0-.31.64l-.05.16.16.07a.84.84,0,0,1,.51.8.78.78,0,0,1-.57.73l-.17.05,0,.16a3.52,3.52,0,0,0,.24.68l.07.16.16-.05a.84.84,0,0,1,.91.21.79.79,0,0,1,.1.92l-.07.14.14.09a4.36,4.36,0,0,0,.64.31l.16.05.07-.16a.77.77,0,0,1,.47-.44,1,1,0,0,1,.31-.05.82.82,0,0,1,.73.57l.05.16.16,0a5.11,5.11,0,0,0,.68-.23l.16-.07-.07-.16a.84.84,0,0,1,.21-.91.85.85,0,0,1,.94-.1l.14.07v0l0-.05.05-.09a3.58,3.58,0,0,0,.19-.37,2.13,2.13,0,0,0,.12-.3l.05-.16-.16-.07a.75.75,0,0,1-.49-.78Z"/><path class="cls-2" d="M63.21,31a1,1,0,0,1-.31,0h-.07a.24.24,0,0,0-.05.47H63a2.15,2.15,0,0,0,.33,0,.24.24,0,0,0,.19-.28.26.26,0,0,0-.3-.17Z"/><path class="cls-2" d="M64,30.51a1,1,0,0,1-.26.28.23.23,0,0,0,0,.33.28.28,0,0,0,.19.09.2.2,0,0,0,.14-.05,1.92,1.92,0,0,0,.37-.38.22.22,0,0,0-.05-.31.25.25,0,0,0-.35.05Z"/><path class="cls-2" d="M64.4,29.3a.23.23,0,0,0-.19.26.79.79,0,0,1,0,.19v.07a.3.3,0,0,1,0,.12.23.23,0,0,0,.19.26h0a.24.24,0,0,0,.23-.19c0-.05,0-.1,0-.16v-.1a1.6,1.6,0,0,0,0-.28.22.22,0,0,0-.26-.17Z"/><path class="cls-2" d="M64,29a.24.24,0,0,0,.19.1.23.23,0,0,0,.14-.05.24.24,0,0,0,.05-.33,1.92,1.92,0,0,0-.37-.38.24.24,0,0,0-.28.38A3.69,3.69,0,0,1,64,29Z"/><path class="cls-2" d="M62.65,28.54a.94.94,0,0,1,.38,0,.48.48,0,0,1,.16,0,.23.23,0,0,0,.07-.45.85.85,0,0,0-.21,0,1.31,1.31,0,0,0-.52.05.22.22,0,0,0-.16.28.24.24,0,0,0,.23.17.09.09,0,0,0,.05,0Z"/><path class="cls-2" d="M61.56,29.18l.12,0a.22.22,0,0,0,.19-.1,2,2,0,0,1,.24-.3.23.23,0,0,0-.31-.35,2.51,2.51,0,0,0-.35.4.27.27,0,0,0,.11.31Z"/><path class="cls-2" d="M61.73,30.05c0-.07,0-.14,0-.21v-.19a.22.22,0,0,0-.21-.24.21.21,0,0,0-.24.21v.24a1.53,1.53,0,0,0,0,.28.24.24,0,0,0,.23.19h.05a.23.23,0,0,0,.17-.28Z"/><path class="cls-2" d="M62.27,30.84a1.38,1.38,0,0,1-.3-.26.24.24,0,0,0-.37.3,1.63,1.63,0,0,0,.4.37l.12,0a.22.22,0,0,0,.19-.1.23.23,0,0,0-.05-.33Z"/><path class="cls-2" d="M4.73,36.72a.84.84,0,1,1,.84-.84A.83.83,0,0,1,4.73,36.72Zm0-2.19a1.35,1.35,0,1,0,1.35,1.35A1.35,1.35,0,0,0,4.73,34.53Z"/><path class="cls-2" d="M4.73,37.47a1.59,1.59,0,1,1,1.59-1.59A1.59,1.59,0,0,1,4.73,37.47Zm1.56-.06a.86.86,0,0,1,1-.16,3,3,0,0,0,.23-.56.87.87,0,0,1,0-1.65,2.94,2.94,0,0,0-.23-.55.87.87,0,0,1-1.16-1.16,3,3,0,0,0-.56-.23.88.88,0,0,1-1.65,0,3.41,3.41,0,0,0-.56.23A.87.87,0,0,1,2.2,34.49,2.94,2.94,0,0,0,2,35a.87.87,0,0,1,.58.82.88.88,0,0,1-.6.82,3.41,3.41,0,0,0,.23.56.89.89,0,0,1,1,.16.87.87,0,0,1,.16,1,3,3,0,0,0,.56.23.88.88,0,0,1,1.67,0,3.41,3.41,0,0,0,.56-.23.83.83,0,0,1,.14-1Z"/><path class="cls-2" d="M8.7,39.52a.61.61,0,0,1-.8.33.61.61,0,1,1,.8-.33Zm-.18-1.17a1,1,0,1,0,.54,1.32A1,1,0,0,0,8.52,38.35Z"/><path class="cls-2" d="M9.22,39.74a1.18,1.18,0,1,1-.63-1.55A1.17,1.17,0,0,1,9.22,39.74Zm.42-1.09a.64.64,0,0,1,.16-.72,2.11,2.11,0,0,0-.32-.32.65.65,0,0,1-.72.16.65.65,0,0,1-.4-.62,2.92,2.92,0,0,0-.45,0,.65.65,0,0,1-.4.62.67.67,0,0,1-.73-.16,2.69,2.69,0,0,0-.32.31.65.65,0,0,1,.16.73.66.66,0,0,1-.64.4,2,2,0,0,0,0,.45.65.65,0,0,1,.46,1.15,2,2,0,0,0,.31.32.65.65,0,0,1,.74-.17.66.66,0,0,1,.4.65,2.92,2.92,0,0,0,.45,0,.66.66,0,0,1,.4-.65.63.63,0,0,1,.73.17,2.11,2.11,0,0,0,.32-.32.65.65,0,0,1-.17-.73.64.64,0,0,1,.63-.4,2.92,2.92,0,0,0,0-.45.66.66,0,0,1-.61-.41Z"/><path class="cls-2" d="M11.64,36.3a.76.76,0,0,0-.53,0,.7.7,0,0,0-.25.15l0,0a.79.79,0,0,0-.19.72.73.73,0,0,1-.21.07.75.75,0,0,0-.65-.44.85.85,0,0,0-.3,0,.79.79,0,0,0-.4.32l-.21-.09a.78.78,0,0,0-.15-.77A.79.79,0,0,0,8,36.1c0-.07-.06-.14-.08-.21a.78.78,0,0,0,.45-.65.75.75,0,0,0-.38-.7l0-.1a0,0,0,0,1,0,0,.64.64,0,0,1,0-.09.79.79,0,0,0,.52,0,.7.7,0,0,0,.25-.15l0,0a.75.75,0,0,0,.21-.71,1.47,1.47,0,0,1,.21-.07.75.75,0,0,0,.64.44.65.65,0,0,0,.3,0,.76.76,0,0,0,.39-.32l.21.09a.78.78,0,0,0,.15.77.74.74,0,0,0,.74.23,1.56,1.56,0,0,1,.08.21.78.78,0,0,0-.45.65.75.75,0,0,0,.38.7.49.49,0,0,1-.07.19Zm0-.89a.52.52,0,0,1,.38-.48l.1,0,0-.1a2.31,2.31,0,0,0-.16-.45l0-.09-.1,0a.55.55,0,0,1-.6-.14.54.54,0,0,1-.07-.61l0-.09L11,33.39a2.87,2.87,0,0,0-.42-.21l-.1,0,0,.1a.51.51,0,0,1-.31.29.43.43,0,0,1-.21,0,.54.54,0,0,1-.48-.38l0-.1-.1,0a3.36,3.36,0,0,0-.45.15l-.09.06,0,.1a.55.55,0,0,1-.14.6.56.56,0,0,1-.62.07L8,34H8l-.06.09a2.87,2.87,0,0,0-.21.42l0,.1.1,0a.55.55,0,0,1,.33.53.52.52,0,0,1-.38.48l-.11,0,0,.1a2.31,2.31,0,0,0,.16.45l0,.1.1,0a.55.55,0,0,1,.6.14.52.52,0,0,1,.07.61l0,.09.09.06a2.87,2.87,0,0,0,.42.21l.1,0,0-.1a.51.51,0,0,1,.31-.29.65.65,0,0,1,.21,0,.54.54,0,0,1,.48.38l0,.1.1,0a3.36,3.36,0,0,0,.45-.15l.1,0,0-.1a.55.55,0,0,1,.14-.6.56.56,0,0,1,.62-.07l.09,0h0l0,0,0-.06a2.35,2.35,0,0,0,.13-.24,1.4,1.4,0,0,0,.08-.19l0-.1-.1,0a.49.49,0,0,1-.32-.52Z"/><path class="cls-2" d="M10,36.14a.63.63,0,0,1-.21,0h0a.16.16,0,0,0,0,.31h.14l.22,0a.16.16,0,0,0,.13-.18.17.17,0,0,0-.19-.11Z"/><path class="cls-2" d="M10.52,35.8a.65.65,0,0,1-.17.18.15.15,0,0,0,0,.22.18.18,0,0,0,.13.06.13.13,0,0,0,.09,0,1.26,1.26,0,0,0,.24-.25.15.15,0,0,0,0-.21.16.16,0,0,0-.23,0Z"/><path class="cls-2" d="M10.79,35a.15.15,0,0,0-.13.17.52.52,0,0,1,0,.13v0a.2.2,0,0,1,0,.08.15.15,0,0,0,.13.17h0a.16.16,0,0,0,.15-.13s0-.07,0-.1v-.07a1.05,1.05,0,0,0,0-.18.14.14,0,0,0-.17-.11Z"/><path class="cls-2" d="M10.52,34.83a.16.16,0,0,0,.13.07.15.15,0,0,0,.09,0,.16.16,0,0,0,0-.22,1.26,1.26,0,0,0-.24-.25.16.16,0,1,0-.18.25l.17.18Z"/><path class="cls-2" d="M9.64,34.51a.61.61,0,0,1,.25,0H10a.15.15,0,0,0,0-.3H9.91a.86.86,0,0,0-.34,0,.15.15,0,0,0-.1.18.16.16,0,0,0,.15.11h0Z"/><path class="cls-2" d="M8.92,34.93,9,35a.14.14,0,0,0,.13-.07,1.3,1.3,0,0,1,.16-.19.15.15,0,0,0-.21-.23,1.65,1.65,0,0,0-.23.26.18.18,0,0,0,.07.21Z"/><path class="cls-2" d="M9,35.5s0-.09,0-.14v-.13a.15.15,0,0,0-.14-.16.14.14,0,0,0-.16.14v.16a1,1,0,0,0,0,.18.16.16,0,0,0,.15.13h0A.15.15,0,0,0,9,35.5Z"/><path class="cls-2" d="M9.39,36a.91.91,0,0,1-.19-.17A.15.15,0,1,0,9,36a1.07,1.07,0,0,0,.26.24l.08,0a.14.14,0,0,0,.13-.07.15.15,0,0,0,0-.22Z"/></g></g></svg>