<svg xmlns="http://www.w3.org/2000/svg" viewBox="0 0 139 100"><defs><style>.cls-1{fill:#50d4aa;}.cls-2{fill:#454e68;}.cls-3{fill:#5d647b;}.cls-4{fill:#fff;}.cls-5{fill:#172242;}.cls-6{fill:#0d3756;}.cls-7,.cls-8{fill:none;stroke-linecap:round;stroke-linejoin:round;stroke-width:2.66px;}.cls-7{stroke:#fff;}.cls-8{stroke:#454e68;}</style></defs><title>cogs-graphic</title><g id="Layer_2" data-name="Layer 2"><g id="Layer_2-2" data-name="Layer 2"><rect class="cls-1" width="139" height="100"/><path class="cls-2" d="M29,30.72a7.9,7.9,0,1,1,7.9,7.9A7.76,7.76,0,0,1,29,30.72ZM45.34,44.16l4.74,3.42,3.69-3.69-3.42-4.74a14.79,14.79,0,0,0,1.84-4.74L58,33.36V28.09L52.19,27a25.51,25.51,0,0,0-1.84-4.74l3.42-4.74-3.69-3.69-4.74,3.42a14.79,14.79,0,0,0-4.74-1.84L39.54,9.65H34.27l-1.05,5.79a25.51,25.51,0,0,0-4.74,1.84l-4.74-3.42L20,17.55l3.42,4.74A14.79,14.79,0,0,0,21.63,27l-5.79,1.06v5.27l5.79,1.05a25.51,25.51,0,0,0,1.84,4.74L20,43.9l3.69,3.69,4.74-3.42A14.79,14.79,0,0,0,33.22,46l1.06,5.79h5.27L40.6,46a17.77,17.77,0,0,0,4.74-1.85Z"/><path class="cls-3" d="M37.53,38.24a7.62,7.62,0,0,1,0-15.24,7.21,7.21,0,0,1,3.07.69V15.44L39.54,9.65H34.27l-1.05,5.79a25.52,25.52,0,0,0-4.74,1.84l-4.74-3.42L20,17.55l3.42,4.74A14.79,14.79,0,0,0,21.63,27l-5.79,1.06v5.27l5.79,1.05a25.51,25.51,0,0,0,1.84,4.74L20,43.9l3.69,3.69,4.74-3.42A14.79,14.79,0,0,0,33.22,46l1.06,5.79h5.27L40.6,46V37.55A7.21,7.21,0,0,1,37.53,38.24Z"/><path class="cls-4" d="M98.66,39.8a5.55,5.55,0,1,1,7.22,3.09A5.45,5.45,0,0,1,98.66,39.8Zm14.16,4.5,4,1,1.44-3.37-3.47-2.2a10.39,10.39,0,0,0,0-3.57l3.5-2.2-1.38-3.44-4.05.83a17.92,17.92,0,0,0-2.44-2.61l1-4L108,23.31l-2.2,3.47a10.39,10.39,0,0,0-3.57,0l-2.2-3.5-3.44,1.38.83,4.05a17.92,17.92,0,0,0-2.61,2.44l-4-1-1.44,3.37,3.47,2.2a10.39,10.39,0,0,0,0,3.57l-3.5,2.2L90.75,45l4.05-.83a17.92,17.92,0,0,0,2.44,2.61l-1,4,3.37,1.44,2.2-3.47a10.39,10.39,0,0,0,3.57,0l2.2,3.5L111,50.8l-.83-4.05a12.48,12.48,0,0,0,2.61-2.44Z"/><path class="cls-5" d="M58,62A10.54,10.54,0,1,1,68.54,72.51,10.57,10.57,0,0,1,58,62ZM84.87,75.4,94.36,78l2.9-7.37-8.16-4.48a21.33,21.33,0,0,0,.26-5.79l7.9-4.48-3.16-7.37-7.9,2.11a20.81,20.81,0,0,0-4.48-5L83.82,38l-7.37-2.9-3.69,6.32a24.37,24.37,0,0,0-7.64-.26l-3.69-6.32-7.11,3.42,1.84,6.85a20.94,20.94,0,0,0-5.27,5.53L43.78,48.8l-2.9,7.37,6.85,4A30,30,0,0,0,48,67l-7.11,4.21L44,78.57l8.69-2.37a16.08,16.08,0,0,0,4.48,4l-2.37,9L62.22,92,67,83.57a16.1,16.1,0,0,0,5-.26L77,92l7.37-3.16-2.63-9.48a43.32,43.32,0,0,1,3.17-4Z"/><path class="cls-6" d="M68.56,72.44a10.44,10.44,0,0,1-1.73-20.73L65.12,41.16l-3.69-6.32-7.11,3.42,1.84,6.85a20.94,20.94,0,0,0-5.27,5.53L43.78,48.8l-2.9,7.37,6.85,4A30,30,0,0,0,48,67l-7.11,4.21L44,78.57l8.69-2.37a16.08,16.08,0,0,0,4.48,4l-2.37,9L62.22,92,67,83.57a16.1,16.1,0,0,0,5-.26l-1.79-11A10.46,10.46,0,0,1,68.56,72.44Z"/><path class="cls-7" d="M24.93,30.26A12.31,12.31,0,0,0,37.25,42.57"/><path class="cls-7" d="M48.34,30.92A12.31,12.31,0,0,0,36,18.61"/><path class="cls-7" d="M52.6,62.55A15.92,15.92,0,0,0,68.52,78.46"/><path class="cls-7" d="M83.59,62.67A15.92,15.92,0,0,0,67.67,46.75"/><path class="cls-8" d="M95.29,37.86A8.71,8.71,0,0,0,104,46.56"/><path class="cls-8" d="M112.23,37.93a8.71,8.71,0,0,0-8.71-8.71"/><polyline class="cls-7" points="67.3 76.46 69.12 78.57 66.88 80.53"/><polyline class="cls-7" points="68.78 48.78 66.6 47.03 68.46 44.7"/></g></g></svg>