<svg xmlns="http://www.w3.org/2000/svg" viewBox="0 0 58.81 58.81"><defs><style>.cls-1{fill:#172242;}.cls-2{fill:#fff;}.cls-3{fill:#50dab0;}</style></defs><title>connected-graphic</title><g id="Layer_2" data-name="Layer 2"><g id="Layer_2-2" data-name="Layer 2"><path class="cls-1" d="M53.08,23.1a6.14,6.14,0,0,0-5.92,4.77H41.44A10.4,10.4,0,0,0,39,22.15l4-4a6.44,6.44,0,0,0,3.25,1,6,6,0,0,0,4.39-1.72,6.11,6.11,0,0,0,0-8.78,6.47,6.47,0,0,0-8.78,0,6.36,6.36,0,0,0-1,7.64l-4,4a12.83,12.83,0,0,0-5.73-2.48V12A6.14,6.14,0,0,0,35.9,6.11a6.11,6.11,0,0,0-12.22,0A6.14,6.14,0,0,0,28.45,12v5.73a10.4,10.4,0,0,0-5.73,2.48l-4.39-4.39a6.44,6.44,0,0,0,1-3.25,6,6,0,0,0-1.72-4.39,6.72,6.72,0,0,0-9,0A6.73,6.73,0,0,0,6.87,12.6,5.88,5.88,0,0,0,13,18.71a6.44,6.44,0,0,0,3.25-1l4,4a12.83,12.83,0,0,0-2.48,5.73H12a6.14,6.14,0,0,0-5.92-4.77A6.15,6.15,0,0,0,0,28.83a6.28,6.28,0,0,0,6.11,6.11A6.14,6.14,0,0,0,12,30.17h5.73a10.4,10.4,0,0,0,2.48,5.73l-4,4.58a6.39,6.39,0,0,0-7.64,1,6.11,6.11,0,0,0,0,8.78A6,6,0,0,0,13,51.94a6,6,0,0,0,4.39-1.72,6.36,6.36,0,0,0,1-7.64l4-4a12.83,12.83,0,0,0,5.73,2.48v5.73a6.11,6.11,0,1,0,2.67,0V41.05a10.4,10.4,0,0,0,5.73-2.48l4,4a6.13,6.13,0,0,0,1,7.64,6.47,6.47,0,0,0,8.78,0,6.11,6.11,0,0,0,0-8.78,6.62,6.62,0,0,0-7.64-1l-4-4a12.83,12.83,0,0,0,2.48-5.73h5.73a6.09,6.09,0,0,0,12-1.34c0-3.25-2.48-6.3-5.73-6.3Z"/><circle class="cls-2" cx="30.14" cy="28.5" r="11.31"/><path class="cls-3" d="M28,34.24l-5.36-5.36,1.95-1.95L28,30.32l6.78-6.78,2,1.95Zm1.69-18.07A12.71,12.71,0,1,0,42.43,28.88,12.69,12.69,0,0,0,29.73,16.17Z"/></g></g></svg>