<svg xmlns="http://www.w3.org/2000/svg" viewBox="0 0 91.5 21.5"><defs><style>.cls-1,.cls-2,.cls-3{fill:none;stroke:#fdc300;stroke-linecap:round;stroke-linejoin:round;stroke-width:1.5px;}.cls-2{stroke-dasharray:0 2.99;}.cls-3{stroke-dasharray:0 2.85;}.cls-4{font-size:13px;fill:#fff;font-family:GravurCondensedRegCE, Gravur Condensed CE;}.cls-5{fill:#fdc300;}</style></defs><title>free-trial-image</title><g id="Layer_2" data-name="Layer 2"><g id="Layer_2-2" data-name="Layer 2"><line class="cls-1" x1="90.75" y1="20.75" x2="90.75" y2="20.75"/><line class="cls-2" x1="87.76" y1="20.75" x2="2.26" y2="20.75"/><line class="cls-1" x1="0.75" y1="20.75" x2="0.75" y2="20.75"/><line class="cls-3" x1="0.75" y1="17.9" x2="0.75" y2="2.18"/><line class="cls-1" x1="0.75" y1="0.75" x2="0.75" y2="0.75"/><line class="cls-2" x1="3.74" y1="0.75" x2="89.24" y2="0.75"/><line class="cls-1" x1="90.75" y1="0.75" x2="90.75" y2="0.75"/><line class="cls-3" x1="90.75" y1="3.6" x2="90.75" y2="19.32"/><text class="cls-4" transform="translate(24.75 14.63)">FREE TRIAL</text><path class="cls-5" d="M14.13,15a.56.56,0,0,0,.34-.13l2.82-2.65a.57.57,0,0,0,0-.72.52.52,0,0,0-.72,0l-2,1.86V6.57a.5.5,0,0,0-1,0v6.81l-2-1.86a.55.55,0,0,0-.72,0,.56.56,0,0,0,0,.72l2.82,2.65a.48.48,0,0,0,.34.13Zm0,1.16a5.63,5.63,0,1,1,5.63-5.63A5.62,5.62,0,0,1,14.13,16.18Zm0,1A6.63,6.63,0,1,0,7.5,10.55,6.63,6.63,0,0,0,14.13,17.17Z"/></g></g></svg>