<svg xmlns="http://www.w3.org/2000/svg" viewBox="0 0 133 87.54"><defs><style>.cls-1,.cls-4{fill:#fff;}.cls-2{fill:#172242;}.cls-3{fill:#50dab0;}.cls-4{font-size:11.82px;font-family:DotMatrix, Dot Matrix;}</style></defs><title>ia-logo</title><g id="Layer_2" data-name="Layer 2"><g id="Layer_2-2" data-name="Layer 2"><rect class="cls-1" x="0.38" y="0.38" width="132.25" height="86.79"/><path class="cls-1" d="M132.25.75v86H.75V.75h131.5M133,0H0V87.54H133V0Z"/><rect class="cls-2" x="1.35" y="1.34" width="130.31" height="20.14"/><rect class="cls-2" x="1.35" y="22.92" width="130.31" height="20.15"/><rect class="cls-2" x="1.35" y="44.49" width="130.31" height="20.14"/><path class="cls-1" d="M7.56,6.31A.59.59,0,0,1,8,6.49a.6.6,0,0,1,.18.44.6.6,0,0,1-.61.61.62.62,0,0,1-.44-.18.57.57,0,0,1-.19-.44.63.63,0,0,1,.63-.63ZM9,6.31a.59.59,0,0,1,.43.18.6.6,0,0,1,.18.44A.6.6,0,0,1,9,7.55a.62.62,0,0,1-.44-.18.57.57,0,0,1-.19-.44A.63.63,0,0,1,9,6.31Zm1.45,5.91a.63.63,0,0,1,.63.63.59.59,0,0,1-.18.44.61.61,0,0,1-.45.18.63.63,0,0,1-.62-.61.6.6,0,0,1,.18-.44A.59.59,0,0,1,10.49,12.22Zm0-5.91a.59.59,0,0,1,.43.18.6.6,0,0,1,.18.44.6.6,0,0,1-.61.61.62.62,0,0,1-.44-.18.57.57,0,0,1-.19-.44.63.63,0,0,1,.63-.63Zm0,1.48a.59.59,0,0,1,.43.18.6.6,0,0,1,.18.44.6.6,0,0,1-.61.61.62.62,0,0,1-.44-.18.57.57,0,0,1-.19-.44.63.63,0,0,1,.63-.63Zm0,1.48a.59.59,0,0,1,.43.18.6.6,0,0,1,.18.44.6.6,0,0,1-.61.61.62.62,0,0,1-.44-.18.57.57,0,0,1-.19-.44.63.63,0,0,1,.63-.63Zm0,1.48a.59.59,0,0,1,.43.18.6.6,0,0,1,.18.44.6.6,0,0,1-.61.61.62.62,0,0,1-.44-.18.57.57,0,0,1-.19-.44.63.63,0,0,1,.63-.63Zm0,3a.59.59,0,0,1,.43.18.6.6,0,0,1,.18.44.6.6,0,0,1-.61.61.62.62,0,0,1-.44-.18.57.57,0,0,1-.19-.44.63.63,0,0,1,.63-.63Zm0,1.48a.59.59,0,0,1,.43.18.63.63,0,0,1,0,.89.59.59,0,0,1-.43.18.63.63,0,1,1,0-1.25ZM12,6.31a.59.59,0,0,1,.43.18.6.6,0,0,1,.18.44.6.6,0,0,1-.61.61.62.62,0,0,1-.44-.18.57.57,0,0,1-.19-.44A.63.63,0,0,1,12,6.31Zm1.48,0a.59.59,0,0,1,.43.18.6.6,0,0,1,.18.44.6.6,0,0,1-.61.61A.62.62,0,0,1,13,7.37a.57.57,0,0,1-.19-.44.63.63,0,0,1,.63-.63Z"/><path class="cls-1" d="M16.64,12.22a.63.63,0,0,1,.63.63.59.59,0,0,1-.18.44.61.61,0,0,1-.45.18.63.63,0,0,1-.62-.61.6.6,0,0,1,.18-.44A.59.59,0,0,1,16.64,12.22Zm0-5.91a.59.59,0,0,1,.43.18.6.6,0,0,1,.18.44.61.61,0,0,1-.62.61.62.62,0,0,1-.44-.18A.58.58,0,0,1,16,6.93a.63.63,0,0,1,.63-.63Zm0,1.48a.59.59,0,0,1,.43.18.6.6,0,0,1,.18.44.61.61,0,0,1-.62.61.62.62,0,0,1-.44-.18A.58.58,0,0,1,16,8.41a.63.63,0,0,1,.63-.63Zm0,1.48a.59.59,0,0,1,.43.18.6.6,0,0,1,.18.44.61.61,0,0,1-.62.61.62.62,0,0,1-.44-.18A.58.58,0,0,1,16,9.89a.63.63,0,0,1,.63-.63Zm0,1.48a.59.59,0,0,1,.43.18.6.6,0,0,1,.18.44.61.61,0,0,1-.62.61.62.62,0,0,1-.44-.18.58.58,0,0,1-.19-.44.63.63,0,0,1,.63-.63Zm0,3a.59.59,0,0,1,.43.18.6.6,0,0,1,.18.44.61.61,0,0,1-.62.61.62.62,0,0,1-.44-.18.58.58,0,0,1-.19-.44.63.63,0,0,1,.63-.63Zm0,1.48a.59.59,0,0,1,.43.18.63.63,0,0,1,0,.89.59.59,0,0,1-.43.18.63.63,0,1,1,0-1.25Zm1.48-4.43a.59.59,0,0,1,.43.18.6.6,0,0,1,.18.44.61.61,0,0,1-.62.61.62.62,0,0,1-.44-.18.58.58,0,0,1-.19-.44.63.63,0,0,1,.63-.63Zm1.48,0a.59.59,0,0,1,.43.18.6.6,0,0,1,.18.44.61.61,0,0,1-.62.61.62.62,0,0,1-.44-.18.58.58,0,0,1-.19-.44.63.63,0,0,1,.63-.63Zm1.48,0a.59.59,0,0,1,.43.18.6.6,0,0,1,.18.44.61.61,0,0,1-.62.61.62.62,0,0,1-.44-.18.58.58,0,0,1-.19-.44.63.63,0,0,1,.63-.63Zm1.45,1.48a.63.63,0,0,1,.63.63.59.59,0,0,1-.18.44.61.61,0,0,1-.45.18.63.63,0,0,1-.62-.61.6.6,0,0,1,.18-.44A.59.59,0,0,1,22.55,12.22Zm0-5.91a.59.59,0,0,1,.43.18.6.6,0,0,1,.18.44.61.61,0,0,1-.62.61.62.62,0,0,1-.44-.18.58.58,0,0,1-.19-.44.63.63,0,0,1,.63-.63Zm0,1.48A.59.59,0,0,1,23,8a.6.6,0,0,1,.18.44.61.61,0,0,1-.62.61.62.62,0,0,1-.44-.18.58.58,0,0,1-.19-.44.63.63,0,0,1,.63-.63Zm0,1.48a.59.59,0,0,1,.43.18.6.6,0,0,1,.18.44.61.61,0,0,1-.62.61.62.62,0,0,1-.44-.18.58.58,0,0,1-.19-.44.63.63,0,0,1,.63-.63Zm0,1.48a.59.59,0,0,1,.43.18.6.6,0,0,1,.18.44.61.61,0,0,1-.62.61.62.62,0,0,1-.44-.18.58.58,0,0,1-.19-.44.63.63,0,0,1,.63-.63Zm0,3a.59.59,0,0,1,.43.18.6.6,0,0,1,.18.44.61.61,0,0,1-.62.61.62.62,0,0,1-.44-.18.58.58,0,0,1-.19-.44.63.63,0,0,1,.63-.63Zm0,1.48a.59.59,0,0,1,.43.18.63.63,0,0,1,0,.89.59.59,0,0,1-.43.18.63.63,0,1,1,0-1.25Z"/><path class="cls-1" d="M26.79,12.22a.63.63,0,0,1,.63.63.59.59,0,0,1-.18.44.61.61,0,0,1-.45.18.63.63,0,0,1-.61-.61.6.6,0,0,1,.18-.44A.59.59,0,0,1,26.79,12.22Zm0-5.91a.59.59,0,0,1,.43.18.6.6,0,0,1,.18.44.6.6,0,0,1-.61.61.62.62,0,0,1-.44-.18.57.57,0,0,1-.19-.44.63.63,0,0,1,.63-.63Zm0,1.48a.59.59,0,0,1,.43.18.6.6,0,0,1,.18.44.6.6,0,0,1-.61.61.62.62,0,0,1-.44-.18.57.57,0,0,1-.19-.44.63.63,0,0,1,.63-.63Zm0,1.48a.59.59,0,0,1,.43.18.6.6,0,0,1,.18.44.6.6,0,0,1-.61.61.62.62,0,0,1-.44-.18.57.57,0,0,1-.19-.44.63.63,0,0,1,.63-.63Zm0,1.48a.59.59,0,0,1,.43.18.6.6,0,0,1,.18.44.6.6,0,0,1-.61.61.62.62,0,0,1-.44-.18.57.57,0,0,1-.19-.44.63.63,0,0,1,.63-.63Zm0,3a.59.59,0,0,1,.43.18.6.6,0,0,1,.18.44.6.6,0,0,1-.61.61.62.62,0,0,1-.44-.18.57.57,0,0,1-.19-.44.63.63,0,0,1,.63-.63Zm0,1.48a.59.59,0,0,1,.43.18.63.63,0,0,1,0,.89.59.59,0,0,1-.43.18.63.63,0,1,1,0-1.25Zm1.48-8.87a.59.59,0,0,1,.43.18.6.6,0,0,1,.18.44.6.6,0,0,1-.61.61.62.62,0,0,1-.44-.18.57.57,0,0,1-.19-.44.63.63,0,0,1,.63-.63Zm0,4.43a.59.59,0,0,1,.43.18.6.6,0,0,1,.18.44.6.6,0,0,1-.61.61.62.62,0,0,1-.44-.18.57.57,0,0,1-.19-.44.63.63,0,0,1,.63-.63Zm0,4.43a.59.59,0,0,1,.43.18.63.63,0,0,1,0,.89.59.59,0,0,1-.43.18.63.63,0,1,1,0-1.25Zm1.48-8.87a.59.59,0,0,1,.43.18.6.6,0,0,1,.18.44.6.6,0,0,1-.61.61.62.62,0,0,1-.44-.18.57.57,0,0,1-.19-.44.63.63,0,0,1,.63-.63Zm0,4.43a.59.59,0,0,1,.43.18.6.6,0,0,1,.18.44.6.6,0,0,1-.61.61.62.62,0,0,1-.44-.18.57.57,0,0,1-.19-.44.63.63,0,0,1,.63-.63Zm0,4.43a.59.59,0,0,1,.43.18.63.63,0,0,1,0,.89.59.59,0,0,1-.43.18.63.63,0,1,1,0-1.25Zm1.48-8.87a.59.59,0,0,1,.43.18.6.6,0,0,1,.18.44.6.6,0,0,1-.61.61.62.62,0,0,1-.44-.18.57.57,0,0,1-.19-.44.63.63,0,0,1,.63-.63Zm0,4.43a.59.59,0,0,1,.43.18.6.6,0,0,1,.18.44.6.6,0,0,1-.61.61.62.62,0,0,1-.44-.18.57.57,0,0,1-.19-.44.63.63,0,0,1,.63-.63Zm0,4.43a.59.59,0,0,1,.43.18.63.63,0,0,1,0,.89.59.59,0,0,1-.43.18.63.63,0,1,1,0-1.25Zm1.48-8.87a.59.59,0,0,1,.43.18.6.6,0,0,1,.18.44.6.6,0,0,1-.61.61.62.62,0,0,1-.44-.18.57.57,0,0,1-.19-.44.63.63,0,0,1,.63-.63Zm0,8.87a.59.59,0,0,1,.43.18.63.63,0,0,1,0,.89.59.59,0,0,1-.43.18.63.63,0,1,1,0-1.25Z"/><path class="cls-1" d="M9,27.86a.59.59,0,0,1,.43.18.6.6,0,0,1,.18.44A.6.6,0,0,1,9,29.1a.62.62,0,0,1-.44-.18.58.58,0,0,1-.19-.44A.63.63,0,0,1,9,27.86Zm0,8.87a.59.59,0,0,1,.43.18.63.63,0,0,1,0,.89A.59.59,0,0,1,9,38a.63.63,0,1,1,0-1.25Zm1.45-3a.63.63,0,0,1,.63.63.59.59,0,0,1-.18.44.61.61,0,0,1-.45.18.63.63,0,0,1-.62-.61.6.6,0,0,1,.18-.44A.59.59,0,0,1,10.49,33.77Zm0-5.91a.59.59,0,0,1,.43.18.6.6,0,0,1,.18.44.6.6,0,0,1-.61.61.62.62,0,0,1-.44-.18.58.58,0,0,1-.19-.44.63.63,0,0,1,.63-.63Zm0,1.48a.59.59,0,0,1,.43.18.6.6,0,0,1,.18.44.6.6,0,0,1-.61.61.62.62,0,0,1-.44-.18A.58.58,0,0,1,9.89,30a.63.63,0,0,1,.63-.63Zm0,1.48a.59.59,0,0,1,.43.18.6.6,0,0,1,.18.44.6.6,0,0,1-.61.61.62.62,0,0,1-.44-.18.58.58,0,0,1-.19-.44.63.63,0,0,1,.63-.63Zm0,1.48a.59.59,0,0,1,.43.18.6.6,0,0,1,.18.44.6.6,0,0,1-.61.61.62.62,0,0,1-.44-.18.58.58,0,0,1-.19-.44.63.63,0,0,1,.63-.63Zm0,3a.59.59,0,0,1,.43.18.6.6,0,0,1,.18.44.6.6,0,0,1-.61.61.62.62,0,0,1-.44-.18.58.58,0,0,1-.19-.44.63.63,0,0,1,.63-.63Zm0,1.48a.59.59,0,0,1,.43.18.63.63,0,0,1,0,.89.59.59,0,0,1-.43.18.63.63,0,1,1,0-1.25ZM12,27.86a.59.59,0,0,1,.43.18.6.6,0,0,1,.18.44.6.6,0,0,1-.61.61.62.62,0,0,1-.44-.18.58.58,0,0,1-.19-.44.63.63,0,0,1,.63-.63Zm0,8.87a.59.59,0,0,1,.43.18.63.63,0,0,1,0,.89A.59.59,0,0,1,12,38a.63.63,0,1,1,0-1.25Z"/><path class="cls-1" d="M16.87,33.77a.63.63,0,0,1,.63.63.59.59,0,0,1-.18.44.61.61,0,0,1-.45.18.63.63,0,0,1-.61-.61.6.6,0,0,1,.18-.44A.59.59,0,0,1,16.87,33.77Zm0-5.91a.59.59,0,0,1,.43.18.6.6,0,0,1,.18.44.6.6,0,0,1-.61.61.62.62,0,0,1-.44-.18.57.57,0,0,1-.19-.44.63.63,0,0,1,.63-.63Zm0,1.48a.59.59,0,0,1,.43.18.6.6,0,0,1,.18.44.6.6,0,0,1-.61.61.62.62,0,0,1-.44-.18.57.57,0,0,1-.19-.44.63.63,0,0,1,.63-.63Zm0,1.48a.59.59,0,0,1,.43.18.6.6,0,0,1,.18.44.6.6,0,0,1-.61.61.62.62,0,0,1-.44-.18.57.57,0,0,1-.19-.44.63.63,0,0,1,.63-.63Zm0,1.48a.59.59,0,0,1,.43.18.6.6,0,0,1,.18.44.6.6,0,0,1-.61.61.62.62,0,0,1-.44-.18.57.57,0,0,1-.19-.44.63.63,0,0,1,.63-.63Zm0,3a.59.59,0,0,1,.43.18.6.6,0,0,1,.18.44.6.6,0,0,1-.61.61.62.62,0,0,1-.44-.18.57.57,0,0,1-.19-.44.63.63,0,0,1,.63-.63Zm0,1.48a.59.59,0,0,1,.43.18.63.63,0,0,1,0,.89.59.59,0,0,1-.43.18.63.63,0,1,1,0-1.25Zm1.48-7.39a.59.59,0,0,1,.43.18A.6.6,0,0,1,19,30a.6.6,0,0,1-.61.61.62.62,0,0,1-.44-.18.57.57,0,0,1-.19-.44.63.63,0,0,1,.63-.63Zm.73,1.48a.63.63,0,0,1,.63.63.59.59,0,0,1-.18.44.61.61,0,0,1-.45.18.6.6,0,0,1-.61-.61.62.62,0,0,1,.18-.44A.58.58,0,0,1,19.11,30.82Zm.75,1.48a.59.59,0,0,1,.43.18.6.6,0,0,1,.18.44.6.6,0,0,1-.61.61.62.62,0,0,1-.44-.18.57.57,0,0,1-.19-.44.63.63,0,0,1,.63-.63Zm.73,1.48a.63.63,0,0,1,.63.63.59.59,0,0,1-.18.44.61.61,0,0,1-.45.18A.6.6,0,0,1,20,34.4a.62.62,0,0,1,.18-.44A.58.58,0,0,1,20.59,33.77Zm.75,1.48a.59.59,0,0,1,.43.18.6.6,0,0,1,.18.44.6.6,0,0,1-.61.61.62.62,0,0,1-.44-.18.57.57,0,0,1-.19-.44.63.63,0,0,1,.63-.63Zm1.45-1.48a.63.63,0,0,1,.63.63.59.59,0,0,1-.18.44.61.61,0,0,1-.45.18.63.63,0,0,1-.61-.61.6.6,0,0,1,.18-.44A.59.59,0,0,1,22.78,33.77Zm0-5.91a.59.59,0,0,1,.43.18.6.6,0,0,1,.18.44.6.6,0,0,1-.61.61.62.62,0,0,1-.44-.18.57.57,0,0,1-.19-.44.63.63,0,0,1,.63-.63Zm0,1.48a.59.59,0,0,1,.43.18.6.6,0,0,1,.18.44.6.6,0,0,1-.61.61.62.62,0,0,1-.44-.18.57.57,0,0,1-.19-.44.63.63,0,0,1,.63-.63Zm0,1.48a.59.59,0,0,1,.43.18.6.6,0,0,1,.18.44.6.6,0,0,1-.61.61.62.62,0,0,1-.44-.18.57.57,0,0,1-.19-.44.63.63,0,0,1,.63-.63Zm0,1.48a.59.59,0,0,1,.43.18.6.6,0,0,1,.18.44.6.6,0,0,1-.61.61.62.62,0,0,1-.44-.18.57.57,0,0,1-.19-.44.63.63,0,0,1,.63-.63Zm0,3a.59.59,0,0,1,.43.18.6.6,0,0,1,.18.44.6.6,0,0,1-.61.61.62.62,0,0,1-.44-.18.57.57,0,0,1-.19-.44.63.63,0,0,1,.63-.63Zm0,1.48a.59.59,0,0,1,.43.18.63.63,0,0,1,0,.89.59.59,0,0,1-.43.18.63.63,0,1,1,0-1.25Z"/><path class="cls-1" d="M27.05,27.86a.59.59,0,0,1,.43.18.6.6,0,0,1,.18.44.61.61,0,0,1-.62.61.62.62,0,0,1-.44-.18.58.58,0,0,1-.19-.44.63.63,0,0,1,.63-.63Zm0,1.48a.59.59,0,0,1,.43.18.6.6,0,0,1,.18.44.61.61,0,0,1-.62.61.62.62,0,0,1-.44-.18.58.58,0,0,1-.19-.44.63.63,0,0,1,.63-.63Zm0,1.48a.59.59,0,0,1,.43.18.6.6,0,0,1,.18.44.61.61,0,0,1-.62.61.62.62,0,0,1-.44-.18.58.58,0,0,1-.19-.44.63.63,0,0,1,.63-.63Zm.73,1.48a.63.63,0,0,1,.63.63.59.59,0,0,1-.18.44.61.61,0,0,1-.45.18.61.61,0,0,1-.62-.61.62.62,0,0,1,.18-.44A.58.58,0,0,1,27.78,32.29Zm.74,1.48A.59.59,0,0,1,29,34a.6.6,0,0,1,.18.44.61.61,0,0,1-.62.61.62.62,0,0,1-.44-.18.58.58,0,0,1-.19-.44.63.63,0,0,1,.63-.63Zm.73,1.48a.63.63,0,0,1,.63.63.59.59,0,0,1-.18.44.61.61,0,0,1-.45.18.61.61,0,0,1-.62-.61.62.62,0,0,1,.18-.44A.58.58,0,0,1,29.26,35.25ZM30,36.73a.59.59,0,0,1,.43.18.63.63,0,0,1,0,.89A.59.59,0,0,1,30,38a.63.63,0,1,1,0-1.25Zm.73-1.48a.63.63,0,0,1,.63.63.59.59,0,0,1-.18.44.61.61,0,0,1-.45.18.61.61,0,0,1-.62-.61.62.62,0,0,1,.18-.44A.58.58,0,0,1,30.74,35.25Zm.74-1.48a.59.59,0,0,1,.43.18.6.6,0,0,1,.18.44.61.61,0,0,1-.62.61.62.62,0,0,1-.44-.18.58.58,0,0,1-.19-.44.63.63,0,0,1,.63-.63Zm.73-1.48a.63.63,0,0,1,.63.63.59.59,0,0,1-.18.44.61.61,0,0,1-.45.18.61.61,0,0,1-.62-.61.62.62,0,0,1,.18-.44A.58.58,0,0,1,32.22,32.29ZM33,27.86a.59.59,0,0,1,.43.18.6.6,0,0,1,.18.44.61.61,0,0,1-.62.61.62.62,0,0,1-.44-.18.58.58,0,0,1-.19-.44.63.63,0,0,1,.63-.63Zm0,1.48a.59.59,0,0,1,.43.18.6.6,0,0,1,.18.44.61.61,0,0,1-.62.61.62.62,0,0,1-.44-.18.58.58,0,0,1-.19-.44.63.63,0,0,1,.63-.63Zm0,1.48a.59.59,0,0,1,.43.18.6.6,0,0,1,.18.44.61.61,0,0,1-.62.61.62.62,0,0,1-.44-.18.58.58,0,0,1-.19-.44.63.63,0,0,1,.63-.63Z"/><path class="cls-1" d="M37.18,33.77a.63.63,0,0,1,.63.63.59.59,0,0,1-.18.44.61.61,0,0,1-.45.18.63.63,0,0,1-.61-.61.6.6,0,0,1,.18-.44A.59.59,0,0,1,37.18,33.77Zm0-5.91a.59.59,0,0,1,.43.18.6.6,0,0,1,.18.44.6.6,0,0,1-.61.61.62.62,0,0,1-.44-.18.57.57,0,0,1-.19-.44.63.63,0,0,1,.63-.63Zm0,1.48a.59.59,0,0,1,.43.18.6.6,0,0,1,.18.44.6.6,0,0,1-.61.61.62.62,0,0,1-.44-.18.57.57,0,0,1-.19-.44.63.63,0,0,1,.63-.63Zm0,1.48a.59.59,0,0,1,.43.18.6.6,0,0,1,.18.44.6.6,0,0,1-.61.61.62.62,0,0,1-.44-.18.57.57,0,0,1-.19-.44.63.63,0,0,1,.63-.63Zm0,1.48a.59.59,0,0,1,.43.18.6.6,0,0,1,.18.44.6.6,0,0,1-.61.61.62.62,0,0,1-.44-.18.57.57,0,0,1-.19-.44.63.63,0,0,1,.63-.63Zm0,3a.59.59,0,0,1,.43.18.6.6,0,0,1,.18.44.6.6,0,0,1-.61.61.62.62,0,0,1-.44-.18.57.57,0,0,1-.19-.44.63.63,0,0,1,.63-.63Zm0,1.48a.59.59,0,0,1,.43.18.63.63,0,0,1,0,.89.59.59,0,0,1-.43.18.63.63,0,1,1,0-1.25Zm1.48-8.87a.59.59,0,0,1,.43.18.6.6,0,0,1,.18.44.6.6,0,0,1-.61.61.62.62,0,0,1-.44-.18.57.57,0,0,1-.19-.44.63.63,0,0,1,.63-.63Zm0,4.43a.59.59,0,0,1,.43.18.6.6,0,0,1,.18.44.6.6,0,0,1-.61.61.62.62,0,0,1-.44-.18.57.57,0,0,1-.19-.44.63.63,0,0,1,.63-.63Zm0,4.43a.59.59,0,0,1,.43.18.63.63,0,0,1,0,.89.59.59,0,0,1-.43.18.63.63,0,1,1,0-1.25Zm1.48-8.87a.59.59,0,0,1,.43.18.6.6,0,0,1,.18.44.6.6,0,0,1-.61.61.62.62,0,0,1-.44-.18.57.57,0,0,1-.19-.44.63.63,0,0,1,.63-.63Zm0,4.43a.59.59,0,0,1,.43.18.6.6,0,0,1,.18.44.6.6,0,0,1-.61.61.62.62,0,0,1-.44-.18.57.57,0,0,1-.19-.44.63.63,0,0,1,.63-.63Zm0,4.43a.59.59,0,0,1,.43.18.63.63,0,0,1,0,.89.59.59,0,0,1-.43.18.63.63,0,1,1,0-1.25Zm1.48-8.87a.59.59,0,0,1,.43.18.6.6,0,0,1,.18.44.6.6,0,0,1-.61.61.62.62,0,0,1-.44-.18.57.57,0,0,1-.19-.44.63.63,0,0,1,.63-.63Zm0,4.43a.59.59,0,0,1,.43.18.6.6,0,0,1,.18.44.6.6,0,0,1-.61.61.62.62,0,0,1-.44-.18.57.57,0,0,1-.19-.44.63.63,0,0,1,.63-.63Zm0,4.43a.59.59,0,0,1,.43.18.63.63,0,0,1,0,.89.59.59,0,0,1-.43.18.63.63,0,1,1,0-1.25Zm1.48-8.87a.59.59,0,0,1,.43.18.6.6,0,0,1,.18.44.6.6,0,0,1-.61.61.62.62,0,0,1-.44-.18.57.57,0,0,1-.19-.44.63.63,0,0,1,.63-.63Zm0,8.87a.59.59,0,0,1,.43.18.63.63,0,0,1,0,.89.59.59,0,0,1-.43.18.63.63,0,1,1,0-1.25Z"/><path class="cls-1" d="M47.14,29.34a.59.59,0,0,1,.43.18.6.6,0,0,1,.18.44.61.61,0,0,1-.62.61.62.62,0,0,1-.44-.18.58.58,0,0,1-.19-.44.63.63,0,0,1,.63-.63Zm0,1.48a.59.59,0,0,1,.43.18.6.6,0,0,1,.18.44.61.61,0,0,1-.62.61.62.62,0,0,1-.44-.18.58.58,0,0,1-.19-.44.63.63,0,0,1,.63-.63Zm0,4.43a.59.59,0,0,1,.43.18.6.6,0,0,1,.18.44.61.61,0,0,1-.62.61.62.62,0,0,1-.44-.18.58.58,0,0,1-.19-.44.63.63,0,0,1,.63-.63Zm1.48-7.39A.59.59,0,0,1,49,28a.6.6,0,0,1,.18.44.61.61,0,0,1-.62.61.62.62,0,0,1-.44-.18.58.58,0,0,1-.19-.44.63.63,0,0,1,.63-.63Zm0,4.43a.59.59,0,0,1,.43.18.6.6,0,0,1,.18.44.61.61,0,0,1-.62.61.62.62,0,0,1-.44-.18.58.58,0,0,1-.19-.44.63.63,0,0,1,.63-.63Zm0,4.43a.59.59,0,0,1,.43.18.63.63,0,0,1,0,.89.59.59,0,0,1-.43.18.63.63,0,1,1,0-1.25Zm1.48-8.87a.59.59,0,0,1,.43.18.6.6,0,0,1,.18.44.61.61,0,0,1-.62.61.62.62,0,0,1-.44-.18.58.58,0,0,1-.19-.44.63.63,0,0,1,.63-.63Zm0,4.43a.59.59,0,0,1,.43.18.6.6,0,0,1,.18.44.61.61,0,0,1-.62.61.62.62,0,0,1-.44-.18.58.58,0,0,1-.19-.44.63.63,0,0,1,.63-.63Zm0,4.43a.59.59,0,0,1,.43.18.63.63,0,0,1,0,.89.59.59,0,0,1-.43.18.63.63,0,1,1,0-1.25Zm1.48-8.87A.59.59,0,0,1,52,28a.6.6,0,0,1,.18.44.61.61,0,0,1-.62.61.62.62,0,0,1-.44-.18.58.58,0,0,1-.19-.44.63.63,0,0,1,.63-.63Zm0,4.43a.59.59,0,0,1,.43.18.6.6,0,0,1,.18.44.61.61,0,0,1-.62.61.62.62,0,0,1-.44-.18.58.58,0,0,1-.19-.44.63.63,0,0,1,.63-.63Zm0,4.43a.59.59,0,0,1,.43.18.63.63,0,0,1,0,.89.59.59,0,0,1-.43.18.63.63,0,1,1,0-1.25Zm1.45-3a.63.63,0,0,1,.45,1.06A.61.61,0,0,1,53,35a.63.63,0,0,1-.62-.61.6.6,0,0,1,.18-.44A.59.59,0,0,1,53,33.77Zm0-4.43a.59.59,0,0,1,.43.18.6.6,0,0,1,.18.44.61.61,0,0,1-.62.61.62.62,0,0,1-.44-.18.58.58,0,0,1-.19-.44.63.63,0,0,1,.63-.63Zm0,5.91a.59.59,0,0,1,.43.18.6.6,0,0,1,.18.44.61.61,0,0,1-.62.61.62.62,0,0,1-.44-.18.58.58,0,0,1-.19-.44.63.63,0,0,1,.63-.63Z"/><path class="cls-1" d="M56.24,27.86a.59.59,0,0,1,.43.18.6.6,0,0,1,.18.44.61.61,0,0,1-.62.61.62.62,0,0,1-.44-.18.58.58,0,0,1-.19-.44.63.63,0,0,1,.63-.63Zm1.48,0a.59.59,0,0,1,.43.18.6.6,0,0,1,.18.44.61.61,0,0,1-.62.61.62.62,0,0,1-.44-.18.58.58,0,0,1-.19-.44.63.63,0,0,1,.63-.63Zm1.45,5.91a.63.63,0,0,1,.63.63.59.59,0,0,1-.18.44.61.61,0,0,1-.45.18.63.63,0,0,1-.61-.61.6.6,0,0,1,.18-.44A.59.59,0,0,1,59.17,33.77Zm0-5.91a.59.59,0,0,1,.43.18.6.6,0,0,1,.18.44.61.61,0,0,1-.62.61.62.62,0,0,1-.44-.18.58.58,0,0,1-.19-.44.63.63,0,0,1,.63-.63Zm0,1.48a.59.59,0,0,1,.43.18.6.6,0,0,1,.18.44.61.61,0,0,1-.62.61.62.62,0,0,1-.44-.18.58.58,0,0,1-.19-.44.63.63,0,0,1,.63-.63Zm0,1.48a.59.59,0,0,1,.43.18.6.6,0,0,1,.18.44.61.61,0,0,1-.62.61.62.62,0,0,1-.44-.18.58.58,0,0,1-.19-.44.63.63,0,0,1,.63-.63Zm0,1.48a.59.59,0,0,1,.43.18.6.6,0,0,1,.18.44.61.61,0,0,1-.62.61.62.62,0,0,1-.44-.18.58.58,0,0,1-.19-.44.63.63,0,0,1,.63-.63Zm0,3a.59.59,0,0,1,.43.18.6.6,0,0,1,.18.44.61.61,0,0,1-.62.61.62.62,0,0,1-.44-.18.58.58,0,0,1-.19-.44.63.63,0,0,1,.63-.63Zm0,1.48a.59.59,0,0,1,.43.18.63.63,0,0,1,0,.89.59.59,0,0,1-.43.18.63.63,0,1,1,0-1.25Zm1.48-8.87a.59.59,0,0,1,.43.18.6.6,0,0,1,.18.44.61.61,0,0,1-.62.61.62.62,0,0,1-.44-.18.58.58,0,0,1-.19-.44.63.63,0,0,1,.63-.63Zm1.48,0a.59.59,0,0,1,.43.18.6.6,0,0,1,.18.44.61.61,0,0,1-.62.61.62.62,0,0,1-.44-.18.58.58,0,0,1-.19-.44.63.63,0,0,1,.63-.63Z"/><path class="cls-1" d="M65.91,33.77a.63.63,0,0,1,.63.63.59.59,0,0,1-.18.44.61.61,0,0,1-.45.18.63.63,0,0,1-.61-.61.6.6,0,0,1,.18-.44A.59.59,0,0,1,65.91,33.77Zm0-5.91a.59.59,0,0,1,.43.18.6.6,0,0,1,.18.44.61.61,0,0,1-.62.61.62.62,0,0,1-.44-.18.58.58,0,0,1-.19-.44.63.63,0,0,1,.63-.63Zm0,1.48a.59.59,0,0,1,.43.18.6.6,0,0,1,.18.44.61.61,0,0,1-.62.61.62.62,0,0,1-.44-.18A.58.58,0,0,1,65.3,30a.63.63,0,0,1,.63-.63Zm0,1.48a.59.59,0,0,1,.43.18.6.6,0,0,1,.18.44.61.61,0,0,1-.62.61.62.62,0,0,1-.44-.18.58.58,0,0,1-.19-.44.63.63,0,0,1,.63-.63Zm0,1.48a.59.59,0,0,1,.43.18.6.6,0,0,1,.18.44.61.61,0,0,1-.62.61.62.62,0,0,1-.44-.18.58.58,0,0,1-.19-.44.63.63,0,0,1,.63-.63Zm0,3a.59.59,0,0,1,.43.18.6.6,0,0,1,.18.44.61.61,0,0,1-.62.61.62.62,0,0,1-.44-.18.58.58,0,0,1-.19-.44.63.63,0,0,1,.63-.63Zm0,1.48a.59.59,0,0,1,.43.18.63.63,0,0,1,0,.89.59.59,0,0,1-.43.18.63.63,0,1,1,0-1.25Zm1.48-7.39a.59.59,0,0,1,.43.18A.6.6,0,0,1,68,30a.61.61,0,0,1-.62.61A.62.62,0,0,1,67,30.4a.58.58,0,0,1-.19-.44.63.63,0,0,1,.63-.63Zm.73,1.48a.63.63,0,0,1,.63.63.59.59,0,0,1-.18.44.61.61,0,0,1-.45.18.61.61,0,0,1-.62-.61A.62.62,0,0,1,67.7,31,.58.58,0,0,1,68.14,30.82Zm.74,1.48a.59.59,0,0,1,.43.18.6.6,0,0,1,.18.44.61.61,0,0,1-.62.61.62.62,0,0,1-.44-.18.58.58,0,0,1-.19-.44.63.63,0,0,1,.63-.63Zm0,1.48a.59.59,0,0,1,.43.18.6.6,0,0,1,.18.44.61.61,0,0,1-.62.61.62.62,0,0,1-.44-.18.58.58,0,0,1-.19-.44.63.63,0,0,1,.63-.63Zm.73-3a.63.63,0,0,1,.63.63.59.59,0,0,1-.18.44.61.61,0,0,1-.45.18.61.61,0,0,1-.62-.61.62.62,0,0,1,.18-.44A.58.58,0,0,1,69.62,30.82Zm.74-1.48a.59.59,0,0,1,.43.18A.6.6,0,0,1,71,30a.61.61,0,0,1-.62.61.62.62,0,0,1-.44-.18.58.58,0,0,1-.19-.44.63.63,0,0,1,.63-.63Zm1.45,4.43a.63.63,0,0,1,.63.63.59.59,0,0,1-.18.44.61.61,0,0,1-.45.18.63.63,0,0,1-.61-.61.6.6,0,0,1,.18-.44A.59.59,0,0,1,71.82,33.77Zm0-5.91a.59.59,0,0,1,.43.18.6.6,0,0,1,.18.44.61.61,0,0,1-.62.61.62.62,0,0,1-.44-.18.58.58,0,0,1-.19-.44.63.63,0,0,1,.63-.63Zm0,1.48a.59.59,0,0,1,.43.18.6.6,0,0,1,.18.44.61.61,0,0,1-.62.61.62.62,0,0,1-.44-.18.58.58,0,0,1-.19-.44.63.63,0,0,1,.63-.63Zm0,1.48a.59.59,0,0,1,.43.18.6.6,0,0,1,.18.44.61.61,0,0,1-.62.61.62.62,0,0,1-.44-.18.58.58,0,0,1-.19-.44.63.63,0,0,1,.63-.63Zm0,1.48a.59.59,0,0,1,.43.18.6.6,0,0,1,.18.44.61.61,0,0,1-.62.61.62.62,0,0,1-.44-.18.58.58,0,0,1-.19-.44.63.63,0,0,1,.63-.63Zm0,3a.59.59,0,0,1,.43.18.6.6,0,0,1,.18.44.61.61,0,0,1-.62.61.62.62,0,0,1-.44-.18.58.58,0,0,1-.19-.44.63.63,0,0,1,.63-.63Zm0,1.48a.59.59,0,0,1,.43.18.63.63,0,0,1,0,.89.59.59,0,0,1-.43.18.63.63,0,1,1,0-1.25Z"/><path class="cls-1" d="M76.19,33.77a.63.63,0,0,1,.63.63.59.59,0,0,1-.18.44.61.61,0,0,1-.45.18.63.63,0,0,1-.61-.61.6.6,0,0,1,.18-.44A.59.59,0,0,1,76.19,33.77Zm0-5.91a.59.59,0,0,1,.43.18.6.6,0,0,1,.18.44.61.61,0,0,1-.62.61.62.62,0,0,1-.44-.18.58.58,0,0,1-.19-.44.63.63,0,0,1,.63-.63Zm0,1.48a.59.59,0,0,1,.43.18.6.6,0,0,1,.18.44.61.61,0,0,1-.62.61.62.62,0,0,1-.44-.18.58.58,0,0,1-.19-.44.63.63,0,0,1,.63-.63Zm0,1.48a.59.59,0,0,1,.43.18.6.6,0,0,1,.18.44.61.61,0,0,1-.62.61.62.62,0,0,1-.44-.18.58.58,0,0,1-.19-.44.63.63,0,0,1,.63-.63Zm0,1.48a.59.59,0,0,1,.43.18.6.6,0,0,1,.18.44.61.61,0,0,1-.62.61.62.62,0,0,1-.44-.18.58.58,0,0,1-.19-.44.63.63,0,0,1,.63-.63Zm0,3a.59.59,0,0,1,.43.18.6.6,0,0,1,.18.44.61.61,0,0,1-.62.61.62.62,0,0,1-.44-.18.58.58,0,0,1-.19-.44.63.63,0,0,1,.63-.63Zm0,1.48a.59.59,0,0,1,.43.18.63.63,0,0,1,0,.89.59.59,0,0,1-.43.18.63.63,0,1,1,0-1.25Zm1.48-8.87a.59.59,0,0,1,.43.18.6.6,0,0,1,.18.44.61.61,0,0,1-.62.61.62.62,0,0,1-.44-.18.58.58,0,0,1-.19-.44.63.63,0,0,1,.63-.63Zm0,4.43a.59.59,0,0,1,.43.18.6.6,0,0,1,.18.44.61.61,0,0,1-.62.61.62.62,0,0,1-.44-.18.58.58,0,0,1-.19-.44.63.63,0,0,1,.63-.63Zm0,4.43a.59.59,0,0,1,.43.18.63.63,0,0,1,0,.89.59.59,0,0,1-.43.18.63.63,0,1,1,0-1.25Zm1.48-8.87a.59.59,0,0,1,.43.18.6.6,0,0,1,.18.44.61.61,0,0,1-.62.61.62.62,0,0,1-.44-.18.58.58,0,0,1-.19-.44.63.63,0,0,1,.63-.63Zm0,4.43a.59.59,0,0,1,.43.18.6.6,0,0,1,.18.44.61.61,0,0,1-.62.61.62.62,0,0,1-.44-.18.58.58,0,0,1-.19-.44.63.63,0,0,1,.63-.63Zm0,4.43a.59.59,0,0,1,.43.18.63.63,0,0,1,0,.89.59.59,0,0,1-.43.18.63.63,0,1,1,0-1.25Zm1.48-8.87a.59.59,0,0,1,.43.18.6.6,0,0,1,.18.44.61.61,0,0,1-.62.61.62.62,0,0,1-.44-.18.58.58,0,0,1-.19-.44.63.63,0,0,1,.63-.63Zm0,4.43a.59.59,0,0,1,.43.18.6.6,0,0,1,.18.44.61.61,0,0,1-.62.61.62.62,0,0,1-.44-.18.58.58,0,0,1-.19-.44.63.63,0,0,1,.63-.63Zm0,4.43a.59.59,0,0,1,.43.18.63.63,0,0,1,0,.89.59.59,0,0,1-.43.18.63.63,0,1,1,0-1.25Zm1.48-8.87a.59.59,0,0,1,.43.18.6.6,0,0,1,.18.44.61.61,0,0,1-.62.61.62.62,0,0,1-.44-.18.58.58,0,0,1-.19-.44.63.63,0,0,1,.63-.63Zm0,8.87a.59.59,0,0,1,.43.18.63.63,0,0,1,0,.89.59.59,0,0,1-.43.18.63.63,0,1,1,0-1.25Z"/><path class="cls-1" d="M86.12,33.77a.63.63,0,0,1,.63.63.59.59,0,0,1-.18.44.61.61,0,0,1-.45.18.63.63,0,0,1-.62-.61.6.6,0,0,1,.18-.44A.59.59,0,0,1,86.12,33.77Zm0-5.91a.59.59,0,0,1,.43.18.6.6,0,0,1,.18.44.6.6,0,0,1-.61.61.62.62,0,0,1-.44-.18.58.58,0,0,1-.19-.44.63.63,0,0,1,.63-.63Zm0,1.48a.59.59,0,0,1,.43.18.6.6,0,0,1,.18.44.6.6,0,0,1-.61.61.62.62,0,0,1-.44-.18.58.58,0,0,1-.19-.44.63.63,0,0,1,.63-.63Zm0,1.48a.59.59,0,0,1,.43.18.6.6,0,0,1,.18.44.6.6,0,0,1-.61.61.62.62,0,0,1-.44-.18.58.58,0,0,1-.19-.44.63.63,0,0,1,.63-.63Zm0,1.48a.59.59,0,0,1,.43.18.6.6,0,0,1,.18.44.6.6,0,0,1-.61.61.62.62,0,0,1-.44-.18.58.58,0,0,1-.19-.44.63.63,0,0,1,.63-.63Zm0,3a.59.59,0,0,1,.43.18.6.6,0,0,1,.18.44.6.6,0,0,1-.61.61.62.62,0,0,1-.44-.18.58.58,0,0,1-.19-.44.63.63,0,0,1,.63-.63Zm0,1.48a.59.59,0,0,1,.43.18.63.63,0,0,1,0,.89.59.59,0,0,1-.43.18.63.63,0,1,1,0-1.25Zm1.48-7.39a.59.59,0,0,1,.43.18.6.6,0,0,1,.18.44.6.6,0,0,1-.61.61.62.62,0,0,1-.44-.18A.58.58,0,0,1,87,30a.63.63,0,0,1,.63-.63Zm.73,1.48a.63.63,0,0,1,.63.63.59.59,0,0,1-.18.44.61.61,0,0,1-.45.18.6.6,0,0,1-.61-.61.62.62,0,0,1,.18-.44A.58.58,0,0,1,88.35,30.82Zm.75,1.48a.59.59,0,0,1,.43.18.6.6,0,0,1,.18.44.6.6,0,0,1-.61.61.62.62,0,0,1-.44-.18.58.58,0,0,1-.19-.44.63.63,0,0,1,.63-.63Zm.73,1.48a.63.63,0,0,1,.63.63.59.59,0,0,1-.18.44.61.61,0,0,1-.45.18.6.6,0,0,1-.61-.61.62.62,0,0,1,.18-.44A.58.58,0,0,1,89.83,33.77Zm.75,1.48a.59.59,0,0,1,.43.18.6.6,0,0,1,.18.44.6.6,0,0,1-.61.61.62.62,0,0,1-.44-.18.58.58,0,0,1-.19-.44.63.63,0,0,1,.63-.63ZM92,33.77a.63.63,0,0,1,.63.63.59.59,0,0,1-.18.44A.61.61,0,0,1,92,35a.63.63,0,0,1-.62-.61A.6.6,0,0,1,91.6,34,.59.59,0,0,1,92,33.77Zm0-5.91a.59.59,0,0,1,.43.18.6.6,0,0,1,.18.44.6.6,0,0,1-.61.61.62.62,0,0,1-.44-.18.58.58,0,0,1-.19-.44.63.63,0,0,1,.63-.63Zm0,1.48a.59.59,0,0,1,.43.18.6.6,0,0,1,.18.44.6.6,0,0,1-.61.61.62.62,0,0,1-.44-.18.58.58,0,0,1-.19-.44.63.63,0,0,1,.63-.63Zm0,1.48a.59.59,0,0,1,.43.18.6.6,0,0,1,.18.44.6.6,0,0,1-.61.61.62.62,0,0,1-.44-.18.58.58,0,0,1-.19-.44.63.63,0,0,1,.63-.63Zm0,1.48a.59.59,0,0,1,.43.18.6.6,0,0,1,.18.44.6.6,0,0,1-.61.61.62.62,0,0,1-.44-.18.58.58,0,0,1-.19-.44.63.63,0,0,1,.63-.63Zm0,3a.59.59,0,0,1,.43.18.6.6,0,0,1,.18.44.6.6,0,0,1-.61.61.62.62,0,0,1-.44-.18.58.58,0,0,1-.19-.44.63.63,0,0,1,.63-.63Zm0,1.48a.59.59,0,0,1,.43.18.63.63,0,0,1,0,.89.59.59,0,0,1-.43.18.63.63,0,1,1,0-1.25Z"/><path class="cls-1" d="M96.07,27.86a.59.59,0,0,1,.43.18.6.6,0,0,1,.18.44.61.61,0,0,1-.62.61.62.62,0,0,1-.44-.18.58.58,0,0,1-.19-.44.63.63,0,0,1,.63-.63Zm1.48,0A.59.59,0,0,1,98,28a.6.6,0,0,1,.18.44.61.61,0,0,1-.62.61.62.62,0,0,1-.44-.18.58.58,0,0,1-.19-.44.63.63,0,0,1,.63-.63ZM99,33.77a.63.63,0,0,1,.63.63.59.59,0,0,1-.18.44A.61.61,0,0,1,99,35a.63.63,0,0,1-.61-.61.6.6,0,0,1,.18-.44A.59.59,0,0,1,99,33.77Zm0-5.91a.59.59,0,0,1,.43.18.6.6,0,0,1,.18.44.61.61,0,0,1-.62.61.62.62,0,0,1-.44-.18.58.58,0,0,1-.19-.44.63.63,0,0,1,.63-.63Zm0,1.48a.59.59,0,0,1,.43.18.6.6,0,0,1,.18.44.61.61,0,0,1-.62.61.62.62,0,0,1-.44-.18A.58.58,0,0,1,98.4,30a.63.63,0,0,1,.63-.63Zm0,1.48a.59.59,0,0,1,.43.18.6.6,0,0,1,.18.44.61.61,0,0,1-.62.61.62.62,0,0,1-.44-.18.58.58,0,0,1-.19-.44.63.63,0,0,1,.63-.63Zm0,1.48a.59.59,0,0,1,.43.18.6.6,0,0,1,.18.44.61.61,0,0,1-.62.61.62.62,0,0,1-.44-.18.58.58,0,0,1-.19-.44.63.63,0,0,1,.63-.63Zm0,3a.59.59,0,0,1,.43.18.6.6,0,0,1,.18.44.61.61,0,0,1-.62.61.62.62,0,0,1-.44-.18.58.58,0,0,1-.19-.44.63.63,0,0,1,.63-.63Zm0,1.48a.59.59,0,0,1,.43.18.63.63,0,0,1,0,.89A.59.59,0,0,1,99,38a.63.63,0,1,1,0-1.25Zm1.48-8.87a.59.59,0,0,1,.43.18.6.6,0,0,1,.18.44.61.61,0,0,1-.62.61.62.62,0,0,1-.44-.18.58.58,0,0,1-.19-.44.63.63,0,0,1,.63-.63Zm1.48,0a.59.59,0,0,1,.43.18.6.6,0,0,1,.18.44.61.61,0,0,1-.62.61.62.62,0,0,1-.44-.18.58.58,0,0,1-.19-.44.63.63,0,0,1,.63-.63Z"/><path class="cls-1" d="M7.53,55.46a.63.63,0,0,1,.63.63.59.59,0,0,1-.18.44.61.61,0,0,1-.45.18.63.63,0,0,1-.62-.61.6.6,0,0,1,.18-.44A.59.59,0,0,1,7.53,55.46Zm0,1.48a.59.59,0,0,1,.43.18.6.6,0,0,1,.18.44.6.6,0,0,1-.61.61A.62.62,0,0,1,7.12,58a.58.58,0,0,1-.19-.44.63.63,0,0,1,.63-.63Zm0,1.48a.59.59,0,0,1,.43.18.63.63,0,0,1,0,.89.59.59,0,0,1-.43.18.63.63,0,1,1,0-1.25ZM8.29,54a.63.63,0,0,1,.63.63.59.59,0,0,1-.18.44.61.61,0,0,1-.45.18.6.6,0,0,1-.61-.61.62.62,0,0,1,.18-.44A.58.58,0,0,1,8.29,54ZM9,52.5a.59.59,0,0,1,.43.18.6.6,0,0,1,.18.44.6.6,0,0,1-.61.61.62.62,0,0,1-.44-.18.58.58,0,0,1-.19-.44A.63.63,0,0,1,9,52.5Zm0,3a.59.59,0,0,1,.43.18.6.6,0,0,1,.18.44A.6.6,0,0,1,9,56.7a.62.62,0,0,1-.44-.18.58.58,0,0,1-.19-.44A.63.63,0,0,1,9,55.46ZM9.77,51a.63.63,0,0,1,.63.63.59.59,0,0,1-.18.44.61.61,0,0,1-.45.18.6.6,0,0,1-.61-.61.62.62,0,0,1,.18-.44A.58.58,0,0,1,9.77,51Zm.75-1.48a.59.59,0,0,1,.43.18.6.6,0,0,1,.18.44.6.6,0,0,1-.61.61.62.62,0,0,1-.44-.18.58.58,0,0,1-.19-.44.63.63,0,0,1,.63-.63Zm0,5.91a.59.59,0,0,1,.43.18.6.6,0,0,1,.18.44.6.6,0,0,1-.61.61.62.62,0,0,1-.44-.18.58.58,0,0,1-.19-.44.63.63,0,0,1,.63-.63ZM11.25,51a.63.63,0,0,1,.63.63.59.59,0,0,1-.18.44.61.61,0,0,1-.45.18.6.6,0,0,1-.61-.61.62.62,0,0,1,.18-.44A.58.58,0,0,1,11.25,51ZM12,52.5a.59.59,0,0,1,.43.18.6.6,0,0,1,.18.44.6.6,0,0,1-.61.61.62.62,0,0,1-.44-.18.58.58,0,0,1-.19-.44A.63.63,0,0,1,12,52.5Zm0,3a.59.59,0,0,1,.43.18.6.6,0,0,1,.18.44.6.6,0,0,1-.61.61.62.62,0,0,1-.44-.18.58.58,0,0,1-.19-.44.63.63,0,0,1,.63-.63ZM12.72,54a.63.63,0,0,1,.63.63.59.59,0,0,1-.18.44.61.61,0,0,1-.45.18.6.6,0,0,1-.61-.61.62.62,0,0,1,.18-.44A.58.58,0,0,1,12.72,54Zm.72,1.48a.63.63,0,0,1,.63.63.59.59,0,0,1-.18.44.61.61,0,0,1-.45.18.63.63,0,0,1-.62-.61.6.6,0,0,1,.18-.44A.59.59,0,0,1,13.45,55.46Zm0,1.48a.59.59,0,0,1,.43.18.6.6,0,0,1,.18.44.6.6,0,0,1-.61.61A.62.62,0,0,1,13,58a.58.58,0,0,1-.19-.44.63.63,0,0,1,.63-.63Zm0,1.48a.59.59,0,0,1,.43.18.63.63,0,0,1,0,.89.59.59,0,0,1-.43.18.63.63,0,1,1,0-1.25Z"/><path class="cls-1" d="M17.49,51a.59.59,0,0,1,.43.18.6.6,0,0,1,.18.44.61.61,0,0,1-.62.61.62.62,0,0,1-.44-.18.58.58,0,0,1-.19-.44.63.63,0,0,1,.63-.63Zm0,1.48a.59.59,0,0,1,.43.18.6.6,0,0,1,.18.44.61.61,0,0,1-.62.61.62.62,0,0,1-.44-.18.58.58,0,0,1-.19-.44.63.63,0,0,1,.63-.63Zm0,4.43a.59.59,0,0,1,.43.18.6.6,0,0,1,.18.44.61.61,0,0,1-.62.61.62.62,0,0,1-.44-.18.58.58,0,0,1-.19-.44.63.63,0,0,1,.63-.63ZM19,49.54a.59.59,0,0,1,.43.18.6.6,0,0,1,.18.44.61.61,0,0,1-.62.61.62.62,0,0,1-.44-.18.58.58,0,0,1-.19-.44.63.63,0,0,1,.63-.63ZM19,54a.59.59,0,0,1,.43.18.6.6,0,0,1,.18.44.61.61,0,0,1-.62.61.62.62,0,0,1-.44-.18.58.58,0,0,1-.19-.44A.63.63,0,0,1,19,54Zm0,4.43a.59.59,0,0,1,.43.18.63.63,0,0,1,0,.89.59.59,0,0,1-.43.18.63.63,0,1,1,0-1.25Zm1.48-8.87a.59.59,0,0,1,.43.18.6.6,0,0,1,.18.44.61.61,0,0,1-.62.61.62.62,0,0,1-.44-.18.58.58,0,0,1-.19-.44.63.63,0,0,1,.63-.63Zm0,4.43a.59.59,0,0,1,.43.18.6.6,0,0,1,.18.44.61.61,0,0,1-.62.61A.62.62,0,0,1,20,55a.58.58,0,0,1-.19-.44.63.63,0,0,1,.63-.63Zm0,4.43a.59.59,0,0,1,.43.18.63.63,0,0,1,0,.89.59.59,0,0,1-.43.18.63.63,0,1,1,0-1.25Zm1.48-8.87a.59.59,0,0,1,.43.18.6.6,0,0,1,.18.44.61.61,0,0,1-.62.61.62.62,0,0,1-.44-.18.58.58,0,0,1-.19-.44.63.63,0,0,1,.63-.63Zm0,4.43a.59.59,0,0,1,.43.18.6.6,0,0,1,.18.44.61.61,0,0,1-.62.61.62.62,0,0,1-.44-.18.58.58,0,0,1-.19-.44.63.63,0,0,1,.63-.63Zm0,4.43a.59.59,0,0,1,.43.18.63.63,0,0,1,0,.89.59.59,0,0,1-.43.18.63.63,0,1,1,0-1.25Zm1.45-3a.63.63,0,0,1,.63.63.59.59,0,0,1-.18.44.61.61,0,0,1-.45.18.63.63,0,0,1-.61-.61.6.6,0,0,1,.18-.44A.59.59,0,0,1,23.38,55.46Zm0-4.43a.59.59,0,0,1,.43.18.6.6,0,0,1,.18.44.61.61,0,0,1-.62.61.62.62,0,0,1-.44-.18.58.58,0,0,1-.19-.44A.63.63,0,0,1,23.4,51Zm0,5.91a.59.59,0,0,1,.43.18.6.6,0,0,1,.18.44.61.61,0,0,1-.62.61A.62.62,0,0,1,23,58a.58.58,0,0,1-.19-.44.63.63,0,0,1,.63-.63Z"/><path class="cls-1" d="M27.42,51a.59.59,0,0,1,.43.18.6.6,0,0,1,.18.44.6.6,0,0,1-.61.61.62.62,0,0,1-.44-.18.58.58,0,0,1-.19-.44.63.63,0,0,1,.63-.63Zm0,1.48a.59.59,0,0,1,.43.18.6.6,0,0,1,.18.44.6.6,0,0,1-.61.61.62.62,0,0,1-.44-.18.58.58,0,0,1-.19-.44.63.63,0,0,1,.63-.63Zm0,4.43a.59.59,0,0,1,.43.18.6.6,0,0,1,.18.44.6.6,0,0,1-.61.61A.62.62,0,0,1,27,58a.58.58,0,0,1-.19-.44.63.63,0,0,1,.63-.63Zm1.48-7.39a.59.59,0,0,1,.43.18.6.6,0,0,1,.18.44.6.6,0,0,1-.61.61.62.62,0,0,1-.44-.18.58.58,0,0,1-.19-.44.63.63,0,0,1,.63-.63Zm0,4.43a.59.59,0,0,1,.43.18.6.6,0,0,1,.18.44.6.6,0,0,1-.61.61.62.62,0,0,1-.44-.18.58.58,0,0,1-.19-.44A.63.63,0,0,1,28.9,54Zm0,4.43a.59.59,0,0,1,.43.18.63.63,0,0,1,0,.89.59.59,0,0,1-.43.18.63.63,0,1,1,0-1.25Zm1.48-8.87a.59.59,0,0,1,.43.18.6.6,0,0,1,.18.44.6.6,0,0,1-.61.61.62.62,0,0,1-.44-.18.58.58,0,0,1-.19-.44.63.63,0,0,1,.63-.63Zm0,4.43a.59.59,0,0,1,.43.18.6.6,0,0,1,.18.44.6.6,0,0,1-.61.61.62.62,0,0,1-.44-.18.58.58,0,0,1-.19-.44.63.63,0,0,1,.63-.63Zm0,4.43a.59.59,0,0,1,.43.18.63.63,0,0,1,0,.89.59.59,0,0,1-.43.18.63.63,0,1,1,0-1.25Zm1.48-8.87a.59.59,0,0,1,.43.18.6.6,0,0,1,.18.44.6.6,0,0,1-.61.61.62.62,0,0,1-.44-.18.58.58,0,0,1-.19-.44.63.63,0,0,1,.63-.63Zm0,4.43a.59.59,0,0,1,.43.18.6.6,0,0,1,.18.44.6.6,0,0,1-.61.61.62.62,0,0,1-.44-.18.58.58,0,0,1-.19-.44.63.63,0,0,1,.63-.63Zm0,4.43a.59.59,0,0,1,.43.18.63.63,0,0,1,0,.89.59.59,0,0,1-.43.18.63.63,0,1,1,0-1.25Zm1.45-3a.63.63,0,0,1,.63.63.6.6,0,0,1-.18.44.61.61,0,0,1-.45.18.63.63,0,0,1-.62-.61.6.6,0,0,1,.18-.44A.59.59,0,0,1,33.3,55.46Zm0-4.43a.59.59,0,0,1,.43.18.6.6,0,0,1,.18.44.6.6,0,0,1-.61.61.62.62,0,0,1-.44-.18.58.58,0,0,1-.19-.44.63.63,0,0,1,.63-.63Zm0,5.91a.59.59,0,0,1,.43.18.6.6,0,0,1,.18.44.6.6,0,0,1-.61.61.62.62,0,0,1-.44-.18.58.58,0,0,1-.19-.44.63.63,0,0,1,.63-.63Z"/><path class="cls-1" d="M37.56,55.46a.63.63,0,0,1,.63.63.59.59,0,0,1-.18.44.61.61,0,0,1-.45.18.63.63,0,0,1-.61-.61.6.6,0,0,1,.18-.44A.59.59,0,0,1,37.56,55.46Zm0-4.43a.59.59,0,0,1,.43.18.6.6,0,0,1,.18.44.6.6,0,0,1-.61.61.62.62,0,0,1-.44-.18.57.57,0,0,1-.19-.44.63.63,0,0,1,.63-.63Zm0,1.48a.59.59,0,0,1,.43.18.6.6,0,0,1,.18.44.6.6,0,0,1-.61.61.62.62,0,0,1-.44-.18.57.57,0,0,1-.19-.44.63.63,0,0,1,.63-.63Zm0,1.48a.59.59,0,0,1,.43.18.6.6,0,0,1,.18.44.6.6,0,0,1-.61.61.62.62,0,0,1-.44-.18A.57.57,0,0,1,37,54.6a.63.63,0,0,1,.63-.63Zm0,3a.59.59,0,0,1,.43.18.6.6,0,0,1,.18.44.6.6,0,0,1-.61.61.62.62,0,0,1-.44-.18.57.57,0,0,1-.19-.44.63.63,0,0,1,.63-.63Zm1.48-7.39a.59.59,0,0,1,.43.18.6.6,0,0,1,.18.44.6.6,0,0,1-.61.61.62.62,0,0,1-.44-.18.57.57,0,0,1-.19-.44.63.63,0,0,1,.63-.63Zm0,8.87a.59.59,0,0,1,.43.18.63.63,0,0,1,0,.89.59.59,0,0,1-.43.18.63.63,0,1,1,0-1.25Zm1.48-8.87a.59.59,0,0,1,.43.18.6.6,0,0,1,.18.44.6.6,0,0,1-.61.61.62.62,0,0,1-.44-.18.57.57,0,0,1-.19-.44.63.63,0,0,1,.63-.63Zm0,8.87a.59.59,0,0,1,.43.18.63.63,0,0,1,0,.89.59.59,0,0,1-.43.18.63.63,0,1,1,0-1.25ZM42,49.54a.59.59,0,0,1,.43.18.6.6,0,0,1,.18.44.6.6,0,0,1-.61.61.62.62,0,0,1-.44-.18.57.57,0,0,1-.19-.44.63.63,0,0,1,.63-.63Zm0,8.87a.59.59,0,0,1,.43.18.63.63,0,0,1,0,.89.59.59,0,0,1-.43.18.63.63,0,1,1,0-1.25Zm1.45-3a.63.63,0,0,1,.63.63.59.59,0,0,1-.18.44.61.61,0,0,1-.45.18.63.63,0,0,1-.61-.61.6.6,0,0,1,.18-.44A.59.59,0,0,1,43.47,55.46Zm0-4.43a.59.59,0,0,1,.43.18.6.6,0,0,1,.18.44.6.6,0,0,1-.61.61.62.62,0,0,1-.44-.18.57.57,0,0,1-.19-.44.63.63,0,0,1,.63-.63Zm0,1.48a.59.59,0,0,1,.43.18.6.6,0,0,1,.18.44.6.6,0,0,1-.61.61.62.62,0,0,1-.44-.18.57.57,0,0,1-.19-.44.63.63,0,0,1,.63-.63Zm0,1.48a.59.59,0,0,1,.43.18.6.6,0,0,1,.18.44.6.6,0,0,1-.61.61.62.62,0,0,1-.44-.18.57.57,0,0,1-.19-.44.63.63,0,0,1,.63-.63Zm0,3a.59.59,0,0,1,.43.18.6.6,0,0,1,.18.44.6.6,0,0,1-.61.61.62.62,0,0,1-.44-.18.57.57,0,0,1-.19-.44.63.63,0,0,1,.63-.63Z"/><path class="cls-1" d="M47.51,55.46a.63.63,0,0,1,.63.63.59.59,0,0,1-.18.44.61.61,0,0,1-.45.18.63.63,0,0,1-.61-.61.6.6,0,0,1,.18-.44A.59.59,0,0,1,47.51,55.46Zm0-4.43a.59.59,0,0,1,.43.18.6.6,0,0,1,.18.44.61.61,0,0,1-.62.61.62.62,0,0,1-.44-.18.58.58,0,0,1-.19-.44.63.63,0,0,1,.63-.63Zm0,1.48a.59.59,0,0,1,.43.18.6.6,0,0,1,.18.44.61.61,0,0,1-.62.61.62.62,0,0,1-.44-.18.58.58,0,0,1-.19-.44.63.63,0,0,1,.63-.63Zm0,1.48a.59.59,0,0,1,.43.18.6.6,0,0,1,.18.44.61.61,0,0,1-.62.61A.62.62,0,0,1,47.1,55a.58.58,0,0,1-.19-.44.63.63,0,0,1,.63-.63Zm0,3a.59.59,0,0,1,.43.18.6.6,0,0,1,.18.44.61.61,0,0,1-.62.61A.62.62,0,0,1,47.1,58a.58.58,0,0,1-.19-.44.63.63,0,0,1,.63-.63ZM49,49.54a.59.59,0,0,1,.43.18.6.6,0,0,1,.18.44.61.61,0,0,1-.62.61.62.62,0,0,1-.44-.18.58.58,0,0,1-.19-.44.63.63,0,0,1,.63-.63Zm0,8.87a.59.59,0,0,1,.43.18.63.63,0,0,1,0,.89.59.59,0,0,1-.43.18.63.63,0,1,1,0-1.25Zm1.48-8.87a.59.59,0,0,1,.43.18.6.6,0,0,1,.18.44.61.61,0,0,1-.62.61.62.62,0,0,1-.44-.18.58.58,0,0,1-.19-.44.63.63,0,0,1,.63-.63Zm0,8.87a.59.59,0,0,1,.43.18.63.63,0,0,1,0,.89.59.59,0,0,1-.43.18.63.63,0,1,1,0-1.25ZM52,49.54a.59.59,0,0,1,.43.18.6.6,0,0,1,.18.44.61.61,0,0,1-.62.61.62.62,0,0,1-.44-.18.58.58,0,0,1-.19-.44.63.63,0,0,1,.63-.63Zm0,8.87a.59.59,0,0,1,.43.18.63.63,0,0,1,0,.89.59.59,0,0,1-.43.18.63.63,0,1,1,0-1.25ZM53.45,51a.59.59,0,0,1,.43.18.6.6,0,0,1,.18.44.61.61,0,0,1-.62.61.62.62,0,0,1-.44-.18.58.58,0,0,1-.19-.44.63.63,0,0,1,.63-.63Zm0,5.91a.59.59,0,0,1,.43.18.6.6,0,0,1,.18.44.61.61,0,0,1-.62.61A.62.62,0,0,1,53,58a.58.58,0,0,1-.19-.44.63.63,0,0,1,.63-.63Z"/><path class="cls-1" d="M58.24,49.54a.59.59,0,0,1,.43.18.6.6,0,0,1,.18.44.6.6,0,0,1-.61.61.62.62,0,0,1-.44-.18.58.58,0,0,1-.19-.44.63.63,0,0,1,.63-.63Zm0,8.87a.59.59,0,0,1,.43.18.63.63,0,0,1,0,.89.59.59,0,0,1-.43.18.63.63,0,1,1,0-1.25Zm1.45-3a.63.63,0,0,1,.63.63.59.59,0,0,1-.18.44.61.61,0,0,1-.45.18.63.63,0,0,1-.62-.61.6.6,0,0,1,.18-.44A.59.59,0,0,1,59.69,55.46Zm0-5.91a.59.59,0,0,1,.43.18.6.6,0,0,1,.18.44.6.6,0,0,1-.61.61.62.62,0,0,1-.44-.18.58.58,0,0,1-.19-.44.63.63,0,0,1,.63-.63Zm0,1.48a.59.59,0,0,1,.43.18.6.6,0,0,1,.18.44.6.6,0,0,1-.61.61.62.62,0,0,1-.44-.18.58.58,0,0,1-.19-.44.63.63,0,0,1,.63-.63Zm0,1.48a.59.59,0,0,1,.43.18.6.6,0,0,1,.18.44.6.6,0,0,1-.61.61.62.62,0,0,1-.44-.18.58.58,0,0,1-.19-.44.63.63,0,0,1,.63-.63Zm0,1.48a.59.59,0,0,1,.43.18.6.6,0,0,1,.18.44.6.6,0,0,1-.61.61.62.62,0,0,1-.44-.18.58.58,0,0,1-.19-.44.63.63,0,0,1,.63-.63Zm0,3a.59.59,0,0,1,.43.18.6.6,0,0,1,.18.44.6.6,0,0,1-.61.61.62.62,0,0,1-.44-.18.58.58,0,0,1-.19-.44.63.63,0,0,1,.63-.63Zm0,1.48a.59.59,0,0,1,.43.18.63.63,0,0,1,0,.89.59.59,0,0,1-.43.18.63.63,0,1,1,0-1.25Zm1.48-8.87a.59.59,0,0,1,.43.18.6.6,0,0,1,.18.44.6.6,0,0,1-.61.61.62.62,0,0,1-.44-.18.58.58,0,0,1-.19-.44.63.63,0,0,1,.63-.63Zm0,8.87a.59.59,0,0,1,.43.18.63.63,0,0,1,0,.89.59.59,0,0,1-.43.18.63.63,0,1,1,0-1.25Z"/><path class="cls-1" d="M65.84,55.46a.63.63,0,0,1,.45,1.06.61.61,0,0,1-.45.18.63.63,0,0,1-.62-.61.6.6,0,0,1,.18-.44A.59.59,0,0,1,65.84,55.46Zm0,1.48a.59.59,0,0,1,.43.18.6.6,0,0,1,.18.44.61.61,0,0,1-.62.61.62.62,0,0,1-.44-.18.58.58,0,0,1-.19-.44.63.63,0,0,1,.63-.63Zm0,1.48a.59.59,0,0,1,.43.18.63.63,0,0,1,0,.89.59.59,0,0,1-.43.18.63.63,0,1,1,0-1.25ZM66.59,54a.63.63,0,0,1,.63.63A.6.6,0,0,1,67,55a.61.61,0,0,1-.45.18A.61.61,0,0,1,66,54.6a.62.62,0,0,1,.18-.44A.58.58,0,0,1,66.59,54Zm.74-1.48a.59.59,0,0,1,.43.18.6.6,0,0,1,.18.44.61.61,0,0,1-.62.61.62.62,0,0,1-.44-.18.58.58,0,0,1-.19-.44.63.63,0,0,1,.63-.63Zm0,3a.59.59,0,0,1,.43.18.6.6,0,0,1,.18.44.61.61,0,0,1-.62.61.62.62,0,0,1-.44-.18.58.58,0,0,1-.19-.44.63.63,0,0,1,.63-.63ZM68.07,51a.63.63,0,0,1,.63.63.6.6,0,0,1-.18.44.61.61,0,0,1-.45.18.61.61,0,0,1-.62-.61.62.62,0,0,1,.18-.44A.58.58,0,0,1,68.07,51Zm.74-1.48a.59.59,0,0,1,.43.18.6.6,0,0,1,.18.44.61.61,0,0,1-.62.61.62.62,0,0,1-.44-.18.58.58,0,0,1-.19-.44.63.63,0,0,1,.63-.63Zm0,5.91a.59.59,0,0,1,.43.18.6.6,0,0,1,.18.44.61.61,0,0,1-.62.61.62.62,0,0,1-.44-.18.58.58,0,0,1-.19-.44.63.63,0,0,1,.63-.63ZM69.55,51a.63.63,0,0,1,.63.63.6.6,0,0,1-.18.44.61.61,0,0,1-.45.18.61.61,0,0,1-.62-.61.62.62,0,0,1,.18-.44A.58.58,0,0,1,69.55,51Zm.74,1.48a.59.59,0,0,1,.43.18.6.6,0,0,1,.18.44.61.61,0,0,1-.62.61.62.62,0,0,1-.44-.18.58.58,0,0,1-.19-.44.63.63,0,0,1,.63-.63Zm0,3a.59.59,0,0,1,.43.18.6.6,0,0,1,.18.44.61.61,0,0,1-.62.61.62.62,0,0,1-.44-.18.58.58,0,0,1-.19-.44.63.63,0,0,1,.63-.63ZM71,54a.63.63,0,0,1,.63.63.6.6,0,0,1-.18.44.61.61,0,0,1-.45.18.61.61,0,0,1-.62-.61.62.62,0,0,1,.18-.44A.58.58,0,0,1,71,54Zm.72,1.48a.63.63,0,0,1,.45,1.06.61.61,0,0,1-.45.18.63.63,0,0,1-.62-.61.6.6,0,0,1,.18-.44A.59.59,0,0,1,71.75,55.46Zm0,1.48a.59.59,0,0,1,.43.18.6.6,0,0,1,.18.44.61.61,0,0,1-.62.61.62.62,0,0,1-.44-.18.58.58,0,0,1-.19-.44.63.63,0,0,1,.63-.63Zm0,1.48a.59.59,0,0,1,.43.18.63.63,0,0,1,0,.89.59.59,0,0,1-.43.18.63.63,0,1,1,0-1.25Z"/><path class="cls-1" d="M75.32,49.54a.59.59,0,0,1,.43.18.6.6,0,0,1,.18.44.6.6,0,0,1-.61.61.62.62,0,0,1-.44-.18.58.58,0,0,1-.19-.44.63.63,0,0,1,.63-.63Zm1.48,0a.59.59,0,0,1,.43.18.6.6,0,0,1,.18.44.6.6,0,0,1-.61.61.62.62,0,0,1-.44-.18.58.58,0,0,1-.19-.44.63.63,0,0,1,.63-.63Zm1.45,5.91a.63.63,0,0,1,.63.63.59.59,0,0,1-.18.44.61.61,0,0,1-.45.18.63.63,0,0,1-.62-.61.6.6,0,0,1,.18-.44A.59.59,0,0,1,78.25,55.46Zm0-5.91a.59.59,0,0,1,.43.18.6.6,0,0,1,.18.44.6.6,0,0,1-.61.61.62.62,0,0,1-.44-.18.58.58,0,0,1-.19-.44.63.63,0,0,1,.63-.63Zm0,1.48a.59.59,0,0,1,.43.18.6.6,0,0,1,.18.44.6.6,0,0,1-.61.61.62.62,0,0,1-.44-.18.58.58,0,0,1-.19-.44.63.63,0,0,1,.63-.63Zm0,1.48a.59.59,0,0,1,.43.18.6.6,0,0,1,.18.44.6.6,0,0,1-.61.61.62.62,0,0,1-.44-.18.58.58,0,0,1-.19-.44.63.63,0,0,1,.63-.63Zm0,1.48a.59.59,0,0,1,.43.18.6.6,0,0,1,.18.44.6.6,0,0,1-.61.61.62.62,0,0,1-.44-.18.58.58,0,0,1-.19-.44.63.63,0,0,1,.63-.63Zm0,3a.59.59,0,0,1,.43.18.6.6,0,0,1,.18.44.6.6,0,0,1-.61.61.62.62,0,0,1-.44-.18.58.58,0,0,1-.19-.44.63.63,0,0,1,.63-.63Zm0,1.48a.59.59,0,0,1,.43.18.63.63,0,0,1,0,.89.59.59,0,0,1-.43.18.63.63,0,1,1,0-1.25Zm1.48-8.87a.59.59,0,0,1,.43.18.6.6,0,0,1,.18.44.6.6,0,0,1-.61.61.62.62,0,0,1-.44-.18.58.58,0,0,1-.19-.44.63.63,0,0,1,.63-.63Zm1.48,0a.59.59,0,0,1,.43.18.6.6,0,0,1,.18.44.6.6,0,0,1-.61.61.62.62,0,0,1-.44-.18.58.58,0,0,1-.19-.44.63.63,0,0,1,.63-.63Z"/><path class="cls-1" d="M85.54,49.54a.59.59,0,0,1,.43.18.6.6,0,0,1,.18.44.6.6,0,0,1-.61.61.62.62,0,0,1-.44-.18.58.58,0,0,1-.19-.44.63.63,0,0,1,.63-.63Zm0,8.87a.59.59,0,0,1,.43.18.63.63,0,0,1,0,.89.59.59,0,0,1-.43.18.63.63,0,1,1,0-1.25Zm1.45-3a.63.63,0,0,1,.63.63.59.59,0,0,1-.18.44.61.61,0,0,1-.45.18.63.63,0,0,1-.62-.61.6.6,0,0,1,.18-.44A.59.59,0,0,1,87,55.46Zm0-5.91a.59.59,0,0,1,.43.18.6.6,0,0,1,.18.44.6.6,0,0,1-.61.61.62.62,0,0,1-.44-.18.58.58,0,0,1-.19-.44.63.63,0,0,1,.63-.63ZM87,51a.59.59,0,0,1,.43.18.6.6,0,0,1,.18.44.6.6,0,0,1-.61.61.62.62,0,0,1-.44-.18.58.58,0,0,1-.19-.44A.63.63,0,0,1,87,51Zm0,1.48a.59.59,0,0,1,.43.18.6.6,0,0,1,.18.44.6.6,0,0,1-.61.61.62.62,0,0,1-.44-.18.58.58,0,0,1-.19-.44A.63.63,0,0,1,87,52.5ZM87,54a.59.59,0,0,1,.43.18.6.6,0,0,1,.18.44.6.6,0,0,1-.61.61.62.62,0,0,1-.44-.18.58.58,0,0,1-.19-.44A.63.63,0,0,1,87,54Zm0,3a.59.59,0,0,1,.43.18.6.6,0,0,1,.18.44.6.6,0,0,1-.61.61.62.62,0,0,1-.44-.18.58.58,0,0,1-.19-.44.63.63,0,0,1,.63-.63Zm0,1.48a.59.59,0,0,1,.43.18.63.63,0,0,1,0,.89.59.59,0,0,1-.43.18.63.63,0,1,1,0-1.25Zm1.48-8.87a.59.59,0,0,1,.43.18.6.6,0,0,1,.18.44.6.6,0,0,1-.61.61.62.62,0,0,1-.44-.18.58.58,0,0,1-.19-.44.63.63,0,0,1,.63-.63Zm0,8.87a.59.59,0,0,1,.43.18.63.63,0,0,1,0,.89.59.59,0,0,1-.43.18.63.63,0,1,1,0-1.25Z"/><path class="cls-1" d="M93,55.46a.63.63,0,0,1,.63.63.59.59,0,0,1-.18.44.61.61,0,0,1-.45.18.63.63,0,0,1-.62-.61.6.6,0,0,1,.18-.44A.59.59,0,0,1,93,55.46ZM93,51a.59.59,0,0,1,.43.18.6.6,0,0,1,.18.44.6.6,0,0,1-.61.61.62.62,0,0,1-.44-.18.58.58,0,0,1-.19-.44A.63.63,0,0,1,93,51Zm0,1.48a.59.59,0,0,1,.43.18.6.6,0,0,1,.18.44.6.6,0,0,1-.61.61.62.62,0,0,1-.44-.18.58.58,0,0,1-.19-.44A.63.63,0,0,1,93,52.5ZM93,54a.59.59,0,0,1,.43.18.6.6,0,0,1,.18.44.6.6,0,0,1-.61.61.62.62,0,0,1-.44-.18.58.58,0,0,1-.19-.44A.63.63,0,0,1,93,54Zm0,3a.59.59,0,0,1,.43.18.6.6,0,0,1,.18.44.6.6,0,0,1-.61.61.62.62,0,0,1-.44-.18.58.58,0,0,1-.19-.44.63.63,0,0,1,.63-.63Zm1.48-7.39a.59.59,0,0,1,.43.18.6.6,0,0,1,.18.44.6.6,0,0,1-.61.61.62.62,0,0,1-.44-.18.58.58,0,0,1-.19-.44.63.63,0,0,1,.63-.63Zm0,8.87a.59.59,0,0,1,.43.18.63.63,0,0,1,0,.89.59.59,0,0,1-.43.18.63.63,0,1,1,0-1.25ZM96,49.54a.59.59,0,0,1,.43.18.6.6,0,0,1,.18.44.6.6,0,0,1-.61.61.62.62,0,0,1-.44-.18.58.58,0,0,1-.19-.44.63.63,0,0,1,.63-.63Zm0,8.87a.59.59,0,0,1,.43.18.63.63,0,0,1,0,.89.59.59,0,0,1-.43.18.63.63,0,1,1,0-1.25Zm1.48-8.87a.59.59,0,0,1,.43.18.6.6,0,0,1,.18.44.6.6,0,0,1-.61.61.62.62,0,0,1-.44-.18.58.58,0,0,1-.19-.44.63.63,0,0,1,.63-.63Zm0,8.87a.59.59,0,0,1,.43.18.63.63,0,0,1,0,.89.59.59,0,0,1-.43.18.63.63,0,1,1,0-1.25Zm1.45-3a.63.63,0,0,1,.63.63.59.59,0,0,1-.18.44.61.61,0,0,1-.45.18.63.63,0,0,1-.62-.61.6.6,0,0,1,.18-.44A.59.59,0,0,1,98.93,55.46ZM99,51a.59.59,0,0,1,.43.18.6.6,0,0,1,.18.44.6.6,0,0,1-.61.61.62.62,0,0,1-.44-.18.58.58,0,0,1-.19-.44A.63.63,0,0,1,99,51Zm0,1.48a.59.59,0,0,1,.43.18.6.6,0,0,1,.18.44.6.6,0,0,1-.61.61.62.62,0,0,1-.44-.18.58.58,0,0,1-.19-.44A.63.63,0,0,1,99,52.5ZM99,54a.59.59,0,0,1,.43.18.6.6,0,0,1,.18.44.6.6,0,0,1-.61.61.62.62,0,0,1-.44-.18.58.58,0,0,1-.19-.44A.63.63,0,0,1,99,54Zm0,3a.59.59,0,0,1,.43.18.6.6,0,0,1,.18.44.6.6,0,0,1-.61.61.62.62,0,0,1-.44-.18.58.58,0,0,1-.19-.44.63.63,0,0,1,.63-.63Z"/><path class="cls-1" d="M103.19,55.46a.63.63,0,0,1,.63.63.59.59,0,0,1-.18.44.61.61,0,0,1-.45.18.63.63,0,0,1-.61-.61.6.6,0,0,1,.18-.44A.59.59,0,0,1,103.19,55.46Zm0-5.91a.59.59,0,0,1,.43.18.6.6,0,0,1,.18.44.6.6,0,0,1-.61.61.62.62,0,0,1-.44-.18.57.57,0,0,1-.19-.44.63.63,0,0,1,.63-.63Zm0,1.48a.59.59,0,0,1,.43.18.6.6,0,0,1,.18.44.6.6,0,0,1-.61.61.62.62,0,0,1-.44-.18.57.57,0,0,1-.19-.44.63.63,0,0,1,.63-.63Zm0,1.48a.59.59,0,0,1,.43.18.6.6,0,0,1,.18.44.6.6,0,0,1-.61.61.62.62,0,0,1-.44-.18.57.57,0,0,1-.19-.44.63.63,0,0,1,.63-.63Zm0,1.48a.59.59,0,0,1,.43.18.6.6,0,0,1,.18.44.6.6,0,0,1-.61.61.62.62,0,0,1-.44-.18.57.57,0,0,1-.19-.44.63.63,0,0,1,.63-.63Zm0,3a.59.59,0,0,1,.43.18.6.6,0,0,1,.18.44.6.6,0,0,1-.61.61.62.62,0,0,1-.44-.18.57.57,0,0,1-.19-.44.63.63,0,0,1,.63-.63Zm0,1.48a.59.59,0,0,1,.43.18.63.63,0,0,1,0,.89.59.59,0,0,1-.43.18.63.63,0,1,1,0-1.25ZM104.69,51a.59.59,0,0,1,.43.18.6.6,0,0,1,.18.44.6.6,0,0,1-.61.61.62.62,0,0,1-.44-.18.57.57,0,0,1-.19-.44.63.63,0,0,1,.63-.63Zm.73,1.48a.63.63,0,0,1,.63.63.59.59,0,0,1-.18.44.61.61,0,0,1-.45.18.6.6,0,0,1-.61-.61.62.62,0,0,1,.18-.44A.58.58,0,0,1,105.42,52.5Zm.75,1.48a.59.59,0,0,1,.43.18.6.6,0,0,1,.18.44.6.6,0,0,1-.61.61.62.62,0,0,1-.44-.18.57.57,0,0,1-.19-.44.63.63,0,0,1,.63-.63Zm.73,1.48a.63.63,0,0,1,.63.63.59.59,0,0,1-.18.44.61.61,0,0,1-.45.18.6.6,0,0,1-.61-.61.62.62,0,0,1,.18-.44A.58.58,0,0,1,106.9,55.46Zm.75,1.48a.59.59,0,0,1,.43.18.6.6,0,0,1,.18.44.6.6,0,0,1-.61.61.62.62,0,0,1-.44-.18.57.57,0,0,1-.19-.44.63.63,0,0,1,.63-.63Zm1.45-1.48a.63.63,0,0,1,.63.63.59.59,0,0,1-.18.44.61.61,0,0,1-.45.18.63.63,0,0,1-.61-.61.6.6,0,0,1,.18-.44A.59.59,0,0,1,109.1,55.46Zm0-5.91a.59.59,0,0,1,.43.18.6.6,0,0,1,.18.44.6.6,0,0,1-.61.61.62.62,0,0,1-.44-.18.57.57,0,0,1-.19-.44.63.63,0,0,1,.63-.63Zm0,1.48a.59.59,0,0,1,.43.18.6.6,0,0,1,.18.44.6.6,0,0,1-.61.61.62.62,0,0,1-.44-.18.57.57,0,0,1-.19-.44.63.63,0,0,1,.63-.63Zm0,1.48a.59.59,0,0,1,.43.18.6.6,0,0,1,.18.44.6.6,0,0,1-.61.61.62.62,0,0,1-.44-.18.57.57,0,0,1-.19-.44.63.63,0,0,1,.63-.63Zm0,1.48a.59.59,0,0,1,.43.18.6.6,0,0,1,.18.44.6.6,0,0,1-.61.61.62.62,0,0,1-.44-.18.57.57,0,0,1-.19-.44.63.63,0,0,1,.63-.63Zm0,3a.59.59,0,0,1,.43.18.6.6,0,0,1,.18.44.6.6,0,0,1-.61.61.62.62,0,0,1-.44-.18.57.57,0,0,1-.19-.44.63.63,0,0,1,.63-.63Zm0,1.48a.59.59,0,0,1,.43.18.63.63,0,0,1,0,.89.59.59,0,0,1-.43.18.63.63,0,1,1,0-1.25Z"/><rect class="cls-3" x="1.35" y="66.06" width="130.31" height="20.14"/><text class="cls-4" transform="translate(5.72 79.39)"><tspan xml:space="preserve">IA  LEARNING</tspan></text></g></g></svg>