<?xml version="1.0" encoding="utf-8"?>
<!-- Generator: Adobe Illustrator 21.0.2, SVG Export Plug-In . SVG Version: 6.00 Build 0)  -->
<svg version="1.1" id="Layer_1" xmlns="http://www.w3.org/2000/svg" xmlns:xlink="http://www.w3.org/1999/xlink" x="0px" y="0px"
	 viewBox="0 0 73.9 16" style="enable-background:new 0 0 73.9 16;" xml:space="preserve">
<style type="text/css">
	.st0{fill:#60677D;}
	.st1{font-family:'GravurCondensedRegCE';}
	.st2{font-size:12px;}
</style>
<title>ia-website-link</title>
<g id="Layer_2">
	<g id="Layer_2-2">
		<polygon class="st0" points="64.9,3 58.9,8 58.9,16 62.9,16 62.9,12 66.9,12 66.9,16 70.9,16 70.9,8 		"/>
		<polygon class="st0" points="64.9,3 58.9,8 58.9,16 62.9,16 62.9,12 66.9,12 66.9,16 70.9,16 70.9,8 		"/>
		<polygon class="st0" points="57.9,8 64.9,2 71.9,8 73.9,8 64.9,0 55.9,8 		"/>
		<polygon class="st0" points="57.9,8 64.9,2 71.9,8 73.9,8 64.9,0 55.9,8 		"/>
		<polygon class="st0" points="70.9,4 68.9,2 68.9,0 70.9,0 		"/>
		<polygon class="st0" points="70.9,4 68.9,2 68.9,0 70.9,0 		"/>
		<text transform="matrix(1 0 0 1 0 12.78)" class="st0 st1 st2">IA website</text>
	</g>
</g>
</svg>
