<svg xmlns="http://www.w3.org/2000/svg" viewBox="0 0 189.9 125"><defs><style>.cls-1{fill:#fff;}.cls-2{fill:#172242;}.cls-3{fill:#50dab0;}</style></defs><title>Asset 8</title><g id="Layer_2" data-name="Layer 2"><g id="Grid"><rect class="cls-1" x="0.38" y="0.37" width="189.15" height="124.25"/><path class="cls-1" d="M189.15.75v123.5H.75V.75h188.4M189.9,0H0V125H189.9V0Z"/><rect class="cls-2" x="1.92" y="1.92" width="186.06" height="28.76"/><rect class="cls-2" x="1.92" y="32.72" width="186.06" height="28.76"/><rect class="cls-2" x="1.92" y="63.53" width="186.06" height="28.76"/><path class="cls-1" d="M10.79,9a.83.83,0,0,1,.62.26.91.91,0,0,1,0,1.26.89.89,0,0,1-.63.25.92.92,0,0,1-.62-.25A.83.83,0,0,1,9.9,9.9a.86.86,0,0,1,.26-.63A.84.84,0,0,1,10.79,9ZM12.9,9a.83.83,0,0,1,.62.26.91.91,0,0,1,0,1.26.89.89,0,0,1-.63.25.92.92,0,0,1-.62-.25A.83.83,0,0,1,12,9.9a.82.82,0,0,1,.26-.63A.84.84,0,0,1,12.9,9ZM15,17.45a.89.89,0,0,1,.89.89.85.85,0,0,1-.25.63.9.9,0,0,1-.64.25.89.89,0,0,1-.88-.88.86.86,0,0,1,.26-.63A.83.83,0,0,1,15,17.45ZM15,9a.83.83,0,0,1,.62.26.91.91,0,0,1,0,1.26.89.89,0,0,1-.63.25.92.92,0,0,1-.62-.25.83.83,0,0,1-.27-.63.82.82,0,0,1,.26-.63A.84.84,0,0,1,15,9Zm0,2.11a.83.83,0,0,1,.62.26.91.91,0,0,1,0,1.26.89.89,0,0,1-.63.25.92.92,0,0,1-.62-.25.83.83,0,0,1-.27-.63.82.82,0,0,1,.26-.63A.84.84,0,0,1,15,11.12Zm0,2.11a.83.83,0,0,1,.62.26.91.91,0,0,1,0,1.26A.89.89,0,0,1,15,15a.92.92,0,0,1-.62-.25.83.83,0,0,1-.27-.63.82.82,0,0,1,.26-.63A.84.84,0,0,1,15,13.23Zm0,2.11a.83.83,0,0,1,.62.26.91.91,0,0,1,0,1.26.89.89,0,0,1-.63.25.92.92,0,0,1-.62-.25.83.83,0,0,1-.27-.63.82.82,0,0,1,.26-.63A.84.84,0,0,1,15,15.34Zm0,4.22a.83.83,0,0,1,.62.26.86.86,0,0,1,.26.63.81.81,0,0,1-.25.62.86.86,0,0,1-.63.26.89.89,0,0,1-.62-.26.8.8,0,0,1-.27-.62.82.82,0,0,1,.26-.63A.84.84,0,0,1,15,19.56Zm0,2.11a.83.83,0,0,1,.62.26.89.89,0,0,1,0,1.26.88.88,0,0,1-1.25,0,.89.89,0,0,1,0-1.26A.84.84,0,0,1,15,21.67ZM17.12,9a.83.83,0,0,1,.62.26.91.91,0,0,1,0,1.26.89.89,0,0,1-.63.25.92.92,0,0,1-.62-.25.83.83,0,0,1-.27-.63A.89.89,0,0,1,17.12,9Zm2.11,0a.83.83,0,0,1,.62.26.86.86,0,0,1,.26.63.85.85,0,0,1-.88.88.92.92,0,0,1-.62-.25.83.83,0,0,1-.27-.63A.89.89,0,0,1,19.23,9Z"/><path class="cls-1" d="M23.76,17.45A.9.9,0,0,1,24.4,19a.92.92,0,0,1-.64.25.85.85,0,0,1-.62-.26.83.83,0,0,1-.26-.62.89.89,0,0,1,.88-.89Zm0-8.44a.81.81,0,0,1,.61.26.83.83,0,0,1,.27.63.87.87,0,0,1-.88.88.93.93,0,0,1-.63-.25.87.87,0,0,1,0-1.26A.82.82,0,0,1,23.79,9Zm0,2.11a.81.81,0,0,1,.61.26.83.83,0,0,1,.27.63.87.87,0,0,1-.88.88.93.93,0,0,1-.63-.25.87.87,0,0,1,0-1.26A.82.82,0,0,1,23.79,11.12Zm0,2.11a.81.81,0,0,1,.61.26.83.83,0,0,1,.27.63.87.87,0,0,1-.88.88.93.93,0,0,1-.63-.25.87.87,0,0,1,0-1.26A.82.82,0,0,1,23.79,13.23Zm0,2.11a.81.81,0,0,1,.61.26.83.83,0,0,1,.27.63.87.87,0,0,1-.88.88.93.93,0,0,1-.63-.25.87.87,0,0,1,0-1.26A.82.82,0,0,1,23.79,15.34Zm0,4.22a.81.81,0,0,1,.61.26.83.83,0,0,1,.27.63.82.82,0,0,1-.26.62.84.84,0,0,1-.62.26.89.89,0,0,1-.63-.26.8.8,0,0,1-.27-.62.83.83,0,0,1,.27-.63A.82.82,0,0,1,23.79,19.56Zm0,2.11a.81.81,0,0,1,.61.26.87.87,0,0,1,0,1.26.81.81,0,0,1-.61.26.82.82,0,0,1-.63-.26.87.87,0,0,1,0-1.26A.82.82,0,0,1,23.79,21.67Zm2.11-6.33a.81.81,0,0,1,.61.26.83.83,0,0,1,.27.63.87.87,0,0,1-.88.88.93.93,0,0,1-.63-.25.87.87,0,0,1,0-1.26A.82.82,0,0,1,25.9,15.34Zm2.11,0a.81.81,0,0,1,.61.26.83.83,0,0,1,.27.63.87.87,0,0,1-.88.88.93.93,0,0,1-.63-.25.87.87,0,0,1,0-1.26A.82.82,0,0,1,28,15.34Zm2.11,0a.81.81,0,0,1,.61.26.83.83,0,0,1,.27.63.87.87,0,0,1-.88.88.93.93,0,0,1-.63-.25.87.87,0,0,1,0-1.26A.82.82,0,0,1,30.12,15.34Zm2.07,2.11a.89.89,0,0,1,.9.89.89.89,0,0,1-.25.63.92.92,0,0,1-.65.25.85.85,0,0,1-.61-.26.83.83,0,0,1-.26-.62.82.82,0,0,1,.26-.63A.81.81,0,0,1,32.19,17.45Zm0-8.44a.81.81,0,0,1,.61.26.83.83,0,0,1,.27.63.87.87,0,0,1-.88.88.93.93,0,0,1-.63-.25.87.87,0,0,1,0-1.26A.82.82,0,0,1,32.23,9Zm0,2.11a.81.81,0,0,1,.61.26.83.83,0,0,1,.27.63.87.87,0,0,1-.88.88.93.93,0,0,1-.63-.25.87.87,0,0,1,0-1.26A.82.82,0,0,1,32.23,11.12Zm0,2.11a.81.81,0,0,1,.61.26.83.83,0,0,1,.27.63.87.87,0,0,1-.88.88.93.93,0,0,1-.63-.25.87.87,0,0,1,0-1.26A.82.82,0,0,1,32.23,13.23Zm0,2.11a.81.81,0,0,1,.61.26.83.83,0,0,1,.27.63.87.87,0,0,1-.88.88.93.93,0,0,1-.63-.25.87.87,0,0,1,0-1.26A.82.82,0,0,1,32.23,15.34Zm0,4.22a.81.81,0,0,1,.61.26.83.83,0,0,1,.27.63.82.82,0,0,1-.26.62.84.84,0,0,1-.62.26.89.89,0,0,1-.63-.26.8.8,0,0,1-.27-.62.83.83,0,0,1,.27-.63A.82.82,0,0,1,32.23,19.56Zm0,2.11a.81.81,0,0,1,.61.26.87.87,0,0,1,0,1.26.81.81,0,0,1-.61.26.82.82,0,0,1-.63-.26.87.87,0,0,1,0-1.26A.82.82,0,0,1,32.23,21.67Z"/><path class="cls-1" d="M38.25,17.45a.89.89,0,0,1,.9.89.89.89,0,0,1-.25.63.92.92,0,0,1-.65.25.85.85,0,0,1-.61-.26.83.83,0,0,1-.26-.62.82.82,0,0,1,.26-.63A.81.81,0,0,1,38.25,17.45Zm0-8.44a.81.81,0,0,1,.61.26.83.83,0,0,1,.27.63.87.87,0,0,1-.88.88.93.93,0,0,1-.63-.25.83.83,0,0,1-.27-.63.89.89,0,0,1,.9-.89Zm0,2.11a.81.81,0,0,1,.61.26.83.83,0,0,1,.27.63.87.87,0,0,1-.88.88.93.93,0,0,1-.63-.25.83.83,0,0,1-.27-.63.89.89,0,0,1,.9-.89Zm0,2.11a.81.81,0,0,1,.61.26.83.83,0,0,1,.27.63.87.87,0,0,1-.88.88.93.93,0,0,1-.63-.25.83.83,0,0,1-.27-.63.89.89,0,0,1,.9-.89Zm0,2.11a.81.81,0,0,1,.61.26.83.83,0,0,1,.27.63.87.87,0,0,1-.88.88.93.93,0,0,1-.63-.25.83.83,0,0,1-.27-.63.89.89,0,0,1,.9-.89Zm0,4.22a.81.81,0,0,1,.61.26.83.83,0,0,1,.27.63.82.82,0,0,1-.26.62.84.84,0,0,1-.62.26.89.89,0,0,1-.63-.26.8.8,0,0,1-.27-.62.89.89,0,0,1,.9-.89Zm0,2.11a.81.81,0,0,1,.61.26.87.87,0,0,1,0,1.26.81.81,0,0,1-.61.26.89.89,0,1,1,0-1.78ZM40.4,9a.81.81,0,0,1,.61.26.83.83,0,0,1,.27.63.87.87,0,0,1-.88.88.93.93,0,0,1-.63-.25.83.83,0,0,1-.27-.63A.89.89,0,0,1,40.4,9Zm0,6.33a.81.81,0,0,1,.61.26.83.83,0,0,1,.27.63.87.87,0,0,1-.88.88.93.93,0,0,1-.63-.25.83.83,0,0,1-.27-.63.89.89,0,0,1,.9-.89Zm0,6.33a.81.81,0,0,1,.61.26.87.87,0,0,1,0,1.26.81.81,0,0,1-.61.26.89.89,0,1,1,0-1.78ZM42.51,9a.81.81,0,0,1,.61.26.82.82,0,0,1,.26.63.85.85,0,0,1-.25.63.89.89,0,0,1-.62.25.93.93,0,0,1-.63-.25.83.83,0,0,1-.27-.63.89.89,0,0,1,.9-.89Zm0,6.33a.81.81,0,0,1,.61.26.82.82,0,0,1,.26.63.85.85,0,0,1-.25.63.89.89,0,0,1-.62.25.93.93,0,0,1-.63-.25.83.83,0,0,1-.27-.63.89.89,0,0,1,.9-.89Zm0,6.33a.81.81,0,0,1,.61.26.89.89,0,0,1,0,1.26.81.81,0,0,1-.61.26.89.89,0,1,1,0-1.78ZM44.62,9a.81.81,0,0,1,.61.26.82.82,0,0,1,.26.63.85.85,0,0,1-.25.63.89.89,0,0,1-.62.25.93.93,0,0,1-.63-.25.83.83,0,0,1-.27-.63.89.89,0,0,1,.9-.89Zm0,6.33a.81.81,0,0,1,.61.26.82.82,0,0,1,.26.63.85.85,0,0,1-.25.63.89.89,0,0,1-.62.25.93.93,0,0,1-.63-.25.83.83,0,0,1-.27-.63.89.89,0,0,1,.9-.89Zm0,6.33a.81.81,0,0,1,.61.26.89.89,0,0,1,0,1.26.81.81,0,0,1-.61.26.89.89,0,1,1,0-1.78ZM46.73,9a.81.81,0,0,1,.61.26.82.82,0,0,1,.26.63.85.85,0,0,1-.25.63.89.89,0,0,1-.62.25.93.93,0,0,1-.63-.25.83.83,0,0,1-.27-.63.89.89,0,0,1,.9-.89Zm0,12.66a.81.81,0,0,1,.61.26.89.89,0,0,1,0,1.26.81.81,0,0,1-.61.26.89.89,0,1,1,0-1.78Z"/><path class="cls-1" d="M12.9,39.78a.87.87,0,0,1,.62.26.89.89,0,0,1,.26.63.85.85,0,0,1-.88.88.88.88,0,0,1-.62-.25.83.83,0,0,1-.27-.63.85.85,0,0,1,.26-.63A.88.88,0,0,1,12.9,39.78Zm0,12.66a.87.87,0,0,1,.62.26.91.91,0,0,1,0,1.27.88.88,0,0,1-1.25,0,.91.91,0,0,1,0-1.27A.88.88,0,0,1,12.9,52.44ZM15,48.22A.89.89,0,1,1,15,50a.87.87,0,0,1-.62-.26.85.85,0,0,1-.26-.62.89.89,0,0,1,.26-.63A.87.87,0,0,1,15,48.22Zm0-8.44a.87.87,0,0,1,.62.26.89.89,0,0,1,.26.63.85.85,0,0,1-.88.88.88.88,0,0,1-.62-.25.83.83,0,0,1-.27-.63.85.85,0,0,1,.26-.63A.88.88,0,0,1,15,39.78Zm0,2.11a.87.87,0,0,1,.62.26.89.89,0,0,1,.26.63.85.85,0,0,1-.88.88.88.88,0,0,1-.62-.25.83.83,0,0,1-.27-.63.85.85,0,0,1,.26-.63A.88.88,0,0,1,15,41.89ZM15,44a.87.87,0,0,1,.62.26.89.89,0,0,1,.26.63.85.85,0,0,1-.88.88.88.88,0,0,1-.62-.25.83.83,0,0,1-.27-.63.85.85,0,0,1,.26-.63A.88.88,0,0,1,15,44Zm0,2.11a.87.87,0,0,1,.62.26.89.89,0,0,1,.26.63.85.85,0,0,1-.88.88.88.88,0,0,1-.62-.25.83.83,0,0,1-.27-.63.85.85,0,0,1,.26-.63A.88.88,0,0,1,15,46.11Zm0,4.22a.87.87,0,0,1,.62.26.89.89,0,0,1,.26.63.85.85,0,0,1-.88.88.88.88,0,0,1-.62-.25.83.83,0,0,1-.27-.63.85.85,0,0,1,.26-.63A.88.88,0,0,1,15,50.33Zm0,2.11a.87.87,0,0,1,.62.26.91.91,0,0,1,0,1.27.88.88,0,0,1-1.25,0,.91.91,0,0,1,0-1.27A.88.88,0,0,1,15,52.44Zm2.11-12.66a.87.87,0,0,1,.62.26.89.89,0,0,1,.26.63.85.85,0,0,1-.88.88.88.88,0,0,1-.62-.25.83.83,0,0,1-.27-.63.89.89,0,0,1,.89-.89Zm0,12.66a.87.87,0,0,1,.62.26.91.91,0,0,1,0,1.27.87.87,0,0,1-.62.26.9.9,0,0,1,0-1.79Z"/><path class="cls-1" d="M24.09,48.22a.89.89,0,0,1,.9.89.86.86,0,0,1-.26.63.89.89,0,0,1-1.25,0,.82.82,0,0,1-.26-.62.89.89,0,0,1,.87-.89Zm0-8.44a.89.89,0,1,1,0,1.77.88.88,0,0,1-.63-.25.83.83,0,0,1-.27-.63.89.89,0,0,1,.9-.89Zm0,2.11a.89.89,0,1,1,0,1.77.88.88,0,0,1-.63-.25.83.83,0,0,1-.27-.63.89.89,0,0,1,.9-.89Zm0,2.11a.89.89,0,1,1,0,1.77.88.88,0,0,1-.63-.25.83.83,0,0,1-.27-.63.89.89,0,0,1,.9-.89Zm0,2.11a.89.89,0,1,1,0,1.77.88.88,0,0,1-.63-.25.83.83,0,0,1-.27-.63.89.89,0,0,1,.9-.89Zm0,4.22a.89.89,0,1,1,0,1.77.88.88,0,0,1-.63-.25.83.83,0,0,1-.27-.63.89.89,0,0,1,.9-.89Zm0,2.11a.89.89,0,0,1,.87.89.86.86,0,0,1-.26.64.85.85,0,0,1-.61.26.9.9,0,1,1,0-1.79Zm2.11-10.55a.89.89,0,1,1,0,1.77.88.88,0,0,1-.63-.25.83.83,0,0,1-.27-.63.89.89,0,0,1,.9-.89Zm1,2.11a.89.89,0,0,1,.9.89.86.86,0,0,1-.26.63.88.88,0,0,1-1.51-.63.88.88,0,0,1,.25-.62A.83.83,0,0,1,27.28,44Zm1.07,2.11a.89.89,0,1,1,0,1.77.88.88,0,0,1-.63-.25.83.83,0,0,1-.27-.63.89.89,0,0,1,.9-.89Zm1,2.11a.89.89,0,0,1,.9.89.86.86,0,0,1-.26.63.88.88,0,0,1-1.51-.63.88.88,0,0,1,.25-.62A.83.83,0,0,1,29.39,48.22Zm1.07,2.11a.89.89,0,1,1,0,1.77.88.88,0,0,1-.63-.25.83.83,0,0,1-.27-.63.89.89,0,0,1,.9-.89Zm2.07-2.11a.89.89,0,0,1,.9.89.87.87,0,0,1-.9.88.85.85,0,0,1-.61-.26.83.83,0,0,1-.27-.62.86.86,0,0,1,.27-.63A.85.85,0,0,1,32.53,48.22Zm0-8.44a.89.89,0,1,1,0,1.77.88.88,0,0,1-.63-.25.83.83,0,0,1-.27-.63.89.89,0,0,1,.9-.89Zm0,2.11a.89.89,0,1,1,0,1.77.88.88,0,0,1-.63-.25.83.83,0,0,1-.27-.63.89.89,0,0,1,.9-.89Zm0,2.11a.89.89,0,1,1,0,1.77.88.88,0,0,1-.63-.25.83.83,0,0,1-.27-.63.89.89,0,0,1,.9-.89Zm0,2.11a.89.89,0,1,1,0,1.77.88.88,0,0,1-.63-.25.83.83,0,0,1-.27-.63.89.89,0,0,1,.9-.89Zm0,4.22a.89.89,0,1,1,0,1.77.88.88,0,0,1-.63-.25.83.83,0,0,1-.27-.63.89.89,0,0,1,.9-.89Zm0,2.11a.89.89,0,0,1,.87.89.86.86,0,0,1-.26.64.85.85,0,0,1-.61.26.9.9,0,1,1,0-1.79Z"/><path class="cls-1" d="M38.63,39.78a.89.89,0,1,1,0,1.77A.88.88,0,0,1,38,41.3a.83.83,0,0,1-.27-.63.89.89,0,0,1,.9-.89Zm0,2.11a.89.89,0,1,1,0,1.77.88.88,0,0,1-.63-.25.83.83,0,0,1-.27-.63.89.89,0,0,1,.9-.89Zm0,2.11a.89.89,0,1,1,0,1.77.88.88,0,0,1-.63-.25.83.83,0,0,1-.27-.63.89.89,0,0,1,.9-.89Zm1,2.11a.89.89,0,0,1,.64,1.52.84.84,0,0,1-.64.25.83.83,0,0,1-.62-.25.86.86,0,0,1-.26-.63.89.89,0,0,1,.26-.62A.81.81,0,0,1,39.67,46.11Zm1.06,2.11a.89.89,0,1,1,0,1.77.88.88,0,0,1-.62-.25.83.83,0,0,1-.27-.63.89.89,0,0,1,.89-.89Zm1.05,2.11a.89.89,0,1,1,0,1.77.83.83,0,0,1-.62-.25.86.86,0,0,1-.26-.63.89.89,0,0,1,.26-.62A.81.81,0,0,1,41.78,50.33Zm1.06,2.11a.9.9,0,0,1,0,1.79.9.9,0,0,1,0-1.79Zm1-2.11a.89.89,0,1,1,0,1.77.83.83,0,0,1-.62-.25.86.86,0,0,1-.26-.63.89.89,0,0,1,.26-.62A.81.81,0,0,1,43.89,50.33ZM45,48.22A.89.89,0,1,1,45,50a.88.88,0,0,1-.62-.25.83.83,0,0,1-.27-.63.89.89,0,0,1,.89-.89Zm1-2.11a.89.89,0,1,1,0,1.77.83.83,0,0,1-.62-.25.86.86,0,0,1-.26-.63.89.89,0,0,1,.26-.62A.81.81,0,0,1,46,46.11Zm1.06-6.33a.89.89,0,1,1,0,1.77.88.88,0,0,1-.62-.25.83.83,0,0,1-.27-.63.89.89,0,0,1,.89-.89Zm0,2.11a.89.89,0,1,1,0,1.77.88.88,0,0,1-.62-.25.83.83,0,0,1-.27-.63.89.89,0,0,1,.89-.89Zm0,2.11a.89.89,0,1,1,0,1.77.88.88,0,0,1-.62-.25.83.83,0,0,1-.27-.63.89.89,0,0,1,.89-.89Z"/><path class="cls-1" d="M53.09,48.22a.89.89,0,1,1,0,1.77.87.87,0,0,1-.62-.26.85.85,0,0,1-.26-.62.89.89,0,0,1,.26-.63A.87.87,0,0,1,53.09,48.22Zm0-8.44a.85.85,0,0,1,.62.26.89.89,0,0,1,.26.63.85.85,0,0,1-.88.88.88.88,0,0,1-.62-.25.83.83,0,0,1-.27-.63.89.89,0,0,1,.26-.63A.88.88,0,0,1,53.12,39.78Zm0,2.11a.85.85,0,0,1,.62.26.89.89,0,0,1,.26.63.85.85,0,0,1-.88.88.88.88,0,0,1-.62-.25.83.83,0,0,1-.27-.63.89.89,0,0,1,.26-.63A.88.88,0,0,1,53.12,41.89Zm0,2.11a.85.85,0,0,1,.62.26.89.89,0,0,1,.26.63.85.85,0,0,1-.88.88.88.88,0,0,1-.62-.25.83.83,0,0,1-.27-.63.89.89,0,0,1,.26-.63A.88.88,0,0,1,53.12,44Zm0,2.11a.85.85,0,0,1,.62.26A.89.89,0,0,1,54,47a.85.85,0,0,1-.88.88.88.88,0,0,1-.62-.25.83.83,0,0,1-.27-.63.89.89,0,0,1,.26-.63A.88.88,0,0,1,53.12,46.11Zm0,4.22a.85.85,0,0,1,.62.26.89.89,0,0,1,.26.63.85.85,0,0,1-.88.88.88.88,0,0,1-.62-.25.83.83,0,0,1-.27-.63.89.89,0,0,1,.26-.63A.88.88,0,0,1,53.12,50.33Zm0,2.11a.85.85,0,0,1,.62.26.91.91,0,0,1,0,1.27.85.85,0,0,1-.62.26.88.88,0,0,1-.63-.26.91.91,0,0,1,0-1.27A.88.88,0,0,1,53.12,52.44Zm2.11-12.66a.85.85,0,0,1,.62.26.89.89,0,0,1,.26.63.85.85,0,0,1-.88.88.88.88,0,0,1-.62-.25.83.83,0,0,1-.27-.63A.89.89,0,0,1,54.6,40,.88.88,0,0,1,55.23,39.78Zm0,6.33a.85.85,0,0,1,.62.26.89.89,0,0,1,.26.63.85.85,0,0,1-.88.88.88.88,0,0,1-.62-.25.83.83,0,0,1-.27-.63.89.89,0,0,1,.26-.63A.88.88,0,0,1,55.23,46.11Zm0,6.33a.85.85,0,0,1,.62.26.91.91,0,0,1,0,1.27.85.85,0,0,1-.62.26A.88.88,0,0,1,54.6,54a.91.91,0,0,1,0-1.27A.88.88,0,0,1,55.23,52.44Zm2.11-12.66A.85.85,0,0,1,58,40a.89.89,0,0,1,.26.63.85.85,0,0,1-.88.88.88.88,0,0,1-.62-.25.83.83,0,0,1-.27-.63.89.89,0,0,1,.26-.63A.88.88,0,0,1,57.34,39.78Zm0,6.33a.85.85,0,0,1,.62.26.89.89,0,0,1,.26.63.85.85,0,0,1-.88.88.88.88,0,0,1-.62-.25.83.83,0,0,1-.27-.63.89.89,0,0,1,.26-.63A.88.88,0,0,1,57.34,46.11Zm0,6.33a.85.85,0,0,1,.62.26A.91.91,0,0,1,58,54a.85.85,0,0,1-.62.26.88.88,0,0,1-.63-.26.91.91,0,0,1,0-1.27A.88.88,0,0,1,57.34,52.44Zm2.11-12.66a.85.85,0,0,1,.62.26.89.89,0,0,1,.26.63.85.85,0,0,1-.88.88.88.88,0,0,1-.62-.25.83.83,0,0,1-.27-.63.89.89,0,0,1,.26-.63A.88.88,0,0,1,59.45,39.78Zm0,6.33a.85.85,0,0,1,.62.26.89.89,0,0,1,.26.63.85.85,0,0,1-.88.88.88.88,0,0,1-.62-.25.83.83,0,0,1-.27-.63.89.89,0,0,1,.26-.63A.88.88,0,0,1,59.45,46.11Zm0,6.33a.85.85,0,0,1,.62.26.91.91,0,0,1,0,1.27.85.85,0,0,1-.62.26.88.88,0,0,1-.63-.26.91.91,0,0,1,0-1.27A.88.88,0,0,1,59.45,52.44Zm2.11-12.66a.85.85,0,0,1,.62.26.89.89,0,0,1,.26.63.85.85,0,0,1-.88.88.88.88,0,0,1-.62-.25.83.83,0,0,1-.27-.63.89.89,0,0,1,.26-.63A.88.88,0,0,1,61.56,39.78Zm0,12.66a.85.85,0,0,1,.62.26.91.91,0,0,1,0,1.27.85.85,0,0,1-.62.26.88.88,0,0,1-.63-.26.91.91,0,0,1,0-1.27A.88.88,0,0,1,61.56,52.44Z"/><path class="cls-1" d="M67.3,41.89a.87.87,0,0,1,.62.26.91.91,0,0,1,0,1.26.85.85,0,0,1-.63.25.88.88,0,0,1-.62-.25.83.83,0,0,1-.27-.63.89.89,0,0,1,.89-.89Zm0,2.11a.87.87,0,0,1,.62.26.91.91,0,0,1,0,1.26.85.85,0,0,1-.63.25.88.88,0,0,1-.62-.25.83.83,0,0,1-.27-.63A.89.89,0,0,1,67.3,44Zm0,6.33a.87.87,0,0,1,.62.26.91.91,0,0,1,0,1.26.85.85,0,0,1-.63.25.88.88,0,0,1-.62-.25.83.83,0,0,1-.27-.63.89.89,0,0,1,.89-.89Zm2.11-10.55A.87.87,0,0,1,70,40a.91.91,0,0,1,0,1.26.85.85,0,0,1-.63.25.88.88,0,0,1-.62-.25.83.83,0,0,1-.27-.63.89.89,0,0,1,.89-.89Zm0,6.33a.87.87,0,0,1,.62.26.91.91,0,0,1,0,1.26.85.85,0,0,1-.63.25.88.88,0,0,1-.62-.25.83.83,0,0,1-.27-.63.89.89,0,0,1,.89-.89Zm0,6.33a.87.87,0,0,1,.62.26A.91.91,0,0,1,70,54a.87.87,0,0,1-.62.26.9.9,0,0,1,0-1.79Zm2.11-12.66a.87.87,0,0,1,.62.26.91.91,0,0,1,0,1.26.85.85,0,0,1-.63.25.88.88,0,0,1-.62-.25.83.83,0,0,1-.27-.63.89.89,0,0,1,.89-.89Zm0,6.33a.87.87,0,0,1,.62.26.91.91,0,0,1,0,1.26.85.85,0,0,1-.63.25.88.88,0,0,1-.62-.25.83.83,0,0,1-.27-.63.89.89,0,0,1,.89-.89Zm0,6.33a.87.87,0,0,1,.62.26.91.91,0,0,1,0,1.27.87.87,0,0,1-.62.26.9.9,0,0,1,0-1.79Zm2.11-12.66a.87.87,0,0,1,.62.26.91.91,0,0,1,0,1.26.85.85,0,0,1-.63.25A.86.86,0,0,1,73,41.3a.83.83,0,0,1-.27-.63.89.89,0,0,1,.89-.89Zm0,6.33a.87.87,0,0,1,.62.26.91.91,0,0,1,0,1.26.85.85,0,0,1-.63.25.86.86,0,0,1-.62-.25.83.83,0,0,1-.27-.63.89.89,0,0,1,.89-.89Zm0,6.33a.87.87,0,0,1,.62.26.91.91,0,0,1,0,1.27.87.87,0,0,1-.62.26.9.9,0,0,1,0-1.79Zm2.08-4.22a.86.86,0,0,1,.63.26.89.89,0,0,1,.26.63.86.86,0,0,1-.89.88.87.87,0,0,1-.62-.26.85.85,0,0,1-.26-.62.89.89,0,0,1,.26-.63A.87.87,0,0,1,75.71,48.22Zm0-6.33a.87.87,0,0,1,.62.26.91.91,0,0,1,0,1.26.85.85,0,0,1-.63.25.86.86,0,0,1-.62-.25.83.83,0,0,1-.27-.63.89.89,0,0,1,.89-.89Zm0,8.44a.87.87,0,0,1,.62.26.91.91,0,0,1,0,1.26.85.85,0,0,1-.63.25.86.86,0,0,1-.62-.25.83.83,0,0,1-.27-.63.89.89,0,0,1,.89-.89Z"/><path class="cls-1" d="M80.3,39.78a.85.85,0,0,1,.61.26.88.88,0,0,1,0,1.26.83.83,0,0,1-.62.25.88.88,0,0,1-.63-.25.83.83,0,0,1-.27-.63.9.9,0,0,1,.9-.89Zm2.11,0A.85.85,0,0,1,83,40a.88.88,0,0,1,0,1.26.83.83,0,0,1-.62.25.88.88,0,0,1-.63-.25.83.83,0,0,1-.27-.63.9.9,0,0,1,.9-.89Zm2.07,8.44a.9.9,0,0,1,.65,1.52.88.88,0,0,1-.65.25.85.85,0,0,1-.61-.26.82.82,0,0,1-.26-.62.89.89,0,0,1,.87-.89Zm0-8.44a.85.85,0,0,1,.61.26.88.88,0,0,1,0,1.26.83.83,0,0,1-.62.25.88.88,0,0,1-.63-.25.83.83,0,0,1-.27-.63.9.9,0,0,1,.9-.89Zm0,2.11a.85.85,0,0,1,.61.26.88.88,0,0,1,0,1.26.83.83,0,0,1-.62.25.88.88,0,0,1-.63-.25.83.83,0,0,1-.27-.63.9.9,0,0,1,.9-.89Zm0,2.11a.85.85,0,0,1,.61.26.88.88,0,0,1,0,1.26.83.83,0,0,1-.62.25.88.88,0,0,1-.63-.25.83.83,0,0,1-.27-.63.9.9,0,0,1,.9-.89Zm0,2.11a.85.85,0,0,1,.61.26.88.88,0,0,1,0,1.26.83.83,0,0,1-.62.25.88.88,0,0,1-.63-.25.83.83,0,0,1-.27-.63.9.9,0,0,1,.9-.89Zm0,4.22a.85.85,0,0,1,.61.26.88.88,0,0,1,0,1.26.83.83,0,0,1-.62.25.88.88,0,0,1-.63-.25.83.83,0,0,1-.27-.63.9.9,0,0,1,.9-.89Zm0,2.11a.85.85,0,0,1,.61.26.88.88,0,0,1,0,1.27.85.85,0,0,1-.61.26.86.86,0,0,1-.63-.26.88.88,0,0,1,0-1.27A.86.86,0,0,1,84.52,52.44Zm2.11-12.66a.85.85,0,0,1,.61.26.88.88,0,0,1,0,1.26.83.83,0,0,1-.62.25A.88.88,0,0,1,86,41.3a.83.83,0,0,1-.27-.63.9.9,0,0,1,.9-.89Zm2.11,0a.85.85,0,0,1,.61.26.88.88,0,0,1,0,1.26.83.83,0,0,1-.62.25.88.88,0,0,1-.63-.25.83.83,0,0,1-.27-.63.9.9,0,0,1,.9-.89Z"/><path class="cls-1" d="M94.1,48.22a.89.89,0,0,1,.9.89.85.85,0,0,1-.25.63.88.88,0,0,1-.65.25.85.85,0,0,1-.61-.26.82.82,0,0,1-.26-.62.89.89,0,0,1,.87-.89Zm0-8.44a.87.87,0,0,1,.62.26.89.89,0,0,1,.26.63.86.86,0,0,1-.26.63.83.83,0,0,1-.62.25.88.88,0,0,1-.63-.25.83.83,0,0,1-.27-.63.9.9,0,0,1,.9-.89Zm0,2.11a.87.87,0,0,1,.62.26.89.89,0,0,1,.26.63.86.86,0,0,1-.26.63.83.83,0,0,1-.62.25.88.88,0,0,1-.63-.25.83.83,0,0,1-.27-.63.9.9,0,0,1,.9-.89Zm0,2.11a.87.87,0,0,1,.62.26.89.89,0,0,1,.26.63.86.86,0,0,1-.26.63.83.83,0,0,1-.62.25.88.88,0,0,1-.63-.25.83.83,0,0,1-.27-.63.9.9,0,0,1,.9-.89Zm0,2.11a.87.87,0,0,1,.62.26A.89.89,0,0,1,95,47a.86.86,0,0,1-.26.63.83.83,0,0,1-.62.25.88.88,0,0,1-.63-.25.83.83,0,0,1-.27-.63.9.9,0,0,1,.9-.89Zm0,4.22a.87.87,0,0,1,.62.26.89.89,0,0,1,.26.63.86.86,0,0,1-.26.63.83.83,0,0,1-.62.25.88.88,0,0,1-.63-.25.83.83,0,0,1-.27-.63.9.9,0,0,1,.9-.89Zm0,2.11a.87.87,0,0,1,.62.26.91.91,0,0,1,0,1.27.87.87,0,0,1-.62.26.86.86,0,0,1-.63-.26.88.88,0,0,1,0-1.27A.86.86,0,0,1,94.14,52.44Zm2.11-10.55a.85.85,0,0,1,.61.26.88.88,0,0,1,0,1.26.83.83,0,0,1-.62.25.88.88,0,0,1-.63-.25.83.83,0,0,1-.27-.63.9.9,0,0,1,.9-.89Zm1,2.11a.9.9,0,0,1,.64,1.52.87.87,0,0,1-.64.25.85.85,0,0,1-.88-.88.88.88,0,0,1,.25-.62A.83.83,0,0,1,97.3,44Zm1.06,2.11a.85.85,0,0,1,.61.26.88.88,0,0,1,0,1.26.83.83,0,0,1-.62.25.88.88,0,0,1-.63-.25.83.83,0,0,1-.27-.63.9.9,0,0,1,.9-.89Zm0,2.11a.85.85,0,0,1,.61.26.88.88,0,0,1,0,1.26.83.83,0,0,1-.62.25.88.88,0,0,1-.63-.25.83.83,0,0,1-.27-.63.9.9,0,0,1,.9-.89Zm1-4.22a.9.9,0,0,1,.64,1.52.87.87,0,0,1-.64.25.85.85,0,0,1-.88-.88.88.88,0,0,1,.25-.62A.83.83,0,0,1,99.41,44Zm1.06-2.11a.85.85,0,0,1,.61.26.88.88,0,0,1,0,1.26.83.83,0,0,1-.62.25.88.88,0,0,1-.63-.25.83.83,0,0,1-.27-.63.9.9,0,0,1,.9-.89Zm2.07,6.33a.9.9,0,0,1,.65,1.52.88.88,0,0,1-.65.25.85.85,0,0,1-.61-.26.82.82,0,0,1-.26-.62.89.89,0,0,1,.87-.89Zm0-8.44a.85.85,0,0,1,.61.26.88.88,0,0,1,0,1.26.83.83,0,0,1-.62.25.88.88,0,0,1-.63-.25.83.83,0,0,1-.27-.63.9.9,0,0,1,.9-.89Zm0,2.11a.85.85,0,0,1,.61.26.88.88,0,0,1,0,1.26.83.83,0,0,1-.62.25.88.88,0,0,1-.63-.25.83.83,0,0,1-.27-.63.9.9,0,0,1,.9-.89Zm0,2.11a.85.85,0,0,1,.61.26.88.88,0,0,1,0,1.26.83.83,0,0,1-.62.25.88.88,0,0,1-.63-.25.83.83,0,0,1-.27-.63.9.9,0,0,1,.9-.89Zm0,2.11a.85.85,0,0,1,.61.26.88.88,0,0,1,0,1.26.83.83,0,0,1-.62.25.88.88,0,0,1-.63-.25.83.83,0,0,1-.27-.63.9.9,0,0,1,.9-.89Zm0,4.22a.85.85,0,0,1,.61.26.88.88,0,0,1,0,1.26.83.83,0,0,1-.62.25.88.88,0,0,1-.63-.25.83.83,0,0,1-.27-.63.9.9,0,0,1,.9-.89Zm0,2.11a.85.85,0,0,1,.61.26.88.88,0,0,1,0,1.27.85.85,0,0,1-.61.26A.86.86,0,0,1,102,54a.88.88,0,0,1,0-1.27A.86.86,0,0,1,102.58,52.44Z"/><path class="cls-1" d="M108.79,48.22a.89.89,0,1,1,0,1.77.87.87,0,0,1-.62-.26.85.85,0,0,1-.26-.62.89.89,0,0,1,.26-.63A.87.87,0,0,1,108.79,48.22Zm0-8.44a.87.87,0,0,1,.62.26.89.89,0,0,1,.26.63.85.85,0,0,1-.88.88.88.88,0,0,1-.62-.25.83.83,0,0,1-.27-.63.89.89,0,0,1,.26-.63A.88.88,0,0,1,108.82,39.78Zm0,2.11a.87.87,0,0,1,.62.26.89.89,0,0,1,.26.63.85.85,0,0,1-.88.88.88.88,0,0,1-.62-.25.83.83,0,0,1-.27-.63.89.89,0,0,1,.26-.63A.88.88,0,0,1,108.82,41.89Zm0,2.11a.87.87,0,0,1,.62.26.89.89,0,0,1,.26.63.85.85,0,0,1-.88.88.88.88,0,0,1-.62-.25.83.83,0,0,1-.27-.63.89.89,0,0,1,.26-.63A.88.88,0,0,1,108.82,44Zm0,2.11a.87.87,0,0,1,.62.26.89.89,0,0,1,.26.63.85.85,0,0,1-.88.88.88.88,0,0,1-.62-.25.83.83,0,0,1-.27-.63.89.89,0,0,1,.26-.63A.88.88,0,0,1,108.82,46.11Zm0,4.22a.87.87,0,0,1,.62.26.89.89,0,0,1,.26.63.85.85,0,0,1-.88.88.88.88,0,0,1-.62-.25.83.83,0,0,1-.27-.63.89.89,0,0,1,.26-.63A.88.88,0,0,1,108.82,50.33Zm0,2.11a.87.87,0,0,1,.62.26.91.91,0,0,1,0,1.27.88.88,0,0,1-1.25,0,.91.91,0,0,1,0-1.27A.88.88,0,0,1,108.82,52.44Zm2.11-12.66a.87.87,0,0,1,.62.26.89.89,0,0,1,.26.63.85.85,0,0,1-.88.88.88.88,0,0,1-.62-.25.83.83,0,0,1-.27-.63.89.89,0,0,1,.26-.63A.86.86,0,0,1,110.93,39.78Zm0,6.33a.87.87,0,0,1,.62.26.89.89,0,0,1,.26.63.85.85,0,0,1-.88.88.88.88,0,0,1-.62-.25A.83.83,0,0,1,110,47a.89.89,0,0,1,.26-.63A.86.86,0,0,1,110.93,46.11Zm0,6.33a.87.87,0,0,1,.62.26.91.91,0,0,1,0,1.27.87.87,0,0,1-.62.26.86.86,0,0,1-.63-.26.91.91,0,0,1,0-1.27A.86.86,0,0,1,110.93,52.44ZM113,39.78a.87.87,0,0,1,.62.26.89.89,0,0,1,.26.63.85.85,0,0,1-.88.88.88.88,0,0,1-.62-.25.83.83,0,0,1-.27-.63.89.89,0,0,1,.26-.63A.86.86,0,0,1,113,39.78Zm0,6.33a.87.87,0,0,1,.62.26.89.89,0,0,1,.26.63.85.85,0,0,1-.88.88.88.88,0,0,1-.62-.25.83.83,0,0,1-.27-.63.89.89,0,0,1,.26-.63A.86.86,0,0,1,113,46.11Zm0,6.33a.87.87,0,0,1,.62.26.91.91,0,0,1,0,1.27.87.87,0,0,1-.62.26.86.86,0,0,1-.63-.26.91.91,0,0,1,0-1.27A.86.86,0,0,1,113,52.44Zm2.11-12.66a.87.87,0,0,1,.62.26.89.89,0,0,1,.26.63.85.85,0,0,1-.88.88.88.88,0,0,1-.62-.25.83.83,0,0,1-.27-.63.89.89,0,0,1,.26-.63A.86.86,0,0,1,115.15,39.78Zm0,6.33a.87.87,0,0,1,.62.26A.89.89,0,0,1,116,47a.85.85,0,0,1-.88.88.88.88,0,0,1-.62-.25.83.83,0,0,1-.27-.63.89.89,0,0,1,.26-.63A.86.86,0,0,1,115.15,46.11Zm0,6.33a.87.87,0,0,1,.62.26.91.91,0,0,1,0,1.27.87.87,0,0,1-.62.26.86.86,0,0,1-.63-.26.91.91,0,0,1,0-1.27A.86.86,0,0,1,115.15,52.44Zm2.11-12.66a.87.87,0,0,1,.62.26.89.89,0,0,1,.26.63.85.85,0,0,1-.88.88.88.88,0,0,1-.62-.25.83.83,0,0,1-.27-.63.89.89,0,0,1,.89-.89Zm0,12.66a.87.87,0,0,1,.62.26.91.91,0,0,1,0,1.27.87.87,0,0,1-.62.26.9.9,0,0,1,0-1.79Z"/><path class="cls-1" d="M123,48.22a.88.88,0,0,1,.63.26.89.89,0,0,1,.26.63A.86.86,0,0,1,123,50a.87.87,0,0,1-.62-.26.85.85,0,0,1-.26-.62.89.89,0,0,1,.26-.63A.87.87,0,0,1,123,48.22Zm0-8.44a.87.87,0,0,1,.62.26.91.91,0,0,1,0,1.26.85.85,0,0,1-.63.25.88.88,0,0,1-.62-.25.83.83,0,0,1-.27-.63.89.89,0,0,1,.89-.89Zm0,2.11a.87.87,0,0,1,.62.26.91.91,0,0,1,0,1.26.85.85,0,0,1-.63.25.88.88,0,0,1-.62-.25.83.83,0,0,1-.27-.63.89.89,0,0,1,.89-.89ZM123,44a.87.87,0,0,1,.62.26.91.91,0,0,1,0,1.26.85.85,0,0,1-.63.25.88.88,0,0,1-.62-.25.83.83,0,0,1-.27-.63A.89.89,0,0,1,123,44Zm0,2.11a.87.87,0,0,1,.62.26.91.91,0,0,1,0,1.26.85.85,0,0,1-.63.25.88.88,0,0,1-.62-.25.83.83,0,0,1-.27-.63.89.89,0,0,1,.89-.89Zm0,4.22a.87.87,0,0,1,.62.26.91.91,0,0,1,0,1.26.85.85,0,0,1-.63.25.88.88,0,0,1-.62-.25.83.83,0,0,1-.27-.63.89.89,0,0,1,.89-.89Zm0,2.11a.87.87,0,0,1,.62.26.91.91,0,0,1,0,1.27.87.87,0,0,1-.62.26.9.9,0,0,1,0-1.79Zm2.11-10.55a.87.87,0,0,1,.62.26.91.91,0,0,1,0,1.26.85.85,0,0,1-.63.25.86.86,0,0,1-.62-.25.83.83,0,0,1-.27-.63.89.89,0,0,1,.89-.89Zm1,2.11a.86.86,0,0,1,.63.26.89.89,0,0,1,.26.63.89.89,0,1,1-1.77,0,.88.88,0,0,1,.25-.62A.83.83,0,0,1,126.16,44Zm1.06,2.11a.87.87,0,0,1,.62.26.91.91,0,0,1,0,1.26.85.85,0,0,1-.63.25.86.86,0,0,1-.62-.25.83.83,0,0,1-.27-.63.89.89,0,0,1,.89-.89Zm1.05,2.11a.88.88,0,0,1,.63.26.89.89,0,0,1,.26.63.89.89,0,1,1-1.77,0,.88.88,0,0,1,.25-.62A.83.83,0,0,1,128.27,48.22Zm1.06,2.11a.87.87,0,0,1,.62.26.91.91,0,0,1,0,1.26.85.85,0,0,1-.63.25.86.86,0,0,1-.62-.25.83.83,0,0,1-.27-.63.89.89,0,0,1,.89-.89Zm2.08-2.11a.88.88,0,0,1,.63.26.89.89,0,0,1,.26.63.89.89,0,0,1-1.77,0,.89.89,0,0,1,.26-.63A.85.85,0,0,1,131.41,48.22Zm0-8.44a.87.87,0,0,1,.62.26.91.91,0,0,1,0,1.26.85.85,0,0,1-.63.25.86.86,0,0,1-.62-.25.83.83,0,0,1-.27-.63.89.89,0,0,1,.89-.89Zm0,2.11a.87.87,0,0,1,.62.26.91.91,0,0,1,0,1.26.85.85,0,0,1-.63.25.86.86,0,0,1-.62-.25.83.83,0,0,1-.27-.63.89.89,0,0,1,.89-.89Zm0,2.11a.87.87,0,0,1,.62.26.91.91,0,0,1,0,1.26.85.85,0,0,1-.63.25.86.86,0,0,1-.62-.25.83.83,0,0,1-.27-.63.89.89,0,0,1,.89-.89Zm0,2.11a.87.87,0,0,1,.62.26.91.91,0,0,1,0,1.26.85.85,0,0,1-.63.25.86.86,0,0,1-.62-.25.83.83,0,0,1-.27-.63.89.89,0,0,1,.89-.89Zm0,4.22a.87.87,0,0,1,.62.26.91.91,0,0,1,0,1.26.85.85,0,0,1-.63.25.86.86,0,0,1-.62-.25.83.83,0,0,1-.27-.63.89.89,0,0,1,.89-.89Zm0,2.11a.87.87,0,0,1,.62.26.91.91,0,0,1,0,1.27.87.87,0,0,1-.62.26.9.9,0,0,1,0-1.79Z"/><path class="cls-1" d="M137.18,39.78a.87.87,0,0,1,.62.26.89.89,0,0,1,.26.63.86.86,0,0,1-.26.63.83.83,0,0,1-.62.25.9.9,0,0,1-.63-.25.83.83,0,0,1-.27-.63.9.9,0,0,1,.9-.89Zm2.11,0a.87.87,0,0,1,.62.26.89.89,0,0,1,.26.63.86.86,0,0,1-.26.63.83.83,0,0,1-.62.25.9.9,0,0,1-.63-.25.83.83,0,0,1-.27-.63.9.9,0,0,1,.9-.89Zm2.08,8.44a.89.89,0,0,1,.89.89.85.85,0,0,1-.25.63.87.87,0,0,1-.64.25.85.85,0,0,1-.62-.26.82.82,0,0,1-.26-.62.89.89,0,0,1,.88-.89Zm0-8.44A.87.87,0,0,1,142,40a.89.89,0,0,1,.26.63.86.86,0,0,1-.26.63.83.83,0,0,1-.62.25.9.9,0,0,1-.63-.25.83.83,0,0,1-.27-.63.9.9,0,0,1,.9-.89Zm0,2.11a.87.87,0,0,1,.62.26.89.89,0,0,1,.26.63.86.86,0,0,1-.26.63.83.83,0,0,1-.62.25.9.9,0,0,1-.63-.25.83.83,0,0,1-.27-.63.9.9,0,0,1,.9-.89Zm0,2.11a.87.87,0,0,1,.62.26.89.89,0,0,1,.26.63.86.86,0,0,1-.26.63.83.83,0,0,1-.62.25.9.9,0,0,1-.63-.25.83.83,0,0,1-.27-.63.9.9,0,0,1,.9-.89Zm0,2.11a.87.87,0,0,1,.62.26.89.89,0,0,1,.26.63.86.86,0,0,1-.26.63.83.83,0,0,1-.62.25.9.9,0,0,1-.63-.25.83.83,0,0,1-.27-.63.9.9,0,0,1,.9-.89Zm0,4.22a.87.87,0,0,1,.62.26.89.89,0,0,1,.26.63.86.86,0,0,1-.26.63.83.83,0,0,1-.62.25.9.9,0,0,1-.63-.25.83.83,0,0,1-.27-.63.9.9,0,0,1,.9-.89Zm0,2.11a.87.87,0,0,1,.62.26A.91.91,0,0,1,142,54a.87.87,0,0,1-.62.26.86.86,0,0,1-.63-.26.88.88,0,0,1,0-1.27A.86.86,0,0,1,141.4,52.44Zm2.11-12.66a.87.87,0,0,1,.62.26.89.89,0,0,1,.26.63.86.86,0,0,1-.26.63.83.83,0,0,1-.62.25.88.88,0,0,1-.63-.25.83.83,0,0,1-.27-.63.9.9,0,0,1,.9-.89Zm2.11,0a.87.87,0,0,1,.62.26.89.89,0,0,1,.26.63.86.86,0,0,1-.26.63.83.83,0,0,1-.62.25.88.88,0,0,1-.63-.25.83.83,0,0,1-.27-.63.9.9,0,0,1,.9-.89Z"/><path class="cls-1" d="M10.76,79.18a.89.89,0,0,1,.89.9.84.84,0,0,1-.25.62.86.86,0,0,1-.64.25.83.83,0,0,1-.62-.26.85.85,0,0,1-.26-.61.9.9,0,0,1,.26-.64A.87.87,0,0,1,10.76,79.18Zm0,2.11a.87.87,0,0,1,.62.26.9.9,0,0,1,.26.64.85.85,0,0,1-.88.87.88.88,0,0,1-.62-.25.83.83,0,0,1-.27-.62.9.9,0,0,1,.26-.64A.88.88,0,0,1,10.79,81.29Zm0,2.11a.87.87,0,0,1,.62.26.9.9,0,0,1,.26.64.89.89,0,1,1-1.77,0,.9.9,0,0,1,.26-.64A.88.88,0,0,1,10.79,83.4Zm1.05-6.33a.89.89,0,0,1,.89.9.84.84,0,0,1-.25.62.93.93,0,0,1-1.27,0A.89.89,0,0,1,11,78a.93.93,0,0,1,.25-.63A.83.83,0,0,1,11.84,77.07ZM12.9,75a.87.87,0,0,1,.62.26.9.9,0,0,1,.26.64.85.85,0,0,1-.88.87.88.88,0,0,1-.62-.25.83.83,0,0,1-.27-.62.86.86,0,0,1,.26-.64A.88.88,0,0,1,12.9,75Zm0,4.22a.87.87,0,0,1,.62.26.9.9,0,0,1,.26.64.85.85,0,0,1-.88.87.88.88,0,0,1-.62-.25.83.83,0,0,1-.27-.62.86.86,0,0,1,.26-.64A.88.88,0,0,1,12.9,79.18Zm1-6.33a.89.89,0,0,1,.89.9.84.84,0,0,1-.25.62.93.93,0,0,1-1.27,0,.89.89,0,0,1-.25-.62.93.93,0,0,1,.25-.63A.83.83,0,0,1,14,72.85ZM15,70.74a.87.87,0,0,1,.62.26.9.9,0,0,1,.26.64.85.85,0,0,1-.88.87.88.88,0,0,1-.62-.25.83.83,0,0,1-.27-.62.86.86,0,0,1,.26-.64A.88.88,0,0,1,15,70.74Zm0,8.44a.87.87,0,0,1,.62.26.9.9,0,0,1,.26.64A.85.85,0,0,1,15,81a.88.88,0,0,1-.62-.25.83.83,0,0,1-.27-.62.86.86,0,0,1,.26-.64A.88.88,0,0,1,15,79.18Zm1-6.33a.89.89,0,0,1,.89.9.84.84,0,0,1-.25.62.93.93,0,0,1-1.27,0,.89.89,0,0,1-.25-.62.93.93,0,0,1,.25-.63A.83.83,0,0,1,16.06,72.85ZM17.12,75a.87.87,0,0,1,.62.26.9.9,0,0,1,.26.64.85.85,0,0,1-.88.87.88.88,0,0,1-.62-.25.83.83,0,0,1-.27-.62.89.89,0,0,1,.89-.9Zm0,4.22a.87.87,0,0,1,.62.26.9.9,0,0,1,.26.64.85.85,0,0,1-.88.87.88.88,0,0,1-.62-.25.83.83,0,0,1-.27-.62.89.89,0,0,1,.89-.9Zm1.05-2.11a.89.89,0,0,1,.89.9.84.84,0,0,1-.25.62.93.93,0,0,1-1.27,0,.84.84,0,0,1-.25-.62.88.88,0,0,1,.25-.63A.83.83,0,0,1,18.17,77.07Zm1,2.11a.86.86,0,0,1,.63.26.9.9,0,0,1,.26.64.84.84,0,0,1-.25.62.86.86,0,0,1-.64.25.83.83,0,0,1-.62-.26.85.85,0,0,1-.26-.61.9.9,0,0,1,.26-.64A.87.87,0,0,1,19.2,79.18Zm0,2.11a.87.87,0,0,1,.62.26.9.9,0,0,1,.26.64.89.89,0,0,1-.25.62.85.85,0,0,1-.63.25.88.88,0,0,1-.62-.25.83.83,0,0,1-.27-.62.89.89,0,0,1,.89-.9Zm0,2.11a.87.87,0,0,1,.62.26.9.9,0,0,1,.26.64.89.89,0,0,1-.88.89.86.86,0,0,1-.63-.26.84.84,0,0,1-.26-.63.89.89,0,0,1,.89-.9Z"/><path class="cls-1" d="M25,72.85a.87.87,0,0,1,.62.26.9.9,0,0,1,.26.64.89.89,0,0,1-.25.62.85.85,0,0,1-.63.25.86.86,0,0,1-.62-.25.83.83,0,0,1-.27-.62.89.89,0,0,1,.89-.9ZM25,75a.87.87,0,0,1,.62.26.9.9,0,0,1,.26.64.89.89,0,0,1-.25.62.85.85,0,0,1-.63.25.86.86,0,0,1-.62-.25.83.83,0,0,1-.27-.62A.89.89,0,0,1,25,75Zm0,6.33a.87.87,0,0,1,.62.26.9.9,0,0,1,.26.64.89.89,0,0,1-.25.62.85.85,0,0,1-.63.25.86.86,0,0,1-.62-.25.83.83,0,0,1-.27-.62.89.89,0,0,1,.89-.9Zm2.11-10.55a.87.87,0,0,1,.62.26.9.9,0,0,1,.26.64.89.89,0,0,1-.25.62.85.85,0,0,1-.63.25.86.86,0,0,1-.62-.25.83.83,0,0,1-.27-.62.89.89,0,0,1,.89-.9Zm0,6.33a.87.87,0,0,1,.62.26A.9.9,0,0,1,28,78a.89.89,0,0,1-.25.62.85.85,0,0,1-.63.25.86.86,0,0,1-.62-.25.83.83,0,0,1-.27-.62.89.89,0,0,1,.89-.9Zm0,6.33a.87.87,0,0,1,.62.26.9.9,0,0,1,.26.64.89.89,0,0,1-.88.89.86.86,0,0,1-.63-.26.84.84,0,0,1-.26-.63.89.89,0,0,1,.89-.9Zm2.11-12.66a.87.87,0,0,1,.62.26.9.9,0,0,1,.26.64.85.85,0,0,1-.26.62.81.81,0,0,1-.62.25.86.86,0,0,1-.62-.25.83.83,0,0,1-.27-.62.89.89,0,0,1,.89-.9Zm0,6.33a.87.87,0,0,1,.62.26.9.9,0,0,1,.26.64.85.85,0,0,1-.26.62.81.81,0,0,1-.62.25.86.86,0,0,1-.62-.25A.83.83,0,0,1,28.3,78a.89.89,0,0,1,.89-.9Zm0,6.33a.87.87,0,0,1,.62.26.9.9,0,0,1,.26.64.89.89,0,0,1-.88.89.86.86,0,0,1-.63-.26.84.84,0,0,1-.26-.63.89.89,0,0,1,.89-.9ZM31.3,70.74a.87.87,0,0,1,.62.26.9.9,0,0,1,.26.64.85.85,0,0,1-.26.62.81.81,0,0,1-.62.25.86.86,0,0,1-.62-.25.83.83,0,0,1-.27-.62.89.89,0,0,1,.89-.9Zm0,6.33a.87.87,0,0,1,.62.26.9.9,0,0,1,.26.64.85.85,0,0,1-.26.62.81.81,0,0,1-.62.25.86.86,0,0,1-.62-.25.83.83,0,0,1-.27-.62.89.89,0,0,1,.89-.9Zm0,6.33a.87.87,0,0,1,.62.26.9.9,0,0,1,.26.64.89.89,0,0,1-.88.89.86.86,0,0,1-.63-.26.84.84,0,0,1-.26-.63.89.89,0,0,1,.89-.9Zm2.08-4.22a.89.89,0,0,1,.89.9.84.84,0,0,1-.25.62.87.87,0,0,1-.64.25.89.89,0,0,1-.88-.87.89.89,0,0,1,.88-.9Zm0-6.33a.87.87,0,0,1,.62.26.9.9,0,0,1,.26.64.85.85,0,0,1-.26.62.81.81,0,0,1-.62.25.86.86,0,0,1-.62-.25.83.83,0,0,1-.27-.62.89.89,0,0,1,.89-.9Zm0,8.44a.87.87,0,0,1,.62.26.9.9,0,0,1,.26.64.85.85,0,0,1-.26.62.81.81,0,0,1-.62.25.86.86,0,0,1-.62-.25.83.83,0,0,1-.27-.62.89.89,0,0,1,.89-.9Z"/><path class="cls-1" d="M39.15,72.85a.83.83,0,0,1,.61.26.87.87,0,0,1,.27.64.85.85,0,0,1-.26.62.83.83,0,0,1-.62.25.88.88,0,0,1-.63-.25.83.83,0,0,1-.27-.62.87.87,0,0,1,.27-.64A.86.86,0,0,1,39.15,72.85Zm0,2.11a.83.83,0,0,1,.61.26.87.87,0,0,1,.27.64.85.85,0,0,1-.26.62.83.83,0,0,1-.62.25.88.88,0,0,1-.63-.25.83.83,0,0,1-.27-.62.87.87,0,0,1,.27-.64A.86.86,0,0,1,39.15,75Zm0,6.33a.83.83,0,0,1,.61.26.87.87,0,0,1,.27.64.85.85,0,0,1-.26.62.83.83,0,0,1-.62.25.88.88,0,0,1-.63-.25.83.83,0,0,1-.27-.62.87.87,0,0,1,.27-.64A.86.86,0,0,1,39.15,81.29Zm2.11-10.55a.85.85,0,0,1,.61.26.87.87,0,0,1,.27.64.85.85,0,0,1-.26.62.83.83,0,0,1-.62.25.88.88,0,0,1-.63-.25.83.83,0,0,1-.27-.62.89.89,0,0,1,.9-.9Zm0,6.33a.85.85,0,0,1,.61.26.87.87,0,0,1,.27.64.85.85,0,0,1-.26.62.83.83,0,0,1-.62.25.88.88,0,0,1-.63-.25.83.83,0,0,1-.27-.62.89.89,0,0,1,.9-.9Zm0,6.33a.85.85,0,0,1,.61.26.87.87,0,0,1,.27.64.91.91,0,0,1-.88.89.9.9,0,0,1-.64-.26.88.88,0,0,1-.26-.63.89.89,0,0,1,.9-.9Zm2.11-12.66A.85.85,0,0,1,44,71a.87.87,0,0,1,.27.64.85.85,0,0,1-.26.62.83.83,0,0,1-.62.25.88.88,0,0,1-.63-.25.83.83,0,0,1-.27-.62.89.89,0,0,1,.9-.9Zm0,6.33a.85.85,0,0,1,.61.26.87.87,0,0,1,.27.64.85.85,0,0,1-.26.62.83.83,0,0,1-.62.25.88.88,0,0,1-.63-.25.83.83,0,0,1-.27-.62.89.89,0,0,1,.9-.9Zm0,6.33a.85.85,0,0,1,.61.26.87.87,0,0,1,.27.64.91.91,0,0,1-.88.89.9.9,0,0,1-.64-.26.88.88,0,0,1-.26-.63.89.89,0,0,1,.9-.9Zm2.11-12.66a.85.85,0,0,1,.61.26.87.87,0,0,1,.27.64.85.85,0,0,1-.26.62.83.83,0,0,1-.62.25.88.88,0,0,1-.63-.25.83.83,0,0,1-.27-.62.89.89,0,0,1,.9-.9Zm0,6.33a.85.85,0,0,1,.61.26.87.87,0,0,1,.27.64.85.85,0,0,1-.26.62.83.83,0,0,1-.62.25.88.88,0,0,1-.63-.25.83.83,0,0,1-.27-.62.89.89,0,0,1,.9-.9Zm0,6.33a.85.85,0,0,1,.61.26.87.87,0,0,1,.27.64.91.91,0,0,1-.88.89.9.9,0,0,1-.64-.26.88.88,0,0,1-.26-.63.89.89,0,0,1,.9-.9Zm2.07-4.22a.89.89,0,0,1,.9.9.86.86,0,0,1-.9.87.89.89,0,0,1-.87-.87.86.86,0,0,1,.26-.64A.85.85,0,0,1,47.55,79.18Zm0-6.33a.85.85,0,0,1,.61.26.87.87,0,0,1,.27.64.85.85,0,0,1-.26.62.83.83,0,0,1-.62.25.88.88,0,0,1-.63-.25.83.83,0,0,1-.27-.62.89.89,0,0,1,.9-.9Zm0,8.44a.85.85,0,0,1,.61.26.87.87,0,0,1,.27.64.85.85,0,0,1-.26.62.83.83,0,0,1-.62.25.88.88,0,0,1-.63-.25.83.83,0,0,1-.27-.62.89.89,0,0,1,.9-.9Z"/><path class="cls-1" d="M53.63,79.18a.86.86,0,0,1,.63.26.87.87,0,0,1,.27.64.87.87,0,0,1-.9.87.83.83,0,0,1-.62-.26.85.85,0,0,1-.26-.61.9.9,0,0,1,.26-.64A.87.87,0,0,1,53.63,79.18Zm0-6.33a.85.85,0,0,1,.62.26.9.9,0,0,1,.26.64.85.85,0,0,1-.88.87.88.88,0,0,1-.62-.25.83.83,0,0,1-.27-.62.89.89,0,0,1,.89-.9Zm0,2.11a.85.85,0,0,1,.62.26.9.9,0,0,1,.26.64.85.85,0,0,1-.88.87.88.88,0,0,1-.62-.25.83.83,0,0,1-.27-.62.89.89,0,0,1,.89-.9Zm0,2.11a.85.85,0,0,1,.62.26.9.9,0,0,1,.26.64.85.85,0,0,1-.88.87.88.88,0,0,1-.62-.25.83.83,0,0,1-.27-.62.89.89,0,0,1,.89-.9Zm0,4.22a.85.85,0,0,1,.62.26.9.9,0,0,1,.26.64.85.85,0,0,1-.88.87.88.88,0,0,1-.62-.25.83.83,0,0,1-.27-.62.89.89,0,0,1,.89-.9Zm2.11-10.55a.85.85,0,0,1,.62.26.9.9,0,0,1,.26.64.85.85,0,0,1-.88.87.88.88,0,0,1-.62-.25.83.83,0,0,1-.27-.62.89.89,0,0,1,.89-.9Zm0,12.66a.85.85,0,0,1,.62.26.9.9,0,0,1,.26.64.88.88,0,0,1-.26.63.85.85,0,0,1-.62.26.89.89,0,0,1-.63-.26.88.88,0,0,1-.26-.63.89.89,0,0,1,.89-.9Zm2.11-12.66a.85.85,0,0,1,.62.26.9.9,0,0,1,.26.64.85.85,0,0,1-.88.87.88.88,0,0,1-.62-.25.83.83,0,0,1-.27-.62.9.9,0,0,1,.26-.64A.88.88,0,0,1,57.88,70.74Zm0,12.66a.85.85,0,0,1,.62.26.9.9,0,0,1,.26.64.88.88,0,0,1-.26.63.85.85,0,0,1-.62.26A.89.89,0,0,1,57,84.3a.9.9,0,0,1,.26-.64A.88.88,0,0,1,57.88,83.4ZM60,70.74a.85.85,0,0,1,.62.26.9.9,0,0,1,.26.64.85.85,0,0,1-.88.87.88.88,0,0,1-.62-.25.83.83,0,0,1-.27-.62.9.9,0,0,1,.26-.64A.88.88,0,0,1,60,70.74ZM60,83.4a.85.85,0,0,1,.62.26.9.9,0,0,1,.26.64.88.88,0,0,1-.26.63.85.85,0,0,1-.62.26.89.89,0,0,1-.89-.89.9.9,0,0,1,.26-.64A.88.88,0,0,1,60,83.4Zm2.08-4.22a.89.89,0,0,1,.89.9.84.84,0,0,1-.25.62.86.86,0,0,1-.64.25.83.83,0,0,1-.62-.26.85.85,0,0,1-.26-.61.9.9,0,0,1,.26-.64A.87.87,0,0,1,62.07,79.18Zm0-6.33a.85.85,0,0,1,.62.26.9.9,0,0,1,.26.64.85.85,0,0,1-.88.87.88.88,0,0,1-.62-.25.83.83,0,0,1-.27-.62.9.9,0,0,1,.26-.64A.88.88,0,0,1,62.1,72.85Zm0,2.11a.85.85,0,0,1,.62.26.9.9,0,0,1,.26.64.85.85,0,0,1-.88.87.88.88,0,0,1-.62-.25.83.83,0,0,1-.27-.62.9.9,0,0,1,.26-.64A.88.88,0,0,1,62.1,75Zm0,2.11a.85.85,0,0,1,.62.26A.9.9,0,0,1,63,78a.85.85,0,0,1-.88.87.88.88,0,0,1-.62-.25.83.83,0,0,1-.27-.62.9.9,0,0,1,.26-.64A.88.88,0,0,1,62.1,77.07Zm0,4.22a.85.85,0,0,1,.62.26.9.9,0,0,1,.26.64.85.85,0,0,1-.88.87.88.88,0,0,1-.62-.25.83.83,0,0,1-.27-.62.9.9,0,0,1,.26-.64A.88.88,0,0,1,62.1,81.29Z"/><path class="cls-1" d="M67.84,79.18a.86.86,0,0,1,.63.26.87.87,0,0,1,.27.64.87.87,0,0,1-.9.87.81.81,0,0,1-.61-.26.82.82,0,0,1-.27-.61.87.87,0,0,1,.27-.64A.85.85,0,0,1,67.84,79.18Zm0-6.33a.85.85,0,0,1,.61.26.86.86,0,0,1,.26.64.85.85,0,0,1-.87.87.88.88,0,0,1-.63-.25.83.83,0,0,1-.27-.62.89.89,0,0,1,.9-.9Zm0,2.11a.85.85,0,0,1,.61.26.86.86,0,0,1,.26.64.85.85,0,0,1-.87.87.88.88,0,0,1-.63-.25.83.83,0,0,1-.27-.62.89.89,0,0,1,.9-.9Zm0,2.11a.85.85,0,0,1,.61.26.86.86,0,0,1,.26.64.85.85,0,0,1-.87.87.88.88,0,0,1-.63-.25A.83.83,0,0,1,67,78a.89.89,0,0,1,.9-.9Zm0,4.22a.85.85,0,0,1,.61.26.86.86,0,0,1,.26.64.85.85,0,0,1-.87.87.88.88,0,0,1-.63-.25.83.83,0,0,1-.27-.62.89.89,0,0,1,.9-.9ZM70,70.74a.85.85,0,0,1,.61.26.86.86,0,0,1,.26.64.85.85,0,0,1-.87.87.88.88,0,0,1-.63-.25.83.83,0,0,1-.27-.62.89.89,0,0,1,.9-.9ZM70,83.4a.85.85,0,0,1,.61.26.86.86,0,0,1,.26.64.84.84,0,0,1-.26.63.85.85,0,0,1-.61.26.9.9,0,0,1-.64-.26.88.88,0,0,1-.26-.63.89.89,0,0,1,.9-.9ZM72.1,70.74a.85.85,0,0,1,.61.26.86.86,0,0,1,.26.64.85.85,0,0,1-.87.87.88.88,0,0,1-.63-.25.83.83,0,0,1-.27-.62.89.89,0,0,1,.9-.9Zm0,12.66a.85.85,0,0,1,.61.26.86.86,0,0,1,.26.64.84.84,0,0,1-.26.63.85.85,0,0,1-.61.26.9.9,0,0,1-.64-.26.88.88,0,0,1-.26-.63.89.89,0,0,1,.9-.9Zm2.11-12.66a.85.85,0,0,1,.61.26.86.86,0,0,1,.26.64.85.85,0,0,1-.87.87.88.88,0,0,1-.63-.25.83.83,0,0,1-.27-.62.89.89,0,0,1,.9-.9Zm0,12.66a.85.85,0,0,1,.61.26.86.86,0,0,1,.26.64.84.84,0,0,1-.26.63.85.85,0,0,1-.61.26.9.9,0,0,1-.64-.26.88.88,0,0,1-.26-.63.89.89,0,0,1,.9-.9Zm2.11-10.55a.85.85,0,0,1,.61.26.86.86,0,0,1,.26.64.85.85,0,0,1-.87.87.88.88,0,0,1-.63-.25.83.83,0,0,1-.27-.62.89.89,0,0,1,.9-.9Zm0,8.44a.85.85,0,0,1,.61.26.86.86,0,0,1,.26.64.85.85,0,0,1-.87.87.88.88,0,0,1-.63-.25.83.83,0,0,1-.27-.62.89.89,0,0,1,.9-.9Z"/><path class="cls-1" d="M83.15,70.74a.87.87,0,0,1,.62.26.9.9,0,0,1,.26.64.89.89,0,0,1-.25.62.85.85,0,0,1-.63.25.86.86,0,0,1-.62-.25.83.83,0,0,1-.27-.62.89.89,0,0,1,.89-.9Zm0,12.66a.87.87,0,0,1,.62.26.9.9,0,0,1,.26.64.89.89,0,0,1-.88.89.86.86,0,0,1-.63-.26.84.84,0,0,1-.26-.63.89.89,0,0,1,.89-.9Zm2.08-4.22a.88.88,0,0,1,.63.26.9.9,0,0,1,.26.64.84.84,0,0,1-.25.62.86.86,0,0,1-.64.25.82.82,0,0,1-.62-.26.85.85,0,0,1-.26-.61.9.9,0,0,1,.26-.64A.85.85,0,0,1,85.23,79.18Zm0-8.44a.87.87,0,0,1,.62.26.9.9,0,0,1,.26.64.89.89,0,0,1-.25.62.85.85,0,0,1-.63.25.86.86,0,0,1-.62-.25.83.83,0,0,1-.27-.62.89.89,0,0,1,.89-.9Zm0,2.11a.87.87,0,0,1,.62.26.9.9,0,0,1,.26.64.89.89,0,0,1-.25.62.85.85,0,0,1-.63.25.86.86,0,0,1-.62-.25.83.83,0,0,1-.27-.62.89.89,0,0,1,.89-.9Zm0,2.11a.87.87,0,0,1,.62.26.9.9,0,0,1,.26.64.89.89,0,0,1-.25.62.85.85,0,0,1-.63.25.86.86,0,0,1-.62-.25.83.83,0,0,1-.27-.62.89.89,0,0,1,.89-.9Zm0,2.11a.87.87,0,0,1,.62.26.9.9,0,0,1,.26.64.89.89,0,0,1-.25.62.85.85,0,0,1-.63.25.86.86,0,0,1-.62-.25.83.83,0,0,1-.27-.62.89.89,0,0,1,.89-.9Zm0,4.22a.87.87,0,0,1,.62.26.9.9,0,0,1,.26.64.89.89,0,0,1-.25.62.85.85,0,0,1-.63.25.86.86,0,0,1-.62-.25.83.83,0,0,1-.27-.62.89.89,0,0,1,.89-.9Zm0,2.11a.87.87,0,0,1,.62.26.9.9,0,0,1,.26.64.89.89,0,0,1-.88.89.86.86,0,0,1-.63-.26.84.84,0,0,1-.26-.63.89.89,0,0,1,.89-.9Zm2.11-12.66A.87.87,0,0,1,88,71a.9.9,0,0,1,.26.64.89.89,0,0,1-.25.62.85.85,0,0,1-.63.25.86.86,0,0,1-.62-.25.83.83,0,0,1-.27-.62.89.89,0,0,1,.89-.9Zm0,12.66a.87.87,0,0,1,.62.26.9.9,0,0,1,.26.64.89.89,0,0,1-.88.89.86.86,0,0,1-.63-.26.84.84,0,0,1-.26-.63.89.89,0,0,1,.89-.9Z"/><path class="cls-1" d="M94,79.18a.89.89,0,0,1,.9.9A.86.86,0,0,1,94,81a.89.89,0,0,1-.87-.87.86.86,0,0,1,.26-.64A.85.85,0,0,1,94,79.18Zm0,2.11a.85.85,0,0,1,.61.26.87.87,0,0,1,.27.64.85.85,0,0,1-.26.62.84.84,0,0,1-.62.25.88.88,0,0,1-.63-.25.83.83,0,0,1-.27-.62.89.89,0,0,1,.9-.9Zm0,2.11a.85.85,0,0,1,.61.26.87.87,0,0,1,.27.64.91.91,0,0,1-.88.89.9.9,0,0,1-.64-.26.88.88,0,0,1-.26-.63.89.89,0,0,1,.9-.9Zm1-6.33a.89.89,0,0,1,.9.9.86.86,0,0,1-.9.87.85.85,0,0,1-.87-.87.88.88,0,0,1,.25-.63A.83.83,0,0,1,95.08,77.07ZM96.15,75a.85.85,0,0,1,.61.26.87.87,0,0,1,.27.64.85.85,0,0,1-.26.62.84.84,0,0,1-.62.25.88.88,0,0,1-.63-.25.83.83,0,0,1-.27-.62.89.89,0,0,1,.9-.9Zm0,4.22a.85.85,0,0,1,.61.26.87.87,0,0,1,.27.64.85.85,0,0,1-.26.62.84.84,0,0,1-.62.25.88.88,0,0,1-.63-.25.83.83,0,0,1-.27-.62.89.89,0,0,1,.9-.9Zm1-6.33a.89.89,0,0,1,.9.9.86.86,0,0,1-.9.87.85.85,0,0,1-.87-.87.88.88,0,0,1,.25-.63A.83.83,0,0,1,97.19,72.85Zm1.07-2.11a.85.85,0,0,1,.61.26.86.86,0,0,1,.26.64.85.85,0,0,1-.87.87.88.88,0,0,1-.63-.25.83.83,0,0,1-.27-.62.89.89,0,0,1,.9-.9Zm0,8.44a.85.85,0,0,1,.61.26.86.86,0,0,1,.26.64.85.85,0,0,1-.87.87.88.88,0,0,1-.63-.25.83.83,0,0,1-.27-.62.89.89,0,0,1,.9-.9Zm1-6.33a.89.89,0,0,1,.9.9.86.86,0,0,1-.9.87.85.85,0,0,1-.87-.87.88.88,0,0,1,.25-.63A.83.83,0,0,1,99.3,72.85ZM100.37,75a.85.85,0,0,1,.61.26.86.86,0,0,1,.26.64.85.85,0,0,1-.87.87.88.88,0,0,1-.63-.25.83.83,0,0,1-.27-.62.89.89,0,0,1,.9-.9Zm0,4.22a.85.85,0,0,1,.61.26.86.86,0,0,1,.26.64.85.85,0,0,1-.87.87.88.88,0,0,1-.63-.25.83.83,0,0,1-.27-.62.89.89,0,0,1,.9-.9Zm1-2.11a.89.89,0,0,1,.9.9.86.86,0,0,1-.9.87.85.85,0,0,1-.87-.87.88.88,0,0,1,.25-.63A.83.83,0,0,1,101.41,77.07Zm1,2.11a.89.89,0,0,1,.9.9.85.85,0,0,1-.26.62.84.84,0,0,1-.64.25.89.89,0,0,1-.87-.87.86.86,0,0,1,.26-.64A.85.85,0,0,1,102.44,79.18Zm0,2.11a.85.85,0,0,1,.61.26.86.86,0,0,1,.26.64.85.85,0,0,1-.87.87.88.88,0,0,1-.63-.25.83.83,0,0,1-.27-.62.89.89,0,0,1,.9-.9Zm0,2.11a.85.85,0,0,1,.61.26.86.86,0,0,1,.26.64.84.84,0,0,1-.26.63.85.85,0,0,1-.61.26.9.9,0,0,1-.64-.26.88.88,0,0,1-.26-.63.89.89,0,0,1,.9-.9Z"/><path class="cls-1" d="M107.54,70.74a.87.87,0,0,1,.62.26.9.9,0,0,1,.26.64.85.85,0,0,1-.26.62.81.81,0,0,1-.62.25.86.86,0,0,1-.62-.25.83.83,0,0,1-.27-.62.89.89,0,0,1,.89-.9Zm2.11,0a.87.87,0,0,1,.62.26.9.9,0,0,1,.26.64.85.85,0,0,1-.26.62.81.81,0,0,1-.62.25.86.86,0,0,1-.62-.25.83.83,0,0,1-.27-.62.89.89,0,0,1,.89-.9Zm2.08,8.44a.89.89,0,0,1,.89.9.84.84,0,0,1-.25.62.86.86,0,0,1-.64.25.82.82,0,0,1-.62-.26.85.85,0,0,1-.26-.61.9.9,0,0,1,.26-.64A.85.85,0,0,1,111.73,79.18Zm0-8.44a.87.87,0,0,1,.62.26.9.9,0,0,1,.26.64.85.85,0,0,1-.26.62.81.81,0,0,1-.62.25.86.86,0,0,1-.62-.25.83.83,0,0,1-.27-.62.89.89,0,0,1,.89-.9Zm0,2.11a.87.87,0,0,1,.62.26.9.9,0,0,1,.26.64.85.85,0,0,1-.26.62.81.81,0,0,1-.62.25.86.86,0,0,1-.62-.25.83.83,0,0,1-.27-.62.89.89,0,0,1,.89-.9Zm0,2.11a.87.87,0,0,1,.62.26.9.9,0,0,1,.26.64.85.85,0,0,1-.26.62.81.81,0,0,1-.62.25.86.86,0,0,1-.62-.25.83.83,0,0,1-.27-.62.89.89,0,0,1,.89-.9Zm0,2.11a.87.87,0,0,1,.62.26.9.9,0,0,1,.26.64.85.85,0,0,1-.26.62.81.81,0,0,1-.62.25.86.86,0,0,1-.62-.25.83.83,0,0,1-.27-.62.89.89,0,0,1,.89-.9Zm0,4.22a.87.87,0,0,1,.62.26.9.9,0,0,1,.26.64.85.85,0,0,1-.26.62.81.81,0,0,1-.62.25.86.86,0,0,1-.62-.25.83.83,0,0,1-.27-.62.89.89,0,0,1,.89-.9Zm0,2.11a.87.87,0,0,1,.62.26.9.9,0,0,1,.26.64.89.89,0,0,1-.88.89.86.86,0,0,1-.63-.26.84.84,0,0,1-.26-.63.89.89,0,0,1,.89-.9Zm2.11-12.66a.87.87,0,0,1,.62.26.9.9,0,0,1,.26.64.85.85,0,0,1-.26.62.81.81,0,0,1-.62.25.84.84,0,0,1-.62-.25.79.79,0,0,1-.27-.62.89.89,0,0,1,.89-.9Zm2.11,0a.87.87,0,0,1,.62.26.9.9,0,0,1,.26.64.85.85,0,0,1-.26.62.81.81,0,0,1-.62.25.84.84,0,0,1-.62-.25.79.79,0,0,1-.27-.62.89.89,0,0,1,.89-.9Z"/><path class="cls-1" d="M122.14,70.74a.87.87,0,0,1,.62.26.9.9,0,0,1,.26.64.89.89,0,0,1-.25.62.85.85,0,0,1-.63.25.86.86,0,0,1-.62-.25.83.83,0,0,1-.27-.62.89.89,0,0,1,.89-.9Zm0,12.66a.87.87,0,0,1,.62.26.9.9,0,0,1,.26.64.89.89,0,0,1-.88.89.86.86,0,0,1-.63-.26.84.84,0,0,1-.26-.63.89.89,0,0,1,.89-.9Zm2.08-4.22a.88.88,0,0,1,.63.26.9.9,0,0,1,.26.64.84.84,0,0,1-.25.62.86.86,0,0,1-.64.25.82.82,0,0,1-.62-.26.85.85,0,0,1-.26-.61.9.9,0,0,1,.26-.64A.85.85,0,0,1,124.22,79.18Zm0-8.44a.87.87,0,0,1,.62.26.9.9,0,0,1,.26.64.85.85,0,0,1-.26.62.81.81,0,0,1-.62.25.86.86,0,0,1-.62-.25.83.83,0,0,1-.27-.62.89.89,0,0,1,.89-.9Zm0,2.11a.87.87,0,0,1,.62.26.9.9,0,0,1,.26.64.85.85,0,0,1-.26.62.81.81,0,0,1-.62.25.86.86,0,0,1-.62-.25.83.83,0,0,1-.27-.62.89.89,0,0,1,.89-.9Zm0,2.11a.87.87,0,0,1,.62.26.9.9,0,0,1,.26.64.85.85,0,0,1-.26.62.81.81,0,0,1-.62.25.86.86,0,0,1-.62-.25.83.83,0,0,1-.27-.62.89.89,0,0,1,.89-.9Zm0,2.11a.87.87,0,0,1,.62.26.9.9,0,0,1,.26.64.85.85,0,0,1-.26.62.81.81,0,0,1-.62.25.86.86,0,0,1-.62-.25.83.83,0,0,1-.27-.62.89.89,0,0,1,.89-.9Zm0,4.22a.87.87,0,0,1,.62.26.9.9,0,0,1,.26.64.85.85,0,0,1-.26.62.81.81,0,0,1-.62.25.86.86,0,0,1-.62-.25.83.83,0,0,1-.27-.62.89.89,0,0,1,.89-.9Zm0,2.11a.87.87,0,0,1,.62.26.9.9,0,0,1,.26.64.89.89,0,0,1-.88.89.86.86,0,0,1-.63-.26.84.84,0,0,1-.26-.63.89.89,0,0,1,.89-.9Zm2.11-12.66A.87.87,0,0,1,127,71a.9.9,0,0,1,.26.64.85.85,0,0,1-.26.62.81.81,0,0,1-.62.25.86.86,0,0,1-.62-.25.83.83,0,0,1-.27-.62.89.89,0,0,1,.89-.9Zm0,12.66a.87.87,0,0,1,.62.26.9.9,0,0,1,.26.64.89.89,0,0,1-.88.89.86.86,0,0,1-.63-.26.84.84,0,0,1-.26-.63.89.89,0,0,1,.89-.9Z"/><path class="cls-1" d="M132.82,79.18a.89.89,0,0,1,.9.9.86.86,0,0,1-.9.87.89.89,0,0,1-.87-.87.86.86,0,0,1,.26-.64A.85.85,0,0,1,132.82,79.18Zm0-6.33a.85.85,0,0,1,.61.26.87.87,0,0,1,.27.64.85.85,0,0,1-.26.62.83.83,0,0,1-.62.25.88.88,0,0,1-.63-.25.83.83,0,0,1-.27-.62.89.89,0,0,1,.9-.9Zm0,2.11a.85.85,0,0,1,.61.26.87.87,0,0,1,.27.64.85.85,0,0,1-.26.62.83.83,0,0,1-.62.25.88.88,0,0,1-.63-.25.83.83,0,0,1-.27-.62.89.89,0,0,1,.9-.9Zm0,2.11a.85.85,0,0,1,.61.26.87.87,0,0,1,.27.64.85.85,0,0,1-.26.62.83.83,0,0,1-.62.25.88.88,0,0,1-.63-.25A.83.83,0,0,1,132,78a.89.89,0,0,1,.9-.9Zm0,4.22a.85.85,0,0,1,.61.26.87.87,0,0,1,.27.64.85.85,0,0,1-.26.62.83.83,0,0,1-.62.25.88.88,0,0,1-.63-.25.83.83,0,0,1-.27-.62.89.89,0,0,1,.9-.9ZM135,70.74a.85.85,0,0,1,.61.26.87.87,0,0,1,.27.64.85.85,0,0,1-.26.62.83.83,0,0,1-.62.25.88.88,0,0,1-.63-.25.83.83,0,0,1-.27-.62.89.89,0,0,1,.9-.9Zm0,12.66a.85.85,0,0,1,.61.26.87.87,0,0,1,.27.64.91.91,0,0,1-.88.89.9.9,0,0,1-.64-.26.88.88,0,0,1-.26-.63.89.89,0,0,1,.9-.9Zm2.11-12.66a.85.85,0,0,1,.61.26.87.87,0,0,1,.27.64.85.85,0,0,1-.26.62.83.83,0,0,1-.62.25.88.88,0,0,1-.63-.25.83.83,0,0,1-.27-.62.89.89,0,0,1,.9-.9Zm0,12.66a.85.85,0,0,1,.61.26.87.87,0,0,1,.27.64.91.91,0,0,1-.88.89.9.9,0,0,1-.64-.26.88.88,0,0,1-.26-.63.89.89,0,0,1,.9-.9Zm2.11-12.66a.85.85,0,0,1,.61.26.86.86,0,0,1,.26.64.85.85,0,0,1-.87.87.88.88,0,0,1-.63-.25.83.83,0,0,1-.27-.62.89.89,0,0,1,.9-.9Zm0,12.66a.85.85,0,0,1,.61.26.86.86,0,0,1,.26.64.84.84,0,0,1-.26.63.85.85,0,0,1-.61.26.9.9,0,0,1-.64-.26.88.88,0,0,1-.26-.63.89.89,0,0,1,.9-.9Zm2.07-4.22a.89.89,0,0,1,.9.9.86.86,0,0,1-.9.87.89.89,0,0,1-.87-.87.86.86,0,0,1,.26-.64A.85.85,0,0,1,141.26,79.18Zm0-6.33a.85.85,0,0,1,.61.26.86.86,0,0,1,.26.64.85.85,0,0,1-.87.87.88.88,0,0,1-.63-.25.83.83,0,0,1-.27-.62.89.89,0,0,1,.9-.9Zm0,2.11a.85.85,0,0,1,.61.26.86.86,0,0,1,.26.64.85.85,0,0,1-.87.87.88.88,0,0,1-.63-.25.83.83,0,0,1-.27-.62.89.89,0,0,1,.9-.9Zm0,2.11a.85.85,0,0,1,.61.26.86.86,0,0,1,.26.64.85.85,0,0,1-.87.87.88.88,0,0,1-.63-.25.83.83,0,0,1-.27-.62.89.89,0,0,1,.9-.9Zm0,4.22a.85.85,0,0,1,.61.26.86.86,0,0,1,.26.64.85.85,0,0,1-.87.87.88.88,0,0,1-.63-.25.83.83,0,0,1-.27-.62.89.89,0,0,1,.9-.9Z"/><path class="cls-1" d="M147.34,79.18a.86.86,0,0,1,.63.26.87.87,0,0,1,.27.64.87.87,0,0,1-.9.87.83.83,0,0,1-.62-.26.85.85,0,0,1-.26-.61.9.9,0,0,1,.26-.64A.87.87,0,0,1,147.34,79.18Zm0-8.44A.85.85,0,0,1,148,71a.9.9,0,0,1,.26.64.85.85,0,0,1-.88.87.88.88,0,0,1-.62-.25.83.83,0,0,1-.27-.62.9.9,0,0,1,.26-.64A.88.88,0,0,1,147.37,70.74Zm0,2.11a.85.85,0,0,1,.62.26.9.9,0,0,1,.26.64.85.85,0,0,1-.88.87.88.88,0,0,1-.62-.25.83.83,0,0,1-.27-.62.9.9,0,0,1,.26-.64A.88.88,0,0,1,147.37,72.85Zm0,2.11a.85.85,0,0,1,.62.26.9.9,0,0,1,.26.64.85.85,0,0,1-.88.87.88.88,0,0,1-.62-.25.83.83,0,0,1-.27-.62.9.9,0,0,1,.26-.64A.88.88,0,0,1,147.37,75Zm0,2.11a.85.85,0,0,1,.62.26.9.9,0,0,1,.26.64.85.85,0,0,1-.88.87.88.88,0,0,1-.62-.25.83.83,0,0,1-.27-.62.9.9,0,0,1,.26-.64A.88.88,0,0,1,147.37,77.07Zm0,4.22a.85.85,0,0,1,.62.26.9.9,0,0,1,.26.64.85.85,0,0,1-.88.87.88.88,0,0,1-.62-.25.83.83,0,0,1-.27-.62.9.9,0,0,1,.26-.64A.88.88,0,0,1,147.37,81.29Zm0,2.11a.85.85,0,0,1,.62.26.9.9,0,0,1,.26.64.88.88,0,0,1-.26.63.85.85,0,0,1-.62.26.89.89,0,0,1-.89-.89.9.9,0,0,1,.26-.64A.88.88,0,0,1,147.37,83.4Zm2.11-10.55a.85.85,0,0,1,.62.26.9.9,0,0,1,.26.64.85.85,0,0,1-.88.87.88.88,0,0,1-.62-.25.83.83,0,0,1-.27-.62.9.9,0,0,1,.26-.64A.88.88,0,0,1,149.48,72.85ZM150.53,75a.89.89,0,0,1,.89.9.84.84,0,0,1-.25.62.86.86,0,0,1-.64.25.81.81,0,0,1-.62-.25.85.85,0,0,1-.26-.62.89.89,0,0,1,.26-.63A.8.8,0,0,1,150.53,75Zm1.06,2.11a.85.85,0,0,1,.62.26.9.9,0,0,1,.26.64.85.85,0,0,1-.88.87.88.88,0,0,1-.62-.25.83.83,0,0,1-.27-.62.9.9,0,0,1,.26-.64A.88.88,0,0,1,151.59,77.07Zm1,2.11a.89.89,0,0,1,.89.9.84.84,0,0,1-.25.62.86.86,0,0,1-.64.25.81.81,0,0,1-.62-.25.85.85,0,0,1-.26-.62.89.89,0,0,1,.26-.63A.8.8,0,0,1,152.64,79.18Zm1.06,2.11a.85.85,0,0,1,.62.26.9.9,0,0,1,.26.64.85.85,0,0,1-.88.87.88.88,0,0,1-.62-.25.83.83,0,0,1-.27-.62.9.9,0,0,1,.26-.64A.88.88,0,0,1,153.7,81.29Zm2.08-2.11a.89.89,0,0,1,.89.9.84.84,0,0,1-.25.62.86.86,0,0,1-.64.25.83.83,0,0,1-.62-.26.85.85,0,0,1-.26-.61.9.9,0,0,1,.26-.64A.87.87,0,0,1,155.78,79.18Zm0-8.44a.87.87,0,0,1,.62.26.9.9,0,0,1,.26.64.85.85,0,0,1-.88.87.88.88,0,0,1-.62-.25.83.83,0,0,1-.27-.62.9.9,0,0,1,.26-.64A.88.88,0,0,1,155.81,70.74Zm0,2.11a.87.87,0,0,1,.62.26.9.9,0,0,1,.26.64.85.85,0,0,1-.88.87.88.88,0,0,1-.62-.25.83.83,0,0,1-.27-.62.9.9,0,0,1,.26-.64A.88.88,0,0,1,155.81,72.85Zm0,2.11a.87.87,0,0,1,.62.26.9.9,0,0,1,.26.64.85.85,0,0,1-.88.87.88.88,0,0,1-.62-.25.83.83,0,0,1-.27-.62.9.9,0,0,1,.26-.64A.88.88,0,0,1,155.81,75Zm0,2.11a.87.87,0,0,1,.62.26.9.9,0,0,1,.26.64.85.85,0,0,1-.88.87.88.88,0,0,1-.62-.25.83.83,0,0,1-.27-.62.9.9,0,0,1,.26-.64A.88.88,0,0,1,155.81,77.07Zm0,4.22a.87.87,0,0,1,.62.26.9.9,0,0,1,.26.64.85.85,0,0,1-.88.87.88.88,0,0,1-.62-.25.83.83,0,0,1-.27-.62.9.9,0,0,1,.26-.64A.88.88,0,0,1,155.81,81.29Zm0,2.11a.87.87,0,0,1,.62.26.9.9,0,0,1,.26.64.89.89,0,1,1-1.77,0,.9.9,0,0,1,.26-.64A.88.88,0,0,1,155.81,83.4Z"/><rect class="cls-3" x="1.92" y="94.32" width="186.06" height="28.76"/><path class="cls-1" d="M11.17,101.6a.89.89,0,1,1-.9.89A.9.9,0,0,1,11.17,101.6Zm0,12.65a.9.9,0,1,1-.9.9A.91.91,0,0,1,11.17,114.25ZM13.25,110a.89.89,0,1,1,0,1.77.89.89,0,0,1,0-1.77Zm0-8.44a.89.89,0,0,1,0,1.77.89.89,0,1,1,0-1.77Zm0,2.11a.89.89,0,0,1,0,1.77.89.89,0,1,1,0-1.77Zm0,2.11a.89.89,0,0,1,0,1.77.89.89,0,1,1,0-1.77Zm0,2.11a.89.89,0,0,1,0,1.77.89.89,0,1,1,0-1.77Zm0,4.21a.91.91,0,0,1,.88.9.89.89,0,0,1-1.77,0A.9.9,0,0,1,13.28,112.14Zm0,2.11a.9.9,0,0,1,0,1.79.9.9,0,0,1,0-1.79Zm2.11-12.65a.89.89,0,1,1-.9.89A.9.9,0,0,1,15.39,101.6Zm0,12.65a.9.9,0,1,1-.9.9A.91.91,0,0,1,15.39,114.25Z"/><path class="cls-1" d="M21.69,110a.89.89,0,1,1,0,1.77.89.89,0,0,1,0-1.77Zm0,2.1a.91.91,0,0,1,.88.9.89.89,0,0,1-1.78,0A.91.91,0,0,1,21.72,112.14Zm0,2.11a.9.9,0,1,1-.9.9A.91.91,0,0,1,21.72,114.25Zm1.05-6.32a.89.89,0,1,1,0,1.77.89.89,0,0,1,0-1.77Zm1.06-2.11a.89.89,0,1,1-.9.89A.9.9,0,0,1,23.83,105.82Zm0,4.22a.89.89,0,1,1-.9.89A.9.9,0,0,1,23.83,110Zm1-6.33a.89.89,0,1,1,0,1.77.89.89,0,0,1,0-1.77Zm1.07-2.11a.89.89,0,1,1-.9.89A.9.9,0,0,1,25.94,101.6Zm0,8.44a.89.89,0,1,1-.9.89A.9.9,0,0,1,25.94,110Zm1-6.33a.89.89,0,1,1,0,1.77.89.89,0,0,1,0-1.77Zm1.07,2.11a.89.89,0,1,1-.9.89A.9.9,0,0,1,28.05,105.82Zm0,4.22a.89.89,0,1,1-.9.89A.9.9,0,0,1,28.05,110Zm1-2.11a.89.89,0,1,1,0,1.77.89.89,0,0,1,0-1.77Zm1,2.11a.89.89,0,1,1,0,1.77.89.89,0,0,1,0-1.77Zm0,2.1a.9.9,0,0,1,.87.9.88.88,0,0,1-.87.88.89.89,0,0,1-.9-.88A.91.91,0,0,1,30.16,112.14Zm0,2.11a.9.9,0,1,1-.9.9A.91.91,0,0,1,30.16,114.25Z"/><path class="cls-1" d="M42.78,110a.89.89,0,1,1,0,1.77.89.89,0,0,1,0-1.77Zm0-8.44a.89.89,0,1,1-.9.89A.9.9,0,0,1,42.82,101.6Zm0,2.11a.89.89,0,1,1-.9.89A.9.9,0,0,1,42.82,103.71Zm0,2.11a.89.89,0,1,1-.9.89A.9.9,0,0,1,42.82,105.82Zm0,2.11a.89.89,0,1,1-.9.89A.9.9,0,0,1,42.82,107.93Zm0,4.21a.9.9,0,0,1,.87.9.88.88,0,0,1-.87.88.89.89,0,0,1-.9-.88A.91.91,0,0,1,42.82,112.14Zm0,2.11a.9.9,0,1,1-.9.9A.91.91,0,0,1,42.82,114.25Zm2.11,0a.9.9,0,1,1-.9.9A.91.91,0,0,1,44.93,114.25Zm2.11,0a.9.9,0,1,1-.9.9A.91.91,0,0,1,47,114.25Zm2.11,0a.9.9,0,1,1-.9.9A.91.91,0,0,1,49.15,114.25Zm2.11,0a.9.9,0,1,1-.9.9A.91.91,0,0,1,51.26,114.25Z"/><path class="cls-1" d="M55.44,110a.89.89,0,1,1,0,1.77.89.89,0,0,1,0-1.77Zm0-8.44a.89.89,0,1,1-.9.89A.9.9,0,0,1,55.48,101.6Zm0,2.11a.89.89,0,1,1-.9.89A.9.9,0,0,1,55.48,103.71Zm0,2.11a.89.89,0,1,1-.9.89A.9.9,0,0,1,55.48,105.82Zm0,2.11a.89.89,0,1,1-.9.89A.9.9,0,0,1,55.48,107.93Zm0,4.21a.9.9,0,0,1,.87.9.88.88,0,0,1-.87.88.89.89,0,0,1-.9-.88A.91.91,0,0,1,55.48,112.14Zm0,2.11a.9.9,0,1,1-.9.9A.91.91,0,0,1,55.48,114.25Zm2.11-12.65a.89.89,0,1,1-.9.89A.9.9,0,0,1,57.59,101.6Zm0,6.33a.89.89,0,1,1-.9.89A.9.9,0,0,1,57.59,107.93Zm0,6.32a.9.9,0,1,1-.9.9A.91.91,0,0,1,57.59,114.25Zm2.1-12.65a.89.89,0,1,1-.89.89A.89.89,0,0,1,59.69,101.6Zm0,6.33a.89.89,0,1,1-.89.89A.89.89,0,0,1,59.69,107.93Zm0,6.32a.9.9,0,1,1-.89.9A.9.9,0,0,1,59.69,114.25ZM61.8,101.6a.89.89,0,1,1-.89.89A.89.89,0,0,1,61.8,101.6Zm0,6.33a.89.89,0,1,1-.89.89A.89.89,0,0,1,61.8,107.93Zm0,6.32a.9.9,0,1,1-.89.9A.9.9,0,0,1,61.8,114.25Zm2.11-12.65a.89.89,0,1,1-.89.89A.89.89,0,0,1,63.91,101.6Zm0,12.65a.9.9,0,1,1-.89.9A.9.9,0,0,1,63.91,114.25Z"/><path class="cls-1" d="M68.1,110a.89.89,0,1,1,0,1.77.89.89,0,0,1,0-1.77Zm0,2.1a.9.9,0,0,1,.88.9.89.89,0,0,1-1.77,0A.91.91,0,0,1,68.13,112.14Zm0,2.11a.9.9,0,1,1-.89.9A.9.9,0,0,1,68.13,114.25Zm1.05-6.32a.89.89,0,1,1,0,1.77.89.89,0,0,1,0-1.77Zm1.06-2.11a.89.89,0,1,1-.89.89A.89.89,0,0,1,70.24,105.82Zm0,4.22a.89.89,0,1,1-.89.89A.89.89,0,0,1,70.24,110Zm1.05-6.33a.89.89,0,1,1,0,1.77.89.89,0,0,1,0-1.77Zm1.06-2.11a.89.89,0,1,1-.89.89A.89.89,0,0,1,72.35,101.6Zm0,8.44a.89.89,0,1,1-.89.89A.89.89,0,0,1,72.35,110Zm1.05-6.33a.89.89,0,1,1,0,1.77.89.89,0,0,1,0-1.77Zm1.06,2.11a.89.89,0,1,1-.89.89A.89.89,0,0,1,74.46,105.82Zm0,4.22a.89.89,0,1,1-.89.89A.89.89,0,0,1,74.46,110Zm1.05-2.11a.89.89,0,1,1,0,1.77.89.89,0,0,1,0-1.77Zm1,2.11a.89.89,0,1,1-.88.89A.89.89,0,0,1,76.54,110Zm0,2.1a.9.9,0,0,1,.88.9.89.89,0,0,1-1.77,0A.9.9,0,0,1,76.57,112.14Zm0,2.11a.9.9,0,1,1-.89.9A.9.9,0,0,1,76.57,114.25Z"/><path class="cls-1" d="M80.76,110a.89.89,0,1,1-.88.89A.89.89,0,0,1,80.76,110Zm0-8.44a.89.89,0,1,1-.89.89A.89.89,0,0,1,80.79,101.6Zm0,2.11a.89.89,0,1,1-.89.89A.89.89,0,0,1,80.79,103.71Zm0,2.11a.89.89,0,1,1-.89.89A.89.89,0,0,1,80.79,105.82Zm0,2.11a.89.89,0,1,1-.89.89A.89.89,0,0,1,80.79,107.93Zm0,4.21a.9.9,0,0,1,.88.9.89.89,0,0,1-1.77,0A.9.9,0,0,1,80.79,112.14Zm0,2.11a.9.9,0,1,1-.89.9A.9.9,0,0,1,80.79,114.25ZM82.9,101.6a.89.89,0,1,1-.89.89A.89.89,0,0,1,82.9,101.6Zm0,6.33a.89.89,0,1,1-.89.89A.89.89,0,0,1,82.9,107.93ZM85,101.6a.89.89,0,0,1,0,1.77.89.89,0,1,1,0-1.77Zm0,6.33a.89.89,0,0,1,0,1.77.89.89,0,1,1,0-1.77Zm2.11-6.33a.89.89,0,1,1-.89.89A.89.89,0,0,1,87.12,101.6Zm0,6.33a.89.89,0,1,1-.89.89A.89.89,0,0,1,87.12,107.93Zm0,2.11a.89.89,0,1,1-.89.89A.89.89,0,0,1,87.12,110Zm1,2.1a.9.9,0,0,1,.89.9.89.89,0,1,1-.89-.9Zm1.06-8.43a.89.89,0,0,1,0,1.77.89.89,0,1,1,0-1.77Zm0,2.11a.89.89,0,0,1,0,1.77.89.89,0,1,1,0-1.77Zm0,8.43a.9.9,0,0,1,0,1.79.9.9,0,0,1,0-1.79Z"/><path class="cls-1" d="M93.42,110a.89.89,0,1,1-.88.89A.89.89,0,0,1,93.42,110Zm0-8.44a.89.89,0,1,1-.89.89A.89.89,0,0,1,93.45,101.6Zm0,2.11a.89.89,0,1,1-.89.89A.89.89,0,0,1,93.45,103.71Zm0,2.11a.89.89,0,1,1-.89.89A.89.89,0,0,1,93.45,105.82Zm0,2.11a.89.89,0,1,1-.89.89A.89.89,0,0,1,93.45,107.93Zm0,4.21a.9.9,0,0,1,.88.9.89.89,0,0,1-1.77,0A.9.9,0,0,1,93.45,112.14Zm0,2.11a.9.9,0,1,1-.89.9A.9.9,0,0,1,93.45,114.25Zm2.11-10.54a.89.89,0,0,1,0,1.77.89.89,0,1,1,0-1.77Zm1,2.11a.89.89,0,1,1,0,1.77.89.89,0,0,1,0-1.77Zm1.06,2.11a.89.89,0,0,1,0,1.77.89.89,0,1,1,0-1.77Zm1,2.11a.89.89,0,1,1,0,1.77.89.89,0,0,1,0-1.77Zm1.06,2.1a.91.91,0,0,1,.88.9.89.89,0,0,1-1.77,0A.9.9,0,0,1,99.78,112.14Zm2.08-2.1a.89.89,0,1,1,0,1.77.89.89,0,0,1,0-1.77Zm0-8.44a.89.89,0,0,1,0,1.77.89.89,0,1,1,0-1.77Zm0,2.11a.89.89,0,0,1,0,1.77.89.89,0,1,1,0-1.77Zm0,2.11a.89.89,0,0,1,0,1.77.89.89,0,1,1,0-1.77Zm0,2.11a.89.89,0,0,1,0,1.77.89.89,0,1,1,0-1.77Zm0,4.21a.91.91,0,0,1,.88.9.89.89,0,0,1-1.77,0A.9.9,0,0,1,101.89,112.14Zm0,2.11a.9.9,0,0,1,0,1.79.9.9,0,0,1,0-1.79Z"/><path class="cls-1" d="M108.22,101.6a.89.89,0,0,1,0,1.77.89.89,0,1,1,0-1.77Zm0,12.65a.9.9,0,0,1,0,1.79.9.9,0,0,1,0-1.79ZM110.3,110a.89.89,0,1,1,0,1.77.89.89,0,0,1,0-1.77Zm0-8.44a.89.89,0,0,1,0,1.77.89.89,0,1,1,0-1.77Zm0,2.11a.89.89,0,0,1,0,1.77.89.89,0,1,1,0-1.77Zm0,2.11a.89.89,0,0,1,0,1.77.89.89,0,1,1,0-1.77Zm0,2.11a.89.89,0,0,1,0,1.77.89.89,0,1,1,0-1.77Zm0,4.21a.91.91,0,0,1,.88.9.89.89,0,0,1-1.77,0A.9.9,0,0,1,110.33,112.14Zm0,2.11a.9.9,0,0,1,0,1.79.9.9,0,0,1,0-1.79Zm2.11-12.65a.89.89,0,1,1-.9.89A.9.9,0,0,1,112.44,101.6Zm0,12.65a.9.9,0,1,1-.9.9A.91.91,0,0,1,112.44,114.25Z"/><path class="cls-1" d="M118.74,110a.89.89,0,1,1,0,1.77.89.89,0,0,1,0-1.77Zm0-8.44a.89.89,0,1,1-.9.89A.9.9,0,0,1,118.77,101.6Zm0,2.11a.89.89,0,1,1-.9.89A.9.9,0,0,1,118.77,103.71Zm0,2.11a.89.89,0,1,1-.9.89A.9.9,0,0,1,118.77,105.82Zm0,2.11a.89.89,0,1,1-.9.89A.9.9,0,0,1,118.77,107.93Zm0,4.21a.91.91,0,0,1,.88.9.89.89,0,0,1-1.78,0A.91.91,0,0,1,118.77,112.14Zm0,2.11a.9.9,0,1,1-.9.9A.91.91,0,0,1,118.77,114.25Zm2.11-10.54a.89.89,0,1,1-.9.89A.9.9,0,0,1,120.88,103.71Zm1.05,2.11a.89.89,0,1,1,0,1.77.89.89,0,0,1,0-1.77Zm1.06,2.11a.89.89,0,1,1-.9.89A.9.9,0,0,1,123,107.93Zm1,2.11a.89.89,0,1,1,0,1.77.89.89,0,0,1,0-1.77Zm1.07,2.1a.91.91,0,0,1,.88.9.89.89,0,0,1-1.78,0A.91.91,0,0,1,125.1,112.14Zm2.07-2.1a.89.89,0,1,1,0,1.77.89.89,0,0,1,0-1.77Zm0-8.44a.89.89,0,1,1-.9.89A.9.9,0,0,1,127.21,101.6Zm0,2.11a.89.89,0,1,1-.9.89A.9.9,0,0,1,127.21,103.71Zm0,2.11a.89.89,0,1,1-.9.89A.9.9,0,0,1,127.21,105.82Zm0,2.11a.89.89,0,1,1-.9.89A.9.9,0,0,1,127.21,107.93Zm0,4.21a.91.91,0,0,1,.88.9.89.89,0,0,1-1.78,0A.91.91,0,0,1,127.21,112.14Zm0,2.11a.9.9,0,1,1-.9.9A.91.91,0,0,1,127.21,114.25Z"/><path class="cls-1" d="M131.39,110a.89.89,0,1,1,0,1.77.89.89,0,0,1,0-1.77Zm0-6.33a.89.89,0,1,1-.9.89A.9.9,0,0,1,131.43,103.71Zm0,2.11a.89.89,0,1,1-.9.89A.9.9,0,0,1,131.43,105.82Zm0,2.11a.89.89,0,1,1-.9.89A.9.9,0,0,1,131.43,107.93Zm0,4.21a.91.91,0,0,1,.88.9.89.89,0,0,1-1.78,0A.91.91,0,0,1,131.43,112.14Zm2.11-10.54a.89.89,0,1,1-.9.89A.9.9,0,0,1,133.54,101.6Zm0,12.65a.9.9,0,1,1-.9.9A.91.91,0,0,1,133.54,114.25Zm2.11-12.65a.89.89,0,1,1-.9.89A.9.9,0,0,1,135.65,101.6Zm0,12.65a.9.9,0,1,1-.9.9A.91.91,0,0,1,135.65,114.25Zm2.11-12.65a.89.89,0,1,1-.9.89A.9.9,0,0,1,137.76,101.6Zm0,6.33a.89.89,0,1,1-.9.89A.9.9,0,0,1,137.76,107.93Zm0,6.32a.9.9,0,1,1-.9.9A.91.91,0,0,1,137.76,114.25Zm2.07-4.21a.89.89,0,1,1,0,1.77.89.89,0,0,1,0-1.77Zm0-6.33a.89.89,0,1,1-.9.89A.9.9,0,0,1,139.87,103.71Zm0,4.22a.89.89,0,1,1-.9.89A.9.9,0,0,1,139.87,107.93Zm0,4.21a.9.9,0,0,1,.87.9.88.88,0,0,1-.87.88.89.89,0,0,1-.9-.88A.91.91,0,0,1,139.87,112.14Z"/></g></g></svg>