<svg xmlns="http://www.w3.org/2000/svg" viewBox="0 0 47.18 51.58"><defs><style>.cls-1{fill:#fff;}.cls-2{fill:#50dab0;}</style></defs><title>reviewed-graphic</title><g id="Layer_2" data-name="Layer 2"><g id="Layer_2-2" data-name="Layer 2"><path class="cls-1" d="M2.55,40A25.7,25.7,0,0,0,47.18,37l-2.3-1.08A23.19,23.19,0,0,1,4,37.62H15.3V35.07H0v15.3H2.55Z"/><path class="cls-1" d="M24,2.62A23,23,0,0,1,43.55,13.39H31.88v2.55h15.3V.64H44.63v9.76A25.73,25.73,0,0,0,1.09,14l2.3,1.15A23.15,23.15,0,0,1,24,2.61Z"/><path class="cls-2" d="M22.75,16.63A7.39,7.39,0,1,1,15.36,24,7.4,7.4,0,0,1,22.75,16.63Zm0,17.47a10,10,0,0,0,6-2l4.68,4.68a1.35,1.35,0,0,0,.94.4,1.3,1.3,0,0,0,.94-.4,1.33,1.33,0,0,0,0-1.91l-4.62-4.65a10.06,10.06,0,0,0-7.9-16.31,10.08,10.08,0,1,0,0,20.16Z"/><path class="cls-1" d="M19.66,21.33h6.45a.81.81,0,0,0,0-1.61H19.66a.81.81,0,0,0,0,1.61Z"/><path class="cls-1" d="M19.66,24.83h6.45a.81.81,0,1,0,0-1.61H19.66a.81.81,0,0,0,0,1.61Z"/><path class="cls-1" d="M19.66,28.32h3.23a.81.81,0,1,0,0-1.61H19.66a.81.81,0,0,0,0,1.61Z"/></g></g></svg>