<svg xmlns="http://www.w3.org/2000/svg" viewBox="0 0 139 100"><defs><style>.cls-1{fill:#50d4aa;}.cls-2{fill:#172242;}.cls-3{fill:#fff;}.cls-4{fill:#454e68;}.cls-5{fill:#5d647b;}</style></defs><title>security-graphic</title><g id="Layer_2" data-name="Layer 2"><g id="Layer_2-2" data-name="Layer 2"><rect class="cls-1" width="139" height="100"/><path class="cls-2" d="M86.81,43.53V57.64l-10,10H62.72l-10-10V43.53l10-10H76.83Zm-17-30.13a2.92,2.92,0,1,1-2.92,2.92A2.92,2.92,0,0,1,69.77,13.4Zm0,74.37a2.92,2.92,0,1,1,2.92-2.92A2.92,2.92,0,0,1,69.77,87.77ZM61.85,29.33a2.11,2.11,0,0,0-1.5.61L49.13,41.16a2.11,2.11,0,0,0-.61,1.5V58.51a2.11,2.11,0,0,0,.61,1.5L60.35,71.23a2.11,2.11,0,0,0,1.5.61h5.81V78a7.15,7.15,0,1,0,4.23,0V71.84H77.7a2.11,2.11,0,0,0,1.5-.61L90.41,60a2.11,2.11,0,0,0,.61-1.5V42.66a2.11,2.11,0,0,0-.61-1.5L79.19,29.95a2.11,2.11,0,0,0-1.5-.61H71.89V23.16a7.15,7.15,0,1,0-4.23,0v6.17Z"/><path class="cls-3" d="M67.93,48.43h0a3,3,0,1,1,3.7,0A2.12,2.12,0,0,0,71,50.79l2.39,6.76h0a12.16,12.16,0,0,1-7.13,0l2.39-6.76h0a2.12,2.12,0,0,0-.69-2.36ZM62.57,46.1a7.17,7.17,0,0,0,1.6,4.53L61.91,57a3.25,3.25,0,0,0,1.89,4.14,16.41,16.41,0,0,0,12,0A3.25,3.25,0,0,0,77.64,57l-2.26-6.38A7.3,7.3,0,1,0,62.53,46.1Z"/><path class="cls-4" d="M87.61,13.4a2.92,2.92,0,1,1-2.92,2.92A2.92,2.92,0,0,1,87.61,13.4Zm0,74.37a2.92,2.92,0,1,1,2.92-2.92A2.92,2.92,0,0,1,87.61,87.77Zm7.15-71.45a7.15,7.15,0,1,0-9.3,6.83v4.23a2.11,2.11,0,0,0,.62,1.5L96.71,39.5V61.67L86.12,72.26a2.13,2.13,0,0,0-.62,1.5V78a7.15,7.15,0,1,0,4.23,0V74.61L100.32,64a2.13,2.13,0,0,0,.62-1.5V38.63a2.13,2.13,0,0,0-.62-1.5L89.73,26.53V23.15a7.17,7.17,0,0,0,5-6.83Z"/><path class="cls-4" d="M51.93,13.4A2.92,2.92,0,1,1,49,16.33,2.92,2.92,0,0,1,51.93,13.4Zm0,74.37a2.92,2.92,0,1,1,2.92-2.92A2.92,2.92,0,0,1,51.93,87.77ZM39.23,37.13a2.13,2.13,0,0,0-.62,1.5V62.55h0a2.13,2.13,0,0,0,.62,1.5l10.59,10.6V78A7.15,7.15,0,1,0,54,78V73.79a2.11,2.11,0,0,0-.62-1.5L42.83,61.68V39.5l10.6-10.59a2.13,2.13,0,0,0,.62-1.5V23.19a7.15,7.15,0,1,0-4.23,0v3.38Z"/><path class="cls-5" d="M100.93,52.72h12.83a7.15,7.15,0,1,0,0-4.23H100.93Zm17-3.23a2.92,2.92,0,1,1,.63,3.19A2.92,2.92,0,0,1,117.9,49.49Z"/><path class="cls-5" d="M38.61,48.49H25.78a7.15,7.15,0,1,0,0,4.23H38.61ZM21,52.67a2.92,2.92,0,1,1,.63-3.19A2.92,2.92,0,0,1,21,52.67Z"/></g></g></svg>