<svg xmlns="http://www.w3.org/2000/svg" viewBox="0 0 138 99.05"><defs><style>.cls-1{fill:#50d4aa;}.cls-2,.cls-4{fill:#172242;}.cls-3{fill:#454e68;}.cls-4{stroke:#172242;stroke-linecap:round;stroke-linejoin:round;stroke-width:2px;}.cls-5{fill:#fff;}</style></defs><title>thinking-graphic</title><g id="Layer_2" data-name="Layer 2"><g id="Layer_2-2" data-name="Layer 2"><rect class="cls-1" width="138" height="99.05"/><path class="cls-2" d="M45.58,38.63a23.7,23.7,0,0,1,46.63,8.32l2.15,11.52-4.47-.64L86.73,72.07,78.8,70.31v4.53H53.35v-13A23.7,23.7,0,0,1,45.58,38.63Z"/><path class="cls-3" d="M68.15,27a16.25,16.25,0,0,1,11.6,27.62l1.72,5.55-6.86-2A16.25,16.25,0,1,1,68.15,27Z"/><rect class="cls-4" x="35.86" y="17.29" width="0.86" height="10.92" transform="translate(0.33 46.03) rotate(-65)"/><rect class="cls-4" x="23.08" y="62.21" width="10.92" height="0.86" transform="translate(-30.15 26.67) rotate(-34)"/><rect class="cls-4" x="58.31" y="84.38" width="0.86" height="10.92" transform="translate(-4.62 3.2) rotate(-3)"/><rect class="cls-4" x="97.17" y="72.49" width="0.86" height="10.92" transform="translate(-17.05 127.53) rotate(-62)"/><rect class="cls-4" x="101.97" y="38.09" width="10.92" height="0.86" transform="translate(-4.5 60.83) rotate(-31)"/><rect class="cls-4" x="78.26" y="4.33" width="0.86" height="10.92"/><path class="cls-5" d="M72.91,41.94c-1.25,1-2.29,1.68-2.29,3.35v1.46a2.07,2.07,0,0,1-4.15,0V45.32c0-3.42,1.61-4.28,3.72-6.24a1.58,1.58,0,0,0,.64-1.35V36.55a2,2,0,0,0-2.07-2h-.18a2,2,0,0,0-2.07,2v0a2.07,2.07,0,0,1-4.15,0v-.32c0-3.42,2.79-5.77,6.22-5.77h.18c3.43,0,6.22,2.35,6.22,5.77v1.46A5.27,5.27,0,0,1,72.91,41.94ZM68.55,55.52a1.89,1.89,0,0,1-2.07-1.85v-.86a2.08,2.08,0,0,1,4.15,0v.86A1.89,1.89,0,0,1,68.55,55.52Z"/></g></g></svg>