<svg xmlns="http://www.w3.org/2000/svg" viewBox="0 0 44.8 51.61"><defs><style>.cls-1{fill:#50dab0;}.cls-2{fill:#172242;}</style></defs><title>verified-user-graphic</title><g id="Layer_2" data-name="Layer 2"><g id="Layer_2-2" data-name="Layer 2"><path class="cls-1" d="M34.45,46.33,30.6,42.48l1.4-1.4,2.45,2.43,4.87-4.87L40.74,40Zm1.22-13a9.13,9.13,0,1,0,9.13,9.13A9.11,9.11,0,0,0,35.67,33.36Z"/><path class="cls-2" d="M32.38,32.79c-2.34-1.29-4.68-2.4-4.68-2.4L22.5,46.93,20.92,34.25l1.23-1.69a8.45,8.45,0,0,0-.88-1.64c1.17-.06,4.68-1.58,5.84-2a1,1,0,0,0-.12-.29,18.75,18.75,0,0,1-.23-3.1c.64-.7.94-2.51,1.58-5.38,4-4.21,2.22-8.88.7-8.77.76-4.68.53-9.17-4.62-8.88.23-3.45-16-5.32-14.67,8.82-1.52-.06-3.27,4.56.7,8.77.58,2.86.88,4.68,1.58,5.38a17.78,17.78,0,0,1-.18,2.75,1,1,0,0,0-.12.41v.12c.76.35,4.79,2.1,6.08,2.16a8.45,8.45,0,0,0-.88,1.64l1.23,1.69L16.6,46.93,11.34,30.1c-.53.23-7.13,3.27-8.94,5.61S0,44.36,0,44.36s6.31,5.2,17.59,5.9h.06c.7.06,1.52.06,2.28.06s1.58,0,2.28-.06h.12a33.84,33.84,0,0,0,6-.88,10.28,10.28,0,0,1,4.09-16.6Z"/></g></g></svg>