<svg xmlns="http://www.w3.org/2000/svg" viewBox="0 0 405.77 260.23"><defs><style>.cls-1{fill:#eaeaea;}</style></defs><title>changes-everything-trust-cloud</title><g id="Layer_2" data-name="Layer 2"><g id="Layer_1-2" data-name="Layer 1"><path class="cls-1" d="M206.69,219.51a54.18,54.18,0,0,1-41.81-19.85A54,54,0,0,1,88,191.06,54,54,0,1,1,83.9,84.47a54,54,0,0,1,90.42-31.32l.49-.49a53.94,53.94,0,0,1,79.76,6.88,54,54,0,0,1,84.32,25.15,50.88,50.88,0,1,1-15.78,100.53A54,54,0,0,1,246,202.52,53.92,53.92,0,0,1,206.69,219.51Zm-41.39-27h.29a2.91,2.91,0,0,1,2.07,1.19,48.15,48.15,0,0,0,75.7,3,2.91,2.91,0,0,1,4-.43A48.17,48.17,0,0,0,319,180.63a2.9,2.9,0,0,1,3.14-1.48A45.1,45.1,0,0,0,376.23,135a45,45,0,0,0-39.87-44.76,2.91,2.91,0,0,1-2.45-2,48.17,48.17,0,0,0-78-22.21,2.91,2.91,0,0,1-4.34-.56,48.13,48.13,0,0,0-72.77-8.53l-.51.5a53.75,53.75,0,0,1,12.86,32.08,2.91,2.91,0,1,1-5.81.29A48.07,48.07,0,0,0,172.2,59.24h0A48.16,48.16,0,0,0,89.33,88a2.91,2.91,0,0,1-3.39,2.6A48.17,48.17,0,1,0,88.59,185a2.91,2.91,0,0,1,3,1.13,48.15,48.15,0,0,0,71.72,7.18A2.91,2.91,0,0,1,165.3,192.53Z"/><path class="cls-1" d="M386.58,104.93a2.91,2.91,0,0,1-2.5-1.42,61.2,61.2,0,0,0-36.13-27.76,2.9,2.9,0,0,1-1.83-1.54,64.39,64.39,0,0,0-5.39-9.16,2.91,2.91,0,1,1,4.75-3.35,70.17,70.17,0,0,1,5.3,8.82,67,67,0,0,1,38.3,30,2.91,2.91,0,0,1-2.5,4.4Z"/><path class="cls-1" d="M398.47,82.29l7.12-11.09a1.08,1.08,0,0,0-.86-1.67l-13.17-.62a1.35,1.35,0,0,0-1.26,2l.92,1.78a1.45,1.45,0,0,1-.62,2l-17.33,8.94a1,1,0,0,0-.43,1.36l1.74,3.37a1,1,0,0,0,1.36.43l17.33-8.94a1.45,1.45,0,0,1,2,.62l.92,1.78A1.35,1.35,0,0,0,398.47,82.29Z"/><path class="cls-1" d="M388.84,203.58l13.15-1a1.08,1.08,0,0,0,.81-1.69L395.38,190a1.35,1.35,0,0,0-2.33.17l-.87,1.8a1.45,1.45,0,0,1-1.94.68l-17.57-8.47a1,1,0,0,0-1.35.47l-1.65,3.42a1,1,0,0,0,.47,1.35l17.57,8.47a1.45,1.45,0,0,1,.68,1.94l-.87,1.8A1.35,1.35,0,0,0,388.84,203.58Z"/><path class="cls-1" d="M280.8,250.27l10.47,8a1.08,1.08,0,0,0,1.73-.72l1.7-13.08a1.35,1.35,0,0,0-1.86-1.42l-1.85.77a1.45,1.45,0,0,1-1.9-.78l-7.49-18a1,1,0,0,0-1.32-.54l-3.5,1.46a1,1,0,0,0-.54,1.32l7.49,18a1.45,1.45,0,0,1-.78,1.9l-1.85.77A1.35,1.35,0,0,0,280.8,250.27Z"/><path class="cls-1" d="M4.52,190.52.07,202.93a1.08,1.08,0,0,0,1.21,1.43l13-2.34a1.35,1.35,0,0,0,.79-2.2l-1.29-1.53a1.45,1.45,0,0,1,.17-2l14.89-12.6a1,1,0,0,0,.12-1.42l-2.45-2.9A1,1,0,0,0,25,179.2L10.16,191.8a1.45,1.45,0,0,1-2-.17L6.82,190.1A1.35,1.35,0,0,0,4.52,190.52Z"/><path class="cls-1" d="M118.91,246.54l3,12.85a1.08,1.08,0,0,0,1.79.55l9.65-9a1.35,1.35,0,0,0-.52-2.28l-1.92-.59a1.45,1.45,0,0,1-1-1.81l5.71-18.65a1,1,0,0,0-.67-1.26l-3.63-1.11a1,1,0,0,0-1.26.67l-5.71,18.65a1.45,1.45,0,0,1-1.81,1l-1.92-.59A1.35,1.35,0,0,0,118.91,246.54Z"/><path class="cls-1" d="M177.14,9.48,167.67.31a1.08,1.08,0,0,0-1.8.51l-3.21,12.79a1.35,1.35,0,0,0,1.68,1.63l1.93-.55a1.45,1.45,0,0,1,1.79,1l5.35,18.75a1,1,0,0,0,1.25.69l3.65-1a1,1,0,0,0,.69-1.25l-5.35-18.75a1.45,1.45,0,0,1,1-1.79l1.93-.55A1.35,1.35,0,0,0,177.14,9.48Z"/><path class="cls-1" d="M314.3,16.81,313,3.69a1.08,1.08,0,0,0-1.71-.78l-10.72,7.67a1.35,1.35,0,0,0,.23,2.33l1.82.83a1.45,1.45,0,0,1,.72,1.92L295.3,33.42a1,1,0,0,0,.5,1.34l3.46,1.57a1,1,0,0,0,1.34-.5l8.06-17.76a1.45,1.45,0,0,1,1.92-.72l1.82.83A1.35,1.35,0,0,0,314.3,16.81Z"/><path class="cls-1" d="M58.61,44.29,45.54,46a1.08,1.08,0,0,0-.72,1.73l8,10.46a1.35,1.35,0,0,0,2.32-.31L55.94,56a1.45,1.45,0,0,1,1.9-.79l18,7.45a1,1,0,0,0,1.32-.55l1.45-3.51a1,1,0,0,0-.55-1.32l-18-7.45a1.45,1.45,0,0,1-.79-1.9L60,46.14A1.35,1.35,0,0,0,58.61,44.29Z"/><path class="cls-1" d="M77.64,208.57A70.56,70.56,0,0,1,7.16,138.09a2.91,2.91,0,1,1,5.82,0,64.74,64.74,0,0,0,64.66,64.66,2.91,2.91,0,0,1,0,5.82Z"/><path class="cls-1" d="M31.69,91.49a2.91,2.91,0,0,1-2-5A70.6,70.6,0,0,1,71.22,67.9,70.72,70.72,0,0,1,89.64,40.52a2.91,2.91,0,1,1,3.94,4.28A64.83,64.83,0,0,0,76.08,71.59a2.91,2.91,0,0,1-2.57,2A64.73,64.73,0,0,0,33.67,90.71,2.9,2.9,0,0,1,31.69,91.49Z"/><path class="cls-1" d="M189.75,233.82a2.89,2.89,0,0,1-.74-.1,71.32,71.32,0,0,1-26.2-13.09,70.38,70.38,0,0,1-67-1.51,2.91,2.91,0,0,1,2.88-5.05,64.56,64.56,0,0,0,63.1.54,2.91,2.91,0,0,1,3.27.32,65.41,65.41,0,0,0,25.45,13.16,2.91,2.91,0,0,1-.73,5.72Z"/><path class="cls-1" d="M331.16,202.35h-1.35a2.91,2.91,0,1,1,.12-5.81h1.23A61.62,61.62,0,0,0,392.71,135a2.91,2.91,0,1,1,5.82,0A67.45,67.45,0,0,1,331.16,202.35Z"/><path class="cls-1" d="M223.69,233.83a2.91,2.91,0,0,1-.73-5.72,64.2,64.2,0,0,0,23-11.25,2.92,2.92,0,0,1,3-.32,63.92,63.92,0,0,0,27.49,6.11,64.82,64.82,0,0,0,40.82-14.5,2.91,2.91,0,0,1,3.67,4.51,70.65,70.65,0,0,1-44.49,15.8,69.72,69.72,0,0,1-28.38-5.94,69.93,69.93,0,0,1-23.7,11.21A2.92,2.92,0,0,1,223.69,233.83Z"/><path class="cls-1" d="M174.46,38.83a2.9,2.9,0,0,1-1.52-.43l-1.75-1.07a64.9,64.9,0,0,0-51.72-7.07,2.91,2.91,0,1,1-1.6-5.59,70.71,70.71,0,0,1,56.37,7.71l0,0,.16-.11A70.23,70.23,0,0,1,211.56,21.7a2.91,2.91,0,0,1,0,5.82,64.42,64.42,0,0,0-33.93,9.63l-1.4,1.08A2.9,2.9,0,0,1,174.46,38.83Z"/><path class="cls-1" d="M322,46.86a2.89,2.89,0,0,1-1.48-.4,64.27,64.27,0,0,0-62.33-1.84,2.91,2.91,0,0,1-3.28-.43,64.47,64.47,0,0,0-17.43-11.26,2.91,2.91,0,1,1,2.33-5.33,70.27,70.27,0,0,1,17.5,11,70.07,70.07,0,0,1,66.17,2.89A2.91,2.91,0,0,1,322,46.86Z"/><path class="cls-1" d="M140.35,106.52c2.38,0,3.39,2.6,3.39,5,0,2.74-1.23,5.12-3.39,5.12h-10v39.19c0,2.31-2.82,3.46-5.63,3.46s-5.63-1.16-5.63-3.46V116.62h-10c-2.16,0-3.39-2.38-3.39-5.12,0-2.38,1-5,3.39-5Z"/><path class="cls-1" d="M146.42,109.91a3.36,3.36,0,0,1,3.46-3.39h14.94c9.89,0,17.76,3.68,17.76,15.45,0,8.08-3.68,12.7-8.73,14.65l8.81,16a2.37,2.37,0,0,1,.36,1.3c0,2.82-3.75,5.85-7.07,5.85a3.85,3.85,0,0,1-3.61-2.09l-9.89-19.2h-4.76v17.39c0,2.31-2.81,3.46-5.63,3.46s-5.63-1.16-5.63-3.46Zm11.26,6.42v13.42h7.15c4,0,6.5-1.66,6.5-6.71s-2.45-6.71-6.5-6.71Z"/><path class="cls-1" d="M211.67,109.91c0-2.38,2.74-3.39,5.63-3.39s5.63,1,5.63,3.39v32.77c0,12.41-8,17-18.19,17s-18.19-4.62-18.19-17V109.91c0-2.38,2.74-3.39,5.63-3.39s5.63,1,5.63,3.39v32.77c0,4.91,2.6,7.22,6.93,7.22s6.93-2.31,6.93-7.22Z"/><path class="cls-1" d="M250.36,145.13c0-8.73-22.88-7.22-22.88-24.11,0-10.83,9.45-14.94,18.48-14.94,3.83,0,14.36.72,14.36,6.35,0,1.95-1.3,5.92-4.47,5.92-2.6,0-4-2.74-9.89-2.74-5.12,0-7.22,2.09-7.22,4.33,0,7.22,22.88,5.85,22.88,24,0,10.39-7.58,16-18,16-9.45,0-17.39-4.62-17.39-9.38,0-2.45,2.17-6.06,4.91-6.06,3.39,0,5.56,5.34,12.27,5.34C246.68,149.9,250.36,148.6,250.36,145.13Z"/><path class="cls-1" d="M296.62,106.52c2.38,0,3.39,2.6,3.39,5,0,2.74-1.23,5.12-3.39,5.12h-10v39.19c0,2.31-2.81,3.46-5.63,3.46s-5.63-1.16-5.63-3.46V116.62h-10c-2.17,0-3.39-2.38-3.39-5.12,0-2.38,1-5,3.39-5Z"/></g></g></svg>