<svg xmlns="http://www.w3.org/2000/svg" viewBox="0 0 17.56 29.58"><defs><style>.cls-1{fill:#eaeaea;}</style></defs><title>changes-everything-title-icon</title><g id="Layer_2" data-name="Layer 2"><g id="Layer_1-2" data-name="Layer 1"><path class="cls-1" d="M11.82,1.56h5.71a1.31,1.31,0,0,0-.14-.9A1.41,1.41,0,0,0,16.13,0H9.35a2.32,2.32,0,0,0-2,1.26L.17,16.18a1.45,1.45,0,0,0,0,1.41,1.46,1.46,0,0,0,1.25.67h1a1.63,1.63,0,0,1,.15-.53L9.82,2.82A2.32,2.32,0,0,1,11.82,1.56Z"/><path class="cls-1" d="M16.4,11.25c-3.42,0-4.23,0-4.23,0L9.09,17.62a1.19,1.19,0,0,1-1,.67l-1.48,0L4,25.36H4L2.92,28A1.27,1.27,0,0,0,3,29.21a.85.85,0,0,0,.7.37h.06a1.28,1.28,0,0,0,1-.58l1.76-2.21,10.27-12.9S18.74,12.22,16.4,11.25Z"/></g></g></svg>