<svg xmlns="http://www.w3.org/2000/svg" viewBox="0 0 274.27 284.54"><defs><style>.cls-1{fill:#eaeaea;}.cls-2{fill:#272c38;}.cls-3{fill:#0aa;}.cls-4{fill:teal;}</style></defs><title>changes-everything-best-content-cloud-documents</title><g id="Layer_2" data-name="Layer 2"><g id="Layer_1-2" data-name="Layer 1"><path class="cls-1" d="M183.68,183.56v65.36s.18,6.88,7,7.24,29.73.74,29.73.74h33.14l1.29-4.6V190.36l-3.31-3H239.56l-1.17-3.16Z"/><path class="cls-2" d="M197.47,212.22h7.46l5-9.95V187.34H195v14.92h7.46Zm19.9,0h7.46l5-9.95V187.34H214.88v14.92h7.46Z"/><path class="cls-2" d="M251,186.61h-6.55a1.21,1.21,0,0,0,0,2.43h2.26a5,5,0,0,0-.72,2.59V249a1.21,1.21,0,0,0,2.43,0V191.63a2.59,2.59,0,0,1,5.18,0V249a6.39,6.39,0,0,1-12.79,0V183a1.21,1.21,0,0,0-1.21-1.21H183.82A1.21,1.21,0,0,0,182.6,183v66a8.83,8.83,0,0,0,8.82,8.82h55.78A8.83,8.83,0,0,0,256,249V191.63a5,5,0,0,0-5-5ZM191.43,255.4A6.4,6.4,0,0,1,185,249V184.18h53.35V249a8.8,8.8,0,0,0,2.75,6.39Zm0,0"/><path class="cls-2" d="M233.12,214.93h-19a1.21,1.21,0,1,0,0,2.43h19a1.21,1.21,0,0,0,0-2.43Zm0,0"/><path class="cls-2" d="M209.28,214.93h-19a1.21,1.21,0,1,0,0,2.43h19a1.21,1.21,0,0,0,0-2.43Zm0,0"/><path class="cls-2" d="M233.12,219.79h-19a1.21,1.21,0,1,0,0,2.43h19a1.21,1.21,0,0,0,0-2.43Zm0,0"/><path class="cls-2" d="M209.28,219.79h-19a1.21,1.21,0,0,0,0,2.43h19a1.21,1.21,0,0,0,0-2.43Zm0,0"/><path class="cls-2" d="M233.12,224.65h-19a1.21,1.21,0,1,0,0,2.43h19a1.21,1.21,0,1,0,0-2.43Zm0,0"/><path class="cls-2" d="M233.12,229.5h-19a1.21,1.21,0,1,0,0,2.43h19a1.21,1.21,0,1,0,0-2.43Zm0,0"/><path class="cls-2" d="M214.14,236.79h12.51a1.21,1.21,0,0,0,0-2.43H214.14a1.21,1.21,0,0,0,0,2.43Zm0,0"/><path class="cls-2" d="M226.65,248.92H214.14a1.21,1.21,0,0,0,0,2.43h12.51a1.21,1.21,0,0,0,0-2.43Zm0,0"/><path class="cls-2" d="M233.12,244.07h-19a1.21,1.21,0,1,0,0,2.43h19a1.21,1.21,0,1,0,0-2.43Zm0,0"/><path class="cls-2" d="M209.28,224.65h-19a1.21,1.21,0,0,0-1.21,1.21v24.28a1.21,1.21,0,0,0,1.21,1.21h19a1.21,1.21,0,0,0,1.21-1.21V225.86a1.21,1.21,0,0,0-1.21-1.21Zm-1.21,24.28H191.51V227.07h16.56Zm0,0"/><path class="cls-1" d="M57.59,172.86v27.62a3.12,3.12,0,0,0,3,3.06c2.87.16,12.56.31,12.56.31h14l.54-1.94V175.73l-1.4-1.28h-5l-.5-1.34Z"/><path class="cls-2" d="M63.41,185h3.15l2.1-4.2v-6.31H62.36v6.31h3.15Zm8.41,0H75l2.1-4.2v-6.31H70.77v6.31h3.15Z"/><path class="cls-2" d="M86,174.15H83.26a.51.51,0,1,0,0,1h1a2.11,2.11,0,0,0-.3,1.09v24.24a.51.51,0,1,0,1,0V176.27a1.09,1.09,0,0,1,2.19,0v24.24a2.7,2.7,0,0,1-5.4,0v-27.9a.51.51,0,0,0-.51-.51H57.65a.51.51,0,0,0-.51.51v27.9a3.73,3.73,0,0,0,3.73,3.73H84.43a3.73,3.73,0,0,0,3.73-3.73V176.27A2.12,2.12,0,0,0,86,174.15ZM60.86,203.21a2.7,2.7,0,0,1-2.7-2.7V173.12H80.7v27.39a3.72,3.72,0,0,0,1.16,2.7Zm0,0"/><path class="cls-2" d="M78.48,186.11h-8a.51.51,0,0,0,0,1h8a.51.51,0,0,0,0-1Zm0,0"/><path class="cls-2" d="M68.4,186.11h-8a.51.51,0,0,0,0,1h8a.51.51,0,0,0,0-1Zm0,0"/><path class="cls-2" d="M78.48,188.17h-8a.51.51,0,0,0,0,1h8a.51.51,0,0,0,0-1Zm0,0"/><path class="cls-2" d="M68.4,188.17h-8a.51.51,0,0,0,0,1h8a.51.51,0,0,0,0-1Zm0,0"/><path class="cls-2" d="M78.48,190.22h-8a.51.51,0,1,0,0,1h8a.51.51,0,1,0,0-1Zm0,0"/><path class="cls-2" d="M78.48,192.27h-8a.51.51,0,0,0,0,1h8a.51.51,0,0,0,0-1Zm0,0"/><path class="cls-2" d="M70.46,195.35h5.29a.51.51,0,1,0,0-1H70.46a.51.51,0,1,0,0,1Zm0,0"/><path class="cls-2" d="M75.74,200.48H70.45a.51.51,0,0,0,0,1h5.29a.51.51,0,0,0,0-1Zm0,0"/><path class="cls-2" d="M78.48,198.42h-8a.51.51,0,1,0,0,1h8a.51.51,0,1,0,0-1Zm0,0"/><path class="cls-2" d="M68.4,190.22h-8a.51.51,0,0,0-.51.51V201a.51.51,0,0,0,.51.51h8a.51.51,0,0,0,.51-.51V190.73a.51.51,0,0,0-.51-.51Zm-.51,10.26h-7v-9.23h7Zm0,0"/><path class="cls-1" d="M103,200v19.76a2.23,2.23,0,0,0,2.11,2.19c2.06.11,9,.22,9,.22h10l.39-1.39V202.05l-1-.91h-3.61l-.35-1Z"/><path class="cls-2" d="M107.16,208.66h2.26l1.5-3v-4.51h-4.51v4.51h2.26Zm6,0h2.26l1.5-3v-4.51h-4.51v4.51h2.26Z"/><path class="cls-2" d="M123.35,200.92h-2a.37.37,0,1,0,0,.73H122a1.51,1.51,0,0,0-.22.78v17.35a.37.37,0,1,0,.73,0V202.43a.78.78,0,0,1,1.57,0v17.35a1.93,1.93,0,0,1-3.87,0v-20a.37.37,0,0,0-.37-.37H103a.37.37,0,0,0-.37.37v20a2.67,2.67,0,0,0,2.67,2.67H122.2a2.67,2.67,0,0,0,2.67-2.67V202.43a1.52,1.52,0,0,0-1.52-1.52Zm-18,20.8a1.93,1.93,0,0,1-1.93-1.93v-19.6h16.13v19.6a2.66,2.66,0,0,0,.83,1.93Zm0,0"/><path class="cls-2" d="M117.94,209.48H112.2a.37.37,0,0,0,0,.73h5.74a.37.37,0,0,0,0-.73Zm0,0"/><path class="cls-2" d="M110.73,209.48H105a.37.37,0,0,0,0,.73h5.74a.37.37,0,0,0,0-.73Zm0,0"/><path class="cls-2" d="M117.94,210.95H112.2a.37.37,0,1,0,0,.73h5.74a.37.37,0,0,0,0-.73Zm0,0"/><path class="cls-2" d="M110.73,210.95H105a.37.37,0,0,0,0,.73h5.74a.37.37,0,0,0,0-.73Zm0,0"/><path class="cls-2" d="M117.94,212.42H112.2a.37.37,0,1,0,0,.73h5.74a.37.37,0,0,0,0-.73Zm0,0"/><path class="cls-2" d="M117.94,213.88H112.2a.37.37,0,1,0,0,.73h5.74a.37.37,0,0,0,0-.73Zm0,0"/><path class="cls-2" d="M112.2,216.09H116a.37.37,0,0,0,0-.73H112.2a.37.37,0,0,0,0,.73Zm0,0"/><path class="cls-2" d="M116,219.76H112.2a.37.37,0,1,0,0,.73H116a.37.37,0,0,0,0-.73Zm0,0"/><path class="cls-2" d="M117.94,218.29H112.2a.37.37,0,1,0,0,.73h5.74a.37.37,0,1,0,0-.73Zm0,0"/><path class="cls-2" d="M110.73,212.42H105a.37.37,0,0,0-.37.37v7.34a.37.37,0,0,0,.37.37h5.74a.37.37,0,0,0,.37-.37v-7.34a.37.37,0,0,0-.37-.37Zm-.37,7.34h-5v-6.61h5Zm0,0"/><path class="cls-1" d="M76.12,228.28v10.15a1.15,1.15,0,0,0,1.08,1.12c1.06.06,4.62.11,4.62.11H87l.2-.71v-9.62l-.51-.47H84.8l-.18-.49Z"/><path class="cls-2" d="M78.26,232.73h1.16l.77-1.55v-2.32H77.87v2.32H79Zm3.09,0h1.16l.77-1.55v-2.32H81v2.32h1.16Z"/><path class="cls-2" d="M86.57,228.76h-1a.19.19,0,0,0,0,.38h.35a.77.77,0,0,0-.11.4v8.91a.19.19,0,0,0,.38,0v-8.91a.4.4,0,0,1,.8,0v8.91a1,1,0,0,1-2,0V228.19a.19.19,0,0,0-.19-.19H76.14a.19.19,0,0,0-.19.19v10.26a1.37,1.37,0,0,0,1.37,1.37H86a1.37,1.37,0,0,0,1.37-1.37v-8.91a.78.78,0,0,0-.78-.78Zm-9.25,10.68a1,1,0,0,1-1-1V228.38h8.29v10.07a1.37,1.37,0,0,0,.43,1Zm0,0"/><path class="cls-2" d="M83.8,233.16H80.85a.19.19,0,1,0,0,.38H83.8a.19.19,0,0,0,0-.38Zm0,0"/><path class="cls-2" d="M80.09,233.16H77.14a.19.19,0,1,0,0,.38h2.95a.19.19,0,0,0,0-.38Zm0,0"/><path class="cls-2" d="M83.8,233.91H80.85a.19.19,0,0,0,0,.38H83.8a.19.19,0,1,0,0-.38Zm0,0"/><path class="cls-2" d="M80.09,233.91H77.14a.19.19,0,1,0,0,.38h2.95a.19.19,0,1,0,0-.38Zm0,0"/><path class="cls-2" d="M83.8,234.66H80.85a.19.19,0,0,0,0,.38H83.8a.19.19,0,0,0,0-.38Zm0,0"/><path class="cls-2" d="M83.8,235.42H80.85a.19.19,0,1,0,0,.38H83.8a.19.19,0,0,0,0-.38Zm0,0"/><path class="cls-2" d="M80.85,236.55h1.94a.19.19,0,1,0,0-.38H80.85a.19.19,0,0,0,0,.38Zm0,0"/><path class="cls-2" d="M82.79,238.43H80.85a.19.19,0,1,0,0,.38h1.94a.19.19,0,1,0,0-.38Zm0,0"/><path class="cls-2" d="M83.8,237.68H80.85a.19.19,0,1,0,0,.38H83.8a.19.19,0,1,0,0-.38Zm0,0"/><path class="cls-2" d="M80.09,234.66H77.14a.19.19,0,0,0-.19.19v3.77a.19.19,0,0,0,.19.19h2.95a.19.19,0,0,0,.19-.19v-3.77a.19.19,0,0,0-.19-.19Zm-.19,3.77H77.33V235H79.9Zm0,0"/><path class="cls-1" d="M115.82,162v19.76a2.23,2.23,0,0,0,2.11,2.19c2.06.11,9,.22,9,.22h10l.39-1.39V164l-1-.91h-3.61l-.35-1Z"/><path class="cls-2" d="M120,170.66h2.26l1.5-3v-4.51h-4.51v4.51h2.26Zm6,0h2.26l1.5-3v-4.51h-4.51v4.51h2.26Z"/><path class="cls-2" d="M136.17,162.91h-2a.37.37,0,1,0,0,.73h.68a1.51,1.51,0,0,0-.22.78v17.35a.37.37,0,1,0,.73,0V164.43a.78.78,0,0,1,1.57,0v17.35a1.93,1.93,0,0,1-3.87,0v-20a.37.37,0,0,0-.37-.37H115.86a.37.37,0,0,0-.37.37v20a2.67,2.67,0,0,0,2.67,2.67H135a2.67,2.67,0,0,0,2.67-2.67V164.43a1.52,1.52,0,0,0-1.52-1.52Zm-18,20.8a1.93,1.93,0,0,1-1.93-1.93v-19.6h16.13v19.6a2.66,2.66,0,0,0,.83,1.93Zm0,0"/><path class="cls-2" d="M130.77,171.48H125a.37.37,0,1,0,0,.73h5.74a.37.37,0,0,0,0-.73Zm0,0"/><path class="cls-2" d="M123.56,171.48h-5.74a.37.37,0,1,0,0,.73h5.74a.37.37,0,1,0,0-.73Zm0,0"/><path class="cls-2" d="M130.77,172.95H125a.37.37,0,0,0,0,.73h5.74a.37.37,0,0,0,0-.73Zm0,0"/><path class="cls-2" d="M123.56,172.95h-5.74a.37.37,0,0,0,0,.73h5.74a.37.37,0,0,0,0-.73Zm0,0"/><path class="cls-2" d="M130.77,174.41H125a.37.37,0,0,0,0,.73h5.74a.37.37,0,0,0,0-.73Zm0,0"/><path class="cls-2" d="M130.77,175.88H125a.37.37,0,1,0,0,.73h5.74a.37.37,0,1,0,0-.73Zm0,0"/><path class="cls-2" d="M125,178.08h3.78a.37.37,0,0,0,0-.73H125a.37.37,0,0,0,0,.73Zm0,0"/><path class="cls-2" d="M128.81,181.75H125a.37.37,0,1,0,0,.73h3.78a.37.37,0,0,0,0-.73Zm0,0"/><path class="cls-2" d="M130.77,180.28H125a.37.37,0,1,0,0,.73h5.74a.37.37,0,1,0,0-.73Zm0,0"/><path class="cls-2" d="M123.56,174.41h-5.74a.37.37,0,0,0-.37.37v7.34a.37.37,0,0,0,.37.37h5.74a.37.37,0,0,0,.37-.37v-7.34a.37.37,0,0,0-.37-.37Zm-.37,7.34h-5v-6.61h5Zm0,0"/><path class="cls-1" d="M265.6,245.9l-7.55-7.55c-2.11-2.11-6.94-5.74-11.47-3l-1.81,1.81a6.47,6.47,0,0,0-3.62-1.21,6.05,6.05,0,0,0-4.53,2.11,5.41,5.41,0,0,0-1.51,2.11c-.91-.3-1.51-.3-2.42-.6a6.05,6.05,0,0,0-4.53,2.11,6.15,6.15,0,0,0-1.21,7.25,18.49,18.49,0,0,0-1.81,1.21,7.77,7.77,0,0,0-2.11,4.53,10.54,10.54,0,0,0,3,6l1.21,1.21a8.45,8.45,0,0,0-2.72,5.74c.3,3.92,3,6.64,6.64,10.26L233.3,280c4.23,4.23,8.45,4.23,12.68,4.23l2.11.3c7.55-.3,12.38-2.72,20.23-10.57C277.08,265.22,276.17,256.46,265.6,245.9Z"/><path class="cls-2" d="M246.58,235.33l-1.81,1.81a6.47,6.47,0,0,0-3.62-1.21,6.05,6.05,0,0,0-4.53,2.11,5.42,5.42,0,0,0-1.51,2.11c-.91-.3-1.51-.3-2.42-.6a6.05,6.05,0,0,0-4.53,2.11,6.15,6.15,0,0,0-1.21,7.25,18.49,18.49,0,0,0-1.81,1.21,7.77,7.77,0,0,0-2.11,4.53,10.54,10.54,0,0,0,3,6l1.21,1.21a8.45,8.45,0,0,0-2.72,5.74c.3,3.92,3,6.64,6.64,10.26L233.3,280c4.23,4.23,8.45,4.23,12.68,4.23l2.11.3c7.55-.3,12.38-2.72,20.23-10.57,8.75-8.75,7.85-17.51-2.72-28.08l-7.55-7.55C255.94,236.24,251.11,232.61,246.58,235.33Zm-6.94,5.74c1.21-1.21,2.72-.3,3.32.3l2.42,2.42a2,2,0,0,0,2.72.3c.91-.91,1.21-1.81.3-2.72a1.27,1.27,0,0,1,.3-2.11c2.42-1.21,5.43,1.21,6,1.81h0l7.85,7.85c10.26,10.26,8.45,16.3,2.72,22-7.25,7.25-10.87,9.06-16.91,9.06H246c-4.23,0-6.64,0-9.66-3l-1.81-1.81c-3-3-5.43-5.43-5.43-7.25-.3-.91.3-2.11,1.21-3l2.42,2.42,2.72,4.53c.3.3.3.3.6,0a.59.59,0,0,0,.6-.6l-.6-6.64-.3-.3-6-6c-.3-.3-1.81-1.81-1.81-3a2.22,2.22,0,0,1,.6-1.81,1.56,1.56,0,0,1,2.42,0l1.21,1.21a2.13,2.13,0,1,0,3-3l-3.92-3.92a1.92,1.92,0,0,1,0-3,2,2,0,0,1,3,0l3.62,3.62a2.39,2.39,0,0,0,3.32.3,2.29,2.29,0,0,0,0-3l-1.51-1.51A2,2,0,0,1,239.64,241.07Z"/><path class="cls-3" d="M162.17,250.1a2.94,2.94,0,0,1-2.94-2.94V213.68a2.94,2.94,0,0,1,5.88,0v33.48A2.94,2.94,0,0,1,162.17,250.1Z"/><path class="cls-3" d="M207.07,49.77a24.89,24.89,0,1,1,24.28-30.35,16.34,16.34,0,1,1,8.4,30.35Z"/><path class="cls-2" d="M166,68.18c-7.51,0-9.29,0-9.29,0l-6.75,14a2.61,2.61,0,0,1-2.29,1.48l-3.25.08-5.74,15.46h0l-2.27,5.68a2.78,2.78,0,0,0,.13,2.77,1.87,1.87,0,0,0,1.53.8h.14a2.81,2.81,0,0,0,2.16-1.28l3.86-4.85L166.76,74S171.14,70.33,166,68.18Z"/><path class="cls-3" d="M168.15,45a3.09,3.09,0,0,0-2.77-1.47H150.5a5.09,5.09,0,0,0-4.39,2.76L130.33,79a3.17,3.17,0,0,0,.08,3.1,3.21,3.21,0,0,0,2.75,1.46l11.68.15-8.45,21.13a2.78,2.78,0,0,0,.13,2.77,1.87,1.87,0,0,0,1.53.8h.14a2.81,2.81,0,0,0,2.16-1.28l27.32-34.3a2.79,2.79,0,0,0-2.27-4.72h-8.69l11.37-20A3.09,3.09,0,0,0,168.15,45Z"/><path class="cls-4" d="M135.76,82.46l15.78-32.77a5.09,5.09,0,0,1,4.39-2.76h12.55a2.87,2.87,0,0,0-.31-2,3.09,3.09,0,0,0-2.77-1.47H150.51a5.09,5.09,0,0,0-4.39,2.76L130.35,79a3.17,3.17,0,0,0,.08,3.1,3.21,3.21,0,0,0,2.75,1.46l2.27,0A3.58,3.58,0,0,1,135.76,82.46Z"/><path class="cls-3" d="M182.1,118.65,181,116.42a33.67,33.67,0,0,0-17.52-16.19l-4.23-1.71,10.07-18,1.09-.6L173.68,78l.2-.09A21.16,21.16,0,0,1,182.72,76a21.43,21.43,0,0,1,20.81,16.61,14,14,0,1,1,7.17,26.08H182.1Z"/><path class="cls-4" d="M171.9,89.77l7.58-13.56a21.09,21.09,0,0,0-5.61,1.67l-.2.09-3.28,1.95-1.09.6L161.77,94h0l-2.54,4.54,4.23,1.71,1,.43h0A33.67,33.67,0,0,1,181,116.42l1.11,2.22h9.76a34.18,34.18,0,0,0-17.6-21.19A5.56,5.56,0,0,1,171.9,89.77Z"/><path class="cls-4" d="M201.29,24.89q0-.54,0-1.07a3,3,0,0,1,3-2.86h7.61a4.73,4.73,0,0,0,4.73-4.73v-.44a4.65,4.65,0,0,0-4.87-4.61,3,3,0,0,1-2-5.26q.52-.47,1.06-.9A2.76,2.76,0,0,0,209.39.11Q208.24,0,207.07,0a24.91,24.91,0,0,0-24.88,25.37c.26,13.62,11.67,24.4,25.3,24.4h13.77A25.54,25.54,0,0,1,201.29,24.89Z"/><path class="cls-3" d="M152.51,165.4H37c-20.15,0-37.07-16.49-37-36.64a36.29,36.29,0,0,1,32.62-36,49.16,49.16,0,0,1,97.91,6.42c0,1.17,0,2.35-.13,3.53a.76.76,0,0,0,1.19.67,33.64,33.64,0,0,1,19.36-6,34,34,0,0,1,2.41,68l-.44.1Z"/><path class="cls-4" d="M87.3,53.54a1.69,1.69,0,0,0-.44-3.25A49.19,49.19,0,0,0,32.62,92.73,36.29,36.29,0,0,0,0,128.76c-.11,20.15,16.81,36.64,37,36.64H57.14a36.57,36.57,0,0,1-2-72.45H78.63a7.6,7.6,0,0,0,7.6-7.6h0a7.6,7.6,0,0,0-7.6-7.6h-9a4.53,4.53,0,0,1-3.68-7.18A49.63,49.63,0,0,1,87.3,53.54Z"/></g></g></svg>