<?xml version="1.0" encoding="utf-8"?>
<!-- Generator: Adobe Illustrator 21.0.2, SVG Export Plug-In . SVG Version: 6.00 Build 0)  -->
<svg class="cloud-cluster" version="1.1" id="Layer_1" xmlns="http://www.w3.org/2000/svg" xmlns:xlink="http://www.w3.org/1999/xlink" x="0px" y="0px"
	 viewBox="0 0 305.5 297.5" style="enable-background:new 0 0 305.5 297.5;" xml:space="preserve">
<style type="text/css">
	.st0{fill:#00A9A9;}
	.st1{fill:#008080;}
</style>
<g id="cloud-mid-right">
	<path class="st0" d="M254.4,144.4c-14.3,0-26-11.6-26-26s11.6-26,26-26c12.1,0,22.7,8.5,25.3,20.3c2.6-1.6,5.7-2.4,8.8-2.4
		c9.4,0,17,7.6,17,17s-7.6,17-17,17h-34.1V144.4z"/>
	<path class="st1" d="M247.6,119c-0.2-9.1,4.4-17.2,11.4-22c1.1-1.7,0-4.2-2.2-4.4c-0.8-0.1-1.6-0.1-2.4-0.1
		c-14.5,0-26.2,11.9-26,26.5c0.3,14.2,12.2,25.5,26.4,25.5h14.4c-3.2-0.7-6.1-2-8.8-3.7C253,136.3,247.8,128.3,247.6,119z"/>
</g>
<g id="solo-lighting" class="solo-lighting">
	<path class="st0" d="M236.8,54.8c-0.7-1.1-1.9-1.8-3.4-1.8h-18.1c-2.2,0-4.4,1.4-5.3,3.4l-19.2,39.9c-0.6,1.3-0.6,2.7,0.1,3.8
		c0.7,1.1,1.9,1.7,3.3,1.8l14.2,0.2l-10.3,25.7c-0.3,0.6-0.8,2,0.2,3.4c0.4,0.6,1.1,1,1.9,1h0.2c1.4,0,2.2-1.1,2.6-1.6l33.2-41.7
		c1.4-1.8,0.8-3.4,0.6-3.8c-0.2-0.4-1.1-1.9-3.4-1.9h-10.6l13.8-24.4C237.4,57.3,237.4,55.9,236.8,54.8z"/>
	<path class="st1" d="M197.4,100.4l19.2-39.9c0.9-1.9,3.2-3.4,5.3-3.4h15.3c0.1-0.8,0-1.7-0.4-2.4c-0.7-1.1-1.9-1.8-3.4-1.8h-18.1
		c-2.2,0-4.4,1.4-5.3,3.4l-19.2,39.9c-0.6,1.3-0.6,2.7,0.1,3.8c0.7,1.1,1.9,1.7,3.3,1.8h2.8C197,101.3,197.1,100.9,197.4,100.4z"/>
	<path class="st1" d="M234.1,83c-9.1,0-11.3-0.1-11.3-0.1l-8.2,17.1c-0.5,1.1-1.6,1.8-2.8,1.8l-4,0.1l-7,18.8l0,0l-2.8,6.9
		c-0.3,0.6-0.8,2,0.2,3.4c0.4,0.6,1.1,1,1.9,1h0.2c1.4,0,2.2-1.1,2.6-1.6l4.7-5.9L235,90C235.1,90.1,240.4,85.7,234.1,83z"/>
</g>
<g id="cloud-top-left" class="cloud-top-left">
	<path class="st0" d="M30.3,60.6C13.6,60.6,0,47,0,30.3C0,13.6,13.6,0,30.3,0c14.1,0,26.5,9.9,29.5,23.6c3.1-1.9,6.6-2.8,10.2-2.8
		c11,0,19.9,8.9,19.9,19.9S81,60.6,70,60.6H30.3z"/>
	<path class="st1" d="M23.3,30.4c0-0.4,0-0.9,0-1.3c0.1-1.9,1.7-3.5,3.7-3.5h9.3c3.2,0,5.8-2.6,5.8-5.8v-0.5c0-3.3-2.7-5.6-5.9-5.6
		c-3.4,0-5-4.1-2.4-6.4c0.4-0.4,0.9-0.7,1.3-1.1c2.3-1.9,1.2-5.7-1.8-6c-0.9-0.1-1.9-0.1-2.8-0.1C13.6,0.1-0.1,14,0.2,31
		C0.5,47.6,14.4,60.7,31,60.7h16.7C33.7,57.6,23.3,45.2,23.3,30.4z"/>
</g>
<g id="cloud-and-lightning" class="cloud-and-lightning">
	<g>
		<path class="st0" d="M182.7,169.8c-1.1-1.9-3.1-3-5.6-3h-29.9c-3.6,0-7.3,2.3-8.8,5.5l-31.7,65.9c-1,2.1-1,4.4,0.2,6.2
			c1.1,1.8,3.1,2.9,5.5,2.9l23.5,0.3l-17,42.5c-0.4,1.1-1.3,3.3,0.3,5.6c0.7,1,1.9,1.6,3.1,1.6h0.3c2.3,0,3.7-1.7,4.3-2.6l54.9-69
			c2.3-2.9,1.4-5.6,1-6.3c-0.4-0.7-1.8-3.1-5.6-3.1h-17.5l22.9-40.3C183.7,174,183.8,171.7,182.7,169.8z"/>
		<path class="st1" d="M117.6,245.2l31.7-65.9c1.5-3.2,5.3-5.5,8.8-5.5h25.2c0.2-1.4,0.1-2.8-0.6-4c-1.1-1.9-3.1-3-5.6-3h-29.9
			c-3.6,0-7.3,2.3-8.8,5.5l-31.7,65.9c-1,2.1-1,4.4,0.2,6.2c1.1,1.8,3.1,2.9,5.5,2.9l4.6,0.1C117,246.8,117.2,246,117.6,245.2z"/>
		<path class="st1" d="M178.4,216.5c-15.1,0-18.7-0.1-18.7-0.1l-13.6,28.2c-0.9,1.8-2.6,2.9-4.6,3l-6.5,0.2l-11.5,31.1l0,0
			l-4.6,11.4c-0.4,1.1-1.3,3.3,0.3,5.6c0.7,1,1.9,1.6,3.1,1.6h0.3c2.3,0,3.7-1.7,4.3-2.6l7.8-9.7l45.3-57
			C179.9,228.1,188.7,220.8,178.4,216.5z"/>
	</g>
	<path class="st0" d="M217.7,201.3H77.1c-24.5,0-45.1-20.1-45-44.6c0.1-22.7,17.1-41.5,39.7-43.8c3.9-29.7,29.3-52,59.3-52
		c33,0,59.8,26.8,59.8,59.8c0,1.4-0.1,2.9-0.2,4.3c-0.1,0.8,0.8,1.3,1.5,0.8c6.9-4.8,15-7.4,23.6-7.4c22.8,0,41.4,18.6,41.4,41.4
		c0,21.7-16.9,39.8-38.5,41.3l-0.5,0.1L217.7,201.3z"/>
	<path class="st1" d="M138.4,65.2c2-0.8,1.6-3.7-0.5-4c-2.2-0.2-4.4-0.4-6.7-0.4c-30,0-55.4,22.3-59.3,52
		c-22.6,2.3-39.6,21.1-39.7,43.8c-0.1,24.5,20.4,44.6,45,44.6h24.5C79.4,198.8,62,179.9,62,157c0-22.1,15.9-40.5,37.3-43.9h28.6
		c5.1,0,9.2-4.1,9.2-9.2l0,0c0-5.1-4.1-9.2-9.2-9.2h-11c-4.5,0-7.1-5.1-4.5-8.7C118.9,76.8,127.9,69.6,138.4,65.2z"/>
</g>
</svg>
