<?xml version="1.0" encoding="utf-8"?>
<!-- Generator: Adobe Illustrator 22.0.1, SVG Export Plug-In . SVG Version: 6.00 Build 0)  -->
<!DOCTYPE svg PUBLIC "-//W3C//DTD SVG 1.1//EN" "http://www.w3.org/Graphics/SVG/1.1/DTD/svg11.dtd">
<svg class="cloud-cluster" version="1.1" id="Layer_1" xmlns="http://www.w3.org/2000/svg" xmlns:xlink="http://www.w3.org/1999/xlink" x="0px" y="0px"
	 viewBox="0 0 612 792" enable-background="new 0 0 612 792" xml:space="preserve">


<g id="cloud-mid-right" class="cloud-mid-right">
	<path fill="#00A9A9" d="M407.5,392.4c-14.3,0-26-11.6-26-26s11.6-26,26-26c12.1,0,22.7,8.5,25.3,20.3c2.6-1.6,5.7-2.4,8.8-2.4
		c9.4,0,17,7.6,17,17c0,9.4-7.6,17-17,17H407.5z"/>
	<path fill="#008080" d="M400.7,367c-0.2-9.1,4.4-17.2,11.4-22c1.1-1.7,0-4.2-2.2-4.4c-0.8-0.1-1.6-0.1-2.4-0.1
		c-14.5,0-26.2,11.9-26,26.5c0.3,14.2,12.2,25.5,26.4,25.5h14.4c-3.2-0.7-6.1-2-8.8-3.7C406.1,384.3,400.9,376.3,400.7,367z"/>
</g>
<g id="solo-lighting" class="solo-lighting">
	<path fill="#00A9A9" d="M389.9,302.8c-0.7-1.1-1.9-1.8-3.4-1.8h-18.1c-2.2,0-4.4,1.4-5.3,3.4l-19.2,39.9c-0.6,1.3-0.6,2.7,0.1,3.8
		c0.7,1.1,1.9,1.7,3.3,1.8l14.2,0.2l-10.3,25.7c-0.3,0.6-0.8,2,0.2,3.4c0.4,0.6,1.1,1,1.9,1h0.2c1.4,0,2.2-1.1,2.6-1.6l33.2-41.7
		c1.4-1.8,0.8-3.4,0.6-3.8c-0.2-0.4-1.1-1.9-3.4-1.9h-10.6l13.8-24.4C390.5,305.3,390.5,303.9,389.9,302.8z"/>
	<path fill="#008080" d="M350.5,348.4l19.2-39.9c0.9-1.9,3.2-3.4,5.3-3.4h15.3c0.1-0.8,0-1.7-0.4-2.4c-0.7-1.1-1.9-1.8-3.4-1.8
		h-18.1c-2.2,0-4.4,1.4-5.3,3.4l-19.2,39.9c-0.6,1.3-0.6,2.7,0.1,3.8c0.7,1.1,1.9,1.7,3.3,1.8l2.8,0
		C350.1,349.3,350.2,348.9,350.5,348.4z"/>
	<path fill="#008080" d="M387.2,331c-9.1,0-11.3-0.1-11.3-0.1l-8.2,17.1c-0.5,1.1-1.6,1.8-2.8,1.8l-4,0.1l-7,18.8l0,0l-2.8,6.9
		c-0.3,0.6-0.8,2,0.2,3.4c0.4,0.6,1.1,1,1.9,1h0.2c1.4,0,2.2-1.1,2.6-1.6l4.7-5.9l27.4-34.5C388.2,338.1,393.5,333.7,387.2,331z"/>
</g>
<g id="cloud-top-left" class="cloud-top-left">
	<path fill="#00A9A9" d="M183.4,308.6c-16.7,0-30.3-13.6-30.3-30.3c0-16.7,13.6-30.3,30.3-30.3c14.1,0,26.5,9.9,29.5,23.6
		c3.1-1.9,6.6-2.8,10.2-2.8c11,0,19.9,8.9,19.9,19.9s-8.9,19.9-19.9,19.9H183.4z"/>
	<path fill="#008080" d="M176.4,278.4c0-0.4,0-0.9,0-1.3c0.1-1.9,1.7-3.5,3.7-3.5h9.3c3.2,0,5.8-2.6,5.8-5.8v-0.5
		c0-3.3-2.7-5.6-5.9-5.6c-3.4,0-5-4.1-2.4-6.4c0.4-0.4,0.9-0.7,1.3-1.1c2.3-1.9,1.2-5.7-1.8-6c-0.9-0.1-1.9-0.1-2.8-0.1
		c-16.9,0-30.6,13.9-30.3,30.9c0.3,16.6,14.2,29.7,30.8,29.7h16.7C186.8,305.6,176.4,293.2,176.4,278.4z"/>
</g>
<g id="cloud-and-lightning" class="cloud-and-lightning">
	<g>
		<path fill="#00A9A9" d="M335.8,417.8c-1.1-1.9-3.1-3-5.6-3h-29.9c-3.6,0-7.3,2.3-8.8,5.5l-31.7,65.9c-1,2.1-1,4.4,0.2,6.2
			c1.1,1.8,3.1,2.9,5.5,2.9l23.5,0.3l-17,42.5c-0.4,1.1-1.3,3.3,0.3,5.6c0.7,1,1.9,1.6,3.1,1.6h0.3c2.3,0,3.7-1.7,4.3-2.6l54.9-69
			c2.3-2.9,1.4-5.6,1-6.3c-0.4-0.7-1.8-3.1-5.6-3.1h-17.5l22.9-40.3C336.8,422,336.9,419.7,335.8,417.8z"/>
		<path fill="#008080" d="M270.7,493.2l31.7-65.9c1.5-3.2,5.3-5.5,8.8-5.5h25.2c0.2-1.4,0.1-2.8-0.6-4c-1.1-1.9-3.1-3-5.6-3h-29.9
			c-3.6,0-7.3,2.3-8.8,5.5l-31.7,65.9c-1,2.1-1,4.4,0.2,6.2c1.1,1.8,3.1,2.9,5.5,2.9l4.6,0.1C270.1,494.8,270.3,494,270.7,493.2z"/>
		<path fill="#008080" d="M331.5,464.5c-15.1,0-18.7-0.1-18.7-0.1l-13.6,28.2c-0.9,1.8-2.6,2.9-4.6,3l-6.5,0.2l-11.5,31.1l0,0
			l-4.6,11.4c-0.4,1.1-1.3,3.3,0.3,5.6c0.7,1,1.9,1.6,3.1,1.6h0.3c2.3,0,3.7-1.7,4.3-2.6l7.8-9.7l45.3-57
			C333,476.1,341.8,468.8,331.5,464.5z"/>
	</g>
	<path fill="#00A9A9" d="M370.8,449.3H230.2c-24.5,0-45.1-20.1-45-44.6c0.1-22.7,17.1-41.5,39.7-43.8c3.9-29.7,29.3-52,59.3-52
		c33,0,59.8,26.8,59.8,59.8c0,1.4-0.1,2.9-0.2,4.3c-0.1,0.8,0.8,1.3,1.5,0.8c6.9-4.8,15-7.4,23.6-7.4c22.8,0,41.4,18.6,41.4,41.4
		c0,21.7-16.9,39.8-38.5,41.3l-0.5,0.1L370.8,449.3z"/>
	<path fill="#008080" d="M291.5,313.2c2-0.8,1.6-3.7-0.5-4c-2.2-0.2-4.4-0.4-6.7-0.4c-30,0-55.4,22.3-59.3,52
		c-22.6,2.3-39.6,21.1-39.7,43.8c-0.1,24.5,20.4,44.6,45,44.6h24.5c-22.3-2.4-39.7-21.3-39.7-44.2c0-22.1,15.9-40.5,37.3-43.9h28.6
		c5.1,0,9.2-4.1,9.2-9.2l0,0c0-5.1-4.1-9.2-9.2-9.2h-11c-4.5,0-7.1-5.1-4.5-8.7C272,324.8,281,317.6,291.5,313.2z"/>
</g>
</svg>
