<svg xmlns="http://www.w3.org/2000/svg" viewBox="0 0 31.02 32.14"><defs><style>.cls-1{fill:#eaeaea;}.cls-2{fill:#272c38;}</style></defs><title>document</title><g id="Layer_2" data-name="Layer 2"><g id="Layer_1-2" data-name="Layer 1"><path class="cls-1" d="M.45.76V28.38a3.12,3.12,0,0,0,3,3.06c2.87.16,12.56.31,12.56.31H30l.54-1.94V3.64l-1.4-1.28h-5L23.57,1Z"/><path class="cls-2" d="M6.28,12.87H9.43l2.1-4.2V2.36H5.23V8.67H8.38Zm8.41,0h3.15l2.1-4.2V2.36H13.64V8.67h3.15Z"/><path class="cls-2" d="M28.9,2.05H26.13a.51.51,0,0,0,0,1h1a2.11,2.11,0,0,0-.3,1.09V28.42a.51.51,0,0,0,1,0V4.17a1.09,1.09,0,0,1,2.19,0V28.42a2.7,2.7,0,0,1-5.4,0V.51A.51.51,0,0,0,24.08,0H.51A.51.51,0,0,0,0,.51v27.9a3.73,3.73,0,0,0,3.73,3.73H27.29A3.73,3.73,0,0,0,31,28.42V4.17A2.12,2.12,0,0,0,28.9,2.05ZM3.73,31.12A2.7,2.7,0,0,1,1,28.42V1H23.57V28.42a3.72,3.72,0,0,0,1.16,2.7Zm0,0"/><path class="cls-2" d="M21.34,14h-8a.51.51,0,1,0,0,1h8a.51.51,0,0,0,0-1Zm0,0"/><path class="cls-2" d="M11.27,14h-8a.51.51,0,1,0,0,1h8a.51.51,0,0,0,0-1Zm0,0"/><path class="cls-2" d="M21.34,16.07h-8a.51.51,0,1,0,0,1h8a.51.51,0,0,0,0-1Zm0,0"/><path class="cls-2" d="M11.27,16.07h-8a.51.51,0,1,0,0,1h8a.51.51,0,0,0,0-1Zm0,0"/><path class="cls-2" d="M21.34,18.12h-8a.51.51,0,1,0,0,1h8a.51.51,0,0,0,0-1Zm0,0"/><path class="cls-2" d="M21.34,20.17h-8a.51.51,0,1,0,0,1h8a.51.51,0,0,0,0-1Zm0,0"/><path class="cls-2" d="M13.32,23.25h5.29a.51.51,0,1,0,0-1H13.32a.51.51,0,1,0,0,1Zm0,0"/><path class="cls-2" d="M18.61,28.38H13.32a.51.51,0,1,0,0,1h5.29a.51.51,0,1,0,0-1Zm0,0"/><path class="cls-2" d="M21.34,26.33h-8a.51.51,0,1,0,0,1h8a.51.51,0,1,0,0-1Zm0,0"/><path class="cls-2" d="M11.27,18.12h-8a.51.51,0,0,0-.51.51V28.89a.51.51,0,0,0,.51.51h8a.51.51,0,0,0,.51-.51V18.64a.51.51,0,0,0-.51-.51Zm-.51,10.26h-7V19.15h7Zm0,0"/></g></g></svg>