<svg xmlns="http://www.w3.org/2000/svg" viewBox="0 0 15.49 26.09"><defs><style>.cls-1{fill:#00a9a9;}.cls-2{fill:teal;}</style></defs><title>green-lightning-bolt</title><g id="Layer_2" data-name="Layer 2"><g id="Layer_1-2" data-name="Layer 1"><path class="cls-1" d="M15.34.59A1.24,1.24,0,0,0,14.23,0h-6A2,2,0,0,0,6.49,1.11L.15,14.27a1.27,1.27,0,0,0,0,1.25,1.29,1.29,0,0,0,1.1.59L6,16.16l-3.4,8.49a1.12,1.12,0,0,0,.05,1.11.75.75,0,0,0,.61.32H3.3a1.13,1.13,0,0,0,.87-.52l11-13.78a1.12,1.12,0,0,0-.91-1.89H10.73L15.3,1.85A1.24,1.24,0,0,0,15.34.59Z"/><path class="cls-2" d="M10.43,1.38h5a1.15,1.15,0,0,0-.13-.79A1.24,1.24,0,0,0,14.23,0h-6A2,2,0,0,0,6.49,1.11L.15,14.27a1.27,1.27,0,0,0,0,1.25,1.29,1.29,0,0,0,1.1.59H2.2a1.44,1.44,0,0,1,.13-.46L8.67,2.49A2,2,0,0,1,10.43,1.38Z"/><path class="cls-2" d="M14.47,9.92c-3,0-3.73,0-3.73,0L8,15.54a1,1,0,0,1-.92.59l-1.3,0L3.49,22.37l-.91,2.28a1.12,1.12,0,0,0,.05,1.11.75.75,0,0,0,.61.32H3.3a1.13,1.13,0,0,0,.87-.51l1.55-1.95h0l9.06-11.38S16.54,10.78,14.47,9.92Z"/></g></g></svg>