<svg xmlns="http://www.w3.org/2000/svg" viewBox="0 0 311.21 327.02"><defs><style>.cls-1{fill:#454e63;}.cls-2{fill:#272c38;}</style></defs><title>intelligent-marketing-engine-right-cloud</title><g id="Layer_2" data-name="Layer 2"><g id="Layer_1-2" data-name="Layer 1"><path class="cls-1" d="M208.14,150.58a8.58,8.58,0,0,0-7.7-4.08H159.08a14.15,14.15,0,0,0-12.2,7.67L103,245.27a8.82,8.82,0,0,0,.21,8.62,8.94,8.94,0,0,0,7.64,4.06l32.46.41-23.5,58.74c-.58,1.47-1.79,4.54.37,7.69a5.19,5.19,0,0,0,4.24,2.23h.38c3.17,0,5.08-2.4,6-3.56l75.93-95.35c3.24-4.06,1.9-7.71,1.41-8.77a8.2,8.2,0,0,0-7.72-4.35H176.28l31.62-55.71A8.59,8.59,0,0,0,208.14,150.58Z"/><path class="cls-2" d="M118.1,254.81,162,163.71a14.15,14.15,0,0,1,12.2-7.67H209a8,8,0,0,0-.87-5.47,8.58,8.58,0,0,0-7.7-4.08H159.11a14.15,14.15,0,0,0-12.2,7.67L103,245.27a8.82,8.82,0,0,0,.21,8.62A8.94,8.94,0,0,0,110.9,258l6.32.08A10,10,0,0,1,118.1,254.81Z"/><path class="cls-2" d="M202.11,215.13c-20.89,0-25.83-.13-25.83-.13l-18.75,39a7.25,7.25,0,0,1-6.36,4.11l-9,.21-16,43h0l-6.32,15.79c-.58,1.47-1.79,4.54.37,7.69a5.19,5.19,0,0,0,4.24,2.23h.38c3.17,0,5.08-2.4,6-3.56L141.58,310l62.69-78.76S216.43,221.1,202.11,215.13Z"/><path class="cls-1" d="M261.25,80.08a41.47,41.47,0,0,0-46.62-25.53A82.7,82.7,0,0,0,54.88,71.9,61,61,0,0,0,0,132.52c-.19,33.9,28.27,61.64,62.17,61.64H257.24L258,194a57.26,57.26,0,0,0,3.27-113.91Z"/><path class="cls-2" d="M146.85,6a2.85,2.85,0,0,0-.75-5.47A82.74,82.74,0,0,0,54.88,71.9,61,61,0,0,0,0,132.52c-.19,33.9,28.27,61.64,62.17,61.64H96.11A61.51,61.51,0,0,1,92.76,72.29h39.5A12.78,12.78,0,0,0,145,59.51h0a12.78,12.78,0,0,0-12.78-12.78H117.06a7.63,7.63,0,0,1-6.18-12.08A83.48,83.48,0,0,1,146.85,6Z"/></g></g></svg>