<svg xmlns="http://www.w3.org/2000/svg" viewBox="0 0 223.34 139.34"><defs><style>.cls-1{fill:#454e63;}.cls-2{fill:#272c38;}</style></defs><title>intelligent-marketing-engine-left-cloud</title><g id="Layer_2" data-name="Layer 2"><g id="Layer_1-2" data-name="Layer 1"><path class="cls-1" d="M187.49,57.47A29.76,29.76,0,0,0,154,39.15,59.35,59.35,0,0,0,39.38,51.6,43.8,43.8,0,0,0,0,95.1c-.13,24.33,20.29,44.24,44.62,44.24h140l.53-.12a41.09,41.09,0,0,0,2.35-81.75Z"/><path class="cls-2" d="M105.39,4.29a2,2,0,0,0-.54-3.92A59.38,59.38,0,0,0,39.38,51.6,43.8,43.8,0,0,0,0,95.1c-.13,24.33,20.29,44.24,44.62,44.24H69a44.15,44.15,0,0,1-2.4-87.46H94.92a9.17,9.17,0,0,0,9.17-9.17h0a9.17,9.17,0,0,0-9.17-9.17H84a5.47,5.47,0,0,1-4.44-8.67A59.91,59.91,0,0,1,105.39,4.29Z"/></g></g></svg>