<?xml version="1.0" encoding="utf-8"?>
<!-- Generator: Adobe Illustrator 21.0.2, SVG Export Plug-In . SVG Version: 6.00 Build 0)  -->
<svg version="1.1" id="Layer_1" xmlns="http://www.w3.org/2000/svg" xmlns:xlink="http://www.w3.org/1999/xlink" x="0px" y="0px"
	 viewBox="0 0 404.2 522.7" style="enable-background:new 0 0 404.2 522.7;" xml:space="preserve">
<style type="text/css">
	.st0{clip-path:url(#SVGID_2_);}
	.st1{fill:#00AAAA;}
	.st2{fill:url(#SVGID_3_);}
	.st3{fill:url(#SVGID_4_);}
	.st4{fill:url(#SVGID_5_);}
	.st5{fill:url(#SVGID_6_);}
	.st6{fill:url(#SVGID_7_);}
	.st7{fill:url(#SVGID_8_);}
	.st8{fill:url(#SVGID_9_);}
	.st9{fill:url(#SVGID_10_);}
	.st10{fill:url(#SVGID_11_);}
	.st11{fill:url(#SVGID_12_);}
	.st12{fill:#FFFFFF;}
	.st13{fill:url(#SVGID_13_);}
	.st14{fill:#008080;}
	.st15{fill:url(#SVGID_14_);}
	.st16{fill:url(#SVGID_15_);}
	.st17{fill:url(#SVGID_16_);}
	.st18{fill:url(#SVGID_17_);}
	.st19{fill:url(#SVGID_18_);}
	.st20{fill:#EAEAEA;}
</style>
<title>juggling-content</title>
<g id="Layer_2">
	<g id="Layer_1-2">
		<g>
			<defs>
				<path id="SVGID_1_" d="M100.3,373.4c0,0,31.9,104,179.2,160.6s186.7-291.4,186.7-291.4l-158-117.1H37.8l-117.1,57.8l15.8,135
					L5.7,423.8L100.3,373.4z"/>
			</defs>
			<clipPath id="SVGID_2_">
				<use xlink:href="#SVGID_1_"  style="overflow:visible;"/>
			</clipPath>
			<g class="st0">
				<ellipse class="st1" cx="200.2" cy="674.7" rx="72.2" ry="9.6"/>
				<path class="st1" d="M249.3,248.7l10.8,84.7l20.4-10.2c4.3-2.2,9.6-0.4,11.7,3.9c0.1,0.1,0.1,0.2,0.2,0.4l0.1,0.1
					c1.7,3.9,0.4,8.5-3.2,10.9L261,356.7c-4.8,3.1-11.3,1.7-14.4-3.1c-0.7-1.2-1.3-2.5-1.5-3.8L229,261L249.3,248.7z"/>
				
					<linearGradient id="SVGID_3_" gradientUnits="userSpaceOnUse" x1="-266.242" y1="1521.5183" x2="-259.382" y2="1514.6583" gradientTransform="matrix(0.4947 0.8691 0.8691 -0.4947 -826.8208 1266.2683)">
					<stop  offset="0" style="stop-color:#001B3F"/>
					<stop  offset="1" style="stop-color:#94C7F2"/>
				</linearGradient>
				<path class="st2" d="M342.8,294.4l4.7-2.7l0.6-1.9c1-3,3.4-5.5,6.4-6.5l0.3-0.1l3.9-7c0.6-1.2,2.1-1.6,3.3-0.9c0,0,0,0,0,0l0,0
					c1.2,0.6,1.6,2.1,0.9,3.3c0,0,0,0.1-0.1,0.1l-3.7,5.7v2.1l9.3,3l4.5-0.4l4.3-6.7c0.5-0.7,1.4-1.1,2.2-0.8l0,0
					c1.1,0.3,1.6,1.5,1.3,2.5c0,0.1-0.1,0.3-0.2,0.4l-4.8,7.9l-6.1,2l-19,2.4l-5,2.2L342.8,294.4z"/>
				
					<linearGradient id="SVGID_4_" gradientUnits="userSpaceOnUse" x1="-257.6566" y1="1537.1083" x2="-253.5666" y2="1525.7083" gradientTransform="matrix(0.4947 0.8691 0.8691 -0.4947 -826.8208 1266.2683)">
					<stop  offset="0" style="stop-color:#001B3F"/>
					<stop  offset="1" style="stop-color:#94C7F2"/>
				</linearGradient>
				<path class="st3" d="M366.5,293.5c0,0,6.1-2,6.3-2.1s6.2-6.5,8.9-9.4c0.7-0.7,1.9-0.8,2.6-0.1l0,0c0.7,0.7,0.8,1.8,0.1,2.6
					l-7.2,8.1l-7.4,4L366.5,293.5z"/>
				
					<linearGradient id="SVGID_5_" gradientUnits="userSpaceOnUse" x1="-255.3014" y1="1533.9988" x2="-254.6114" y2="1529.3888" gradientTransform="matrix(0.4947 0.8691 0.8691 -0.4947 -826.8208 1266.2683)">
					<stop  offset="0" style="stop-color:#001B3F"/>
					<stop  offset="1" style="stop-color:#94C7F2"/>
				</linearGradient>
				<path class="st4" d="M365,294.2l4.6-0.9l8.6-10.2c0.6-0.7,1.6-0.9,2.4-0.3l0,0c0.8,0.6,1.1,1.7,0.5,2.5c0,0,0,0.1-0.1,0.1
					l-6.1,8l-6.2,3.4L365,294.2z"/>
				
					<linearGradient id="SVGID_6_" gradientUnits="userSpaceOnUse" x1="-260.4745" y1="1510.1753" x2="-260.4745" y2="1434.0553" gradientTransform="matrix(0.4947 0.8691 0.8691 -0.4947 -826.8208 1266.2683)">
					<stop  offset="0" style="stop-color:#001B3F"/>
					<stop  offset="1" style="stop-color:#94C7F2"/>
				</linearGradient>
				<path class="st5" d="M280.2,332.6c-1.7-3.6-0.2-7.9,3.4-9.7l62.1-31.1c3.6-2.1,7.8-2.7,11.9-1.8l9.7,2.2l4.9-2.1l2-4.5
					c0.4-1,1.5-1.4,2.5-1.1l0,0c1,0.4,1.6,1.5,1.2,2.6c0,0.1-0.1,0.2-0.1,0.2l-2.6,5l-5,4.6c-3.4,1.1-6.9,1.6-10.4,1.5
					c-5-0.4-9-0.6-9-0.6l-59.8,37.9c-3.4,2.2-8,1.2-10.2-2.3C280.5,333.2,280.3,332.9,280.2,332.6L280.2,332.6z"/>
				<polygon class="st1" points="226.9,241.2 249.3,248.7 251.2,283.4 				"/>
				
					<linearGradient id="SVGID_7_" gradientUnits="userSpaceOnUse" x1="303.4065" y1="22.6798" x2="322.5221" y2="22.6798" gradientTransform="matrix(1 0 0 -1 -79.28 684)">
					<stop  offset="0" style="stop-color:#001B3F"/>
					<stop  offset="1" style="stop-color:#94C7F2"/>
				</linearGradient>
				<path class="st6" d="M243.1,667c0,0-18.8-16.3-19-13.3s9,14.7,14.6,15.5S243.1,667,243.1,667z"/>
				
					<linearGradient id="SVGID_8_" gradientUnits="userSpaceOnUse" x1="325.2414" y1="110.8985" x2="305.7614" y2="223.2485" gradientTransform="matrix(1 0 0 -1 -79.28 684)">
					<stop  offset="0" style="stop-color:#001B3F"/>
					<stop  offset="1" style="stop-color:#94C7F2"/>
				</linearGradient>
				<path class="st7" d="M233.3,653.5l26.4-209.4h-50.8c0.7,9.1,3.4,19.7,5.5,28.3c7.1,28.7,8.6,58.8,8.6,58.8
					c-21.6,16.4,1,122.4,1,122.4l0.9,6.4l14.3,13.1l12.4,0.3v-1.6L243,668L233.3,653.5z"/>
				
					<linearGradient id="SVGID_9_" gradientUnits="userSpaceOnUse" x1="302.4071" y1="19.825" x2="333.6071" y2="19.825" gradientTransform="matrix(1 0 0 -1 -79.28 684)">
					<stop  offset="0" style="stop-color:#001B3F"/>
					<stop  offset="1" style="stop-color:#94C7F2"/>
				</linearGradient>
				<path class="st8" d="M225.4,674.7c0,0-0.6-10.1-1.3-13.1s-1.2-4.9-0.7-6.2c0.2-0.6,0.5-1.2,0.8-1.8c0,0,2.6,0.5,5.6,4.7
					s5.6,7.9,9,8.5s4.4,0.2,4.4,0.2l10.1,4.4c0.6,0.3,1.1,0.9,1.1,1.6l0,0c0,1-0.8,1.8-1.8,1.8c0,0,0,0,0,0h-11
					c-1.8,0-3.6-0.7-4.8-2.1l-6.7-7l-1,9.1H225.4z"/>
				
					<linearGradient id="SVGID_10_" gradientUnits="userSpaceOnUse" x1="263.6365" y1="22.6798" x2="282.7521" y2="22.6798" gradientTransform="matrix(1 0 0 -1 -79.28 684)">
					<stop  offset="0" style="stop-color:#001B3F"/>
					<stop  offset="1" style="stop-color:#94C7F2"/>
				</linearGradient>
				<path class="st9" d="M203.4,667c0,0-18.8-16.3-19-13.3s9,14.7,14.6,15.5S203.4,667,203.4,667z"/>
				
					<linearGradient id="SVGID_11_" gradientUnits="userSpaceOnUse" x1="288.2944" y1="186.4393" x2="304.7844" y2="282.9993" gradientTransform="matrix(1 0 0 -1 -79.28 684)">
					<stop  offset="0" style="stop-color:#001B3F"/>
					<stop  offset="1" style="stop-color:#94C7F2"/>
				</linearGradient>
				<path class="st10" d="M193.6,652.4l15.5-117.5l30.5-90.8H186c-8.4,28.5,0.1,85.8,0.1,85.8c-20.7,9.8-1.8,123.7-1.8,123.7
					l0.5,6.3l15.2,13.5h11.5v-1.7l-7.9-3.7L193.6,652.4z"/>
				
					<linearGradient id="SVGID_12_" gradientUnits="userSpaceOnUse" x1="262.6371" y1="19.825" x2="293.8471" y2="19.825" gradientTransform="matrix(1 0 0 -1 -79.28 684)">
					<stop  offset="0" style="stop-color:#001B3F"/>
					<stop  offset="1" style="stop-color:#94C7F2"/>
				</linearGradient>
				<path class="st11" d="M185.6,674.7c0,0-0.6-10.1-1.3-13.1s-1.2-4.9-0.7-6.2c0.2-0.6,0.5-1.2,0.8-1.8c0,0,2.6,0.5,5.6,4.7
					s5.6,7.9,9,8.5s4.4,0.2,4.4,0.2l10.1,4.4c0.6,0.3,1.1,0.9,1.1,1.6l0,0c0,1-0.8,1.8-1.8,1.8c0,0,0,0,0,0h-11
					c-1.8,0-3.6-0.7-4.8-2.1l-6.7-7l-1,9.1H185.6z"/>
				<path class="st1" d="M224.2,236.1c0,0,42.4,42.6,40.3,56.6s-10.2,17.1-10.2,17.1c6,24.9,9,50.4,8.8,76
					c-0.2,42.7-3.4,91.9-3.4,91.9h-82c0,0,6.9-96.1,31.3-115.4c0,0,0.5-24.5-20.6-66.4S210.8,232,224.2,236.1z"/>
				<path class="st12" d="M206.4,235.6c0,0-0.6,14.7,12,23.5s25.5,18.1,27.7,26.3s3.6,13.5,3.6,13.5s5-13.3-1.4-23.3
					s-19-25.5-21.4-31.5S206.4,227.4,206.4,235.6z"/>
				
					<linearGradient id="SVGID_13_" gradientUnits="userSpaceOnUse" x1="300.4" y1="412.793" x2="329.3255" y2="412.793" gradientTransform="matrix(1 0 0 -1 -79.28 684)">
					<stop  offset="0" style="stop-color:#001B3F"/>
					<stop  offset="1" style="stop-color:#94C7F2"/>
				</linearGradient>
				<path class="st13" d="M226.5,254v-1.4c0,0,16,12.6,19.5,19.4s4.5,15.6,3.9,17.5s-6.6-12.7-6.6-12.7L221.1,254l2.2-1.4L226.5,254
					z"/>
				<path class="st14" d="M250.2,303.5c0,0,9.4-13.4,1-28.6s-25.7-32.3-25.7-32.3l-4.4,4.8c0,0,25.4,23.1,27.7,35.6
					S250.2,303.5,250.2,303.5z"/>
				<path class="st1" d="M225.3,165.1c0,0,25.2-2,34.6,26.9s-18.9,46.2-36.2,45.9s-2.4-55.3-2.4-55.3l18-7.8
					C239.4,174.8,231.5,167,225.3,165.1z"/>
				
					<linearGradient id="SVGID_14_" gradientUnits="userSpaceOnUse" x1="282.77" y1="470.825" x2="336.06" y2="470.825" gradientTransform="matrix(1 0 0 -1 -79.28 684)">
					<stop  offset="0" style="stop-color:#001B3F"/>
					<stop  offset="1" style="stop-color:#94C7F2"/>
				</linearGradient>
				<path class="st15" d="M236.4,172.4c0,0,8.6,6.2,11.3,13.6s1.9,7.7,3.9,9.4s5.5,4.6,5.2,5.9s-2.4,1.7-2.8,3.6s1.9,1.9,2,3.1
					s-0.8,1.6-0.5,2.1s0.4,1.2-0.4,2.3c-0.8,1-0.9,2.4-0.3,3.5c0.6,1.5,0.6,3.4-2,4.2s-11.4-1.9-15.6,4.4S226.5,254,226.5,254
					l-23-9.9l9.8-65.6L236.4,172.4z"/>
				<path class="st1" d="M246.7,192.1c0,0-0.5-0.5-2.4,0.4c-1.5,0.7-3,1.2-4.5,1.5c1.3,0.4,2.7,0.8,4.1,1c0.8,0.1,1.5,0,2.2-0.2
					L246.7,192.1z"/>
				<path class="st14" d="M204.7,236c0,0,27.2,22,38.5,37.5s7.4,34.6,7.4,34.6s-7.4-28.9-18.4-32.8S195.2,242.3,204.7,236z"/>
				<path class="st1" d="M198.4,318.3l-30.7-48.9c-2.8-4.5-1.5-10.5,3.1-13.3c0.1-0.1,0.3-0.2,0.4-0.2l31.9-17.9
					C203,237.9,209.4,293.8,198.4,318.3z"/>
				<path class="st1" d="M237.6,172.4c0,0,10,66.1-24.2,71.5S163.7,226,163.7,226s32.5-1.2,30.1-24.4s0.1-33.8,16.8-36.9
					C220.4,162.7,230.4,165.6,237.6,172.4z"/>
				<path class="st1" d="M166.5,262.1l-18.8,71.3l-20.4-10.2c-4.3-2.2-9.6-0.4-11.7,3.9c-0.1,0.1-0.1,0.2-0.2,0.4l-0.1,0.1
					c-1.7,3.9-0.4,8.5,3.2,10.9l27.3,17.7c5.9,3.8,13.7,2.1,17.5-3.7c0.6-1,1.1-2.1,1.5-3.2l24-77.9L166.5,262.1z"/>
				
					<linearGradient id="SVGID_15_" gradientUnits="userSpaceOnUse" x1="-422.9114" y1="1246.4714" x2="-416.0614" y2="1239.6115" gradientTransform="matrix(-0.49 0.87 -0.87 -0.49 922.19 1264.6)">
					<stop  offset="0" style="stop-color:#001B3F"/>
					<stop  offset="1" style="stop-color:#94C7F2"/>
				</linearGradient>
				<path class="st16" d="M65,294.4l-4.7-2.7l-0.6-1.9c-1-3-3.4-5.5-6.4-6.5l-0.3-0.1l-3.9-7c-0.6-1.2-2.1-1.6-3.3-0.9c0,0,0,0,0,0
					l0,0c-1.2,0.6-1.6,2.1-0.9,3.3c0,0,0,0.1,0.1,0.1l3.7,5.7v2.1l-9.3,3l-4.5-0.4l-4.3-6.7c-0.5-0.7-1.4-1.1-2.2-0.8l0,0
					c-1.1,0.3-1.6,1.5-1.3,2.5c0,0.1,0.1,0.3,0.2,0.4l4.8,7.9l6.1,2l19,2.4l5.1,2.1L65,294.4z"/>
				
					<linearGradient id="SVGID_16_" gradientUnits="userSpaceOnUse" x1="-416.1237" y1="1262.0776" x2="-412.0436" y2="1250.6776" gradientTransform="matrix(-0.49 0.87 -0.87 -0.49 922.19 1264.6)">
					<stop  offset="0" style="stop-color:#001B3F"/>
					<stop  offset="1" style="stop-color:#94C7F2"/>
				</linearGradient>
				<path class="st17" d="M41.2,293.5c0,0-6.1-2-6.3-2.1s-6.2-6.5-8.9-9.4c-0.7-0.7-1.9-0.8-2.6-0.1l0,0c-0.7,0.7-0.8,1.8-0.1,2.6
					l7.2,8.1l7.4,4L41.2,293.5z"/>
				
					<linearGradient id="SVGID_17_" gradientUnits="userSpaceOnUse" x1="-414.4206" y1="1259.4596" x2="-413.7306" y2="1254.8596" gradientTransform="matrix(-0.49 0.87 -0.87 -0.49 922.19 1264.6)">
					<stop  offset="0" style="stop-color:#001B3F"/>
					<stop  offset="1" style="stop-color:#94C7F2"/>
				</linearGradient>
				<path class="st18" d="M42.8,294.2l-4.6-0.9l-8.6-10.2c-0.6-0.7-1.6-0.9-2.4-0.3l0,0c-0.8,0.6-1.1,1.7-0.5,2.5c0,0,0,0.1,0.1,0.1
					l6.1,8l6.2,3.4L42.8,294.2z"/>
				
					<linearGradient id="SVGID_18_" gradientUnits="userSpaceOnUse" x1="-419.6855" y1="1236.1564" x2="-419.6855" y2="1160.0364" gradientTransform="matrix(-0.49 0.87 -0.87 -0.49 922.19 1264.6)">
					<stop  offset="0" style="stop-color:#001B3F"/>
					<stop  offset="1" style="stop-color:#94C7F2"/>
				</linearGradient>
				<path class="st19" d="M127.6,332.6c1.7-3.6,0.2-7.9-3.4-9.7l-62.1-31.1c-3.6-2.1-7.8-2.7-11.9-1.8l-9.7,2.2l-4.8-2.1l-2-4.5
					c-0.4-1-1.5-1.4-2.5-1.1l0,0c-1,0.4-1.6,1.5-1.2,2.6c0,0.1,0.1,0.2,0.1,0.2l2.7,5l5,4.6c3.4,1.1,6.9,1.6,10.4,1.5
					c5-0.4,9-0.6,9-0.6l59.8,37.9c3.4,2.2,8,1.2,10.2-2.3C127.3,333.2,127.5,332.9,127.6,332.6L127.6,332.6z"/>
			</g>
		</g>
		<path class="st20" d="M27.9,209.2h-2c-0.2,0-0.5,0.1-0.7,0.3c-0.2,0.2-0.3,0.4-0.3,0.7l-0.3,40.7c0,0.3,0.1,0.5,0.3,0.7
			c0.2,0.2,0.4,0.3,0.7,0.3h1.9c0.3,0,0.5-0.1,0.7-0.3c0.2-0.2,0.3-0.4,0.3-0.7l0.3-40.7c0-0.3-0.1-0.5-0.3-0.7
			C28.4,209.3,28.1,209.2,27.9,209.2z"/>
		<path class="st20" d="M13.6,221.1c-0.1-0.3-0.2-0.5-0.5-0.6l-1.9-1.1c-0.5-0.3-1.1-0.1-1.3,0.4l-9.8,17.4
			c-0.3,0.5-0.1,1.1,0.4,1.3l17.4,9.8c0.5,0.3,1.1,0.1,1.3-0.4l1.1-1.9c0.3-0.5,0.1-1.1-0.4-1.3l-14.7-8.2l8.3-14.7
			C13.6,221.6,13.7,221.3,13.6,221.1z"/>
		<path class="st20" d="M52.9,222.4l-17.4-9.8c-0.5-0.3-1.1-0.1-1.3,0.4l-1.1,1.9c-0.3,0.5-0.1,1.1,0.4,1.3l14.7,8.3l-8.3,14.7
			c-0.3,0.5-0.1,1.1,0.4,1.3l1.9,1.1c0.5,0.3,1.1,0.1,1.3-0.4l9.8-17.4C53.6,223.3,53.4,222.7,52.9,222.4L52.9,222.4z"/>
		<path class="st20" d="M403.1,252.6l-5.8-1.2l2.2-10.6c2.3-11.1-4.4-22.2-15.3-25.2l0.9-4.3c0.1-0.7-0.3-1.5-1.1-1.6
			c-0.7-0.1-1.4,0.3-1.6,1l-0.9,4.3c-11.4-1.8-22.2,5.6-24.5,16.8l-1.5,6.9c-0.2,0.7,0.3,1.5,1,1.7c0.7,0.2,1.5-0.3,1.7-1
			c0,0,0,0,0-0.1l1.5-6.9c2.2-10.2,12.1-16.6,22.3-14.5l0.4,0.1c10.2,2.2,16.6,12.1,14.5,22.3l-2.2,10.6l-45.7-9.7
			c-0.7-0.2-1.5,0.3-1.6,1.1c0,0,0,0,0,0l-1.6,7.9c-0.1,0.7,0.4,1.5,1.1,1.6l54.2,11.5c0.7,0.1,1.4-0.4,1.6-1.1l1.7-7.8
			C404.3,253.4,403.9,252.7,403.1,252.6z M400.1,260.1l-51.5-10.9l1.1-5.1l51.5,10.9L400.1,260.1z"/>
		<path class="st20" d="M378.4,259.4c-0.7-0.2-1.5,0.3-1.6,1.1c0,0,0,0,0,0c-0.4,1.9-2.3,3.1-4.2,2.7h-0.1c-1.9-0.4-3.2-2.3-2.8-4.2
			c0,0,0,0,0,0c0.2-0.7-0.3-1.5-1-1.7c-0.7-0.2-1.5,0.3-1.7,1c0,0,0,0,0,0.1c-0.7,3.4,1.5,6.7,4.9,7.5h0.1c3.4,0.7,6.7-1.5,7.5-4.9
			C379.6,260.3,379.1,259.6,378.4,259.4z"/>
		<rect x="65.8" y="79.4" class="st20" width="21.7" height="4.6"/>
		<path class="st20" d="M116.7,84.5c1.6,0,2.9-1.3,2.9-2.8s-1.3-2.9-2.8-2.9s-2.9,1.3-2.9,2.8c0,0.8,0.3,1.5,0.8,2.1
			C115.3,84.2,116,84.5,116.7,84.5z"/>
		<path class="st20" d="M106.4,84.5c1.6,0,2.9-1.3,2.9-2.8s-1.3-2.9-2.8-2.9s-2.9,1.3-2.9,2.8c0,0.8,0.3,1.5,0.8,2.1
			C104.9,84.2,105.6,84.5,106.4,84.5z"/>
		<path class="st20" d="M96.1,84.5c1.6,0,2.9-1.3,2.9-2.8s-1.3-2.9-2.8-2.9s-2.9,1.3-2.9,2.8c0,0.8,0.3,1.5,0.8,2.1
			C94.6,84.2,95.3,84.5,96.1,84.5z"/>
		<path class="st20" d="M51.1,69.9V143h81.3V69.9H51.1z M126.7,75.6v12H56.8V75.6L126.7,75.6z M56.8,137.3V93.4h69.8v43.9H56.8
			L56.8,137.3z"/>
		<path class="st20" d="M74.9,121.1l-0.3,11.1l11.1-0.3l24.1-24.1L99,97L74.9,121.1z M83.7,127.3l-4.4,0.1l0.1-4.4l12.1-12.1
			l4.2,4.2L83.7,127.3z M103.3,107.7l-4.2,4.2l-4.2-4.2l4.2-4.2L103.3,107.7z"/>
		<g id="calendar">
			<path class="st20" d="M356.9,111.8h-6.8v-3.1c0-0.9-0.7-1.6-1.6-1.6c-0.9,0-1.6,0.7-1.6,1.6v3.1h-9.4v-3.1c0-0.9-0.7-1.6-1.6-1.6
				c-0.9,0-1.6,0.7-1.6,1.6v3.1h-9.4v-3.1c0-0.9-0.7-1.6-1.6-1.6c-0.9,0-1.6,0.7-1.6,1.6v3.1h-6.8c-2.3,0-4.2,1.9-4.2,4.2v0v37
				c0,2.3,1.9,4.2,4.2,4.2l0,0H357c2.3,0,4.2-1.9,4.2-4.2c0,0,0,0,0,0v-37C361.1,113.7,359.3,111.8,356.9,111.8
				C357,111.8,356.9,111.8,356.9,111.8z M357.9,153c0,0.6-0.4,1-1,1h-41.7c-0.6,0-1-0.4-1-1v-37c0-0.6,0.4-1,1-1h6.8v3.1
				c0,0.9,0.7,1.6,1.6,1.6c0.9,0,1.6-0.7,1.6-1.6V115h9.4v3.1c0,0.9,0.7,1.6,1.6,1.6c0.9,0,1.6-0.7,1.6-1.6V115h9.4v3.1
				c0,0.9,0.7,1.6,1.6,1.6c0.9,0,1.6-0.7,1.6-1.6V115h6.8c0.6,0,1,0.4,1,1L357.9,153z"/>
			<rect x="322" y="125.9" class="st20" width="6.2" height="4.7"/>
			<rect x="322" y="133.7" class="st20" width="6.2" height="4.7"/>
			<rect x="322" y="141.5" class="st20" width="6.2" height="4.7"/>
			<rect x="333" y="141.5" class="st20" width="6.2" height="4.7"/>
			<rect x="333" y="133.7" class="st20" width="6.2" height="4.7"/>
			<rect x="333" y="125.9" class="st20" width="6.2" height="4.7"/>
			<rect x="343.9" y="141.5" class="st20" width="6.2" height="4.7"/>
			<rect x="343.9" y="133.7" class="st20" width="6.2" height="4.7"/>
			<rect x="343.9" y="125.9" class="st20" width="6.2" height="4.7"/>
		</g>
		<path class="st20" d="M181.4,58.4c-0.1,0.3-0.4,0.4-0.7,0.3c-0.2-0.1-0.3-0.2-0.3-0.3c-0.6-2.7-1.6-5.4-2.9-7.8
			c-0.1-0.3-0.1-0.6,0.2-0.7c0.1-0.1,0.3-0.1,0.4,0c1.8,0.5,3.8,0.5,5.6,0c0.3-0.1,0.6,0.1,0.7,0.4c0,0.1,0,0.3,0,0.4
			C183,53.1,182,55.7,181.4,58.4z"/>
		<path class="st20" d="M236.2,3c0.3,0.1,0.4,0.4,0.3,0.7c-0.1,0.2-0.2,0.3-0.3,0.3c-2.7,0.6-5.4,1.6-7.8,2.9
			c-0.3,0.1-0.6,0.1-0.7-0.2c-0.1-0.1-0.1-0.3,0-0.4c0.5-1.8,0.5-3.8,0-5.6c-0.1-0.3,0.1-0.6,0.4-0.7c0.1,0,0.3,0,0.4,0
			C230.8,1.3,233.5,2.3,236.2,3z"/>
		<path class="st20" d="M220.3,98.6c-0.3-0.1-0.4-0.4-0.3-0.7c0.1-0.2,0.2-0.3,0.3-0.3c2.7-0.6,5.4-1.6,7.8-2.9
			c0.3-0.1,0.6-0.1,0.7,0.2c0.1,0.1,0.1,0.3,0,0.4c-0.5,1.8-0.5,3.8,0,5.6c0.1,0.3-0.1,0.6-0.4,0.7c-0.1,0-0.3,0-0.4,0
			C225.6,100.2,223,99.3,220.3,98.6z"/>
		<path class="st20" d="M241.3,11.6l-0.6,10.5l1,0.5l7.5-7.3l9.9,8.2l-5.7,8.7c0.2,0.3,0.4,0.6,0.7,0.9l10.2-2.6l4.5,12l-9.4,4.7
			c0,0.4,0.1,0.8,0.1,1.1l10,2.9l-2,12.7l-10.5-0.6c-0.1,0.3-0.3,0.7-0.5,1l7.3,7.5l-8.2,9.8l-8.8-5.7l-0.9,0.7l2.6,10.2l-12,4.5
			l-4.7-9.3l-0.8,0.1l-3.2,10L215,90l0.3-10.6l-0.8-0.3l-7.5,7.3l-9.9-8.2l5.7-8.8c-0.2-0.3-0.4-0.6-0.7-0.9L192.1,71l-4.4-12
			l9.4-4.7c0-0.4-0.1-0.8-0.1-1.1l-10-2.9l2.1-12.6l10.5,0.6c0.1-0.3,0.3-0.7,0.5-1l-7.3-7.5l8.2-9.9l8.8,5.7l0.9-0.7L208,14.8
			l12-4.5l4.7,9.3l1.1-0.1l2.9-10L241.3,11.6z M218.9,13l-8.5,3.1l2.5,9.8l-0.6,0.4c-0.7,0.5-1.4,0.9-2,1.4l-0.6,0.5l-8.4-5.5
			l-5.7,6.9l7,7.2l-0.4,0.7c-0.4,0.7-0.7,1.5-1,2.2l-0.3,0.7l-10.2-0.6l-1.5,8.9l9.7,2.8v0.8c0,0.8,0.1,1.6,0.2,2.5l0.1,0.8l-9,4.5
			l3.1,8.4l9.8-2.5l0.4,0.6c0.5,0.7,0.9,1.4,1.4,2l0.5,0.6l-5.5,8.4l6.9,5.7l7.2-7l0.7,0.3c0.7,0.4,1.3,0.7,2,0.9l0.7,0.3l-0.3,10.2
			l8.9,1.5l3.1-9.7h0.7c0.7,0,1.4-0.1,2.2-0.2l0.8-0.1l4.5,9l8.5-3.1l-2.5-9.8l0.6-0.4c0.7-0.4,1.4-0.9,2-1.4l0.6-0.5l8.4,5.5
			l5.7-6.9l-7-7.2l0.4-0.7c0.4-0.7,0.7-1.5,1-2.2l0.3-0.7l10.1,0.6l1.5-8.9l-9.6-2.8v-0.8c0-0.8-0.1-1.6-0.2-2.5L257,46l9-4.5
			l-3.1-8.5l-9.8,2.5l-0.4-0.6c-0.5-0.7-0.9-1.4-1.4-2l-0.5-0.6l5.5-8.4l-6.9-5.7l-7.2,7l-0.7-0.4c-0.7-0.4-1.5-0.7-2.2-1l-0.7-0.3
			l0.6-10.1l-8.9-1.5l-2.8,9.7h-0.8c-0.8,0-1.6,0.1-2.5,0.2l-0.8,0.1L218.9,13z"/>
		<path class="st20" d="M276.5,50.8h-2.1c0,25.5-20.7,46.2-46.2,46.2v2.1C254.8,99.1,276.5,77.5,276.5,50.8z"/>
		<path class="st20" d="M228.1,2.4c-26.7,0-48.4,21.7-48.4,48.4h2.1c0-25.5,20.7-46.2,46.3-46.2V2.4z"/>
		<path class="st20" d="M248.7,50.8c0,11.3-9.2,20.5-20.5,20.5s-20.5-9.2-20.5-20.5s9.2-20.5,20.5-20.5l0,0
			C239.5,30.3,248.7,39.4,248.7,50.8z M246.6,50.8c0-10.2-8.2-18.4-18.4-18.4c-10.2,0-18.4,8.2-18.4,18.4s8.2,18.4,18.4,18.4l0,0
			C238.3,69.1,246.5,60.9,246.6,50.8L246.6,50.8z"/>
	</g>
</g>
</svg>
