<svg xmlns="http://www.w3.org/2000/svg" viewBox="0 0 58.72 58.72"><defs><style>.cls-1{fill:#0aa;stroke:#fff;stroke-miterlimit:10;}.cls-2,.cls-3{fill:teal;}.cls-3{font-size:9.05px;font-family:RobotoCondensed-Bold, Roboto Condensed;font-weight:700;}</style></defs><title>lightning-button</title><g id="Layer_2" data-name="Layer 2"><g id="Layer_1-2" data-name="Layer 1"><circle class="cls-1" cx="29.36" cy="29.36" r="28.86"/><path class="cls-2" d="M32,11h5a1.15,1.15,0,0,0-.13-.79,1.24,1.24,0,0,0-1.11-.59h-6A2,2,0,0,0,28.1,10.7L21.76,23.86a1.28,1.28,0,0,0,0,1.25,1.29,1.29,0,0,0,1.1.59h.91a1.43,1.43,0,0,1,.13-.46l6.34-13.16A2,2,0,0,1,32,11Z"/><path class="cls-2" d="M36.08,19.51c-3,0-3.73,0-3.73,0l-2.71,5.64a1,1,0,0,1-.92.59l-1.3,0L25.11,32h0l-.91,2.28a1.12,1.12,0,0,0,.05,1.11.75.75,0,0,0,.61.32h.05a1.13,1.13,0,0,0,.87-.52l1.55-1.95,9.06-11.38S38.15,20.37,36.08,19.51Z"/><text class="cls-3" transform="translate(16.52 47.2)">PRESS</text></g></g></svg>