<svg xmlns="http://www.w3.org/2000/svg" viewBox="0 0 92.95 23.25"><defs><style>.cls-1{fill:#fff;}.cls-2{fill:#00a9a9;}.cls-3{fill:teal;}</style></defs><title>Asset 10</title><g id="Layer_2" data-name="Layer 2"><g id="Layer_1-2" data-name="Layer 1"><path class="cls-1" d="M4,.7q-2,5.91-4,12H3l.72-2.43,4,0,.73,2.39h3Q9.34,6.68,7.28.41L4.59.27A.63.63,0,0,0,4,.7Zm.39,7.38,1.34-4.5Q6.37,5.87,7,8.14Z"/><path class="cls-1" d="M15.26.78,12.69.67a.38.38,0,0,0-.39.38V12.74h8a.4.4,0,0,0,.4-.4q0-.85,0-1.7l-5.48,0Q15.26,5.69,15.26.78Z"/><path class="cls-1" d="M28.79,9.28h-.05q-1.43-4.05-2.86-8.15L22.43,1a.43.43,0,0,0-.44.43q0,5.64,0,11.29h3q0-1.44,0-2.89l-.28-5.25h.05q1.52,4.1,3,8.15h2q1.53-4.07,3.07-8.1h.05L32.61,9.9v2.85h2.56a.4.4,0,0,0,.4-.4v-11l-3.9-.06Q30.23,5.25,28.79,9.28Z"/><path class="cls-1" d="M53.09,8.65h2q0,.9,0,1.8a2.17,2.17,0,0,1-.73.31,5.43,5.43,0,0,1-1.28.12,2.17,2.17,0,0,1-1.74-.72,3.13,3.13,0,0,1-.59-2.47V6.43A3.07,3.07,0,0,1,51.35,4,2.1,2.1,0,0,1,53,3.22a2.23,2.23,0,0,1,1.54.45A2.24,2.24,0,0,1,55.2,5L58,5l0,0a3.91,3.91,0,0,0-1.39-2.8,5.65,5.65,0,0,0-3.68-1A5.34,5.34,0,0,0,49.21,2.5a4.34,4.34,0,0,0-1.44,3.37V8.2a4.29,4.29,0,0,0,1.47,3.42,5.59,5.59,0,0,0,3.83,1.3,7.92,7.92,0,0,0,3.1-.53,6.6,6.6,0,0,0,1.36-.76,1.3,1.3,0,0,0,.52-1q0-1.56,0-3.13a.59.59,0,0,0-.59-.59l-4.38,0Q53.09,7.77,53.09,8.65Z"/><path class="cls-1" d="M67.54,6l-4.71.06V1.23l-2.59,0a.39.39,0,0,0-.38.39q0,5.55,0,11.09h3q0-2.32,0-4.64l4.71,0q0,2.34,0,4.68H70a.44.44,0,0,0,.44-.44q0-5.64,0-11.27l-2.95.08Q67.55,3.56,67.54,6Z"/><path class="cls-1" d="M71.47,3.1,74.8,3q0,4.87,0,9.74h2.57a.4.4,0,0,0,.4-.4q0-4.72,0-9.43l3.36-.12q0-1.08,0-2.16-4.65.21-9.3.36a.37.37,0,0,0-.35.36Q71.47,2.23,71.47,3.1Z"/><path class="cls-1" d="M89.75.19Q88.46,3,87.18,5.81,85.91,3.11,84.63.47L81.87.6a.26.26,0,0,0-.22.39q2,3.58,4,7.27,0,2.24,0,4.48h2.54a.41.41,0,0,0,.41-.41q0-2,0-4Q90.79,4.26,93,0Z"/><path class="cls-2" d="M46.37,1.73a.75.75,0,0,0-.67-.36h-3.6A1.23,1.23,0,0,0,41,2L37.21,10a.77.77,0,0,0,0,.75.78.78,0,0,0,.67.35l2.83,0-2,5.12a.67.67,0,0,0,0,.67.45.45,0,0,0,.37.19h0a.68.68,0,0,0,.52-.31l6.62-8.31a.68.68,0,0,0-.55-1.14H43.59l2.76-4.86A.75.75,0,0,0,46.37,1.73Z"/><path class="cls-3" d="M42,12l-1.64,0-1.72,4.31a.67.67,0,0,0,0,.67.45.45,0,0,0,.37.19h0a.68.68,0,0,0,.52-.31l.93-1.17Z"/><path class="cls-3" d="M38.52,10.81l3.82-7.94a1.23,1.23,0,0,1,1.06-.67h3a.69.69,0,0,0-.08-.48.75.75,0,0,0-.67-.36H42.1A1.23,1.23,0,0,0,41,2L37.21,10a.77.77,0,0,0,0,.75.78.78,0,0,0,.67.35h.55A.87.87,0,0,1,38.52,10.81Z"/><path class="cls-3" d="M43.59,7.34,42,10.74a.63.63,0,0,1-.55.36l-.79,0-1.39,3.74,1.34.76L46,8.76s1.06-.88-.19-1.4Z"/><path class="cls-1" d="M15,20.71v2.44H13.75V16.71h3a3.14,3.14,0,0,1,2,.55,1.84,1.84,0,0,1,0,2.9,3.16,3.16,0,0,1-2,.55Zm0-.86h1.7a1.54,1.54,0,0,0,1.06-.32,1,1,0,0,0,.35-.81,1.07,1.07,0,0,0-.35-.82,1.51,1.51,0,0,0-1.06-.33H15Z"/><path class="cls-1" d="M29.8,20.48v2.67H28.53V16.71h2.8a3.39,3.39,0,0,1,2,.49A1.6,1.6,0,0,1,34,18.59a1.29,1.29,0,0,1-.3.86,2.08,2.08,0,0,1-.89.58A1.45,1.45,0,0,1,34,21.55v.53a1.85,1.85,0,0,0,.08.55.76.76,0,0,0,.28.41v.1h-1.3a.69.69,0,0,1-.27-.46,3.31,3.31,0,0,1-.06-.61v-.52a1,1,0,0,0-.33-.79,1.35,1.35,0,0,0-.92-.29Zm0-.86h1.47a2,2,0,0,0,1.11-.25.87.87,0,0,0,.35-.76.92.92,0,0,0-.34-.76,1.65,1.65,0,0,0-1-.28H29.8Z"/><path class="cls-1" d="M48.07,20.26H44.75v2H48.6v.86H43.49V16.71h5.08v.86H44.75v1.82h3.32Z"/><path class="cls-1" d="M61.68,21.49a.78.78,0,0,0-.35-.66,3.61,3.61,0,0,0-1.24-.46,5.75,5.75,0,0,1-2-.75,1.42,1.42,0,0,1-.69-1.22,1.5,1.5,0,0,1,.76-1.28,3.46,3.46,0,0,1,2-.5,3.25,3.25,0,0,1,2,.57,1.61,1.61,0,0,1,.73,1.37v0H61.67a1,1,0,0,0-.4-.8,1.81,1.81,0,0,0-1.13-.31,1.87,1.87,0,0,0-1.06.26.77.77,0,0,0-.37.66.71.71,0,0,0,.4.61,4.93,4.93,0,0,0,1.34.46,4.8,4.8,0,0,1,1.86.77,1.52,1.52,0,0,1,.64,1.25,1.45,1.45,0,0,1-.76,1.28,3.7,3.7,0,0,1-2,.48,4,4,0,0,1-2.08-.54,1.59,1.59,0,0,1-.87-1.47v0h1.22a1,1,0,0,0,.48.88,2.38,2.38,0,0,0,1.24.29,2.1,2.1,0,0,0,1.09-.24A.73.73,0,0,0,61.68,21.49Z"/><path class="cls-1" d="M76.28,21.49a.78.78,0,0,0-.35-.66,3.61,3.61,0,0,0-1.24-.46,5.75,5.75,0,0,1-2-.75A1.42,1.42,0,0,1,72,18.41a1.5,1.5,0,0,1,.76-1.28,3.46,3.46,0,0,1,2-.5,3.25,3.25,0,0,1,2,.57,1.61,1.61,0,0,1,.73,1.37v0H76.27a1,1,0,0,0-.4-.8,1.81,1.81,0,0,0-1.13-.31,1.87,1.87,0,0,0-1.07.26.77.77,0,0,0-.37.66.71.71,0,0,0,.4.61,4.94,4.94,0,0,0,1.34.46,4.81,4.81,0,0,1,1.86.77,1.52,1.52,0,0,1,.63,1.25,1.45,1.45,0,0,1-.76,1.28,3.7,3.7,0,0,1-2,.48,4,4,0,0,1-2.08-.54,1.59,1.59,0,0,1-.87-1.47v0h1.22a1,1,0,0,0,.48.88,2.39,2.39,0,0,0,1.25.29,2.09,2.09,0,0,0,1.09-.24A.73.73,0,0,0,76.28,21.49Z"/></g></g></svg>