<svg xmlns="http://www.w3.org/2000/svg" viewBox="0 0 813.09 106.65"><defs><style>.cls-1{fill:#272c38;}.cls-2{fill:none;stroke:#0aa;stroke-linecap:round;stroke-linejoin:round;}.cls-3{fill:#fff;}.cls-4{fill:#00a9a9;}.cls-5,.cls-6{fill:teal;}.cls-6{font-size:12.43px;font-family:RobotoCondensed-Bold, Roboto Condensed;font-weight:700;}</style></defs><title>new-curation</title><g id="Layer_2" data-name="Layer 2"><g id="Layer_1-2" data-name="Layer 1"><rect class="cls-1" width="813.09" height="106.65"/><rect class="cls-2" x="176.35" y="24.71" width="393.79" height="55.24" rx="16" ry="16"/><line class="cls-2" x1="198.82" y1="64.92" x2="545.94" y2="64.92"/><circle class="cls-3" cx="625.73" cy="53.33" r="39.24"/><path class="cls-4" d="M636,27.25a1.69,1.69,0,0,0-1.51-.8h-8.13A2.78,2.78,0,0,0,624,28l-8.62,17.9a1.73,1.73,0,0,0,0,1.69,1.76,1.76,0,0,0,1.5.8l6.38.08L618.7,60a1.52,1.52,0,0,0,.07,1.51,1,1,0,0,0,.83.44h.07a1.54,1.54,0,0,0,1.18-.7l14.92-18.73a1.52,1.52,0,0,0-1.24-2.58h-4.75L636,29A1.69,1.69,0,0,0,636,27.25Z"/><path class="cls-5" d="M629.37,28.32h6.85a1.57,1.57,0,0,0-.17-1.07,1.69,1.69,0,0,0-1.51-.8h-8.13A2.78,2.78,0,0,0,624,28l-8.62,17.9a1.73,1.73,0,0,0,0,1.69,1.76,1.76,0,0,0,1.5.8l1.24,0a2,2,0,0,1,.17-.63L627,29.83A2.78,2.78,0,0,1,629.37,28.32Z"/><path class="cls-5" d="M634.86,39.93c-4.1,0-5.08,0-5.08,0l-3.69,7.67a1.42,1.42,0,0,1-1.25.81l-1.77,0-3.14,8.44h0L618.7,60a1.52,1.52,0,0,0,.07,1.51,1,1,0,0,0,.83.44h.07a1.53,1.53,0,0,0,1.18-.7L623,58.57,635.29,43.1S637.68,41.1,634.86,39.93Z"/><text class="cls-6" transform="translate(608.27 76.03) scale(0.99 1)">PRESS</text></g></g></svg>