<svg xmlns="http://www.w3.org/2000/svg" viewBox="0 0 172.15 26"><defs><style>.cls-1,.cls-3{fill:#fff;}.cls-1{opacity:0.75;isolation:isolate;}.cls-2{fill:teal;}</style></defs><title>powered-by-stripe-paypal</title><g id="Layer_2" data-name="Layer 2"><g id="Layer_1-2" data-name="Layer 1"><path class="cls-1" d="M104.43,26H63.15a6,6,0,0,1-6-6V6a6,6,0,0,1,6-6h41.28a6,6,0,0,1,6,6V20A6,6,0,0,1,104.43,26Zm5-20a5,5,0,0,0-5-5H63.2a5,5,0,0,0-5,5V20a5,5,0,0,0,5,5h41.23a5,5,0,0,0,5-5Z"/><path class="cls-2" d="M166.15,26H124.87a6,6,0,0,1-6-6V6a6,6,0,0,1,6-6h41.28a6,6,0,0,1,6,6V20A6,6,0,0,1,166.15,26Zm5-20a5,5,0,0,0-5-5H124.92a5,5,0,0,0-5,5V20a5,5,0,0,0,5,5h41.23a5,5,0,0,0,5-5Z"/><path class="cls-3" d="M52.13,18.44H50.82l1-2.49-2-5.07H51.2l1.26,3.45,1.27-3.45h1.38Zm-5-2.18a2.19,2.19,0,0,1-1.34-.5v.37H44.44V8.57h1.35v2.66a2.24,2.24,0,0,1,1.34-.48A2.47,2.47,0,0,1,49.5,13.5,2.47,2.47,0,0,1,47.12,16.26Zm-.28-4.36a1.49,1.49,0,0,0-1.05.47v2.25a1.49,1.49,0,0,0,1.05.47c.76,0,1.28-.65,1.28-1.6S47.59,11.9,46.83,11.9ZM39,15.76a2.14,2.14,0,0,1-1.34.5,2.48,2.48,0,0,1-2.38-2.76,2.48,2.48,0,0,1,2.38-2.76,2.19,2.19,0,0,1,1.34.48V8.57h1.36v7.57H39Zm0-3.39a1.45,1.45,0,0,0-1-.47c-.77,0-1.3.65-1.3,1.6s.53,1.6,1.3,1.6a1.45,1.45,0,0,0,1-.47Zm-8,1.49a1.5,1.5,0,0,0,1.6,1.35,3.23,3.23,0,0,0,1.57-.49v1.13a4.3,4.3,0,0,1-1.79.41,2.64,2.64,0,0,1-2.7-2.8,2.56,2.56,0,0,1,2.6-2.72,2.37,2.37,0,0,1,2.32,2.63,4.15,4.15,0,0,1,0,.49Zm1.22-2.08A1.23,1.23,0,0,0,31,13h2.29A1.14,1.14,0,0,0,32.19,11.79Zm-4.77.83v3.51H26.07V10.87h1.35v.53a1.78,1.78,0,0,1,1.29-.65,1.59,1.59,0,0,1,.44.05V12a1.77,1.77,0,0,0-.47-.06A1.66,1.66,0,0,0,27.42,12.62Zm-6,1.25A1.5,1.5,0,0,0,23,15.22a3.23,3.23,0,0,0,1.57-.49v1.13a4.3,4.3,0,0,1-1.79.41,2.64,2.64,0,0,1-2.7-2.8,2.56,2.56,0,0,1,2.6-2.72A2.37,2.37,0,0,1,25,13.38a4.15,4.15,0,0,1,0,.49Zm1.22-2.08A1.23,1.23,0,0,0,21.41,13H23.7A1.14,1.14,0,0,0,22.63,11.79ZM16.7,16.13l-1.07-3.58-1.06,3.58H13.36l-1.81-5.26h1.35L14,14.45,15,10.87h1.22l1.06,3.58,1.06-3.58h1.35l-1.8,5.26Zm-8.23.13A2.63,2.63,0,0,1,5.76,13.5a2.62,2.62,0,0,1,2.71-2.76,2.62,2.62,0,0,1,2.7,2.76A2.62,2.62,0,0,1,8.47,16.26Zm0-4.39c-.79,0-1.34.66-1.34,1.63s.55,1.63,1.34,1.63S9.8,14.47,9.8,13.5,9.25,11.87,8.47,11.87ZM2.56,13.53H1.35v2.6H0V8.89H2.56a2.33,2.33,0,1,1,0,4.64ZM2.37,10h-1v2.45h1a1.23,1.23,0,1,0,0-2.45Z"/><path class="cls-3" d="M104.54,14.05H99c.13,1.33,1.1,1.72,2.21,1.72a6,6,0,0,0,2.79-.63v2.29a6.36,6.36,0,0,1-3.15.74c-2.77,0-4.7-1.73-4.7-5.16,0-2.89,1.64-5.19,4.35-5.19s4.1,2.3,4.1,5.2C104.58,13.3,104.56,13.9,104.54,14.05Zm-4.08-3.91c-.71,0-1.5.54-1.5,1.81h2.94C101.9,10.68,101.16,10.14,100.46,10.14Zm-8.92,8a3.18,3.18,0,0,1-2-.72v3.21l-2.84.6V8h2.5l.15.7a3.18,3.18,0,0,1,2.22-.89c2,0,3.87,1.8,3.87,5.1C95.43,16.53,93.57,18.17,91.54,18.17Zm-.66-7.83a1.71,1.71,0,0,0-1.36.56l0,4.22a1.7,1.7,0,0,0,1.34.54c1.05,0,1.75-1.14,1.75-2.67S91.91,10.34,90.87,10.34ZM82.58,8h2.85V18H82.58Zm0-3.18,2.85-.61V6.54l-2.85.61Zm-3,6.38V18H76.7V8h2.45l.18.84A1.94,1.94,0,0,1,81.7,8v2.61A2,2,0,0,0,79.54,11.22Zm-6.09,3.26c0,1.67,1.79,1.15,2.15,1v2.31a4.38,4.38,0,0,1-2,.38,2.86,2.86,0,0,1-2.95-2.92V6.14l2.77-.59V8h2.16v2.42H73.45ZM69.91,15c0,2-1.63,3.21-4,3.21a7.88,7.88,0,0,1-3.11-.64V14.81a7.16,7.16,0,0,0,3.11.91c.63,0,1.09-.17,1.09-.69,0-1.36-4.32-.85-4.32-4,0-2,1.53-3.21,3.84-3.21a7.51,7.51,0,0,1,2.82.52V11a6.36,6.36,0,0,0-2.82-.73c-.6,0-1,.17-1,.61C65.57,12.18,69.91,11.57,69.91,15Z"/><path class="cls-2" d="M153.74,7.16h-3.41a.67.67,0,0,0-.5.4l-1.41,8.83a.27.27,0,0,0,.3.3h1.81a.27.27,0,0,0,.3-.3l.4-2.51a.46.46,0,0,1,.5-.4h1.1q3.46,0,3.91-3.31a2.63,2.63,0,0,0-.4-2.21,4,4,0,0,0-2.61-.8m.4,3.31c-.2,1.2-1.1,1.2-2,1.2h-.6l.4-2.31c0-.1.1-.2.3-.2h.2c.6,0,1.2,0,1.51.4.2.1.2.4.2.9"/><path class="cls-2" d="M129.15,7.16h-3.41a.67.67,0,0,0-.5.4l-1.41,8.83a.27.27,0,0,0,.3.3h1.61a.67.67,0,0,0,.5-.4l.4-2.41a.46.46,0,0,1,.5-.4h1.1q3.46,0,3.91-3.31a2.63,2.63,0,0,0-.4-2.21,3.86,3.86,0,0,0-2.61-.8m.4,3.31c-.2,1.2-1.1,1.2-2,1.2H127l.4-2.31c0-.1.1-.2.3-.2h.2c.6,0,1.2,0,1.51.4a1.08,1.08,0,0,1,.1.9"/><path class="cls-2" d="M139.48,10.37h-1.61c-.1,0-.3.1-.3.2l-.1.5-.1-.2a2.36,2.36,0,0,0-1.91-.7,3.86,3.86,0,0,0-3.71,3.31,3,3,0,0,0,.6,2.51,2.53,2.53,0,0,0,2.11.8,3.21,3.21,0,0,0,2.31-.9l-.1.5a.27.27,0,0,0,.3.3h1.51a.67.67,0,0,0,.5-.4l.9-5.62c-.1-.1-.3-.3-.4-.3m-2.31,3.21a1.94,1.94,0,0,1-1.91,1.61,1.6,1.6,0,0,1-1.1-.4,2.14,2.14,0,0,1-.3-1.2,1.79,1.79,0,0,1,2.91-1.2,1.75,1.75,0,0,1,.4,1.2"/><path class="cls-2" d="M164,10.37h-1.61c-.1,0-.3.1-.3.2l-.1.5-.1-.2a2.36,2.36,0,0,0-1.91-.7,3.86,3.86,0,0,0-3.71,3.31,3,3,0,0,0,.6,2.51,2.53,2.53,0,0,0,2.11.8,3.21,3.21,0,0,0,2.31-.9l-.1.5a.27.27,0,0,0,.3.3H163a.67.67,0,0,0,.5-.4l.9-5.62c-.1-.1-.2-.3-.4-.3m-2.31,3.21a1.94,1.94,0,0,1-1.91,1.61,1.6,1.6,0,0,1-1.1-.4,2.14,2.14,0,0,1-.3-1.2,1.79,1.79,0,0,1,2.91-1.2,1.15,1.15,0,0,1,.4,1.2"/><path class="cls-2" d="M148.22,10.37h-1.71a.52.52,0,0,0-.4.2L143.9,14l-1-3.21a.46.46,0,0,0-.5-.3h-1.61c-.2,0-.3.2-.3.4l1.81,5.32-1.71,2.41c-.1.2,0,.5.2.5h1.61a.52.52,0,0,0,.4-.2L148.32,11c.3-.3.1-.6-.1-.6"/><path class="cls-2" d="M165.88,7.46l-1.41,9a.27.27,0,0,0,.3.3h1.41a.67.67,0,0,0,.5-.4l1.41-8.83a.27.27,0,0,0-.3-.3h-1.61c-.1-.1-.2,0-.3.2"/></g></g></svg>