<svg xmlns="http://www.w3.org/2000/svg" viewBox="0 0 23.91 23.91"><defs><style>.cls-1{fill:#fcd462;}.cls-2{fill:#f6c358;}</style></defs><title>sun</title><g id="Layer_2" data-name="Layer 2"><g id="Layer_1-2" data-name="Layer 1"><circle class="cls-1" cx="11.95" cy="11.95" r="6.87"/><path class="cls-2" d="M15.21,5.89a11.22,11.22,0,0,1,.54,3,10.19,10.19,0,0,1-6.28,9.44A6.87,6.87,0,0,0,15.21,5.89Z"/><path class="cls-2" d="M12,0a1,1,0,0,0-1,1V2.69a1,1,0,1,0,2,0V1A1,1,0,0,0,12,0Z"/><path class="cls-2" d="M12,20.2a1,1,0,0,0-1,1v1.67a1,1,0,1,0,2,0V21.22A1,1,0,0,0,12,20.2Z"/><path class="cls-2" d="M23.91,12a1,1,0,0,0-1-1H21.22a1,1,0,1,0,0,2h1.67A1,1,0,0,0,23.91,12Z"/><path class="cls-2" d="M3.71,12a1,1,0,0,0-1-1H1a1,1,0,1,0,0,2H2.69A1,1,0,0,0,3.71,12Z"/><path class="cls-2" d="M20.41,3.5A1,1,0,0,0,19,3.5l-1.2,1.2a1,1,0,1,0,1.43,1.43l1.2-1.2A1,1,0,0,0,20.41,3.5Z"/><path class="cls-2" d="M6.13,17.78a1,1,0,0,0-1.43,0L3.5,19a1,1,0,1,0,1.43,1.43l1.2-1.2A1,1,0,0,0,6.13,17.78Z"/><path class="cls-2" d="M20.41,20.41a1,1,0,0,0,0-1.43l-1.2-1.2a1,1,0,1,0-1.43,1.43l1.2,1.2A1,1,0,0,0,20.41,20.41Z"/><path class="cls-2" d="M6.13,6.13a1,1,0,0,0,0-1.43L4.93,3.5A1,1,0,0,0,3.5,4.93l1.2,1.2A1,1,0,0,0,6.13,6.13Z"/></g></g></svg>