<svg xmlns="http://www.w3.org/2000/svg" viewBox="0 0 185.01 115.43"><defs><style>.cls-1{fill:#0aa;}.cls-2{fill:teal;}</style></defs><title>three-step-process-step-1-cloud2</title><g id="Layer_2" data-name="Layer 2"><g id="Layer_1-2" data-name="Layer 1"><path class="cls-1" d="M152.51,115.42H37c-20.15,0-37.07-16.49-37-36.64a36.29,36.29,0,0,1,32.62-36,49.16,49.16,0,0,1,97.91,6.42c0,1.17,0,2.35-.13,3.53a.76.76,0,0,0,1.19.67,33.64,33.64,0,0,1,19.36-6,34,34,0,0,1,2.41,68l-.44.1Z"/><path class="cls-2" d="M87.3,3.55A1.69,1.69,0,0,0,86.86.31,49.19,49.19,0,0,0,32.62,42.75,36.29,36.29,0,0,0,0,78.78c-.11,20.15,16.81,36.64,37,36.64H57.14a36.57,36.57,0,0,1-2-72.45H78.63a7.6,7.6,0,0,0,7.6-7.6h0a7.6,7.6,0,0,0-7.6-7.6h-9a4.53,4.53,0,0,1-3.68-7.18A49.63,49.63,0,0,1,87.3,3.55Z"/></g></g></svg>