<svg xmlns="http://www.w3.org/2000/svg" viewBox="0 0 65.49 42.69"><defs><style>.cls-1{fill:#0aa;}.cls-2{fill:teal;}</style></defs><title>three-step-process-step-1-cloud3</title><g id="Layer_2" data-name="Layer 2"><g id="Layer_1-2" data-name="Layer 1"><path class="cls-1" d="M22.87,42.69l-1.11-2.22A33.67,33.67,0,0,0,4.23,24.27L0,22.56l10.07-18L11.16,4,14.44,2l.2-.09A21.16,21.16,0,0,1,23.49,0,21.43,21.43,0,0,1,44.3,16.61a14,14,0,1,1,7.17,26.08H22.87Z"/><path class="cls-2" d="M12.67,13.8,20.25.25a21.09,21.09,0,0,0-5.61,1.67l-.2.09L11.16,4l-1.09.6L2.54,18h0L0,22.56l4.23,1.71,1,.43h0A33.67,33.67,0,0,1,21.76,40.46l1.11,2.22h9.76A34.18,34.18,0,0,0,15,21.49,5.56,5.56,0,0,1,12.67,13.8Z"/></g></g></svg>