<svg xmlns="http://www.w3.org/2000/svg" viewBox="0 0 38.57 64.94"><defs><style>.cls-1{fill:#0aa;}.cls-2{fill:teal;}</style></defs><title>three-step-process-step-1-lightning</title><g id="Layer_2" data-name="Layer 2"><g id="Layer_1-2" data-name="Layer 1"><path class="cls-1" d="M38.18,1.47A3.09,3.09,0,0,0,35.41,0H20.54a5.09,5.09,0,0,0-4.39,2.76L.37,35.53a3.17,3.17,0,0,0,.08,3.1A3.21,3.21,0,0,0,3.19,40.1l11.68.15L6.41,61.37a2.78,2.78,0,0,0,.13,2.77,1.87,1.87,0,0,0,1.53.8h.14a2.81,2.81,0,0,0,2.16-1.28l27.32-34.3a2.79,2.79,0,0,0-2.27-4.72H26.72L38.1,4.6A3.09,3.09,0,0,0,38.18,1.47Z"/><path class="cls-2" d="M5.79,39,21.57,6.19A5.09,5.09,0,0,1,26,3.44H38.51a2.87,2.87,0,0,0-.31-2A3.09,3.09,0,0,0,35.43,0H20.55a5.09,5.09,0,0,0-4.39,2.76L.38,35.53a3.17,3.17,0,0,0,.08,3.1A3.21,3.21,0,0,0,3.2,40.1l2.27,0A3.58,3.58,0,0,1,5.79,39Z"/></g></g></svg>