<svg xmlns="http://www.w3.org/2000/svg" viewBox="0 0 1374.51 2409.16"><defs><style>.cls-1{opacity:0.02;}.cls-2{fill:#272c38;}</style></defs><title>three-step-process-bg</title><g id="Layer_2" data-name="Layer 2"><g id="Layer_1-2" data-name="Layer 1"><g class="cls-1"><path class="cls-2" d="M369.8,1290.24l-.46,8,5.77-5.56,12.55,10.39-4.38,6.7,7.79-2,5.68,15.33-7.17,3.59,7.69,2.2L394.6,1345l-8-.46,5.56,5.77-10.39,12.55-6.7-4.39,2,7.79L361.68,1372l-3.49-7-2.38,7.48-15.93-2.64.23-7.9-5.61,5.41L321.94,1357l4.38-6.7-7.79,2-5.68-15.33,7.16-3.59-7.69-2.2L315,1315l8,.46-5.56-5.77,10.39-12.55,6.7,4.38-2-7.79,15.33-5.68,3.59,7.16,2.2-7.69Zm-25,5.88-4.52,1.68,2.31,9.1-1.93,1.25c-.62.4-1.22.84-1.8,1.29l-1.81,1.41-7.85-5.14-3.07,3.71,6.51,6.76-1,2c-.33.65-.65,1.31-.92,2l-.87,2.12-9.37-.54-.79,4.76,9,2.59.12,2.29c0,.74.1,1.47.2,2.19l.31,2.27-8.4,4.2,1.68,4.52,9.1-2.31,1.25,1.93c.4.62.84,1.22,1.29,1.8l1.4,1.81-5.14,7.85,3.71,3.07,6.75-6.51,2,1c.57.29,1.14.58,1.74.83l2,.85-.27,9.46,4.92.81,2.87-9,2.19-.14c.65,0,1.29-.1,1.92-.19l2.28-.31,4.21,8.4,4.52-1.68-2.31-9.1,1.93-1.25c.62-.4,1.21-.83,1.8-1.29l1.81-1.41,7.85,5.14,3.07-3.71-6.51-6.75,1-2c.33-.65.65-1.31.92-2l.87-2.13,9.37.54.79-4.76-9-2.59-.12-2.29c0-.74-.1-1.47-.2-2.19l-.31-2.28,8.4-4.2-1.68-4.52-9.1,2.31-1.25-1.93c-.4-.62-.84-1.22-1.29-1.8l-1.41-1.81,5.14-7.85-3.71-3.07-6.75,6.51-2-1c-.65-.33-1.31-.65-2-.92l-2.13-.87.54-9.37-4.76-.79-2.59,9-2.29.12c-.74,0-1.47.1-2.19.2l-2.28.31Z"/><path class="cls-2" d="M586,499.17l3.08,30.13c2.28.2,4.53.43,6.75.69L605,501.11l32.79,6.41-2.35,30.2c2.19.6,4.36,1.23,6.49,1.88l14.17-26.75L687.17,525l-7.78,29.26c2,1,4,2,6,3l18.79-23.79,28.41,17.55-12.9,27.41q2.76,2,5.43,4.06l22.71-20.06L772.7,584.8l-17.56,24.71c1.56,1.63,3.1,3.29,4.61,5l25.88-15.71,20.46,26.37L784.47,646.3c1.24,1.88,2.46,3.78,3.65,5.7l28.25-10.85,15.44,29.62-25.08,17c.89,2.08,1.75,4.17,2.58,6.26l29.81-5.61L849,720.3l-27.8,12.17c.54,2.4,1.05,4.82,1.53,7.25l30.15-.83,4,33.28-29.48,6.28c.11,2.45.19,4.93.23,7.41l29.83,5.23-1.9,33.3-30.27,1.73c-.3,2.2-.63,4.44-1,6.7l28.44,10.4-7.87,32.47-30-3.73c-.71,2.18-1.43,4.32-2.17,6.41l26.07,15.37L825.15,924.3l-28.88-9.1c-1.07,2-2.17,4-3.29,5.91L815.92,941l-18.8,27.59L770.3,954.43q-2.1,2.63-4.31,5.24l19,23.58-23.4,23.8-23.9-18.63q-2.55,2.23-5.16,4.39l14.54,26.55-27.26,19.26-20.19-22.55c-1.92,1.14-3.88,2.28-5.86,3.39l9.58,28.72-30.29,14.1-15.82-25.83c-2.13.8-4.26,1.56-6.37,2.29l4.26,30-32.35,8.4-10.9-28.29c-2.22.4-4.45.77-6.68,1.11L604,1080.23l-33.27,2.49L565,1053c-2.11,0-4.32,0-6.79-.11l-6.51,29.61-33.21-3.4-.38-30.35c-2.21-.4-4.43-.83-6.65-1.3l-11.67,27.93-32.09-9.33,5.08-29.83c-2.08-.78-4.19-1.61-6.3-2.47L450,1059.14l-29.88-14.93,10.38-28.45c-1.94-1.16-3.87-2.35-5.76-3.56l-20.85,22-26.72-20L392.46,988c-1.69-1.48-3.37-3-5-4.53l-24.39,18L340.31,977,360,954q-2.12-2.66-4.15-5.35L328.66,962l-18-28.1,23.44-19.17c-1.06-2-2.1-4-3.12-6L301.8,917l-12.72-30.9,26.52-14.63c-.71-2.18-1.38-4.34-2-6.47l-30.16,2.89-6.93-32.69,28.73-9.62c-.3-2.26-.57-4.5-.81-6.72l-30.15-2.57-1-33.33,30-4.41c.1-2.29.23-4.55.39-6.77L274.28,764l4.94-33,30.3,1c.5-2.2,1-4.4,1.59-6.57l-27.37-12.93L294.5,680.8l29.58,6.43c.88-2.05,1.8-4.12,2.75-6.18l-24.6-17.68,16.26-29.18,28,11.65c1.26-1.89,2.53-3.77,3.81-5.6l-21.08-21.81,21.19-25.79,25.48,16.45q2.34-2.44,4.75-4.83l-16.86-25.16,25.43-21.62,22.14,20.66c1.84-1.34,3.69-2.65,5.52-3.91l-12.11-27.73,28.89-16.75,18.09,24.28c2-1,4.08-1.93,6.13-2.85l-7-29.5,31.45-11.32,13.41,27.18c2.14-.58,4.33-1.15,6.56-1.7l-1.51-30.26,33-5.45,8.3,29.1c2.26-.2,4.52-.37,6.75-.51l3.91-30Zm-56.91,8.25L507.47,511,509,540.87l-2.6.61c-3.95.93-7.8,1.93-11.45,3l-2.58.74L479.1,518.36l-20.66,7.44,6.87,29.13L462.85,556c-3.6,1.58-7.2,3.25-10.72,5l-2.4,1.18-17.86-24-19,11,12,27.38-2.22,1.5c-3.19,2.14-6.44,4.44-9.65,6.83l-2.15,1.59L389,566.1l-16.71,14.2,16.64,24.84L387,607c-2.82,2.74-5.62,5.58-8.3,8.44l-1.83,2-25.16-16.24L337.77,618.1l20.81,21.53L357,641.8c-2.25,3.15-4.49,6.44-6.66,9.78l-1.46,2.25-27.6-11.5L310.62,661.5,334.9,679l-1.14,2.42c-1.7,3.59-3.31,7.22-4.8,10.79l-1,2.47-29.19-6.35-7.07,20.79,27,12.76-.69,2.59c-1,3.76-1.94,7.63-2.78,11.49l-.57,2.61-29.92-1-3.24,21.71L310.4,767l-.22,2.67c-.31,3.81-.54,7.79-.68,11.83l-.09,2.67-29.58,4.35.67,21.9,29.77,2.54.26,2.66c.37,3.82.85,7.77,1.42,11.74l.38,2.65L284,839.48,288.53,861l29.77-2.86.73,2.57c1,3.66,2.22,7.47,3.5,11.3l.85,2.54L297.2,889l8.36,20.3,28.77-8.18,1.18,2.4c1.75,3.57,3.59,7.09,5.46,10.48l1.29,2.34-23.13,18.92L331,953.7l26.81-13.18,1.59,2.15c2.31,3.12,4.75,6.27,7.25,9.34l1.69,2.07-19.41,22.76,14.94,16.06,24.08-17.74,1.95,1.84c2.89,2.72,5.85,5.39,8.8,7.92l2,1.74-15.11,25.86,17.56,13.15,20.59-21.76,2.24,1.46c3.27,2.13,6.66,4.22,10.07,6.22l2.31,1.35L428.1,1041l19.64,9.81,16.33-25,2.47,1c3.7,1.55,7.41,3,11,4.32l2.51.92-5,29.45,21.09,6.13,11.52-27.57,2.62.57c3.87.85,7.78,1.61,11.61,2.27l2.64.45.37,30,21.82,2.23,6.43-29.24,2.68.1c4.21.15,7.56.24,10.84.18l3.68,0,5.63,29.35,21.86-1.64,1.21-29.86,2.65-.38c3.88-.55,7.81-1.2,11.67-1.94l2.63-.5,10.76,27.93L648,1064l-4.21-29.65,2.54-.85c3.67-1.22,7.41-2.57,11.13-4l2.5-1,15.61,25.5,19.9-9.26L686,1016.41l2.35-1.29c3.49-1.92,6.94-3.91,10.23-5.93l2.28-1.39,19.93,22.26,17.92-12.66-14.36-26.21,2.08-1.69c3-2.46,6.07-5,9-7.66l2-1.78,23.6,18.4,15.38-15.64-18.79-23.28,1.75-2c2.6-3,5.13-6.09,7.52-9.15l1.65-2.11L795,960.2l12.35-18.13-22.64-19.59,1.35-2.3c2-3.38,3.93-6.86,5.76-10.33l1.25-2.37,28.51,9,8.92-20.06L804.8,881.22l.92-2.51c1.31-3.58,2.59-7.34,3.8-11.19l.8-2.55L840,868.64l5.18-21.34L817.08,837l.45-2.64c.68-4,1.27-7.92,1.75-11.71l.33-2.65,29.87-1.71,1.25-21.89-29.47-5.16,0-2.68c0-4.22-.16-8.43-.39-12.53l-.15-2.74,29.11-6.2-2.59-21.65-29.77.82-.5-2.7c-.76-4.12-1.63-8.24-2.59-12.25l-.62-2.61,27.44-12-6.5-21-29.43,5.54-1-2.5c-1.4-3.64-2.91-7.32-4.5-10.93l-1.08-2.45,24.76-16.75-10.15-19.46-27.89,10.71L784,657.62c-2.05-3.37-4.2-6.72-6.38-10l-1.5-2.22,21.35-20.91-13.45-17.33-25.56,15.51-1.78-2c-2.6-2.92-5.31-5.84-8.06-8.66l-1.87-1.92,17.34-24.4-16.31-14.66-22.43,19.81-2.1-1.65c-3-2.39-6.23-4.78-9.48-7.09l-2.18-1.56,12.74-27.06L705.73,542l-18.55,23.49-2.36-1.25c-3.48-1.84-7-3.62-10.57-5.28l-2.42-1.14,7.68-28.88-20.44-8-14,26.4-2.55-.81c-3.66-1.16-7.48-2.26-11.34-3.29l-2.58-.69,2.32-29.82-21.55-4.21-9,28.51-2.66-.34c-3.8-.48-7.76-.89-11.78-1.2l-2.67-.21-3-29.75-21.91-.28-3.86,29.63-2.67.14c-3.86.2-7.83.5-11.8.89l-2.67.26Z"/><path class="cls-2" d="M790.91,790.65c0,124.39-101.2,225.59-225.59,225.59S339.73,915,339.73,790.65s101.2-225.59,225.59-225.59S790.91,666.26,790.91,790.65Zm-6.42,0c0-120.85-98.32-219.17-219.17-219.17S346.15,669.8,346.15,790.65s98.32,219.17,219.17,219.17S784.5,911.5,784.5,790.65Z"/><path class="cls-2" d="M769.9,789.94c0,112.44-91.47,203.91-203.91,203.91S362.08,902.38,362.08,789.94,453.55,586,566,586,769.9,677.51,769.9,789.94Zm-6.42,0c0-108.9-88.59-197.49-197.49-197.49S368.5,681,368.5,789.94,457.09,987.43,566,987.43,763.48,898.84,763.48,789.94Z"/><path class="cls-2" d="M663,789.16A96.19,96.19,0,1,1,566.78,693,96.3,96.3,0,0,1,663,789.16Zm-6.42,0a89.77,89.77,0,1,0-89.77,89.77A89.87,89.87,0,0,0,656.55,789.16Z"/><path class="cls-2" d="M270.36,1204.29a87.13,87.13,0,1,1-87.13-87.13A87.23,87.23,0,0,1,270.36,1204.29Zm-6.42,0A80.71,80.71,0,1,0,183.24,1285,80.8,80.8,0,0,0,263.94,1204.29Z"/><path class="cls-2" d="M1105.51,1269.13a68.79,68.79,0,0,0-68.71,68.71h6.42a62.29,62.29,0,1,1,124.58,0h6.42A68.79,68.79,0,0,0,1105.51,1269.13Z"/><path class="cls-2" d="M412.7,1142c-2,0-4.08.1-6.1.29l-.62-6.39c2.22-.22,4.48-.32,6.72-.32Zm-12.13,1.18c-2,.39-4,.89-5.92,1.47l-1.86-6.15c2.14-.65,4.34-1.19,6.53-1.63Zm-11.66,3.52c-1.88.78-3.73,1.65-5.51,2.61l-3-5.66c2-1.05,4-2,6.09-2.88Zm-10.75,5.74c-1.69,1.13-3.34,2.35-4.9,3.63l-4.07-5c1.73-1.42,3.55-2.77,5.41-4Zm-9.43,7.73c-1.43,1.43-2.82,2.95-4.11,4.52l-4.95-4.09c1.43-1.73,2.95-3.4,4.53-5Zm-7.76,9.41c-1.13,1.68-2.19,3.44-3.15,5.22l-5.65-3c1.06-2,2.23-3.9,3.48-5.76Zm-5.78,10.73c-.78,1.87-1.48,3.8-2.07,5.74l-6.14-1.88c.66-2.14,1.42-4.27,2.28-6.33ZM351.63,1192c-.4,2-.7,4-.91,6l-6.39-.65c.23-2.23.56-4.47,1-6.65Zm-1.22,12.34c0,2,.09,3.94.27,5.89l-6.39.6c-.2-2.15-.3-4.33-.3-6.52v-.19h6.42Zm2.59,17.85-6.15,1.83c-.64-2.14-1.18-4.34-1.6-6.54l6.3-1.22C351.93,1218.2,352.42,1220.2,353,1222.14Zm4.62,11.27-5.67,3c-1-2-2-4-2.86-6.1l5.94-2.43C355.8,1229.76,356.67,1231.62,357.62,1233.41Zm6.73,10.16-5,4c-1.41-1.74-2.75-3.56-4-5.42l5.35-3.55C361.85,1240.34,363.07,1242,364.35,1243.58Zm8.58,8.66-4.1,4.94c-1.72-1.43-3.39-3-5-4.55l4.56-4.52C369.86,1249.56,371.37,1250.94,372.93,1252.24Zm10.09,6.83-3.06,5.64c-2-1.07-3.9-2.24-5.75-3.5l3.6-5.31C379.49,1257,381.24,1258.11,383,1259.07Zm11.23,4.73-1.9,6.13c-2.14-.66-4.27-1.44-6.33-2.31l2.49-5.91C390.39,1262.5,392.31,1263.21,394.25,1263.81Zm11.94,2.44-.66,6.38c-2.22-.23-4.46-.58-6.65-1l1.29-6.29C402.14,1265.72,404.17,1266,406.19,1266.25Zm6.51.34V1273h-.46l0-6.42Z"/><path class="cls-2" d="M600.37,472.83l-.67,6.38A310.78,310.78,0,0,1,878.44,789.16h6.42A318.13,318.13,0,0,0,600.37,472.83Z"/><path class="cls-2" d="M450.62,1078.46l-2.39,6a316.45,316.45,0,0,0,118.55,22.83,321,321,0,0,0,56.21-5l-1.13-6.32a314.59,314.59,0,0,1-55.09,4.85A310,310,0,0,1,450.62,1078.46Z"/><path class="cls-2" d="M652.51,702.58h0l2.27,2.27c80.32,80.32,183.77,125.76,256.41,149.72,78.82,26,139.4,33.07,140,33.13l1.12.13,135.37,135.37-384,384-2.27,2.27L666.82,1274.91l-.77-.77-.14-1.08c-.08-.61-8.51-62.2-35.27-141.5-24.68-73.13-70.41-176.63-148.18-254.4l-.85-.86a120.79,120.79,0,0,1-36.72-87.14A122,122,0,0,1,566.78,667.28,120.74,120.74,0,0,1,652.51,702.58Zm-15.79,426.94c25,74.1,34.13,133,35.39,141.61L801.39,1400.4,1178.6,1023.2,1049.35,893.94c-8.69-1.1-66.51-9-140-33.23-72.66-24-175.89-69.23-256.81-149.07l-.08.08-2.27-2.37A115.43,115.43,0,1,0,487,872.56l2.35,2.29-.06.06C566.53,953.28,612.07,1056.44,636.72,1129.51Z"/><path class="cls-2" d="M741,836.33c46.69,27.27,98.41,50.35,153.72,68.59a890.73,890.73,0,0,0,131,32.58l6.17,1L716.53,1253.87l-1.08-6a956.22,956.22,0,0,0-34.63-133.19c-18.65-55.29-41.29-106.13-67.27-151.12L611.5,960l4-1.13A177,177,0,0,0,736.33,838.21l1.14-4Zm-54.13,276.26a971.49,971.49,0,0,1,33.75,128.08l297.87-297.87A906.05,906.05,0,0,1,892.75,911c-54.35-17.92-105.28-40.49-151.42-67.1A183.51,183.51,0,0,1,621.13,963.83C646.48,1008.31,668.6,1058.33,686.91,1112.58Z"/><path class="cls-2" d="M1112.79,1023.18l-311.4,311.4-51.15-51.15,311.12-311.12ZM801.39,1325.5l302.3-302.29-42.3-41.84L759.32,1283.43Z"/><path class="cls-2" d="M114.16,690.28a53.67,53.67,0,0,0,0,107.34V791.2a47.25,47.25,0,1,1,47.25-47.25h6.42A53.73,53.73,0,0,0,114.16,690.28Z"/><path class="cls-2" d="M167.83,609.46a53.67,53.67,0,1,1-53.67-53.67A53.73,53.73,0,0,1,167.83,609.46Zm-6.42,0a47.25,47.25,0,1,0-47.25,47.25A47.3,47.3,0,0,0,161.41,609.46Z"/><path class="cls-2" d="M167.83,475a53.67,53.67,0,1,1-53.67-53.67A53.73,53.73,0,0,1,167.83,475Zm-6.42,0a47.25,47.25,0,1,0-47.25,47.25A47.3,47.3,0,0,0,161.41,475Z"/><polygon class="cls-2" points="225.12 792.37 202.13 792.37 202.13 769.38 225.12 792.37"/><path class="cls-2" d="M202.13,733V714.87L257.3,770q-.53,8.73-.59,17.59Z"/><path class="cls-2" d="M411.39,424.51h18.18L493,488q-7.22,1.77-14.3,3.87Z"/><path class="cls-2" d="M465.9,424.51h18.18l55.75,55.75q-8.23.71-16.33,1.85Z"/><polygon class="cls-2" points="202.13 760.3 202.13 742.12 252.37 792.37 234.2 792.37 202.13 760.3"/><polygon class="cls-2" points="520.4 424.51 538.58 424.51 569.99 455.92 569.99 474.1 520.4 424.51"/><polygon class="cls-2" points="547.66 424.51 565.83 424.51 569.99 428.67 569.99 446.84 547.66 424.51"/><path class="cls-2" d="M493.15,424.51h18.18l54.58,54.58q-8.87,0-17.62.56Z"/><path class="cls-2" d="M202.13,569.53V551.35l91.38,91.38q-3.2,5.94-6.15,12Z"/><path class="cls-2" d="M202.13,542.28V524.1L303.52,625.5q-3.51,5.62-6.78,11.4Z"/><path class="cls-2" d="M202.13,515V496.85L314.43,609.15q-3.8,5.32-7.37,10.8Z"/><path class="cls-2" d="M202.13,596.78V578.61l82.34,82.34q-2.87,6.29-5.45,12.73Z"/><path class="cls-2" d="M202.13,624V605.86l74.34,74.34q-2.51,6.66-4.71,13.46Z"/><path class="cls-2" d="M202.13,678.54V660.37L264,722.23q-1.67,7.54-3,15.21Z"/><path class="cls-2" d="M384.14,424.51h18.18L471.78,494q-6.81,2.2-13.48,4.69Z"/><path class="cls-2" d="M202.13,651.29V633.11l67.48,67.48q-2.11,7.07-3.89,14.28Z"/><path class="cls-2" d="M202.13,487.77V469.6L326.24,593.71q-4.09,5-8,10.2Z"/><path class="cls-2" d="M202.13,705.79V687.62l57.68,57.68q-1.15,8.09-1.88,16.3Z"/><path class="cls-2" d="M329.63,424.51h18.18l85,85q-6.1,2.93-12,6.13Z"/><path class="cls-2" d="M302.38,424.51h18.18l94.38,94.38q-5.78,3.26-11.41,6.76Z"/><path class="cls-2" d="M202.13,460.52V442.34L338.89,579.11q-4.36,4.73-8.53,9.64Z"/><path class="cls-2" d="M356.89,424.51h18.18l76.7,76.7q-6.44,2.58-12.74,5.43Z"/><path class="cls-2" d="M275.13,424.51H293.3L398,529.18q-5.48,3.57-10.82,7.36Z"/><path class="cls-2" d="M202.13,433.26v-8.76h9.42L352.38,565.35q-4.64,4.45-9.09,9.08Z"/><path class="cls-2" d="M247.87,424.51H266L381.91,540.36q-5.2,3.87-10.21,8Z"/><path class="cls-2" d="M220.62,424.51H238.8L366.73,552.44q-4.92,4.16-9.66,8.52Z"/><path class="cls-2" d="M438.64,424.51h18.18l58.81,58.81q-7.68,1.28-15.24,2.94Z"/><rect class="cls-2" x="114.16" y="791.2" width="142.63" height="6.42"/><rect class="cls-2" x="563.57" y="352.91" width="6.42" height="126.16"/><path class="cls-2" d="M228.54,843.89a17,17,0,0,1-14.08-26.56L238.09,841A16.93,16.93,0,0,1,228.54,843.89Z"/><path class="cls-2" d="M219,812.79a17,17,0,0,1,23.63,23.63Z"/><path class="cls-2" d="M1253.09,1304.32a17,17,0,0,1-14.08-26.56l23.63,23.63A16.93,16.93,0,0,1,1253.09,1304.32Z"/><path class="cls-2" d="M1243.55,1273.23a17,17,0,0,1,23.63,23.63Z"/><path class="cls-2" d="M531.47,405.81a17,17,0,0,1-14.08-26.56L541,402.88A16.93,16.93,0,0,1,531.47,405.81Z"/><path class="cls-2" d="M521.93,374.71a17,17,0,0,1,23.63,23.63Z"/><path class="cls-2" d="M136.77,1221.3a17,17,0,0,1-14.08-26.56l23.63,23.63A16.93,16.93,0,0,1,136.77,1221.3Z"/><path class="cls-2" d="M127.22,1190.21a17,17,0,0,1,23.63,23.63Z"/><path class="cls-2" d="M1022,1304.32a17,17,0,0,1-14.08-26.56l23.63,23.63A16.93,16.93,0,0,1,1022,1304.32Z"/><path class="cls-2" d="M1012.45,1273.23a17,17,0,0,1,23.63,23.63Z"/><path class="cls-2" d="M78.53,1068.94a17,17,0,0,1-14.08-26.56L88.07,1066A16.93,16.93,0,0,1,78.53,1068.94Z"/><path class="cls-2" d="M69,1037.85a17,17,0,0,1,23.63,23.63Z"/><path class="cls-2" d="M166.18,767.51a1.61,1.61,0,0,1-3.12,0,100.89,100.89,0,0,0-8.69-23.56,1.6,1.6,0,0,1,1.83-2.3,32.36,32.36,0,0,0,16.83,0,1.6,1.6,0,0,1,1.83,2.3A100.89,100.89,0,0,0,166.18,767.51Z"/><path class="cls-2" d="M883.21,813.59a1.61,1.61,0,0,1-3.12,0A100.89,100.89,0,0,0,871.4,790a1.6,1.6,0,0,1,1.83-2.3,32.36,32.36,0,0,0,16.83,0,1.6,1.6,0,0,1,1.83,2.3A100.89,100.89,0,0,0,883.21,813.59Z"/><path class="cls-2" d="M626.81,373.12a1.61,1.61,0,0,1,2.75-1.48,100.88,100.88,0,0,0,18.83,16.62,1.6,1.6,0,0,1-.52,2.9,32.36,32.36,0,0,0-14.81,8,1.6,1.6,0,0,1-2.71-1.16A100.89,100.89,0,0,0,626.81,373.12Z"/><path class="cls-2" d="M183.06,1086.12a1.61,1.61,0,0,1,0,3.12,100.89,100.89,0,0,0-23.56,8.69,1.6,1.6,0,0,1-2.3-1.83,32.36,32.36,0,0,0,0-16.83,1.6,1.6,0,0,1,2.3-1.83A100.89,100.89,0,0,0,183.06,1086.12Z"/><path class="cls-2" d="M183.06,1014.61a1.61,1.61,0,0,1,0,3.12,100.89,100.89,0,0,0-23.56,8.69,1.6,1.6,0,0,1-2.3-1.83,32.36,32.36,0,0,0,0-16.83,1.6,1.6,0,0,1,2.3-1.83A100.89,100.89,0,0,0,183.06,1014.61Z"/><path class="cls-2" d="M1088,873.83a1.61,1.61,0,0,1-3.12,0,100.89,100.89,0,0,0-8.69-23.56A1.6,1.6,0,0,1,1078,848a32.37,32.37,0,0,0,16.83,0,1.6,1.6,0,0,1,1.83,2.3A100.88,100.88,0,0,0,1088,873.83Z"/><path class="cls-2" d="M1253.07,706.83a1.61,1.61,0,0,1,0,3.12,100.88,100.88,0,0,0-23.56,8.69,1.6,1.6,0,0,1-2.3-1.83,32.36,32.36,0,0,0,0-16.83,1.6,1.6,0,0,1,2.3-1.83A100.88,100.88,0,0,0,1253.07,706.83Z"/><path class="cls-2" d="M1205.16,994.85a1.61,1.61,0,0,1,0-3.12,100.88,100.88,0,0,0,23.56-8.69,1.6,1.6,0,0,1,2.3,1.83,32.36,32.36,0,0,0,0,16.83,1.6,1.6,0,0,1-2.3,1.83A100.88,100.88,0,0,0,1205.16,994.85Z"/><path class="cls-2" d="M426.65,1073.19a1.61,1.61,0,0,1,1.24-2.87,100.89,100.89,0,0,0,25.08,1.36,1.61,1.61,0,0,1,1.39,2.6,32.36,32.36,0,0,0-6.67,15.45,1.6,1.6,0,0,1-2.84.77A100.88,100.88,0,0,0,426.65,1073.19Z"/><polygon class="cls-2" points="631.16 1229.68 631.16 1240.35 620.49 1229.68 631.16 1229.68"/><polygon class="cls-2" points="434.11 1315.83 412.7 1294.42 412.7 1276.25 452.28 1315.83 434.11 1315.83"/><polygon class="cls-2" points="502.4 1229.68 588.54 1315.83 570.37 1315.83 484.22 1229.68 502.4 1229.68"/><polygon class="cls-2" points="447.89 1229.68 534.04 1315.83 515.86 1315.83 429.72 1229.68 447.89 1229.68"/><polygon class="cls-2" points="556.9 1229.68 631.16 1303.94 631.16 1315.83 624.88 1315.83 538.73 1229.68 556.9 1229.68"/><polygon class="cls-2" points="611.41 1229.68 631.16 1249.43 631.16 1267.61 593.23 1229.68 611.41 1229.68"/><polygon class="cls-2" points="412.7 1315.83 412.7 1303.5 425.03 1315.83 412.7 1315.83"/><polygon class="cls-2" points="488.61 1315.83 412.7 1239.92 412.7 1229.68 420.64 1229.68 506.79 1315.83 488.61 1315.83"/><polygon class="cls-2" points="475.14 1229.68 561.29 1315.83 543.12 1315.83 456.97 1229.68 475.14 1229.68"/><polygon class="cls-2" points="584.16 1229.68 631.16 1276.68 631.16 1294.86 565.98 1229.68 584.16 1229.68"/><polygon class="cls-2" points="461.36 1315.83 412.7 1267.17 412.7 1248.99 479.53 1315.83 461.36 1315.83"/><polygon class="cls-2" points="529.65 1229.68 615.8 1315.83 597.62 1315.83 511.48 1229.68 529.65 1229.68"/><path class="cls-2" d="M1268.35,732.89l-1.81,31.52c1,.45,2,.92,3.06,1.41L1292.26,744l29.67,24.56-17.23,26.34q1,1.37,2,2.79l30.58-7.76,13.43,36.24-28.16,14.1c.13,1.17.25,2.3.33,3.4l30.24,8.65-6.29,38.06-31.52-1.81q-.67,1.53-1.41,3.06l21.85,22.67-24.57,29.67-26.34-17.23q-1.38,1-2.79,2l7.76,30.58-36.24,13.43-14.1-28.16q-1.25.14-2.5.25l-9.63,30.31-37.9-6.27.91-31.88q-1.1-.5-2.25-1.05l-22.66,21.85-29.67-24.56L1153,906.81q-1-1.37-2-2.78l-30.58,7.76L1107,875.55l28.16-14.1c-.13-1.16-.24-2.29-.33-3.4l-30.23-8.65,6.29-38.06,31.52,1.81c.45-1,.92-2,1.41-3.06L1122,787.43l24.56-29.67L1172.87,775q1.37-1,2.79-2l-7.76-30.57L1204.14,729l14.1,28.16c1.16-.13,2.29-.24,3.4-.33l8.65-30.23ZM1201,737l-25.43,9.42,7.46,29.41-1.93,1.25c-2.09,1.35-4.14,2.81-6.1,4.34l-1.81,1.41-25.35-16.59-17.24,20.83,21,21.81-1,2c-1.14,2.24-2.18,4.51-3.1,6.75l-.87,2.13-30.31-1.74-4.42,26.72,29.11,8.33.12,2.29c.12,2.35.36,4.78.72,7.45l.31,2.28L1115,878.71l9.42,25.43,29.41-7.46,1.25,1.93c1.36,2.09,2.82,4.14,4.34,6.1l1.41,1.81-16.59,25.35,20.83,17.25,21.81-21,2,1c2.12,1.08,4,2,5.9,2.76l2,.85-.88,30.65,26.89,4.45,9.27-29.18,2.19-.14c2.14-.13,4.34-.35,6.52-.65l2.28-.31,13.57,27.1,25.43-9.42-7.46-29.41,1.93-1.25c2.08-1.35,4.13-2.81,6.1-4.34l1.81-1.41,25.35,16.59,17.25-20.83-21-21.81,1-2c1.14-2.24,2.18-4.51,3.1-6.75l.87-2.12,30.31,1.74,4.42-26.72-29.11-8.33-.12-2.29c-.12-2.33-.36-4.76-.72-7.44l-.31-2.28,27.1-13.57-9.42-25.43L1303.83,805l-1.25-1.93c-1.35-2.08-2.81-4.13-4.34-6.1l-1.41-1.81,16.58-25.35-20.83-17.24-21.81,21-2-1c-2.24-1.14-4.51-2.19-6.75-3.1l-2.13-.87,1.74-30.31-26.72-4.42L1226.56,763l-2.29.12c-2.35.12-4.78.36-7.45.72l-2.28.31Z"/><path class="cls-2" d="M1374.51,850.84h-6.42c0,76.78-62.46,139.24-139.24,139.24v6.42C1309.17,996.5,1374.51,931.16,1374.51,850.84Z"/><path class="cls-2" d="M1228.85,705.18c-80.32,0-145.66,65.34-145.66,145.66h6.42c0-76.78,62.46-139.24,139.24-139.24Z"/><path class="cls-2" d="M1290.66,850.84A61.81,61.81,0,1,1,1228.85,789,61.88,61.88,0,0,1,1290.66,850.84Zm-6.42,0a55.39,55.39,0,1,0-55.39,55.39A55.45,55.45,0,0,0,1284.24,850.84Z"/><path class="cls-2" d="M1209.93,1045.45l-4.54,4.54-4.54-4.54,4.54-4.54Zm9.08,9.08-4.54,4.54-4.54-4.54,4.54-4.54Zm9.08,9.08-4.54,4.54-4.54-4.54,4.54-4.54Zm9.08,9.08-4.54,4.54-4.54-4.54,4.54-4.54Zm9.08,9.08-4.54,4.54-4.54-4.54,4.54-4.54Zm9.08,9.08-4.54,4.54-4.54-4.54,4.54-4.54Zm9.08,9.08-4.54,4.54-4.54-4.54,4.54-4.54Zm9.08,9.08-4.54,4.54-4.54-4.54,4.54-4.54Zm9.08,9.08-4.54,4.54-4.54-4.54,4.54-4.54Zm9.08,9.08-4.54,4.54-4.54-4.54,4.54-4.54Zm9.08,9.08-4.54,4.54-4.54-4.54,4.54-4.54Zm9.08,9.08-4.54,4.54-4.54-4.54,4.54-4.54Zm7.92,7.92-4.54,4.54-3.38-3.38,4.54-4.54Z"/><rect class="cls-2" x="110.95" y="599.93" width="6.42" height="19.05"/><rect class="cls-2" x="104.63" y="606.25" width="19.05" height="6.42"/><rect class="cls-2" x="149.25" y="966.33" width="6.42" height="24.32"/><rect class="cls-2" x="140.3" y="975.28" width="24.32" height="6.42"/><rect class="cls-2" x="110.95" y="465.44" width="6.42" height="19.05"/><rect class="cls-2" x="104.63" y="471.76" width="19.05" height="6.42"/><path class="cls-2" d="M1056.71,616.89a61.81,61.81,0,1,1-61.81-61.81A61.88,61.88,0,0,1,1056.71,616.89Zm-6.42,0a55.39,55.39,0,1,0-55.39,55.39A55.46,55.46,0,0,0,1050.29,616.89Z"/><path class="cls-2" d="M943.46,981a61.81,61.81,0,1,1-61.81-61.81A61.88,61.88,0,0,1,943.46,981ZM937,981a55.39,55.39,0,1,0-55.39,55.39A55.46,55.46,0,0,0,937,981Z"/><rect class="cls-2" x="991.69" y="605.83" width="6.42" height="22.13"/><rect class="cls-2" x="983.84" y="613.68" width="22.13" height="6.42"/><rect class="cls-2" x="878.44" y="969.92" width="6.42" height="22.13"/><rect class="cls-2" x="870.59" y="977.78" width="22.13" height="6.42"/><rect class="cls-2" x="110.95" y="650.21" width="6.42" height="28.49"/><rect class="cls-2" x="110.95" y="780.16" width="6.42" height="59.53"/><path class="cls-2" d="M63.7,612.67H57.28v-6.42H63.7Zm-12.84,0H44.44v-6.42h6.42Zm-12.84,0H31.6v-6.42H38Zm-12.84,0H18.76v-6.42h6.42Zm-12.84,0H5.93v-6.42h6.42Z"/><rect class="cls-2" x="63.7" y="606.25" width="27.24" height="6.42"/><path class="cls-2" d="M205.34,816.28h-6.42v-6.42h6.42Zm0,12.84h-6.42V822.7h6.42Zm0,12.84h-6.42v-6.42h6.42Zm0,12.84h-6.42v-6.42h6.42Zm0,12.84h-6.42v-6.42h6.42Zm0,12.84h-6.42v-6.42h6.42Zm0,12.84h-6.42V886.9h6.42Zm0,12.84h-6.42v-6.42h6.42Zm0,12.84h-6.42v-6.42h6.42Zm0,12.84h-6.42v-6.42h6.42Zm0,12.84h-6.42v-6.42h6.42Zm0,12.84h-6.42v-6.42h6.42Zm0,12.84h-6.42v-6.42h6.42Zm0,12.84h-6.42v-6.42h6.42Zm0,12.84h-6.42v-6.42h6.42Zm0,12.84h-6.42v-6.42h6.42Zm0,12.84h-6.42v-6.42h6.42Zm0,12.84h-6.42v-6.42h6.42Zm0,12.84h-6.42V1041h6.42Zm0,12.84h-6.42v-6.42h6.42Zm0,12.84h-6.42v-6.42h6.42Zm0,12.84h-6.42v-6.42h6.42Zm0,12.84h-6.42v-6.42h6.42Zm0,12.84h-6.42v-6.42h6.42Zm0,12.84h-6.42V1118h6.42Zm0,12.84h-6.42v-6.42h6.42Zm0,12.84h-6.42v-6.42h6.42Zm0,12.84h-6.42v-6.42h6.42Zm0,12.84h-6.42v-6.42h6.42Zm0,12.84h-6.42v-6.42h6.42Zm0,12.84h-6.42V1195h6.42Zm0,12.84h-6.42v-6.42h6.42Zm0,12.84h-6.42v-6.42h6.42Zm0,12.84h-6.42v-6.42h6.42Zm0,12.84h-6.42v-6.42h6.42Zm0,12.84h-6.42v-6.42h6.42Zm0,12.84h-6.42v-6.42h6.42Zm0,12.84h-6.42v-6.42h6.42Zm0,12.84h-6.42v-6.42h6.42Zm0,10h-6.42v-3.57h6.42Z"/><rect class="cls-2" y="421.3" width="63.7" height="6.42"/><rect class="cls-2" x="202.13" y="352.91" width="6.42" height="61.2"/><rect class="cls-2" y="835.57" width="202.13" height="6.42"/><polygon class="cls-2" points="1283.89 617.12 1135.49 468.72 1135.49 450.54 1283.89 598.94 1283.89 617.12"/><polygon class="cls-2" points="1174.12 352.91 1283.89 462.68 1283.89 480.85 1155.95 352.91 1174.12 352.91"/><polygon class="cls-2" points="1255.88 352.91 1283.89 380.92 1283.89 399.09 1237.71 352.91 1255.88 352.91"/><path class="cls-2" d="M1147.32,698.57l-11.82-11.82V668.57l24.05,24.05Q1153.3,695.36,1147.32,698.57Z"/><polygon class="cls-2" points="1228.63 352.91 1283.89 408.17 1283.89 426.35 1210.45 352.91 1228.63 352.91"/><polygon class="cls-2" points="1283.13 352.91 1283.89 353.67 1283.89 371.84 1264.96 352.91 1283.13 352.91"/><polygon class="cls-2" points="1283.89 562.61 1135.49 414.21 1135.49 396.04 1283.89 544.43 1283.89 562.61"/><polygon class="cls-2" points="1283.89 589.86 1135.49 441.47 1135.49 423.29 1283.89 571.69 1283.89 589.86"/><polygon class="cls-2" points="1283.89 535.36 1135.49 386.96 1135.49 368.79 1283.89 517.18 1283.89 535.36"/><path class="cls-2" d="M1135.49,705.5v-9.68l6,6C1139.47,703,1137.46,704.23,1135.49,705.5Z"/><polygon class="cls-2" points="1283.89 508.11 1135.49 359.71 1135.49 352.91 1146.87 352.91 1283.89 489.93 1283.89 508.11"/><polygon class="cls-2" points="1201.38 352.91 1283.89 435.42 1283.89 453.6 1183.2 352.91 1201.38 352.91"/><path class="cls-2" d="M1186.6,683.35l-51.11-51.11V614.06l66.21,66.21Q1194,681.48,1186.6,683.35Z"/><path class="cls-2" d="M1283.89,687.08c-5.34-1.79-10.81-3.3-16.37-4.57l-132-132V532.3l148.4,148.4Z"/><path class="cls-2" d="M1209.68,679.17,1135.49,605V586.81l91.35,91.35C1221.05,678.22,1215.32,678.55,1209.68,679.17Z"/><path class="cls-2" d="M1236,678.27,1135.49,577.73V559.56L1256.23,680.3A173.28,173.28,0,0,0,1236,678.27Z"/><polygon class="cls-2" points="1283.89 671.62 1135.49 523.23 1135.49 505.05 1283.89 653.45 1283.89 671.62"/><polygon class="cls-2" points="1283.89 644.37 1135.49 495.97 1135.49 477.8 1283.89 626.19 1283.89 644.37"/><path class="cls-2" d="M1166,690l-30.47-30.47V641.31l44,44C1174.88,686.65,1170.38,688.23,1166,690Z"/><rect class="cls-2" x="1118.66" y="346.49" width="6.42" height="377.32"/><rect class="cls-2" x="1095.04" y="717.39" width="26.83" height="6.42"/><rect class="cls-2" x="1106.27" y="662.37" width="15.59" height="6.42"/><rect class="cls-2" x="1106.27" y="607.35" width="15.59" height="6.42"/><rect class="cls-2" x="1095.04" y="552.33" width="26.83" height="6.42"/><rect class="cls-2" x="1106.27" y="497.31" width="15.59" height="6.42"/><rect class="cls-2" x="1106.27" y="442.29" width="15.59" height="6.42"/><rect class="cls-2" x="1095.04" y="387.27" width="26.83" height="6.42"/><rect class="cls-2" x="1161.52" y="1185.13" width="6.42" height="11.57" transform="translate(-500.96 1172.4) rotate(-45)"/><rect class="cls-2" x="1180.14" y="1166.23" width="6.42" height="12.15" transform="translate(-482.35 1180.14) rotate(-45)"/><rect class="cls-2" x="1196.85" y="1141.84" width="6.42" height="19.91" transform="translate(-462.95 1185.92) rotate(-45)"/><rect class="cls-2" x="1235.97" y="1110.68" width="6.42" height="11.57" transform="translate(-426.51 1203.24) rotate(-45)"/><path class="cls-2" d="M1048,563.75,1282,797.69A75.16,75.16,0,1,1,1175.7,904L941.76,670A75.16,75.16,0,1,1,1048,563.75Zm229.41,335.7a68.74,68.74,0,0,0,0-97.21L1043.51,568.29a68.74,68.74,0,1,0-97.21,97.21l233.95,233.95a68.74,68.74,0,0,0,97.21,0Z"/><rect class="cls-2" x="991.69" y="650.21" width="6.42" height="230.67"/><path class="cls-2" d="M923,620.19h-6.42v-6.42H923Zm-12.84,0h-6.42v-6.42h6.42Zm-12.84,0h-6.42v-6.42h6.42Zm-12.84,0H878v-6.42h6.42Zm-12.84,0h-6.42v-6.42h6.42Zm-12.84,0h-6.42v-6.42h6.42Zm-12.84,0H839.5v-6.42h6.42Zm-12.84,0h-2.69v-6.42h2.69Z"/><path class="cls-2" d="M277.79,1080.86l-49.93-49.93a35.94,35.94,0,0,1,9.3-8.88l49.51,49.51A35.94,35.94,0,0,1,277.79,1080.86Z"/><path class="cls-2" d="M292.54,1051.93a35.64,35.64,0,0,1-2.73,13.71l-46.74-46.74a35.64,35.64,0,0,1,13.71-2.73q.9,0,1.79,0l33.92,33.92Q292.54,1051,292.54,1051.93Z"/><path class="cls-2" d="M289.92,1038.49l-19.69-19.69A35.86,35.86,0,0,1,289.92,1038.49Z"/><path class="cls-2" d="M257.35,1087.67l-36.3-36.3a35.59,35.59,0,0,1,3.42-14.75l47.63,47.63A35.6,35.6,0,0,1,257.35,1087.67Z"/><path class="cls-2" d="M222.43,1061.83l24.45,24.45A35.81,35.81,0,0,1,222.43,1061.83Z"/><path class="cls-2" d="M381.91,1051.93a39,39,0,1,1-39-39A39,39,0,0,1,381.91,1051.93Zm-6.42,0a32.55,32.55,0,1,0-32.55,32.55A32.58,32.58,0,0,0,375.49,1051.93Z"/><path class="cls-2" d="M295.75,1051.93a39,39,0,1,1-39-39A39,39,0,0,1,295.75,1051.93Zm-6.42,0a32.55,32.55,0,1,0-32.55,32.55A32.58,32.58,0,0,0,289.33,1051.93Z"/><path class="cls-2" d="M853.85,514.21a257.41,257.41,0,0,1-101-20.5c.7-.44,1.41-.88,2.08-1.37L705,442.4a35.91,35.91,0,0,1,3.53-4.11A232,232,0,0,1,621.5,257.11C621.5,129,725.73,24.75,853.85,24.75S1086.2,129,1086.2,257.11,982,489.46,853.85,489.46a231.15,231.15,0,0,1-85.48-16.29,35.66,35.66,0,0,1-1.37,4l-46.74-46.74A35.64,35.64,0,0,1,734,427.65q.9,0,1.79,0l33.92,33.92q0,.89,0,1.79c0,1.12-.06,2.22-.16,3.31A224.72,224.72,0,0,0,853.85,483c124.58,0,225.93-101.35,225.93-225.93S978.42,31.17,853.85,31.17,627.91,132.53,627.91,257.11a225.63,225.63,0,0,0,85.65,177c.26-.18.5-.38.76-.55L763.85,483a35.88,35.88,0,0,1-5.15,6.13,251.09,251.09,0,0,0,95.15,18.62c138.23,0,250.69-112.46,250.69-250.69S992.07,6.42,853.85,6.42,603.16,118.88,603.16,257.11h-6.42C596.74,115.34,712.08,0,853.85,0S1111,115.34,1111,257.11,995.61,514.21,853.85,514.21Z"/><path class="cls-2" d="M699.61,473.31l24.45,24.45A35.81,35.81,0,0,1,699.61,473.31Z"/><path class="cls-2" d="M749.28,495.72a35.6,35.6,0,0,1-14.75,3.42l-36.3-36.3c0-.3,0-.6,0-.91a258.5,258.5,0,0,1-61.93-67.69l5.43-3.43a252.23,252.23,0,0,0,57.55,63.83,35.41,35.41,0,0,1,2.34-6.55Z"/><path class="cls-2" d="M767.1,450l-19.69-19.69A35.86,35.86,0,0,1,767.1,450Z"/><path class="cls-2" d="M772.93,463.41a39,39,0,1,1-39-39A39,39,0,0,1,772.93,463.41Zm-6.42,0A32.55,32.55,0,1,0,734,496,32.58,32.58,0,0,0,766.51,463.41Z"/><path class="cls-2" d="M1092.47,499.16a39,39,0,1,1-39-39A39,39,0,0,1,1092.47,499.16Zm-6.42,0a32.55,32.55,0,1,0-32.55,32.55A32.58,32.58,0,0,0,1086,499.16Z"/><path class="cls-2" d="M175.05,1013H78.65a39,39,0,0,0,0,77.93h96.4v-6.42H78.65a32.55,32.55,0,0,1,0-65.09h96.4Z"/><path class="cls-2" d="M117.37,1022.59h-6.42v-6.42h6.42Zm0,12.84h-6.42V1029h6.42Zm0,12.84h-6.42v-6.42h6.42Zm0,12.84h-6.42v-6.42h6.42Zm0,12.84h-6.42v-6.42h6.42Zm0,12.68h-6.42v-6.26h6.42Z"/><rect class="cls-2" y="1084.48" width="99.46" height="6.42"/><rect class="cls-2" y="1012.96" width="99.46" height="6.42"/><path class="cls-2" d="M300.11,1120.06c32,8.06,62.22,15.67,112.59,15.67h3.21v137.11H412.7c-50.15,0-80.48,7.61-112.6,15.67-31.59,7.93-64.25,16.12-116.86,16.12a100.35,100.35,0,0,1,0-200.71C236.09,1103.94,268.63,1112.13,300.11,1120.06Zm-1.58,162.23c30.42-7.64,61.86-15.53,111-15.86V1142.14c-49.3-.33-80.63-8.22-110.95-15.86-31.1-7.83-63.25-15.93-115.31-15.93a93.93,93.93,0,0,0,0,187.87C235,1298.22,267.32,1290.13,298.53,1282.29Z"/><path class="cls-2" d="M415.91,1023.95h-6.42v-3.69h6.42Zm0,12.84h-6.42v-6.42h6.42Zm0,12.84h-6.42v-6.42h6.42Zm0,12.84h-6.42V1056h6.42Zm0,12.84h-6.42v-6.42h6.42Zm0,12.84h-6.42v-6.42h6.42Zm0,12.84h-6.42v-6.42h6.42Zm0,12.84h-6.42v-6.42h6.42Zm0,12.84h-6.42v-6.42h6.42Z"/><rect class="cls-2" x="409.49" y="1269.64" width="6.42" height="46.19"/><rect class="cls-2" y="1201.08" width="86.09" height="6.42"/><path class="cls-2" d="M998.11,360.66h-6.42v-6.42h6.42Zm0,12.84h-6.42v-6.42h6.42Zm0,12.84h-6.42v-6.42h6.42Zm0,12.84h-6.42v-6.42h6.42Zm0,12.84h-6.42V405.6h6.42Zm0,12.84h-6.42v-6.42h6.42Zm0,12.84h-6.42v-6.42h6.42Z"/><rect class="cls-2" x="991.69" y="437.69" width="6.42" height="151.55"/><path class="cls-2" d="M797.63,392.53h-46v-46h46ZM758,386.11h33.2v-33.2H758Z"/><path class="cls-2" d="M837.25,392.53h-46v-46h46Zm-39.62-6.42h33.2v-33.2h-33.2Z"/><path class="cls-2" d="M876.86,392.53h-46v-46h46Zm-39.62-6.42h33.2v-33.2h-33.2Z"/><path class="cls-2" d="M916.48,392.53h-46v-46h46Zm-39.62-6.42h33.2v-33.2h-33.2Z"/><path class="cls-2" d="M956.1,392.53h-46v-46h46Zm-39.62-6.42h33.2v-33.2h-33.2Z"/><rect class="cls-2" x="791.21" y="389.32" width="6.42" height="4.01"/><path class="cls-2" d="M797.63,408.05h-6.42v-7.36h6.42Zm0,14.72h-6.42v-7.36h6.42Zm0,14.72h-6.42v-7.36h6.42Zm0,14.72h-6.42v-7.36h6.42Zm0,14.72h-6.42v-7.36h6.42Z"/><rect class="cls-2" x="791.21" y="474.3" width="6.42" height="4.01"/><rect class="cls-2" x="830.83" y="389.32" width="6.42" height="96.93"/><rect class="cls-2" x="870.44" y="389.32" width="6.42" height="96.93"/><rect class="cls-2" x="910.06" y="474.3" width="6.42" height="4.01"/><path class="cls-2" d="M916.48,408.05h-6.42v-7.36h6.42Zm0,14.72h-6.42v-7.36h6.42Zm0,14.72h-6.42v-7.36h6.42Zm0,14.72h-6.42v-7.36h6.42Zm0,14.72h-6.42v-7.36h6.42Z"/><rect class="cls-2" x="910.06" y="389.32" width="6.42" height="4.01"/><rect class="cls-2" x="663.92" y="386.11" width="70.04" height="6.42"/><rect class="cls-2" x="952.89" y="386.11" width="88.12" height="6.42"/><rect class="cls-2" x="608.31" y="1303.21" width="65.16" height="6.42" transform="translate(-736.07 835.82) rotate(-45)"/><rect class="cls-2" x="871.19" y="1198.53" width="388.88" height="6.42" transform="translate(-537.64 1105.5) rotate(-45)"/><rect class="cls-2" x="1162.81" y="1151.15" width="6.42" height="240.51" transform="translate(-557.5 1196.92) rotate(-45)"/><path class="cls-2" d="M1069.68,1145.73l-4.54,4.54-4.54-4.54,4.54-4.54Zm9.08,9.08-4.54,4.54-4.54-4.54,4.54-4.54Zm9.08,9.08-4.54,4.54-4.54-4.54,4.54-4.54Zm9.08,9.08-4.54,4.54-4.54-4.54,4.54-4.54ZM1106,1182l-4.54,4.54-4.54-4.54,4.54-4.54Zm9.08,9.08-4.54,4.54-4.54-4.54,4.54-4.54Zm9.08,9.08-4.54,4.54-4.54-4.54,4.54-4.54Zm9.08,9.08-4.54,4.54-4.54-4.54,4.54-4.54Zm9.08,9.08-4.54,4.54-4.54-4.54,4.54-4.54Zm9.08,9.08-4.54,4.54-4.54-4.54,4.54-4.54Zm9.08,9.08-4.54,4.54-4.54-4.54,4.54-4.54Zm9.08,9.08-4.54,4.54-4.54-4.54,4.54-4.54Zm9.08,9.08-4.54,4.54-4.54-4.54,4.54-4.54Zm9.08,9.08-4.54,4.54-4.54-4.54,4.54-4.54Zm9.08,9.08-4.54,4.54-4.54-4.54,4.54-4.54Zm9.08,9.08-4.54,4.54-4.54-4.54,4.54-4.54Zm9.08,9.08-4.54,4.54-4.54-4.54,4.54-4.54Zm9.08,9.08-4.54,4.54-4.54-4.54,4.54-4.54Zm9.08,9.08-4.54,4.54-4.54-4.54,4.54-4.54Zm9.08,9.08-4.54,4.54-4.54-4.54,4.54-4.54Zm9.08,9.08-4.54,4.54-4.54-4.54,4.54-4.54Zm9.08,9.08-4.54,4.54-4.54-4.54,4.54-4.54Z"/><rect class="cls-2" x="110.95" y="850.78" width="6.42" height="151.7"/><rect class="cls-2" x="149.25" y="862.62" width="6.42" height="24.32"/><rect class="cls-2" x="140.3" y="871.57" width="24.32" height="6.42"/><rect class="cls-2" x="58.3" y="1223.38" width="6.42" height="24.32"/><rect class="cls-2" x="49.36" y="1232.32" width="24.32" height="6.42"/><rect class="cls-2" x="1017.17" y="846.07" width="6.42" height="24.32"/><rect class="cls-2" x="1008.23" y="855.02" width="24.32" height="6.42"/><rect class="cls-2" x="242.34" y="389.29" width="6.42" height="24.31"/><rect class="cls-2" x="233.4" y="398.23" width="24.32" height="6.42"/><rect class="cls-2" x="1017.17" y="691.74" width="6.42" height="24.32"/><rect class="cls-2" x="1008.23" y="700.69" width="24.32" height="6.42"/><rect class="cls-2" x="110.95" y="352.91" width="6.42" height="85.37"/><path class="cls-2" d="M196.71,478.18H190.3v-6.42h6.42Zm-12.84,0h-6.42v-6.42h6.42Zm-12.84,0h-6.42v-6.42H171Z"/><rect class="cls-2" x="136.77" y="471.76" width="27.85" height="6.42"/><rect class="cls-2" x="253.58" y="853.43" width="6.42" height="162.74"/><rect class="cls-2" x="224.81" y="969.9" width="91.15" height="6.42"/><rect class="cls-2" y="819.88" width="114.16" height="6.42"/><polygon class="cls-2" points="632.36 1123.45 528.89 1123.45 528.89 1197.13 652.58 1197.13 652.58 1190.71 535.31 1190.71 535.31 1129.87 632.36 1129.87 632.36 1123.45"/><path class="cls-2" d="M688.16,1129.87h-6.42v-6.42h6.42Zm-12.84,0H668.9v-6.42h6.42Zm-12.84,0h-6.42v-6.42h6.42Zm-12.84,0h-6.42v-6.42h6.42Zm-12.84,0h-4.45v-6.42h4.45Z"/><polygon class="cls-2" points="735.75 1123.45 688.16 1123.45 688.16 1129.87 729.33 1129.87 729.33 1190.71 707.21 1190.71 707.21 1197.13 735.75 1197.13 735.75 1123.45"/><path class="cls-2" d="M707.21,1197.13h-3.27v-6.42h3.27Zm-9.69,0H691.1v-6.42h6.42Zm-12.84,0h-6.42v-6.42h6.42Zm-12.84,0h-6.42v-6.42h6.42Zm-12.84,0h-6.42v-6.42H659Z"/><rect class="cls-2" x="478.2" y="1190.71" width="40.52" height="6.42"/><rect class="cls-2" x="528.89" y="1211.8" width="6.42" height="17.88"/><rect class="cls-2" x="729.33" y="1025.7" width="6.42" height="81.45"/><rect class="cls-2" x="1235.81" y="1065.11" width="6.42" height="177.49" transform="translate(-453 1214.1) rotate(-45)"/><path class="cls-2" d="M1108.71,1278.76h-6.42v-6.42h6.42Zm0,12.84h-6.42v-6.42h6.42Zm0,12.84h-6.42V1298h6.42Zm0,12.84h-6.42v-6.42h6.42Zm0,7.63h-6.42v-1.21h6.42Z"/><rect class="cls-2" x="1102.3" y="1210.89" width="6.42" height="61.45"/><rect class="cls-2" x="202.13" y="424.44" width="430.23" height="6.42"/><rect class="cls-2" x="218.61" y="352.91" width="6.42" height="61.2"/><rect class="cls-2" x="730.76" y="511" width="6.42" height="68.05"/><path class="cls-2" d="M688.16,466.62h-8V460.2h8Zm-16,0h-8V460.2h8Zm-16,0h-8V460.2h8Zm-16,0h-8V460.2h8Zm-16,0h-8V460.2h8Zm-16,0h-8V460.2h8Zm-16,0h-8V460.2h8Zm-16,0h-8V460.2h8Z"/><rect class="cls-2" x="878.44" y="847.9" width="6.42" height="108.16"/><path class="cls-2" d="M840.43,1022.52l-4.54,4.54-4.54-4.54,4.54-4.54Zm-9.08,9.08-4.54,4.54-4.54-4.54,4.54-4.54Zm-9.08,9.08-4.54,4.54-4.54-4.54,4.54-4.54Zm-9.08,9.08-4.54,4.54-4.54-4.54,4.54-4.54Zm-9.08,9.08-4.54,4.54-4.54-4.54,4.54-4.54Zm-9.08,9.08-4.54,4.54-4.54-4.54,4.54-4.54ZM786,1077l-4.54,4.54-4.54-4.54,4.54-4.54Zm-9.08,9.08-4.54,4.54-4.54-4.54,4.54-4.54Zm-9.08,9.08-4.54,4.54-4.54-4.54,4.54-4.54Zm-9.08,9.08-4.54,4.54-4.54-4.54,4.54-4.54Zm-9.08,9.08-4.54,4.54-4.54-4.54,4.54-4.54Zm-9.08,9.08-4.54,4.54-4.54-4.54,4.54-4.54Z"/><rect class="cls-2" x="878.44" y="1007.11" width="6.42" height="79.53"/><rect class="cls-2" x="940.25" y="977.78" width="44.62" height="6.42"/><rect class="cls-2" x="1200.06" y="1019.99" width="83.83" height="6.42"/><path class="cls-2" d="M22.41,1020.53H16v-4.36h6.42Zm0,12.84H16V1027h6.42Zm0,12.84H16v-6.42h6.42Zm0,12.84H16v-6.42h6.42Zm0,12.84H16v-6.42h6.42Zm0,12.84H16v-6.42h6.42Zm0,12.84H16v-6.42h6.42Zm0,12.84H16V1104h6.42Zm0,12.84H16v-6.42h6.42Zm0,12.84H16v-6.42h6.42Zm0,12.84H16v-6.42h6.42Zm0,12.84H16v-6.42h6.42Zm0,12.84H16v-6.42h6.42Zm0,12.84H16V1181h6.42Zm0,12.84H16v-6.42h6.42Zm0,12.84H16v-6.42h6.42Zm0,12.84H16v-6.42h6.42Zm0,12.84H16v-6.42h6.42Zm0,12.84H16v-6.42h6.42Zm0,12.84H16v-6.42h6.42Zm0,12.84H16v-6.42h6.42Zm0,12.84H16v-6.42h6.42Zm0,12.84H16v-6.42h6.42Zm0,12.84H16v-6.42h6.42Z"/><rect class="cls-2" x="974.02" y="859.76" width="20.88" height="6.42"/><rect class="cls-2" x="982.04" y="843.09" width="12.86" height="6.42"/><rect class="cls-2" x="974.02" y="826.42" width="20.88" height="6.42"/><rect class="cls-2" x="982.04" y="809.75" width="12.86" height="6.42"/><rect class="cls-2" x="974.02" y="793.08" width="20.88" height="6.42"/><rect class="cls-2" x="982.04" y="776.41" width="12.86" height="6.42"/><rect class="cls-2" x="974.02" y="759.74" width="20.88" height="6.42"/><rect class="cls-2" x="982.04" y="743.07" width="12.86" height="6.42"/><rect class="cls-2" x="974.02" y="726.4" width="20.88" height="6.42"/><rect class="cls-2" x="93.28" y="996.06" width="20.88" height="6.42"/><rect class="cls-2" x="101.3" y="979.39" width="12.86" height="6.42"/><rect class="cls-2" x="93.28" y="962.72" width="20.88" height="6.42"/><rect class="cls-2" x="101.3" y="946.05" width="12.86" height="6.42"/><rect class="cls-2" x="93.28" y="929.38" width="20.88" height="6.42"/><rect class="cls-2" x="101.3" y="912.71" width="12.86" height="6.42"/><rect class="cls-2" x="93.28" y="896.04" width="20.88" height="6.42"/><rect class="cls-2" x="101.3" y="879.37" width="12.86" height="6.42"/><rect class="cls-2" x="93.28" y="862.7" width="20.88" height="6.42"/><path class="cls-2" d="M943.46,674.35H937v-6.42h6.42Zm0,12.84H937v-6.42h6.42Zm0,12.84H937V693.6h6.42Zm0,12.84H937v-6.42h6.42Zm0,12.84H937v-6.42h6.42Zm0,12.84H937v-6.42h6.42Zm0,12.84H937V745h6.42Zm0,12.84H937V757.8h6.42Zm0,12.84H937v-6.42h6.42Zm0,12.84H937v-6.42h6.42Zm0,12.84H937v-6.42h6.42Zm0,12.84H937v-6.42h6.42Zm0,12.84H937V822h6.42Zm0,12.84H937v-6.42h6.42Zm0,12.84H937v-6.42h6.42Zm0,12.84H937v-6.42h6.42Z"/><rect class="cls-2" x="936.3" y="613.68" width="32.78" height="6.42"/><rect class="cls-2" x="1050.29" y="534.92" width="6.42" height="38.82"/><path class="cls-2" d="M1056.71,469.82h-6.42v-6.42h6.42Zm0,12.84h-6.42v-6.42h6.42Zm0,12.84h-6.42v-6.42h6.42Zm0,12.84h-6.42v-6.42h6.42Zm0,12.84h-6.42v-6.42h6.42Zm0,12.84h-6.42V527.6h6.42Z"/><rect class="cls-2" x="1050.29" y="371.1" width="6.42" height="92.3"/><polygon class="cls-2" points="44.12 427.65 49.36 432.89 49.36 451.07 25.94 427.65 44.12 427.65"/><polygon class="cls-2" points="0 427.65 16.86 427.65 49.36 460.14 49.36 478.32 0 428.96 0 427.65"/><polygon class="cls-2" points="0 438.04 49.36 487.4 49.36 505.57 0 456.22 0 438.04"/><polygon class="cls-2" points="0 547.05 35.25 582.3 17.07 582.3 0 565.23 0 547.05"/><polygon class="cls-2" points="8 582.3 0 582.3 0 574.3 8 582.3"/><polygon class="cls-2" points="0 465.29 49.36 514.65 49.36 532.83 0 483.47 0 465.29"/><polygon class="cls-2" points="0 519.8 49.36 569.16 49.36 582.3 44.33 582.3 0 537.97 0 519.8"/><polygon class="cls-2" points="0 492.55 49.36 541.9 49.36 560.08 0 510.72 0 492.55"/><rect class="cls-2" y="791.2" width="61.51" height="6.42"/><rect class="cls-2" y="690.28" width="61.51" height="6.42"/><rect class="cls-2" x="161.41" y="352.91" width="6.42" height="256.55"/><rect class="cls-2" x="110.95" y="525.42" width="6.42" height="33.57"/><rect class="cls-2" y="1298.22" width="130.57" height="6.42"/><rect class="cls-2" x="873.46" y="513.47" width="6.42" height="75.77"/><rect class="cls-2" x="267.15" y="1201.08" width="48.81" height="6.42"/><path class="cls-2" d="M475,1204.29A62.36,62.36,0,0,0,412.7,1142v-6.42a68.67,68.67,0,0,1,63.83,94.1h-7A61.9,61.9,0,0,0,475,1204.29Z"/></g><g class="cls-1"><path class="cls-2" d="M369.8,2289.92l-.46,8,5.77-5.56,12.55,10.39-4.38,6.7,7.79-2,5.68,15.33-7.17,3.59,7.69,2.2-2.66,16.1-8-.46,5.56,5.77-10.39,12.55-6.7-4.39,2,7.79-15.33,5.68-3.49-7-2.38,7.48-15.93-2.64.23-7.9-5.61,5.41-12.55-10.39,4.38-6.7-7.79,2-5.68-15.33L320,2333l-7.69-2.2,2.66-16.1,8,.46-5.56-5.77,10.39-12.55,6.7,4.38-2-7.79,15.33-5.68,3.59,7.16,2.2-7.69Zm-25,5.88-4.52,1.68,2.31,9.1-1.93,1.25c-.62.4-1.22.84-1.8,1.29l-1.81,1.41-7.85-5.14-3.07,3.71,6.51,6.76-1,2c-.33.65-.65,1.31-.92,2l-.87,2.12-9.37-.54-.79,4.76,9,2.59.12,2.29c0,.74.1,1.47.2,2.19l.31,2.27-8.4,4.2,1.68,4.52,9.1-2.31,1.25,1.93c.4.62.84,1.22,1.29,1.8l1.4,1.81-5.14,7.85,3.71,3.07,6.75-6.51,2,1c.57.29,1.14.58,1.74.83l2,.85-.27,9.46,4.92.81,2.87-9,2.19-.14c.65,0,1.29-.1,1.92-.19l2.28-.31,4.21,8.4,4.52-1.68-2.31-9.1,1.93-1.25c.62-.4,1.21-.83,1.8-1.29l1.81-1.41,7.85,5.14,3.07-3.71L377,2343.6l1-2c.33-.65.65-1.31.92-2l.87-2.13,9.37.54.79-4.76-9-2.59-.12-2.29c0-.74-.1-1.47-.2-2.19l-.31-2.28,8.4-4.2-1.68-4.52-9.1,2.31-1.25-1.93c-.4-.62-.84-1.22-1.29-1.8l-1.41-1.81,5.14-7.85-3.71-3.07-6.75,6.51-2-1c-.65-.33-1.31-.65-2-.92l-2.13-.87.54-9.37-4.76-.79-2.59,9-2.29.12c-.74,0-1.47.1-2.19.2l-2.28.31Z"/><path class="cls-2" d="M586,1498.85l3.08,30.13c2.28.2,4.53.43,6.75.69l9.11-28.89,32.79,6.41-2.35,30.2c2.19.6,4.36,1.23,6.49,1.88l14.17-26.75,31.11,12.18L679.4,1554c2,1,4,2,6,3l18.79-23.79,28.41,17.55-12.9,27.41q2.76,2,5.43,4.06l22.71-20.06,24.82,22.32-17.56,24.71c1.56,1.63,3.1,3.29,4.61,5l25.88-15.71,20.46,26.37L784.47,1646c1.24,1.88,2.46,3.78,3.65,5.7l28.25-10.85,15.44,29.62-25.08,17c.89,2.08,1.75,4.17,2.58,6.26l29.81-5.61L849,1720l-27.8,12.17c.54,2.4,1.05,4.82,1.53,7.25l30.15-.83,4,33.28-29.48,6.28c.11,2.45.19,4.93.23,7.41l29.83,5.23-1.9,33.3-30.27,1.73c-.3,2.2-.63,4.44-1,6.7l28.44,10.4-7.87,32.47-30-3.73c-.71,2.18-1.43,4.32-2.17,6.41l26.07,15.37L825.15,1924l-28.88-9.1c-1.07,2-2.17,4-3.29,5.91l22.94,19.85-18.8,27.59-26.82-14.12q-2.1,2.63-4.31,5.24l19,23.58-23.4,23.8-23.9-18.63q-2.55,2.23-5.16,4.39L747.1,2019l-27.26,19.26-20.19-22.55c-1.92,1.14-3.88,2.28-5.86,3.39l9.58,28.72-30.29,14.1-15.82-25.83c-2.13.8-4.26,1.56-6.37,2.29l4.26,30-32.35,8.4-10.9-28.29c-2.22.4-4.45.77-6.68,1.11L604,2079.91l-33.27,2.49-5.7-29.7c-2.11,0-4.32,0-6.79-.11l-6.51,29.61-33.21-3.4-.38-30.35c-2.21-.4-4.43-.83-6.65-1.3l-11.67,27.93-32.09-9.33,5.08-29.83c-2.08-.78-4.19-1.61-6.3-2.47L450,2058.82l-29.88-14.93,10.38-28.45c-1.94-1.16-3.87-2.35-5.76-3.56l-20.85,22-26.72-20,15.31-26.19c-1.69-1.48-3.37-3-5-4.53l-24.39,18-22.73-24.44L360,1953.67q-2.12-2.66-4.15-5.35l-27.16,13.35-18-28.1,23.44-19.17c-1.06-2-2.1-4-3.12-6l-29.14,8.28-12.72-30.9,26.52-14.63c-.71-2.18-1.38-4.34-2-6.47l-30.16,2.89-6.93-32.69,28.73-9.62c-.3-2.26-.57-4.5-.81-6.72L274.27,1816l-1-33.33,30-4.41c.1-2.29.23-4.55.39-6.77l-29.31-7.81,4.94-33,30.3,1c.5-2.2,1-4.4,1.59-6.57l-27.37-12.93,10.77-31.64,29.58,6.43c.88-2.05,1.8-4.12,2.75-6.18l-24.6-17.68,16.26-29.18,28,11.65c1.26-1.89,2.53-3.77,3.81-5.6l-21.08-21.81,21.19-25.79,25.48,16.45q2.34-2.44,4.75-4.83l-16.86-25.16,25.43-21.62,22.14,20.66c1.84-1.34,3.69-2.65,5.52-3.91l-12.11-27.73,28.89-16.75,18.09,24.28c2-1,4.08-1.93,6.13-2.85l-7-29.5,31.45-11.32,13.41,27.18c2.14-.58,4.33-1.15,6.56-1.7l-1.51-30.26,33-5.45,8.3,29.1c2.26-.2,4.52-.37,6.75-.51l3.91-30Zm-56.91,8.25-21.65,3.58,1.49,29.86-2.6.61c-3.95.93-7.8,1.93-11.45,3l-2.58.74L479.1,1518l-20.66,7.44,6.87,29.13-2.45,1.07c-3.6,1.58-7.2,3.25-10.72,5l-2.4,1.18-17.86-24-19,11,12,27.38-2.22,1.5c-3.19,2.14-6.44,4.44-9.65,6.83l-2.15,1.59L389,1565.78,372.26,1580l16.64,24.84-1.92,1.87c-2.82,2.74-5.62,5.58-8.3,8.44l-1.83,2-25.16-16.24-13.92,16.95,20.81,21.53-1.56,2.18c-2.25,3.15-4.49,6.44-6.66,9.78l-1.46,2.25L321.3,1642l-10.68,19.17,24.29,17.46-1.14,2.42c-1.7,3.59-3.31,7.22-4.8,10.79l-1,2.47L298.73,1688l-7.07,20.79,27,12.76-.69,2.59c-1,3.76-1.94,7.63-2.78,11.49l-.57,2.61-29.92-1-3.24,21.71,28.93,7.71-.22,2.67c-.31,3.81-.54,7.79-.68,11.83l-.09,2.67-29.58,4.35.67,21.9,29.77,2.54.26,2.66c.37,3.82.85,7.77,1.42,11.74l.38,2.65-28.36,9.5,4.55,21.48,29.77-2.86.73,2.57c1,3.66,2.22,7.47,3.5,11.3l.85,2.54-26.18,14.45,8.36,20.3,28.77-8.18,1.18,2.4c1.75,3.57,3.59,7.09,5.46,10.48l1.29,2.34-23.13,18.92L331,1953.38l26.81-13.18,1.59,2.15c2.31,3.12,4.75,6.27,7.25,9.34l1.69,2.07-19.41,22.76,14.94,16.06,24.08-17.74,1.95,1.84c2.89,2.72,5.85,5.39,8.8,7.92l2,1.74-15.11,25.86,17.56,13.15,20.59-21.76,2.24,1.46c3.27,2.13,6.66,4.22,10.07,6.22l2.31,1.35-10.25,28.08,19.64,9.81,16.33-25,2.47,1c3.7,1.55,7.41,3,11,4.32l2.51.92-5,29.45,21.09,6.13,11.52-27.57,2.62.57c3.87.85,7.78,1.61,11.61,2.27l2.64.45.37,30,21.82,2.23,6.43-29.24,2.68.1c4.21.15,7.56.24,10.84.18l3.68,0,5.63,29.35,21.86-1.64,1.21-29.86,2.65-.38c3.88-.55,7.81-1.2,11.67-1.94l2.63-.5,10.76,27.93,21.26-5.52L643.79,2034l2.54-.85c3.67-1.22,7.41-2.57,11.13-4l2.5-1,15.61,25.5,19.9-9.26L686,2016.09l2.35-1.29c3.49-1.92,6.94-3.91,10.23-5.93l2.28-1.39,19.93,22.26,17.92-12.66-14.36-26.21,2.08-1.69c3-2.46,6.07-5,9-7.66l2-1.78,23.6,18.4,15.38-15.64-18.79-23.28,1.75-2c2.6-3,5.13-6.09,7.52-9.15l1.65-2.11L795,1959.88l12.35-18.13-22.64-19.59,1.35-2.3c2-3.38,3.93-6.86,5.76-10.33l1.25-2.37,28.51,9,8.92-20.06L804.8,1880.9l.92-2.51c1.31-3.58,2.59-7.34,3.8-11.19l.8-2.55,29.66,3.68,5.18-21.34-28.07-10.27.45-2.64c.68-4,1.27-7.92,1.75-11.71l.33-2.65,29.87-1.71,1.25-21.89L821.27,1791l0-2.68c0-4.22-.16-8.43-.39-12.53l-.15-2.74,29.11-6.2-2.59-21.65-29.77.82-.5-2.7c-.76-4.12-1.63-8.24-2.59-12.25l-.62-2.61,27.44-12-6.5-21L805.25,1701l-1-2.5c-1.4-3.64-2.91-7.32-4.5-10.93l-1.08-2.45,24.76-16.75-10.15-19.46-27.89,10.71L784,1657.3c-2.05-3.37-4.2-6.72-6.38-10l-1.5-2.22,21.35-20.91-13.45-17.33-25.56,15.51-1.78-2c-2.6-2.92-5.31-5.84-8.06-8.66l-1.87-1.92,17.34-24.4-16.31-14.66-22.43,19.81-2.1-1.65c-3-2.39-6.23-4.78-9.48-7.09l-2.18-1.56,12.74-27.06-18.67-11.53-18.55,23.49-2.36-1.25c-3.48-1.84-7-3.62-10.57-5.28l-2.42-1.14,7.68-28.88-20.44-8-14,26.4-2.55-.81c-3.66-1.16-7.48-2.26-11.34-3.29l-2.58-.69,2.32-29.82-21.55-4.21-9,28.51-2.66-.34c-3.8-.48-7.76-.89-11.78-1.2l-2.67-.21-3-29.75-21.91-.28-3.86,29.63-2.67.14c-3.86.2-7.83.5-11.8.89l-2.67.26Z"/><path class="cls-2" d="M790.91,1790.33c0,124.39-101.2,225.59-225.59,225.59s-225.59-101.2-225.59-225.59,101.2-225.59,225.59-225.59S790.91,1665.94,790.91,1790.33Zm-6.42,0c0-120.85-98.32-219.17-219.17-219.17s-219.17,98.32-219.17,219.17,98.32,219.17,219.17,219.17S784.5,1911.18,784.5,1790.33Z"/><path class="cls-2" d="M769.9,1789.62c0,112.44-91.47,203.91-203.91,203.91s-203.91-91.47-203.91-203.91S453.55,1585.71,566,1585.71,769.9,1677.19,769.9,1789.62Zm-6.42,0c0-108.9-88.59-197.49-197.49-197.49S368.5,1680.72,368.5,1789.62,457.09,1987.11,566,1987.11,763.48,1898.52,763.48,1789.62Z"/><path class="cls-2" d="M663,1788.84a96.19,96.19,0,1,1-96.19-96.19A96.3,96.3,0,0,1,663,1788.84Zm-6.42,0a89.77,89.77,0,1,0-89.77,89.77A89.87,89.87,0,0,0,656.55,1788.84Z"/><path class="cls-2" d="M270.36,2204a87.13,87.13,0,1,1-87.13-87.13A87.23,87.23,0,0,1,270.36,2204Zm-6.42,0a80.71,80.71,0,1,0-80.71,80.71A80.8,80.8,0,0,0,263.94,2204Z"/><path class="cls-2" d="M1105.51,2268.81a68.79,68.79,0,0,0-68.71,68.71h6.42a62.29,62.29,0,1,1,124.58,0h6.42A68.79,68.79,0,0,0,1105.51,2268.81Z"/><path class="cls-2" d="M412.7,2141.68c-2,0-4.08.1-6.1.29l-.62-6.39c2.22-.22,4.48-.32,6.72-.32Zm-12.13,1.18c-2,.39-4,.89-5.92,1.47l-1.86-6.15c2.14-.65,4.34-1.19,6.53-1.63Zm-11.66,3.52c-1.88.78-3.73,1.65-5.51,2.61l-3-5.66c2-1.05,4-2,6.09-2.88Zm-10.75,5.74c-1.69,1.13-3.34,2.35-4.9,3.63l-4.07-5c1.73-1.42,3.55-2.77,5.41-4Zm-9.43,7.73c-1.43,1.43-2.82,2.95-4.11,4.52l-4.95-4.09c1.43-1.73,2.95-3.4,4.53-5Zm-7.76,9.41c-1.13,1.68-2.19,3.44-3.15,5.22l-5.65-3c1.06-2,2.23-3.9,3.48-5.76ZM355.19,2180c-.78,1.87-1.48,3.8-2.07,5.74l-6.14-1.88c.66-2.14,1.42-4.27,2.28-6.33Zm-3.56,11.65c-.4,2-.7,4-.91,6l-6.39-.65c.23-2.23.56-4.47,1-6.65ZM350.41,2204c0,2,.09,3.94.27,5.89l-6.39.6c-.2-2.15-.3-4.33-.3-6.52v-.19h6.42Zm2.59,17.85-6.15,1.83c-.64-2.14-1.18-4.34-1.6-6.54l6.3-1.22C351.93,2217.88,352.42,2219.87,353,2221.82Zm4.62,11.27-5.67,3c-1-2-2-4-2.86-6.1l5.94-2.43C355.8,2229.44,356.67,2231.3,357.62,2233.09Zm6.73,10.16-5,4c-1.41-1.74-2.75-3.56-4-5.42l5.35-3.55C361.85,2240,363.07,2241.68,364.35,2243.25Zm8.58,8.66-4.1,4.94c-1.72-1.43-3.39-3-5-4.55l4.56-4.52C369.86,2249.23,371.37,2250.62,372.93,2251.92Zm10.09,6.83-3.06,5.64c-2-1.07-3.9-2.24-5.75-3.5l3.6-5.31C379.49,2256.72,381.24,2257.78,383,2258.75Zm11.23,4.73-1.9,6.13c-2.14-.66-4.27-1.44-6.33-2.31l2.49-5.91C390.39,2262.18,392.31,2262.88,394.25,2263.48Zm11.94,2.44-.66,6.38c-2.22-.23-4.46-.58-6.65-1l1.29-6.29C402.14,2265.4,404.17,2265.72,406.19,2265.93Zm6.51.34v6.42h-.46l0-6.42Z"/><path class="cls-2" d="M600.37,1472.51l-.67,6.38a310.78,310.78,0,0,1,278.74,309.94h6.42a318.13,318.13,0,0,0-284.49-316.33Z"/><path class="cls-2" d="M450.62,2078.14l-2.39,6a316.45,316.45,0,0,0,118.55,22.83,321,321,0,0,0,56.21-5l-1.13-6.32a314.59,314.59,0,0,1-55.09,4.85A310,310,0,0,1,450.62,2078.14Z"/><path class="cls-2" d="M652.51,1702.26h0l2.27,2.27c80.32,80.32,183.77,125.76,256.41,149.72,78.82,26,139.4,33.07,140,33.13l1.12.13,135.37,135.37-384,384-2.27,2.27L666.82,2274.58l-.77-.77-.14-1.08c-.08-.61-8.51-62.2-35.27-141.5-24.68-73.13-70.41-176.63-148.18-254.4l-.85-.86a120.79,120.79,0,0,1-36.72-87.14A122,122,0,0,1,566.78,1667,120.74,120.74,0,0,1,652.51,1702.26Zm-15.79,426.94c25,74.1,34.13,133,35.39,141.61l129.28,129.28,377.21-377.21-129.25-129.25c-8.69-1.1-66.51-9-140-33.23-72.66-24-175.89-69.23-256.81-149.07l-.08.08-2.27-2.37A115.43,115.43,0,1,0,487,1872.23l2.35,2.29-.06.06C566.53,1953,612.07,2056.12,636.72,2129.19Z"/><path class="cls-2" d="M741,1836c46.69,27.27,98.41,50.35,153.72,68.59a890.73,890.73,0,0,0,131,32.58l6.17,1L716.53,2253.55l-1.08-6a956.22,956.22,0,0,0-34.63-133.19c-18.65-55.29-41.29-106.13-67.27-151.12l-2.06-3.56,4-1.13a177,177,0,0,0,120.88-120.61l1.14-4Zm-54.13,276.26a971.49,971.49,0,0,1,33.75,128.08l297.87-297.87a906.05,906.05,0,0,1-125.78-31.78c-54.35-17.92-105.28-40.49-151.42-67.1a183.51,183.51,0,0,1-120.19,119.92C646.48,2008,668.6,2058,686.91,2112.26Z"/><path class="cls-2" d="M1112.79,2022.86l-311.4,311.4-51.15-51.15L1061.36,1972Zm-311.4,302.32,302.3-302.29-42.3-41.84L759.32,2283.11Z"/><path class="cls-2" d="M114.16,1690a53.67,53.67,0,0,0,0,107.34v-6.42a47.25,47.25,0,1,1,47.25-47.25h6.42A53.73,53.73,0,0,0,114.16,1690Z"/><path class="cls-2" d="M167.83,1609.14a53.67,53.67,0,1,1-53.67-53.67A53.73,53.73,0,0,1,167.83,1609.14Zm-6.42,0a47.25,47.25,0,1,0-47.25,47.25A47.3,47.3,0,0,0,161.41,1609.14Z"/><path class="cls-2" d="M167.83,1474.64A53.67,53.67,0,1,1,114.16,1421,53.73,53.73,0,0,1,167.83,1474.64Zm-6.42,0a47.25,47.25,0,1,0-47.25,47.25A47.3,47.3,0,0,0,161.41,1474.64Z"/><polygon class="cls-2" points="225.12 1792.05 202.13 1792.05 202.13 1769.06 225.12 1792.05"/><path class="cls-2" d="M202.13,1732.73v-18.18l55.17,55.17q-.53,8.73-.59,17.59Z"/><path class="cls-2" d="M411.39,1424.19h18.18L493,1487.64q-7.22,1.77-14.3,3.87Z"/><path class="cls-2" d="M465.9,1424.19h18.18l55.75,55.75q-8.23.71-16.33,1.85Z"/><polygon class="cls-2" points="202.13 1759.98 202.13 1741.8 252.37 1792.05 234.2 1792.05 202.13 1759.98"/><polygon class="cls-2" points="520.4 1424.19 538.58 1424.19 569.99 1455.6 569.99 1473.77 520.4 1424.19"/><polygon class="cls-2" points="547.66 1424.19 565.83 1424.19 569.99 1428.35 569.99 1446.52 547.66 1424.19"/><path class="cls-2" d="M493.15,1424.19h18.18l54.58,54.58q-8.87,0-17.62.56Z"/><path class="cls-2" d="M202.13,1569.21V1551l91.38,91.38q-3.2,5.94-6.15,12Z"/><path class="cls-2" d="M202.13,1542v-18.18l101.39,101.39q-3.51,5.62-6.78,11.4Z"/><path class="cls-2" d="M202.13,1514.7v-18.18l112.31,112.31q-3.8,5.32-7.37,10.8Z"/><path class="cls-2" d="M202.13,1596.46v-18.18l82.34,82.34q-2.87,6.29-5.45,12.73Z"/><path class="cls-2" d="M202.13,1623.71v-18.18l74.34,74.34q-2.51,6.66-4.71,13.46Z"/><path class="cls-2" d="M202.13,1678.22V1660L264,1721.91q-1.67,7.54-3,15.21Z"/><path class="cls-2" d="M384.14,1424.19h18.18l69.47,69.47q-6.81,2.2-13.48,4.69Z"/><path class="cls-2" d="M202.13,1651v-18.18l67.48,67.48q-2.11,7.07-3.89,14.28Z"/><path class="cls-2" d="M202.13,1487.45v-18.18l124.11,124.11q-4.09,5-8,10.2Z"/><path class="cls-2" d="M202.13,1705.47V1687.3L259.81,1745q-1.15,8.09-1.88,16.3Z"/><path class="cls-2" d="M329.63,1424.19h18.18l85,85q-6.1,2.93-12,6.13Z"/><path class="cls-2" d="M302.38,1424.19h18.18l94.38,94.38q-5.78,3.26-11.41,6.76Z"/><path class="cls-2" d="M202.13,1460.2V1442l136.77,136.77q-4.36,4.73-8.53,9.64Z"/><path class="cls-2" d="M356.89,1424.19h18.18l76.7,76.7q-6.44,2.58-12.74,5.43Z"/><path class="cls-2" d="M275.13,1424.19H293.3L398,1528.85q-5.48,3.57-10.82,7.36Z"/><path class="cls-2" d="M202.13,1432.94v-8.76h9.42L352.38,1565q-4.64,4.45-9.09,9.08Z"/><path class="cls-2" d="M247.87,1424.19H266L381.91,1540q-5.2,3.87-10.21,8Z"/><path class="cls-2" d="M220.62,1424.19H238.8l127.93,127.93q-4.92,4.16-9.66,8.52Z"/><path class="cls-2" d="M438.64,1424.19h18.18L515.63,1483q-7.68,1.28-15.24,2.94Z"/><rect class="cls-2" x="114.16" y="1790.87" width="142.63" height="6.42"/><rect class="cls-2" x="563.57" y="1352.59" width="6.42" height="126.16"/><path class="cls-2" d="M228.54,1843.57A17,17,0,0,1,214.46,1817l23.63,23.63A16.93,16.93,0,0,1,228.54,1843.57Z"/><path class="cls-2" d="M219,1812.47a17,17,0,0,1,23.63,23.63Z"/><path class="cls-2" d="M1253.09,2304a17,17,0,0,1-14.08-26.56l23.63,23.63A16.93,16.93,0,0,1,1253.09,2304Z"/><path class="cls-2" d="M1243.55,2272.9a17,17,0,0,1,23.63,23.63Z"/><path class="cls-2" d="M531.47,1405.48a17,17,0,0,1-14.08-26.56L541,1402.56A16.93,16.93,0,0,1,531.47,1405.48Z"/><path class="cls-2" d="M521.93,1374.39A17,17,0,0,1,545.56,1398Z"/><path class="cls-2" d="M136.77,2221a17,17,0,0,1-14.08-26.56l23.63,23.63A16.93,16.93,0,0,1,136.77,2221Z"/><path class="cls-2" d="M127.22,2189.89a17,17,0,0,1,23.63,23.63Z"/><path class="cls-2" d="M1022,2304a17,17,0,0,1-14.08-26.56l23.63,23.63A16.93,16.93,0,0,1,1022,2304Z"/><path class="cls-2" d="M1012.45,2272.9a17,17,0,0,1,23.63,23.63Z"/><path class="cls-2" d="M78.53,2068.62a17,17,0,0,1-14.08-26.56l23.63,23.63A16.93,16.93,0,0,1,78.53,2068.62Z"/><path class="cls-2" d="M69,2037.53a17,17,0,0,1,23.63,23.63Z"/><path class="cls-2" d="M166.18,1767.19a1.61,1.61,0,0,1-3.12,0,100.89,100.89,0,0,0-8.69-23.56,1.6,1.6,0,0,1,1.83-2.3,32.36,32.36,0,0,0,16.83,0,1.6,1.6,0,0,1,1.83,2.3A100.89,100.89,0,0,0,166.18,1767.19Z"/><path class="cls-2" d="M883.21,1813.27a1.61,1.61,0,0,1-3.12,0,100.89,100.89,0,0,0-8.69-23.56,1.6,1.6,0,0,1,1.83-2.3,32.36,32.36,0,0,0,16.83,0,1.6,1.6,0,0,1,1.83,2.3A100.89,100.89,0,0,0,883.21,1813.27Z"/><path class="cls-2" d="M626.81,1372.8a1.61,1.61,0,0,1,2.75-1.48,100.88,100.88,0,0,0,18.83,16.62,1.6,1.6,0,0,1-.52,2.9,32.36,32.36,0,0,0-14.81,8,1.6,1.6,0,0,1-2.71-1.16A100.89,100.89,0,0,0,626.81,1372.8Z"/><path class="cls-2" d="M183.06,2085.8a1.61,1.61,0,0,1,0,3.12,100.89,100.89,0,0,0-23.56,8.69,1.6,1.6,0,0,1-2.3-1.83,32.36,32.36,0,0,0,0-16.83,1.6,1.6,0,0,1,2.3-1.83A100.89,100.89,0,0,0,183.06,2085.8Z"/><path class="cls-2" d="M183.06,2014.29a1.61,1.61,0,0,1,0,3.12,100.89,100.89,0,0,0-23.56,8.69,1.6,1.6,0,0,1-2.3-1.83,32.36,32.36,0,0,0,0-16.83,1.6,1.6,0,0,1,2.3-1.83A100.89,100.89,0,0,0,183.06,2014.29Z"/><path class="cls-2" d="M1088,1873.51a1.61,1.61,0,0,1-3.12,0,100.89,100.89,0,0,0-8.69-23.56,1.6,1.6,0,0,1,1.83-2.3,32.37,32.37,0,0,0,16.83,0,1.6,1.6,0,0,1,1.83,2.3A100.88,100.88,0,0,0,1088,1873.51Z"/><path class="cls-2" d="M1253.07,1706.51a1.61,1.61,0,0,1,0,3.12,100.88,100.88,0,0,0-23.56,8.69,1.6,1.6,0,0,1-2.3-1.83,32.36,32.36,0,0,0,0-16.83,1.6,1.6,0,0,1,2.3-1.83A100.88,100.88,0,0,0,1253.07,1706.51Z"/><path class="cls-2" d="M1205.16,1994.53a1.61,1.61,0,0,1,0-3.12,100.88,100.88,0,0,0,23.56-8.69,1.6,1.6,0,0,1,2.3,1.83,32.36,32.36,0,0,0,0,16.83,1.6,1.6,0,0,1-2.3,1.83A100.88,100.88,0,0,0,1205.16,1994.53Z"/><path class="cls-2" d="M426.65,2072.87a1.61,1.61,0,0,1,1.24-2.87,100.89,100.89,0,0,0,25.08,1.36,1.61,1.61,0,0,1,1.39,2.6,32.36,32.36,0,0,0-6.67,15.45,1.6,1.6,0,0,1-2.84.77A100.88,100.88,0,0,0,426.65,2072.87Z"/><polygon class="cls-2" points="631.16 2229.36 631.16 2240.03 620.49 2229.36 631.16 2229.36"/><polygon class="cls-2" points="434.11 2315.51 412.7 2294.1 412.7 2275.93 452.28 2315.51 434.11 2315.51"/><polygon class="cls-2" points="502.4 2229.36 588.54 2315.51 570.37 2315.51 484.22 2229.36 502.4 2229.36"/><polygon class="cls-2" points="447.89 2229.36 534.04 2315.51 515.86 2315.51 429.72 2229.36 447.89 2229.36"/><polygon class="cls-2" points="556.9 2229.36 631.16 2303.62 631.16 2315.51 624.88 2315.51 538.73 2229.36 556.9 2229.36"/><polygon class="cls-2" points="611.41 2229.36 631.16 2249.11 631.16 2267.28 593.23 2229.36 611.41 2229.36"/><polygon class="cls-2" points="412.7 2315.51 412.7 2303.18 425.03 2315.51 412.7 2315.51"/><polygon class="cls-2" points="488.61 2315.51 412.7 2239.59 412.7 2229.36 420.64 2229.36 506.79 2315.51 488.61 2315.51"/><polygon class="cls-2" points="475.14 2229.36 561.29 2315.51 543.12 2315.51 456.97 2229.36 475.14 2229.36"/><polygon class="cls-2" points="584.16 2229.36 631.16 2276.36 631.16 2294.54 565.98 2229.36 584.16 2229.36"/><polygon class="cls-2" points="461.36 2315.51 412.7 2266.85 412.7 2248.67 479.53 2315.51 461.36 2315.51"/><polygon class="cls-2" points="529.65 2229.36 615.8 2315.51 597.62 2315.51 511.48 2229.36 529.65 2229.36"/><path class="cls-2" d="M1268.35,1732.57l-1.81,31.52c1,.45,2,.92,3.06,1.41l22.67-21.85,29.67,24.56-17.23,26.34q1,1.37,2,2.79l30.58-7.76,13.43,36.24-28.16,14.1c.13,1.17.25,2.3.33,3.4l30.24,8.65L1346.8,1890l-31.52-1.81q-.67,1.53-1.41,3.06l21.85,22.67-24.57,29.67-26.34-17.23q-1.38,1-2.79,2l7.76,30.58-36.24,13.43-14.1-28.16q-1.25.14-2.5.25l-9.63,30.31-37.9-6.27.91-31.88q-1.1-.5-2.25-1.05l-22.66,21.85-29.67-24.56,17.23-26.34q-1-1.37-2-2.78l-30.58,7.76L1107,1875.23l28.16-14.1c-.13-1.16-.24-2.29-.33-3.4l-30.23-8.65,6.29-38.06,31.52,1.81c.45-1,.92-2,1.41-3.06L1122,1787.1l24.56-29.67,26.34,17.23q1.37-1,2.79-2l-7.76-30.57,36.24-13.43,14.1,28.16c1.16-.13,2.29-.24,3.4-.33l8.65-30.23ZM1201,1736.7l-25.43,9.42,7.46,29.41-1.93,1.25c-2.09,1.35-4.14,2.81-6.1,4.34l-1.81,1.41-25.35-16.59-17.24,20.83,21,21.81-1,2c-1.14,2.24-2.18,4.51-3.1,6.75l-.87,2.13-30.31-1.74-4.42,26.72,29.11,8.33.12,2.29c.12,2.35.36,4.78.72,7.45l.31,2.28-27.1,13.57,9.42,25.43,29.41-7.46,1.25,1.93c1.36,2.09,2.82,4.14,4.34,6.1l1.41,1.81-16.59,25.35,20.83,17.25,21.81-21,2,1c2.12,1.08,4,2,5.9,2.76l2,.85-.88,30.65,26.89,4.45,9.27-29.18,2.19-.14c2.14-.13,4.34-.35,6.52-.65l2.28-.31,13.57,27.1,25.43-9.42-7.46-29.41,1.93-1.25c2.08-1.35,4.13-2.81,6.1-4.34l1.81-1.41,25.35,16.59,17.25-20.83-21-21.81,1-2c1.14-2.24,2.18-4.51,3.1-6.75l.87-2.12,30.31,1.74,4.42-26.72-29.11-8.33-.12-2.29c-.12-2.33-.36-4.76-.72-7.44l-.31-2.28,27.1-13.57-9.42-25.43-29.41,7.46-1.25-1.93c-1.35-2.08-2.81-4.13-4.34-6.1l-1.41-1.81,16.58-25.35-20.83-17.24-21.81,21-2-1c-2.24-1.14-4.51-2.19-6.75-3.1l-2.13-.87,1.74-30.31-26.72-4.42-8.33,29.11-2.29.12c-2.35.12-4.78.36-7.45.72l-2.28.31Z"/><path class="cls-2" d="M1374.51,1850.52h-6.42c0,76.78-62.46,139.24-139.24,139.24v6.42C1309.17,1996.18,1374.51,1930.84,1374.51,1850.52Z"/><path class="cls-2" d="M1228.85,1704.86c-80.32,0-145.66,65.34-145.66,145.66h6.42c0-76.78,62.46-139.24,139.24-139.24Z"/><path class="cls-2" d="M1290.66,1850.52a61.81,61.81,0,1,1-61.81-61.81A61.88,61.88,0,0,1,1290.66,1850.52Zm-6.42,0a55.39,55.39,0,1,0-55.39,55.39A55.45,55.45,0,0,0,1284.24,1850.52Z"/><path class="cls-2" d="M1209.93,2045.13l-4.54,4.54-4.54-4.54,4.54-4.54Zm9.08,9.08-4.54,4.54-4.54-4.54,4.54-4.54Zm9.08,9.08-4.54,4.54-4.54-4.54,4.54-4.54Zm9.08,9.08-4.54,4.54-4.54-4.54,4.54-4.54Zm9.08,9.08-4.54,4.54-4.54-4.54,4.54-4.54Zm9.08,9.08-4.54,4.54-4.54-4.54,4.54-4.54Zm9.08,9.08-4.54,4.54-4.54-4.54,4.54-4.54Zm9.08,9.08-4.54,4.54-4.54-4.54,4.54-4.54Zm9.08,9.08-4.54,4.54-4.54-4.54,4.54-4.54Zm9.08,9.08-4.54,4.54-4.54-4.54,4.54-4.54Zm9.08,9.08-4.54,4.54-4.54-4.54,4.54-4.54Zm9.08,9.08-4.54,4.54-4.54-4.54,4.54-4.54Zm7.92,7.92-4.54,4.54-3.38-3.38,4.54-4.54Z"/><rect class="cls-2" x="110.95" y="1599.61" width="6.42" height="19.05"/><rect class="cls-2" x="104.63" y="1605.93" width="19.05" height="6.42"/><rect class="cls-2" x="149.25" y="1966.01" width="6.42" height="24.32"/><rect class="cls-2" x="140.3" y="1974.95" width="24.32" height="6.42"/><rect class="cls-2" x="110.95" y="1465.12" width="6.42" height="19.05"/><rect class="cls-2" x="104.63" y="1471.43" width="19.05" height="6.42"/><path class="cls-2" d="M1056.71,1616.57a61.81,61.81,0,1,1-61.81-61.81A61.88,61.88,0,0,1,1056.71,1616.57Zm-6.42,0A55.39,55.39,0,1,0,994.9,1672,55.46,55.46,0,0,0,1050.29,1616.57Z"/><path class="cls-2" d="M943.46,1980.66a61.81,61.81,0,1,1-61.81-61.81A61.88,61.88,0,0,1,943.46,1980.66Zm-6.42,0a55.39,55.39,0,1,0-55.39,55.39A55.46,55.46,0,0,0,937,1980.66Z"/><rect class="cls-2" x="991.69" y="1605.51" width="6.42" height="22.13"/><rect class="cls-2" x="983.84" y="1613.36" width="22.13" height="6.42"/><rect class="cls-2" x="878.44" y="1969.6" width="6.42" height="22.13"/><rect class="cls-2" x="870.59" y="1977.45" width="22.13" height="6.42"/><rect class="cls-2" x="110.95" y="1649.89" width="6.42" height="28.49"/><rect class="cls-2" x="110.95" y="1779.84" width="6.42" height="59.53"/><path class="cls-2" d="M63.7,1612.35H57.28v-6.42H63.7Zm-12.84,0H44.44v-6.42h6.42Zm-12.84,0H31.6v-6.42H38Zm-12.84,0H18.76v-6.42h6.42Zm-12.84,0H5.93v-6.42h6.42Z"/><rect class="cls-2" x="63.7" y="1605.93" width="27.24" height="6.42"/><path class="cls-2" d="M205.34,1816h-6.42v-6.42h6.42Zm0,12.84h-6.42v-6.42h6.42Zm0,12.84h-6.42v-6.42h6.42Zm0,12.84h-6.42v-6.42h6.42Zm0,12.84h-6.42v-6.42h6.42Zm0,12.84h-6.42v-6.42h6.42Zm0,12.84h-6.42v-6.42h6.42Zm0,12.84h-6.42v-6.42h6.42Zm0,12.84h-6.42v-6.42h6.42Zm0,12.84h-6.42v-6.42h6.42Zm0,12.84h-6.42v-6.42h6.42Zm0,12.84h-6.42v-6.42h6.42Zm0,12.84h-6.42v-6.42h6.42Zm0,12.84h-6.42v-6.42h6.42Zm0,12.84h-6.42v-6.42h6.42Zm0,12.84h-6.42v-6.42h6.42Zm0,12.84h-6.42V2015h6.42Zm0,12.84h-6.42v-6.42h6.42Zm0,12.84h-6.42v-6.42h6.42Zm0,12.84h-6.42v-6.42h6.42Zm0,12.84h-6.42v-6.42h6.42Zm0,12.84h-6.42v-6.42h6.42Zm0,12.84h-6.42V2092h6.42Zm0,12.84h-6.42v-6.42h6.42Zm0,12.84h-6.42v-6.42h6.42Zm0,12.84h-6.42v-6.42h6.42Zm0,12.84h-6.42v-6.42h6.42Zm0,12.84h-6.42v-6.42h6.42Zm0,12.84h-6.42V2169h6.42Zm0,12.84h-6.42v-6.42h6.42Zm0,12.84h-6.42v-6.42h6.42Zm0,12.84h-6.42v-6.42h6.42Zm0,12.84h-6.42v-6.42h6.42Zm0,12.84h-6.42v-6.42h6.42Zm0,12.84h-6.42v-6.42h6.42Zm0,12.84h-6.42v-6.42h6.42Zm0,12.84h-6.42v-6.42h6.42Zm0,12.84h-6.42v-6.42h6.42Zm0,12.84h-6.42v-6.42h6.42Zm0,10h-6.42v-3.57h6.42Z"/><rect class="cls-2" y="1420.98" width="63.7" height="6.42"/><rect class="cls-2" x="202.13" y="1352.59" width="6.42" height="61.2"/><rect class="cls-2" y="1835.24" width="202.13" height="6.42"/><polygon class="cls-2" points="1283.89 1616.8 1135.49 1468.4 1135.49 1450.22 1283.89 1598.62 1283.89 1616.8"/><polygon class="cls-2" points="1174.12 1352.59 1283.89 1462.36 1283.89 1480.53 1155.95 1352.59 1174.12 1352.59"/><polygon class="cls-2" points="1255.88 1352.59 1283.89 1380.6 1283.89 1398.77 1237.71 1352.59 1255.88 1352.59"/><path class="cls-2" d="M1147.32,1698.24l-11.82-11.82v-18.18l24.05,24.05Q1153.3,1695,1147.32,1698.24Z"/><polygon class="cls-2" points="1228.63 1352.59 1283.89 1407.85 1283.89 1426.03 1210.45 1352.59 1228.63 1352.59"/><polygon class="cls-2" points="1283.13 1352.59 1283.89 1353.34 1283.89 1371.52 1264.96 1352.59 1283.13 1352.59"/><polygon class="cls-2" points="1283.89 1562.29 1135.49 1413.89 1135.49 1395.72 1283.89 1544.11 1283.89 1562.29"/><polygon class="cls-2" points="1283.89 1589.54 1135.49 1441.14 1135.49 1422.97 1283.89 1571.37 1283.89 1589.54"/><polygon class="cls-2" points="1283.89 1535.04 1135.49 1386.64 1135.49 1368.46 1283.89 1516.86 1283.89 1535.04"/><path class="cls-2" d="M1135.49,1705.18v-9.68l6,6C1139.47,1702.7,1137.46,1703.91,1135.49,1705.18Z"/><polygon class="cls-2" points="1283.89 1507.78 1135.49 1359.39 1135.49 1352.59 1146.87 1352.59 1283.89 1489.61 1283.89 1507.78"/><polygon class="cls-2" points="1201.38 1352.59 1283.89 1435.1 1283.89 1453.28 1183.2 1352.59 1201.38 1352.59"/><path class="cls-2" d="M1186.6,1683l-51.11-51.11v-18.18l66.21,66.21Q1194,1681.16,1186.6,1683Z"/><path class="cls-2" d="M1283.89,1686.76c-5.34-1.79-10.81-3.3-16.37-4.57l-132-132V1532l148.4,148.4Z"/><path class="cls-2" d="M1209.68,1678.85l-74.19-74.19v-18.18l91.35,91.35C1221.05,1677.9,1215.32,1678.23,1209.68,1678.85Z"/><path class="cls-2" d="M1236,1677.95l-100.54-100.54v-18.18L1256.23,1680A173.28,173.28,0,0,0,1236,1677.95Z"/><polygon class="cls-2" points="1283.89 1671.3 1135.49 1522.9 1135.49 1504.73 1283.89 1653.13 1283.89 1671.3"/><polygon class="cls-2" points="1283.89 1644.05 1135.49 1495.65 1135.49 1477.48 1283.89 1625.87 1283.89 1644.05"/><path class="cls-2" d="M1166,1689.63l-30.47-30.47V1641l44,44C1174.88,1686.33,1170.38,1687.91,1166,1689.63Z"/><rect class="cls-2" x="1118.66" y="1346.17" width="6.42" height="377.32"/><rect class="cls-2" x="1095.04" y="1717.07" width="26.83" height="6.42"/><rect class="cls-2" x="1106.27" y="1662.05" width="15.59" height="6.42"/><rect class="cls-2" x="1106.27" y="1607.03" width="15.59" height="6.42"/><rect class="cls-2" x="1095.04" y="1552.01" width="26.83" height="6.42"/><rect class="cls-2" x="1106.27" y="1496.99" width="15.59" height="6.42"/><rect class="cls-2" x="1106.27" y="1441.97" width="15.59" height="6.42"/><rect class="cls-2" x="1095.04" y="1386.95" width="26.83" height="6.42"/><rect class="cls-2" x="1161.52" y="2184.81" width="6.42" height="11.57" transform="translate(-1207.84 1465.2) rotate(-45)"/><rect class="cls-2" x="1180.14" y="2165.91" width="6.42" height="12.15" transform="translate(-1189.24 1472.95) rotate(-45)"/><rect class="cls-2" x="1196.85" y="2141.51" width="6.42" height="19.91" transform="translate(-1169.83 1478.72) rotate(-45)"/><rect class="cls-2" x="1235.97" y="2110.36" width="6.42" height="11.57" transform="translate(-1133.39 1496.04) rotate(-45)"/><path class="cls-2" d="M1048,1563.43,1282,1797.37a75.16,75.16,0,1,1-106.29,106.29L941.76,1669.71A75.16,75.16,0,1,1,1048,1563.43Zm229.41,335.7a68.74,68.74,0,0,0,0-97.21L1043.51,1568a68.74,68.74,0,1,0-97.21,97.21l233.95,233.95a68.74,68.74,0,0,0,97.21,0Z"/><rect class="cls-2" x="991.69" y="1649.89" width="6.42" height="230.67"/><path class="cls-2" d="M923,1619.87h-6.42v-6.42H923Zm-12.84,0h-6.42v-6.42h6.42Zm-12.84,0h-6.42v-6.42h6.42Zm-12.84,0H878v-6.42h6.42Zm-12.84,0h-6.42v-6.42h6.42Zm-12.84,0h-6.42v-6.42h6.42Zm-12.84,0H839.5v-6.42h6.42Zm-12.84,0h-2.69v-6.42h2.69Z"/><path class="cls-2" d="M277.79,2080.54l-49.93-49.93a35.94,35.94,0,0,1,9.3-8.88l49.51,49.51A35.94,35.94,0,0,1,277.79,2080.54Z"/><path class="cls-2" d="M292.54,2051.61a35.64,35.64,0,0,1-2.73,13.71l-46.74-46.74a35.64,35.64,0,0,1,13.71-2.73q.9,0,1.79,0l33.92,33.92Q292.54,2050.71,292.54,2051.61Z"/><path class="cls-2" d="M289.92,2038.17l-19.69-19.69A35.86,35.86,0,0,1,289.92,2038.17Z"/><path class="cls-2" d="M257.35,2087.35,221,2051a35.59,35.59,0,0,1,3.42-14.75l47.63,47.63A35.6,35.6,0,0,1,257.35,2087.35Z"/><path class="cls-2" d="M222.43,2061.51,246.88,2086A35.81,35.81,0,0,1,222.43,2061.51Z"/><path class="cls-2" d="M381.91,2051.61a39,39,0,1,1-39-39A39,39,0,0,1,381.91,2051.61Zm-6.42,0a32.55,32.55,0,1,0-32.55,32.55A32.58,32.58,0,0,0,375.49,2051.61Z"/><path class="cls-2" d="M295.75,2051.61a39,39,0,1,1-39-39A39,39,0,0,1,295.75,2051.61Zm-6.42,0a32.55,32.55,0,1,0-32.55,32.55A32.58,32.58,0,0,0,289.33,2051.61Z"/><path class="cls-2" d="M853.85,1513.89a257.41,257.41,0,0,1-101-20.5c.7-.44,1.41-.88,2.08-1.37L705,1442.08a35.91,35.91,0,0,1,3.53-4.11,232,232,0,0,1-87.07-181.19c0-128.12,104.23-232.35,232.35-232.35s232.35,104.23,232.35,232.35S982,1489.13,853.85,1489.13a231.15,231.15,0,0,1-85.48-16.29,35.66,35.66,0,0,1-1.37,4l-46.74-46.74a35.64,35.64,0,0,1,13.71-2.73q.9,0,1.79,0l33.92,33.92q0,.89,0,1.79c0,1.12-.06,2.22-.16,3.31a224.72,224.72,0,0,0,84.28,16.32c124.58,0,225.93-101.35,225.93-225.93s-101.35-225.93-225.93-225.93-225.93,101.35-225.93,225.93a225.63,225.63,0,0,0,85.65,177c.26-.18.5-.38.76-.55l49.51,49.51a35.88,35.88,0,0,1-5.15,6.13,251.09,251.09,0,0,0,95.15,18.62c138.23,0,250.69-112.46,250.69-250.69S992.07,1006.1,853.85,1006.1s-250.69,112.46-250.69,250.69h-6.42c0-141.77,115.34-257.11,257.11-257.11S1111,1115,1111,1256.78,995.61,1513.89,853.85,1513.89Z"/><path class="cls-2" d="M699.61,1473l24.45,24.45A35.81,35.81,0,0,1,699.61,1473Z"/><path class="cls-2" d="M749.28,1495.4a35.6,35.6,0,0,1-14.75,3.42l-36.3-36.3c0-.3,0-.6,0-.91a258.5,258.5,0,0,1-61.93-67.69l5.43-3.43a252.23,252.23,0,0,0,57.55,63.83,35.41,35.41,0,0,1,2.34-6.55Z"/><path class="cls-2" d="M767.1,1449.64l-19.69-19.69A35.86,35.86,0,0,1,767.1,1449.64Z"/><path class="cls-2" d="M772.93,1463.08a39,39,0,1,1-39-39A39,39,0,0,1,772.93,1463.08Zm-6.42,0A32.55,32.55,0,1,0,734,1495.63,32.58,32.58,0,0,0,766.51,1463.08Z"/><path class="cls-2" d="M1092.47,1498.84a39,39,0,1,1-39-39A39,39,0,0,1,1092.47,1498.84Zm-6.42,0a32.55,32.55,0,1,0-32.55,32.55A32.58,32.58,0,0,0,1086,1498.84Z"/><path class="cls-2" d="M175.05,2012.64H78.65a39,39,0,0,0,0,77.93h96.4v-6.42H78.65a32.55,32.55,0,0,1,0-65.09h96.4Z"/><path class="cls-2" d="M117.37,2022.27h-6.42v-6.42h6.42Zm0,12.84h-6.42v-6.42h6.42Zm0,12.84h-6.42v-6.42h6.42Zm0,12.84h-6.42v-6.42h6.42Zm0,12.84h-6.42v-6.42h6.42Zm0,12.68h-6.42V2080h6.42Z"/><rect class="cls-2" y="2084.15" width="99.46" height="6.42"/><rect class="cls-2" y="2012.64" width="99.46" height="6.42"/><path class="cls-2" d="M300.11,2119.74c32,8.06,62.22,15.67,112.59,15.67h3.21v137.11H412.7c-50.15,0-80.48,7.61-112.6,15.67-31.59,7.93-64.25,16.12-116.86,16.12a100.35,100.35,0,0,1,0-200.71C236.09,2103.61,268.63,2111.81,300.11,2119.74ZM298.53,2282c30.42-7.64,61.86-15.53,111-15.86V2141.82c-49.3-.33-80.63-8.22-110.95-15.86-31.1-7.83-63.25-15.93-115.31-15.93a93.93,93.93,0,0,0,0,187.87C235,2297.9,267.32,2289.8,298.53,2282Z"/><path class="cls-2" d="M415.91,2023.63h-6.42v-3.69h6.42Zm0,12.84h-6.42V2030h6.42Zm0,12.84h-6.42v-6.42h6.42Zm0,12.84h-6.42v-6.42h6.42Zm0,12.84h-6.42v-6.42h6.42Zm0,12.84h-6.42v-6.42h6.42Zm0,12.84h-6.42v-6.42h6.42Zm0,12.84h-6.42v-6.42h6.42Zm0,12.84h-6.42v-6.42h6.42Z"/><rect class="cls-2" x="409.49" y="2269.31" width="6.42" height="46.19"/><rect class="cls-2" y="2200.76" width="86.09" height="6.42"/><path class="cls-2" d="M998.11,1360.34h-6.42v-6.42h6.42Zm0,12.84h-6.42v-6.42h6.42Zm0,12.84h-6.42v-6.42h6.42Zm0,12.84h-6.42v-6.42h6.42Zm0,12.84h-6.42v-6.42h6.42Zm0,12.84h-6.42v-6.42h6.42Zm0,12.84h-6.42V1431h6.42Z"/><rect class="cls-2" x="991.69" y="1437.37" width="6.42" height="151.55"/><path class="cls-2" d="M797.63,1392.21h-46v-46h46ZM758,1385.79h33.2v-33.2H758Z"/><path class="cls-2" d="M837.25,1392.21h-46v-46h46Zm-39.62-6.42h33.2v-33.2h-33.2Z"/><path class="cls-2" d="M876.86,1392.21h-46v-46h46Zm-39.62-6.42h33.2v-33.2h-33.2Z"/><path class="cls-2" d="M916.48,1392.21h-46v-46h46Zm-39.62-6.42h33.2v-33.2h-33.2Z"/><path class="cls-2" d="M956.1,1392.21h-46v-46h46Zm-39.62-6.42h33.2v-33.2h-33.2Z"/><rect class="cls-2" x="791.21" y="1389" width="6.42" height="4.01"/><path class="cls-2" d="M797.63,1407.73h-6.42v-7.36h6.42Zm0,14.72h-6.42v-7.36h6.42Zm0,14.72h-6.42v-7.36h6.42Zm0,14.72h-6.42v-7.36h6.42Zm0,14.72h-6.42v-7.36h6.42Z"/><rect class="cls-2" x="791.21" y="1473.97" width="6.42" height="4.01"/><rect class="cls-2" x="830.83" y="1389" width="6.42" height="96.93"/><rect class="cls-2" x="870.44" y="1389" width="6.42" height="96.93"/><rect class="cls-2" x="910.06" y="1473.97" width="6.42" height="4.01"/><path class="cls-2" d="M916.48,1407.73h-6.42v-7.36h6.42Zm0,14.72h-6.42v-7.36h6.42Zm0,14.72h-6.42v-7.36h6.42Zm0,14.72h-6.42v-7.36h6.42Zm0,14.72h-6.42v-7.36h6.42Z"/><rect class="cls-2" x="910.06" y="1389" width="6.42" height="4.01"/><rect class="cls-2" x="663.92" y="1385.79" width="70.04" height="6.42"/><rect class="cls-2" x="952.89" y="1385.79" width="88.12" height="6.42"/><rect class="cls-2" x="608.31" y="2302.89" width="65.16" height="6.42" transform="translate(-1442.95 1128.62) rotate(-45)"/><rect class="cls-2" x="871.19" y="2198.2" width="388.88" height="6.42" transform="translate(-1244.52 1398.3) rotate(-45)"/><rect class="cls-2" x="1162.81" y="2150.83" width="6.42" height="240.51" transform="translate(-1264.4 1489.73) rotate(-45)"/><path class="cls-2" d="M1069.68,2145.41l-4.54,4.54-4.54-4.54,4.54-4.54Zm9.08,9.08-4.54,4.54-4.54-4.54,4.54-4.54Zm9.08,9.08-4.54,4.54-4.54-4.54,4.54-4.54Zm9.08,9.08-4.54,4.54-4.54-4.54,4.54-4.54Zm9.08,9.08-4.54,4.54-4.54-4.54,4.54-4.54Zm9.08,9.08-4.54,4.54-4.54-4.54,4.54-4.54Zm9.08,9.08-4.54,4.54-4.54-4.54,4.54-4.54Zm9.08,9.08-4.54,4.54-4.54-4.54,4.54-4.54Zm9.08,9.08-4.54,4.54-4.54-4.54,4.54-4.54Zm9.08,9.08-4.54,4.54-4.54-4.54,4.54-4.54Zm9.08,9.08-4.54,4.54-4.54-4.54,4.54-4.54Zm9.08,9.08-4.54,4.54-4.54-4.54,4.54-4.54Zm9.08,9.08-4.54,4.54-4.54-4.54,4.54-4.54Zm9.08,9.08-4.54,4.54-4.54-4.54,4.54-4.54Zm9.08,9.08-4.54,4.54-4.54-4.54,4.54-4.54Zm9.08,9.08-4.54,4.54-4.54-4.54,4.54-4.54Zm9.08,9.08-4.54,4.54-4.54-4.54,4.54-4.54Zm9.08,9.08-4.54,4.54-4.54-4.54,4.54-4.54Zm9.08,9.08-4.54,4.54-4.54-4.54,4.54-4.54Zm9.08,9.08-4.54,4.54-4.54-4.54,4.54-4.54Zm9.08,9.08-4.54,4.54-4.54-4.54,4.54-4.54Zm9.08,9.08-4.54,4.54-4.54-4.54,4.54-4.54Z"/><rect class="cls-2" x="110.95" y="1850.46" width="6.42" height="151.7"/><rect class="cls-2" x="149.25" y="1862.3" width="6.42" height="24.32"/><rect class="cls-2" x="140.3" y="1871.24" width="24.32" height="6.42"/><rect class="cls-2" x="58.3" y="2223.05" width="6.42" height="24.32"/><rect class="cls-2" x="49.36" y="2232" width="24.32" height="6.42"/><rect class="cls-2" x="1017.17" y="1845.75" width="6.42" height="24.32"/><rect class="cls-2" x="1008.23" y="1854.69" width="24.32" height="6.42"/><rect class="cls-2" x="242.34" y="1388.97" width="6.42" height="24.31"/><rect class="cls-2" x="233.4" y="1397.91" width="24.32" height="6.42"/><rect class="cls-2" x="1017.17" y="1691.42" width="6.42" height="24.32"/><rect class="cls-2" x="1008.23" y="1700.37" width="24.32" height="6.42"/><rect class="cls-2" x="110.95" y="1352.59" width="6.42" height="85.37"/><path class="cls-2" d="M196.71,1477.85H190.3v-6.42h6.42Zm-12.84,0h-6.42v-6.42h6.42Zm-12.84,0h-6.42v-6.42H171Z"/><rect class="cls-2" x="136.77" y="1471.43" width="27.85" height="6.42"/><rect class="cls-2" x="253.58" y="1853.11" width="6.42" height="162.74"/><rect class="cls-2" x="224.81" y="1969.58" width="91.15" height="6.42"/><rect class="cls-2" y="1819.55" width="114.16" height="6.42"/><polygon class="cls-2" points="632.36 2123.13 528.89 2123.13 528.89 2196.81 652.58 2196.81 652.58 2190.39 535.31 2190.39 535.31 2129.55 632.36 2129.55 632.36 2123.13"/><path class="cls-2" d="M688.16,2129.55h-6.42v-6.42h6.42Zm-12.84,0H668.9v-6.42h6.42Zm-12.84,0h-6.42v-6.42h6.42Zm-12.84,0h-6.42v-6.42h6.42Zm-12.84,0h-4.45v-6.42h4.45Z"/><polygon class="cls-2" points="735.75 2123.13 688.16 2123.13 688.16 2129.55 729.33 2129.55 729.33 2190.39 707.21 2190.39 707.21 2196.81 735.75 2196.81 735.75 2123.13"/><path class="cls-2" d="M707.21,2196.81h-3.27v-6.42h3.27Zm-9.69,0H691.1v-6.42h6.42Zm-12.84,0h-6.42v-6.42h6.42Zm-12.84,0h-6.42v-6.42h6.42Zm-12.84,0h-6.42v-6.42H659Z"/><rect class="cls-2" x="478.2" y="2190.39" width="40.52" height="6.42"/><rect class="cls-2" x="528.89" y="2211.48" width="6.42" height="17.88"/><rect class="cls-2" x="729.33" y="2025.38" width="6.42" height="81.45"/><rect class="cls-2" x="1235.81" y="2064.79" width="6.42" height="177.49" transform="translate(-1159.89 1506.91) rotate(-45)"/><path class="cls-2" d="M1108.71,2278.44h-6.42V2272h6.42Zm0,12.84h-6.42v-6.42h6.42Zm0,12.84h-6.42v-6.42h6.42Zm0,12.84h-6.42v-6.42h6.42Zm0,7.63h-6.42v-1.21h6.42Z"/><rect class="cls-2" x="1102.3" y="2210.57" width="6.42" height="61.45"/><rect class="cls-2" x="202.13" y="1424.12" width="430.23" height="6.42"/><rect class="cls-2" x="218.61" y="1352.59" width="6.42" height="61.2"/><rect class="cls-2" x="730.76" y="1510.68" width="6.42" height="68.05"/><path class="cls-2" d="M688.16,1466.29h-8v-6.42h8Zm-16,0h-8v-6.42h8Zm-16,0h-8v-6.42h8Zm-16,0h-8v-6.42h8Zm-16,0h-8v-6.42h8Zm-16,0h-8v-6.42h8Zm-16,0h-8v-6.42h8Zm-16,0h-8v-6.42h8Z"/><rect class="cls-2" x="878.44" y="1847.58" width="6.42" height="108.16"/><path class="cls-2" d="M840.43,2022.2l-4.54,4.54-4.54-4.54,4.54-4.54Zm-9.08,9.08-4.54,4.54-4.54-4.54,4.54-4.54Zm-9.08,9.08-4.54,4.54-4.54-4.54,4.54-4.54Zm-9.08,9.08-4.54,4.54-4.54-4.54,4.54-4.54Zm-9.08,9.08-4.54,4.54-4.54-4.54,4.54-4.54ZM795,2067.6l-4.54,4.54L786,2067.6l4.54-4.54Zm-9.08,9.08-4.54,4.54-4.54-4.54,4.54-4.54Zm-9.08,9.08-4.54,4.54-4.54-4.54,4.54-4.54Zm-9.08,9.08-4.54,4.54-4.54-4.54,4.54-4.54Zm-9.08,9.08-4.54,4.54-4.54-4.54,4.54-4.54Zm-9.08,9.08-4.54,4.54-4.54-4.54,4.54-4.54Zm-9.08,9.08-4.54,4.54-4.54-4.54,4.54-4.54Z"/><rect class="cls-2" x="878.44" y="2006.78" width="6.42" height="79.53"/><rect class="cls-2" x="940.25" y="1977.45" width="44.62" height="6.42"/><rect class="cls-2" x="1200.06" y="2019.66" width="83.83" height="6.42"/><path class="cls-2" d="M22.41,2020.21H16v-4.36h6.42Zm0,12.84H16v-6.42h6.42Zm0,12.84H16v-6.42h6.42Zm0,12.84H16v-6.42h6.42Zm0,12.84H16v-6.42h6.42Zm0,12.84H16V2078h6.42Zm0,12.84H16v-6.42h6.42Zm0,12.84H16v-6.42h6.42Zm0,12.84H16v-6.42h6.42Zm0,12.84H16v-6.42h6.42Zm0,12.84H16v-6.42h6.42Zm0,12.84H16V2155h6.42Zm0,12.84H16v-6.42h6.42Zm0,12.84H16v-6.42h6.42Zm0,12.84H16v-6.42h6.42Zm0,12.84H16v-6.42h6.42Zm0,12.84H16v-6.42h6.42Zm0,12.84H16v-6.42h6.42Zm0,12.84H16v-6.42h6.42Zm0,12.84H16v-6.42h6.42Zm0,12.84H16v-6.42h6.42Zm0,12.84H16v-6.42h6.42Zm0,12.84H16v-6.42h6.42Zm0,12.84H16v-6.42h6.42Z"/><rect class="cls-2" x="974.02" y="1859.44" width="20.88" height="6.42"/><rect class="cls-2" x="982.04" y="1842.77" width="12.86" height="6.42"/><rect class="cls-2" x="974.02" y="1826.1" width="20.88" height="6.42"/><rect class="cls-2" x="982.04" y="1809.43" width="12.86" height="6.42"/><rect class="cls-2" x="974.02" y="1792.76" width="20.88" height="6.42"/><rect class="cls-2" x="982.04" y="1776.09" width="12.86" height="6.42"/><rect class="cls-2" x="974.02" y="1759.42" width="20.88" height="6.42"/><rect class="cls-2" x="982.04" y="1742.75" width="12.86" height="6.42"/><rect class="cls-2" x="974.02" y="1726.08" width="20.88" height="6.42"/><rect class="cls-2" x="93.28" y="1995.74" width="20.88" height="6.42"/><rect class="cls-2" x="101.3" y="1979.07" width="12.86" height="6.42"/><rect class="cls-2" x="93.28" y="1962.4" width="20.88" height="6.42"/><rect class="cls-2" x="101.3" y="1945.73" width="12.86" height="6.42"/><rect class="cls-2" x="93.28" y="1929.06" width="20.88" height="6.42"/><rect class="cls-2" x="101.3" y="1912.39" width="12.86" height="6.42"/><rect class="cls-2" x="93.28" y="1895.72" width="20.88" height="6.42"/><rect class="cls-2" x="101.3" y="1879.04" width="12.86" height="6.42"/><rect class="cls-2" x="93.28" y="1862.37" width="20.88" height="6.42"/><path class="cls-2" d="M943.46,1674H937v-6.42h6.42Zm0,12.84H937v-6.42h6.42Zm0,12.84H937v-6.42h6.42Zm0,12.84H937v-6.42h6.42Zm0,12.84H937V1719h6.42Zm0,12.84H937v-6.42h6.42Zm0,12.84H937v-6.42h6.42Zm0,12.84H937v-6.42h6.42Zm0,12.84H937v-6.42h6.42Zm0,12.84H937v-6.42h6.42Zm0,12.84H937V1796h6.42Zm0,12.84H937v-6.42h6.42Zm0,12.84H937v-6.42h6.42Zm0,12.84H937v-6.42h6.42Zm0,12.84H937v-6.42h6.42Zm0,12.84H937v-6.42h6.42Z"/><rect class="cls-2" x="936.3" y="1613.36" width="32.78" height="6.42"/><rect class="cls-2" x="1050.29" y="1534.6" width="6.42" height="38.82"/><path class="cls-2" d="M1056.71,1469.5h-6.42v-6.42h6.42Zm0,12.84h-6.42v-6.42h6.42Zm0,12.84h-6.42v-6.42h6.42Zm0,12.84h-6.42v-6.42h6.42Zm0,12.84h-6.42v-6.42h6.42Zm0,12.84h-6.42v-6.42h6.42Z"/><rect class="cls-2" x="1050.29" y="1370.78" width="6.42" height="92.3"/><polygon class="cls-2" points="44.12 1427.33 49.36 1432.57 49.36 1450.74 25.94 1427.33 44.12 1427.33"/><polygon class="cls-2" points="0 1427.33 16.86 1427.33 49.36 1459.82 49.36 1478 0 1428.64 0 1427.33"/><polygon class="cls-2" points="0 1437.72 49.36 1487.08 49.36 1505.25 0 1455.89 0 1437.72"/><polygon class="cls-2" points="0 1546.73 35.25 1581.98 17.07 1581.98 0 1564.9 0 1546.73"/><polygon class="cls-2" points="8 1581.98 0 1581.98 0 1573.98 8 1581.98"/><polygon class="cls-2" points="0 1464.97 49.36 1514.33 49.36 1532.5 0 1483.15 0 1464.97"/><polygon class="cls-2" points="0 1519.48 49.36 1568.83 49.36 1581.98 44.33 1581.98 0 1537.65 0 1519.48"/><polygon class="cls-2" points="0 1492.22 49.36 1541.58 49.36 1559.76 0 1510.4 0 1492.22"/><rect class="cls-2" y="1790.87" width="61.51" height="6.42"/><rect class="cls-2" y="1689.96" width="61.51" height="6.42"/><rect class="cls-2" x="161.41" y="1352.59" width="6.42" height="256.55"/><rect class="cls-2" x="110.95" y="1525.1" width="6.42" height="33.57"/><rect class="cls-2" y="2297.9" width="130.57" height="6.42"/><rect class="cls-2" x="873.46" y="1513.15" width="6.42" height="75.77"/><rect class="cls-2" x="267.15" y="2200.76" width="48.81" height="6.42"/><path class="cls-2" d="M475,2204a62.36,62.36,0,0,0-62.29-62.29v-6.42a68.67,68.67,0,0,1,63.83,94.1h-7A61.9,61.9,0,0,0,475,2204Z"/></g></g></g></svg>