<svg xmlns="http://www.w3.org/2000/svg" viewBox="0 0 251.12 165.41"><defs><style>.cls-1{fill:#0aa;}.cls-2{fill:teal;}</style></defs><title>three-step-process-step-1-cloud-group</title><g id="Layer_2" data-name="Layer 2"><g id="Layer_1-2" data-name="Layer 1"><path class="cls-1" d="M24.89,49.77A24.89,24.89,0,1,1,49.17,19.42a16.34,16.34,0,1,1,8.4,30.35Z"/><path class="cls-1" d="M194.55,45a3.09,3.09,0,0,0-2.77-1.47H176.9a5.09,5.09,0,0,0-4.39,2.76L156.73,79a3.17,3.17,0,0,0,.08,3.1,3.21,3.21,0,0,0,2.75,1.46l11.68.15-8.45,21.13a2.78,2.78,0,0,0,.13,2.77,1.87,1.87,0,0,0,1.53.8h.14a2.81,2.81,0,0,0,2.16-1.28L194,72.85a2.79,2.79,0,0,0-2.27-4.72h-8.69l11.37-20A3.09,3.09,0,0,0,194.55,45Z"/><path class="cls-2" d="M162.16,82.46l15.78-32.77a5.09,5.09,0,0,1,4.39-2.76h12.55a2.87,2.87,0,0,0-.31-2,3.09,3.09,0,0,0-2.77-1.47H176.91a5.09,5.09,0,0,0-4.39,2.76L156.74,79a3.17,3.17,0,0,0,.08,3.1,3.21,3.21,0,0,0,2.75,1.46l2.27,0A3.58,3.58,0,0,1,162.16,82.46Z"/><path class="cls-1" d="M208.5,118.65l-1.11-2.22a33.67,33.67,0,0,0-17.52-16.19l-4.23-1.71,10.07-18,1.09-.6L200.07,78l.2-.09A21.16,21.16,0,0,1,209.12,76a21.43,21.43,0,0,1,20.81,16.61,14,14,0,1,1,7.17,26.08H208.5Z"/><path class="cls-2" d="M198.3,89.77l7.58-13.56a21.09,21.09,0,0,0-5.61,1.67l-.2.09-3.28,1.95-1.09.6L188.17,94h0l-2.54,4.54,4.23,1.71,1,.43h0a33.67,33.67,0,0,1,16.53,15.76l1.11,2.22h9.76a34.18,34.18,0,0,0-17.6-21.19A5.56,5.56,0,0,1,198.3,89.77Z"/><path class="cls-2" d="M19.11,24.89q0-.54,0-1.07a3,3,0,0,1,3-2.86h7.61a4.73,4.73,0,0,0,4.73-4.73v-.44a4.65,4.65,0,0,0-4.87-4.61,3,3,0,0,1-2-5.26q.52-.47,1.06-.9A2.76,2.76,0,0,0,27.21.11Q26.06,0,24.89,0A24.91,24.91,0,0,0,0,25.37C.26,39,11.68,49.77,25.3,49.77H39.07A25.54,25.54,0,0,1,19.11,24.89Z"/><path class="cls-1" d="M178.91,165.4H63.36c-20.15,0-37.07-16.49-37-36.64A36.29,36.29,0,0,1,59,92.73a49.16,49.16,0,0,1,97.91,6.42c0,1.17,0,2.35-.13,3.53a.76.76,0,0,0,1.19.67,33.64,33.64,0,0,1,19.36-6,34,34,0,0,1,2.41,68l-.44.1Z"/><path class="cls-2" d="M113.7,53.54a1.69,1.69,0,0,0-.44-3.25A49.19,49.19,0,0,0,59,92.73a36.29,36.29,0,0,0-32.62,36c-.11,20.15,16.81,36.64,37,36.64H83.53a36.57,36.57,0,0,1-2-72.45H105a7.6,7.6,0,0,0,7.6-7.6h0a7.6,7.6,0,0,0-7.6-7.6H96a4.53,4.53,0,0,1-3.68-7.18A49.63,49.63,0,0,1,113.7,53.54Z"/></g></g></svg>