<svg xmlns="http://www.w3.org/2000/svg" viewBox="0 0 73.9 49.77"><defs><style>.cls-1{fill:#0aa;}.cls-2{fill:teal;}</style></defs><title>three-step-process-step-1-cloud1</title><g id="Layer_2" data-name="Layer 2"><g id="Layer_1-2" data-name="Layer 1"><path class="cls-1" d="M24.89,49.77A24.89,24.89,0,1,1,49.17,19.42a16.34,16.34,0,1,1,8.4,30.35Z"/><path class="cls-2" d="M19.11,24.89q0-.54,0-1.07a3,3,0,0,1,3-2.86h7.61a4.73,4.73,0,0,0,4.73-4.73v-.44a4.65,4.65,0,0,0-4.87-4.61,3,3,0,0,1-2-5.26q.52-.47,1.06-.9A2.76,2.76,0,0,0,27.21.11Q26.06,0,24.89,0A24.91,24.91,0,0,0,0,25.37C.26,39,11.68,49.77,25.3,49.77H39.07A25.54,25.54,0,0,1,19.11,24.89Z"/></g></g></svg>