<svg xmlns="http://www.w3.org/2000/svg" viewBox="0 0 13.25 13.25"><defs><style>.cls-1{fill:#fdc300;}</style></defs><title>download-icon</title><g id="Layer_2" data-name="Layer 2"><g id="Layer_2-2" data-name="Layer 2"><path class="cls-1" d="M6.62,11.1A.64.64,0,0,0,7,11L9.78,8.31a.56.56,0,0,0,0-.72.52.52,0,0,0-.72,0l-2,1.87V2.65a.5.5,0,1,0-1,0V9.46l-2-1.87a.54.54,0,0,0-.72,0,.55.55,0,0,0,0,.72L6.28,11a.49.49,0,0,0,.34.14Zm0,1.16a5.64,5.64,0,1,1,5.64-5.63A5.63,5.63,0,0,1,6.62,12.26Zm0,1A6.63,6.63,0,1,0,0,6.62,6.63,6.63,0,0,0,6.62,13.25Z"/></g></g></svg>