<svg xmlns="http://www.w3.org/2000/svg" viewBox="0 0 26.92 23.93"><defs><style>.cls-1{fill:#fff;}</style></defs><title>house-icon</title><g id="Layer_2" data-name="Layer 2"><g id="Grid"><polygon class="cls-1" points="13.46 4.49 4.49 11.97 4.49 23.93 10.47 23.93 10.47 17.95 16.45 17.95 16.45 23.93 22.44 23.93 22.44 11.97 13.46 4.49"/><polygon class="cls-1" points="13.46 4.49 4.49 11.97 4.49 23.93 10.47 23.93 10.47 17.95 16.45 17.95 16.45 23.93 22.44 23.93 22.44 11.97 13.46 4.49"/><polygon class="cls-1" points="2.99 11.97 13.46 2.99 23.93 11.97 26.92 11.97 13.46 0 0 11.97 2.99 11.97"/><polygon class="cls-1" points="2.99 11.97 13.46 2.99 23.93 11.97 26.92 11.97 13.46 0 0 11.97 2.99 11.97"/><polygon class="cls-1" points="22.44 5.98 19.45 2.99 19.45 0 22.44 0 22.44 5.98"/><polygon class="cls-1" points="22.44 5.98 19.45 2.99 19.45 0 22.44 0 22.44 5.98"/></g></g></svg>