<svg xmlns="http://www.w3.org/2000/svg" viewBox="0 0 32 32"><defs><style>.cls-1{fill:#132442;}</style></defs><title>linkedin-icon</title><g id="Layer_2" data-name="Layer 2"><g id="Layer_2-2" data-name="Layer 2"><path class="cls-1" d="M17,14.82v0l0,0Z"/><path class="cls-1" d="M16,0A16,16,0,1,0,32,16,16,16,0,0,0,16,0ZM11.63,23.65H8.2V13.33h3.43ZM9.92,11.92h0a1.79,1.79,0,1,1,0-3.57,1.79,1.79,0,1,1,0,3.57ZM24,23.65H20.57V18.13c0-1.39-.5-2.33-1.74-2.33A1.88,1.88,0,0,0,17.07,17a2.33,2.33,0,0,0-.11.84v5.76H13.53s0-9.35,0-10.32H17v1.46a3.4,3.4,0,0,1,3.09-1.7c2.26,0,3.95,1.47,3.95,4.64Z"/></g></g></svg>