<svg xmlns="http://www.w3.org/2000/svg" viewBox="0 0 32 32"><defs><style>.cls-1{fill:#8a92a0;}</style></defs><title>twitter-icon</title><g id="Layer_2" data-name="Layer 2"><g id="Layer_2-2" data-name="Layer 2"><path class="cls-1" d="M16,0A16,16,0,1,0,32,16,16,16,0,0,0,16,0Zm6.36,12.74c0,.14,0,.28,0,.42A9.34,9.34,0,0,1,8,21a6.92,6.92,0,0,0,.78,0,6.58,6.58,0,0,0,4.08-1.4,3.29,3.29,0,0,1-3.07-2.28,3.37,3.37,0,0,0,.62.06,3.31,3.31,0,0,0,.86-.12,3.29,3.29,0,0,1-2.63-3.22v0a3.28,3.28,0,0,0,1.49.41,3.29,3.29,0,0,1-1-4.38,9.32,9.32,0,0,0,6.77,3.43,3.29,3.29,0,0,1,5.59-3,6.55,6.55,0,0,0,2.08-.8,3.29,3.29,0,0,1-1.44,1.82A6.55,6.55,0,0,0,24,11,6.66,6.66,0,0,1,22.36,12.74Z"/></g></g></svg>